<svg xmlns="http://www.w3.org/2000/svg" xmlns:xlink="http://www.w3.org/1999/xlink" width="108" height="108" viewBox="0 0 108 108">
  <defs>
    <filter id="Path_978624" x="0" y="0" width="108" height="108" filterUnits="userSpaceOnUse">
      <feOffset dy="3" input="SourceAlpha"/>
      <feGaussianBlur stdDeviation="3" result="blur"/>
      <feFlood flood-opacity="0.161"/>
      <feComposite operator="in" in2="blur"/>
      <feComposite in="SourceGraphic"/>
    </filter>
    <filter id="Path_1076716" x="0" y="0" width="108" height="108" filterUnits="userSpaceOnUse">
      <feOffset dy="3" input="SourceAlpha"/>
      <feGaussianBlur stdDeviation="3" result="blur-2"/>
      <feFlood flood-opacity="0.161"/>
      <feComposite operator="in" in2="blur-2"/>
      <feComposite in="SourceGraphic"/>
    </filter>
  </defs>
  <g id="Group_1223647" data-name="Group 1223647" transform="translate(-196 -6385)">
    <g id="Group_1222798" data-name="Group 1222798">
      <g id="Group_1222513" data-name="Group 1222513" transform="translate(205 6391)">
        <g id="Group_1221054" data-name="Group 1221054" transform="translate(0)">
          <g id="Group_1208503" data-name="Group 1208503">
            <g id="Group_1200660" data-name="Group 1200660">
              <g id="Group_1181203" data-name="Group 1181203">
                <g id="Group_1172348" data-name="Group 1172348">
                  <g id="Group_1171897" data-name="Group 1171897">
                    <g id="Group_1171052" data-name="Group 1171052">
                      <g id="Group_1164581" data-name="Group 1164581">
                        <g id="Group_1144123" data-name="Group 1144123">
                          <g transform="matrix(1, 0, 0, 1, -9, -6)" filter="url(#Path_978624)">
                            <g id="Path_978624-2" data-name="Path 978624" transform="translate(9 6)" fill="#fff9f4">
                              <path d="M 45 88.5 C 39.12687683105469 88.5 33.43022537231445 87.35007476806641 28.06830024719238 85.08217620849609 C 22.88852500915527 82.89131164550781 18.23629951477051 79.75458526611328 14.2408504486084 75.75914764404297 C 10.24541282653809 71.76370239257812 7.108687400817871 67.11147308349609 4.917825222015381 61.93170166015625 C 2.649924993515015 56.56977462768555 1.5 50.87312316894531 1.5 45 C 1.5 39.12687683105469 2.649924993515015 33.43022537231445 4.917825222015381 28.06830024719238 C 7.108687400817871 22.88852500915527 10.24541282653809 18.23629951477051 14.2408504486084 14.2408504486084 C 18.23629951477051 10.24541282653809 22.88852500915527 7.108687400817871 28.06830024719238 4.917825222015381 C 33.43022537231445 2.649924993515015 39.12687683105469 1.5 45 1.5 C 50.87312316894531 1.5 56.56977462768555 2.649924993515015 61.93170166015625 4.917825222015381 C 67.11147308349609 7.108687400817871 71.76370239257812 10.24541282653809 75.75914764404297 14.2408504486084 C 79.75458526611328 18.23629951477051 82.89131164550781 22.88852500915527 85.08217620849609 28.06830024719238 C 87.35007476806641 33.43022537231445 88.5 39.12687683105469 88.5 45 C 88.5 50.87312316894531 87.35007476806641 56.56977462768555 85.08217620849609 61.93170166015625 C 82.89131164550781 67.11147308349609 79.75458526611328 71.76370239257812 75.75914764404297 75.75914764404297 C 71.76370239257812 79.75458526611328 67.11147308349609 82.89131164550781 61.93170166015625 85.08217620849609 C 56.56977462768555 87.35007476806641 50.87312316894531 88.5 45 88.5 Z" stroke="none"/>
                              <path d="M 45 3 C 39.32871246337891 3 33.82865524291992 4.110054016113281 28.65262985229492 6.299339294433594 C 23.65165710449219 8.414573669433594 19.15968322753906 11.44334411621094 15.301513671875 15.301513671875 C 11.44334411621094 19.15968322753906 8.414573669433594 23.65165710449219 6.299339294433594 28.65262985229492 C 4.110054016113281 33.82865524291992 3 39.32871246337891 3 45 C 3 50.67128753662109 4.110054016113281 56.17134475708008 6.299339294433594 61.34737396240234 C 8.414573669433594 66.34834289550781 11.44334411621094 70.84031677246094 15.301513671875 74.698486328125 C 19.15968322753906 78.55665588378906 23.65165710449219 81.58542633056641 28.65262985229492 83.70066070556641 C 33.82865524291992 85.88994598388672 39.32871246337891 87 45 87 C 50.67128753662109 87 56.17134475708008 85.88994598388672 61.34737396240234 83.70066070556641 C 66.34834289550781 81.58542633056641 70.84031677246094 78.55665588378906 74.698486328125 74.698486328125 C 78.55665588378906 70.84031677246094 81.58542633056641 66.34834289550781 83.70066070556641 61.34737396240234 C 85.88994598388672 56.17134475708008 87 50.67128753662109 87 45 C 87 39.32871246337891 85.88994598388672 33.82865524291992 83.70066070556641 28.65262985229492 C 81.58542633056641 23.65165710449219 78.55665588378906 19.15968322753906 74.698486328125 15.301513671875 C 70.84031677246094 11.44334411621094 66.34834289550781 8.414573669433594 61.34737396240234 6.299339294433594 C 56.17134475708008 4.110054016113281 50.67128753662109 3 45 3 M 45 0 C 69.85281372070312 0 90 20.14718627929688 90 45 C 90 69.85281372070312 69.85281372070312 90 45 90 C 20.14718627929688 90 0 69.85281372070312 0 45 C 0 20.14718627929688 20.14718627929688 0 45 0 Z" stroke="none" fill="#8b7157"/>
                            </g>
                          </g>
                          <g transform="matrix(1, 0, 0, 1, -9, -6)" filter="url(#Path_1076716)">
                            <g id="Path_1076716-2" data-name="Path 1076716" transform="translate(9 6)" fill="#fff9f4">
                              <path d="M 45 88.5 C 39.12687683105469 88.5 33.43022537231445 87.35007476806641 28.06830024719238 85.08217620849609 C 22.88852500915527 82.89131164550781 18.23629951477051 79.75458526611328 14.2408504486084 75.75914764404297 C 10.24541282653809 71.76370239257812 7.108687400817871 67.11147308349609 4.917825222015381 61.93170166015625 C 2.649924993515015 56.56977462768555 1.5 50.87312316894531 1.5 45 C 1.5 39.12687683105469 2.649924993515015 33.43022537231445 4.917825222015381 28.06830024719238 C 7.108687400817871 22.88852500915527 10.24541282653809 18.23629951477051 14.2408504486084 14.2408504486084 C 18.23629951477051 10.24541282653809 22.88852500915527 7.108687400817871 28.06830024719238 4.917825222015381 C 33.43022537231445 2.649924993515015 39.12687683105469 1.5 45 1.5 C 50.87312316894531 1.5 56.56977462768555 2.649924993515015 61.93170166015625 4.917825222015381 C 67.11147308349609 7.108687400817871 71.76370239257812 10.24541282653809 75.75914764404297 14.2408504486084 C 79.75458526611328 18.23629951477051 82.89131164550781 22.88852500915527 85.08217620849609 28.06830024719238 C 87.35007476806641 33.43022537231445 88.5 39.12687683105469 88.5 45 C 88.5 50.87312316894531 87.35007476806641 56.56977462768555 85.08217620849609 61.93170166015625 C 82.89131164550781 67.11147308349609 79.75458526611328 71.76370239257812 75.75914764404297 75.75914764404297 C 71.76370239257812 79.75458526611328 67.11147308349609 82.89131164550781 61.93170166015625 85.08217620849609 C 56.56977462768555 87.35007476806641 50.87312316894531 88.5 45 88.5 Z" stroke="none"/>
                              <path d="M 45 3 C 39.32871246337891 3 33.82865524291992 4.110054016113281 28.65262985229492 6.299339294433594 C 23.65165710449219 8.414573669433594 19.15968322753906 11.44334411621094 15.301513671875 15.301513671875 C 11.44334411621094 19.15968322753906 8.414573669433594 23.65165710449219 6.299339294433594 28.65262985229492 C 4.110054016113281 33.82865524291992 3 39.32871246337891 3 45 C 3 50.67128753662109 4.110054016113281 56.17134475708008 6.299339294433594 61.34737396240234 C 8.414573669433594 66.34834289550781 11.44334411621094 70.84031677246094 15.301513671875 74.698486328125 C 19.15968322753906 78.55665588378906 23.65165710449219 81.58542633056641 28.65262985229492 83.70066070556641 C 33.82865524291992 85.88994598388672 39.32871246337891 87 45 87 C 50.67128753662109 87 56.17134475708008 85.88994598388672 61.34737396240234 83.70066070556641 C 66.34834289550781 81.58542633056641 70.84031677246094 78.55665588378906 74.698486328125 74.698486328125 C 78.55665588378906 70.84031677246094 81.58542633056641 66.34834289550781 83.70066070556641 61.34737396240234 C 85.88994598388672 56.17134475708008 87 50.67128753662109 87 45 C 87 39.32871246337891 85.88994598388672 33.82865524291992 83.70066070556641 28.65262985229492 C 81.58542633056641 23.65165710449219 78.55665588378906 19.15968322753906 74.698486328125 15.301513671875 C 70.84031677246094 11.44334411621094 66.34834289550781 8.414573669433594 61.34737396240234 6.299339294433594 C 56.17134475708008 4.110054016113281 50.67128753662109 3 45 3 M 45 0 C 69.85281372070312 0 90 20.14718627929688 90 45 C 90 69.85281372070312 69.85281372070312 90 45 90 C 20.14718627929688 90 0 69.85281372070312 0 45 C 0 20.14718627929688 20.14718627929688 0 45 0 Z" stroke="none" fill="#8b7157"/>
                            </g>
                          </g>
                        </g>
                      </g>
                    </g>
                  </g>
                </g>
              </g>
            </g>
          </g>
        </g>
      </g>
      <g id="no-drogas_2_" data-name="no-drogas (2)" transform="translate(216.819 6402.819)">
        <g id="Group_1222796" data-name="Group 1222796" transform="translate(0.972 0.972)">
          <g id="Group_1222795" data-name="Group 1222795">
            <path id="Path_1174244" data-name="Path 1174244" d="M209.034,168.564l-14.845,12.883-2.985-4.755,6.132-6.132c.759-.759,10.406-9.175,11.165-8.416l3.224,3.224C212.485,166.127,209.793,167.8,209.034,168.564Z" transform="translate(-167.393 -142.058)" fill="#6cf5c2"/>
            <path id="Path_1174245" data-name="Path 1174245" d="M222.906,174.357l-2.987-2.987a1.944,1.944,0,0,1,0,2.749L205.1,188.936l4.172,1.8,12.106-12.106C222.14,177.873,223.666,175.116,222.906,174.357Z" transform="translate(-179.491 -150.13)" fill="#05e39c"/>
            <path id="Path_1174246" data-name="Path 1174246" d="M247.847,151.574l-9.332,9.332h5.974l8.416-4.275a1.944,1.944,0,0,0,0-2.749l-2.307-2.307A1.944,1.944,0,0,0,247.847,151.574Z" transform="translate(-208.572 -132.404)" fill="#f2fbff"/>
            <path id="Path_1174247" data-name="Path 1174247" d="M290.947,159.977l-6.346,6.346h5.974l3.359-3.359a1.944,1.944,0,0,0,0-2.749l-2.987-2.987A1.944,1.944,0,0,1,290.947,159.977Z" transform="translate(-248.685 -137.821)" fill="#c8effe"/>
            <path id="Path_1174248" data-name="Path 1174248" d="M0,0H9.057V3.746H0Z" transform="translate(15.95 44.928) rotate(-45)" fill="#f2fbff"/>
            <path id="Path_1174249" data-name="Path 1174249" d="M0,0H9.057V2.5H0Z" transform="translate(17.715 46.693) rotate(-45)" fill="#c8effe"/>
            <path id="Path_1174250" data-name="Path 1174250" d="M111.456,344.445a2.162,2.162,0,0,1-3.057,0l-4.033-4.033a2.162,2.162,0,0,1,3.057-3.057l4.033,4.033A2.162,2.162,0,0,1,111.456,344.445Z" transform="translate(-91.259 -294.05)" fill="#6354b1"/>
            <path id="Path_1174251" data-name="Path 1174251" d="M165.443,272.537a2.162,2.162,0,0,1-3.057,0l-7.169-7.169a2.162,2.162,0,1,1,3.057-3.057l7.169,7.169A2.162,2.162,0,0,1,165.443,272.537Z" transform="translate(-135.519 -228.733)" fill="#6354b1"/>
            <path id="Path_1174252" data-name="Path 1174252" d="M131.4,361.33l-2.749-2.75a2.162,2.162,0,0,1-3.057,3.057l2.749,2.75a2.162,2.162,0,1,0,3.057-3.057Z" transform="translate(-110.286 -313.076)" fill="#463b84"/>
            <path id="Path_1174253" data-name="Path 1174253" d="M206.444,310.478l-2.749-2.75a2.162,2.162,0,0,1-3.057,3.057l2.749,2.75a2.162,2.162,0,0,0,3.057-3.057Z" transform="translate(-175.604 -268.815)" fill="#463b84"/>
            <path id="Path_1174254" data-name="Path 1174254" d="M39.709,7.961c-.651,0-1.3-.11-1.944-.072A32.21,32.21,0,0,0,16.934,62.815a31.972,31.972,0,0,0,20.831,9.376c.645.038,1.293-.072,1.944-.072,8.6,0,15.4-3.221,21.479-9.3A32,32,0,0,0,70.622,40.04c0-8.6-2.184-16.562-8.267-22.646A31.7,31.7,0,0,0,39.709,7.961ZM20.327,59.422A27.411,27.411,0,0,1,18.7,22.428L57.321,61.045a27.411,27.411,0,0,1-36.994-1.622ZM67.12,40.04a27.2,27.2,0,0,1-6.406,17.612L22.1,19.035a27.411,27.411,0,0,1,45.022,21Z" transform="translate(-7.5 -7.831)" fill="#fd3581"/>
            <g id="Group_1222794" data-name="Group 1222794" transform="translate(30.265)">
              <path id="Path_1174255" data-name="Path 1174255" d="M265.719,16.934A32,32,0,0,0,242.944,7.5c-.651,0-1.3.022-1.944.06a32.208,32.208,0,0,1,20.831,54.925A31.971,31.971,0,0,1,241,71.858c.645.038,1.293.06,1.944.06a32.209,32.209,0,0,0,22.775-54.984Z" transform="translate(-241 -7.5)" fill="#e30256"/>
            </g>
            <path id="Path_1174256" data-name="Path 1174256" d="M360.03,225.407c2.208,2.208,2.351,4.733.144,6.94a5.264,5.264,0,0,1-7.118.888c-.262-.185-.065-.988-.3-1.222s-.891.109-1.076-.153a5.656,5.656,0,0,1,3.135-8.7C356.708,222.639,358.543,223.92,360.03,225.407Z" transform="translate(-306.176 -195.102)" fill="#fec165"/>
            <path id="Path_1174257" data-name="Path 1174257" d="M387.982,224.337c-.234-.234-.211-.717-.473-.9a5.659,5.659,0,0,0-4.741-.826,5.652,5.652,0,0,1,0,10.9,5.653,5.653,0,0,0,6.117-8.7C388.7,224.548,388.217,224.572,387.982,224.337Z" transform="translate(-334.128 -194.554)" fill="#fea613"/>
            <path id="Path_1174258" data-name="Path 1174258" d="M212.925,76.735c0,3.122-1.235,5.523-4.357,5.523A5.082,5.082,0,0,1,203,77.707c-.055-.316,1.213-.641,1.213-.972s-1.269-.645-1.216-.956a5.083,5.083,0,0,1,5.573-4.568C211.69,71.212,212.925,73.613,212.925,76.735Z" transform="translate(-177.655 -62.941)" fill="#fec165"/>
            <path id="Path_1174259" data-name="Path 1174259" d="M235.991,70.306a5.653,5.653,0,0,0-1.491.2,5.653,5.653,0,0,1,0,10.906,5.654,5.654,0,0,0,7.06-4.48c.055-.316-1.213-.641-1.213-.973s1.268-.656,1.213-.972A5.655,5.655,0,0,0,235.991,70.306Z" transform="translate(-205.078 -62.165)" fill="#fea613"/>
          </g>
        </g>
        <g id="Group_1222797" data-name="Group 1222797" transform="translate(0)">
          <path id="Path_1174260" data-name="Path 1174260" d="M56.644,9.718A33.185,33.185,0,0,0,11.31,8.226a.972.972,0,1,0,1.283,1.46,31.231,31.231,0,1,1-2.907,2.907.972.972,0,0,0-1.46-1.283A33.182,33.182,0,1,0,56.644,9.718Z" transform="translate(0)"/>
          <path id="Path_1174261" data-name="Path 1174261" d="M142.466,74.645l9.057,9.058a.972.972,0,0,0,.688.285h.042a.973.973,0,0,0,.7-.345,28.383,28.383,0,0,0-39.986-39.986.972.972,0,0,0-.061,1.431l26.621,26.621a.972.972,0,0,0,1.375-1.375l-3.639-3.639,7.669-7.669a2.92,2.92,0,0,0,0-4.124l-.925-.925,4.057-4.057a.972.972,0,0,0-1.375-1.375L142.634,52.6l-.925-.925a2.92,2.92,0,0,0-4.124,0L135.3,53.964a.972.972,0,0,0,1.375,1.375l2.287-2.287a.973.973,0,0,1,1.375,0l3.224,3.224a.973.973,0,0,1,0,1.375l-3.074,3.074H131.3l0,0,2.386-2.386A.972.972,0,1,0,132.3,56.96l-2.386,2.386-14.87-14.871a26.442,26.442,0,0,1,37.089,37.089l-8.294-8.294a.972.972,0,1,0-1.375,1.375ZM138.54,62.669l-2.65,2.65-2.65-2.65Z" transform="translate(-98.026 -32.223)"/>
          <path id="Path_1174262" data-name="Path 1174262" d="M44.357,112.621a.973.973,0,0,0-.7.345A28.383,28.383,0,0,0,83.64,152.953a.972.972,0,0,0,.062-1.431L45.086,112.905A.966.966,0,0,0,44.357,112.621ZM65.4,157.643a26.442,26.442,0,0,1-20.928-42.6l14.87,14.87L57,132.254l-.369-.369a3.134,3.134,0,0,0-4.432,4.432l1.589,1.589-3.727,3.727-.021-.021a3.134,3.134,0,0,0-4.432,4.432l4.95,4.949a3.134,3.134,0,1,0,4.432-4.432l-.021-.021,3.727-3.727,1.589,1.589a3.134,3.134,0,1,0,4.432-4.432l-.368-.368,2.34-2.34,14.87,14.87A26.039,26.039,0,0,1,65.4,157.643Zm-.085-21.755-2.34,2.341-4.6-4.6,2.34-2.34Zm-11.7,12.05a1.19,1.19,0,0,1-1.683,1.682l-4.95-4.949a1.19,1.19,0,0,1,1.683-1.682Zm-2.179-4.928,3.727-3.727,2.157,2.157L53.6,145.166Zm2.137-8.066a1.19,1.19,0,0,1,1.683-1.682l8.085,8.085a1.19,1.19,0,0,1-1.683,1.682Z" transform="translate(-32.222 -98.023)"/>
          <path id="Path_1174263" data-name="Path 1174263" d="M349.8,228.168a6.622,6.622,0,1,0-4.685-1.937A6.6,6.6,0,0,0,349.8,228.168Zm3.31-3.312a4.688,4.688,0,0,1-5.86.615L353.724,219A4.689,4.689,0,0,1,353.109,224.856Zm-6.62-6.62a4.688,4.688,0,0,1,5.86-.615l-6.475,6.475A4.688,4.688,0,0,1,346.489,218.236Z" transform="translate(-298.697 -187.067)"/>
          <path id="Path_1174264" data-name="Path 1174264" d="M194.886,69.432a6.625,6.625,0,1,0,6.625-6.625A6.633,6.633,0,0,0,194.886,69.432Zm6.625,4.681a4.689,4.689,0,0,1-4.579-3.709h9.157A4.689,4.689,0,0,1,201.511,74.113Zm4.579-5.653h-9.158a4.681,4.681,0,0,1,9.158,0Z" transform="translate(-169.626 -54.666)"/>
        </g>
      </g>
    </g>
  </g>
</svg>
