<svg xmlns="http://www.w3.org/2000/svg" xmlns:xlink="http://www.w3.org/1999/xlink" width="113" height="113" viewBox="0 0 113 113">
  <defs>
    <filter id="Path_982547" x="0" y="0" width="113" height="113" filterUnits="userSpaceOnUse">
      <feOffset dy="3" input="SourceAlpha"/>
      <feGaussianBlur stdDeviation="3" result="blur"/>
      <feFlood flood-opacity="0.161"/>
      <feComposite operator="in" in2="blur"/>
      <feComposite in="SourceGraphic"/>
    </filter>
  </defs>
  <g id="Group_1223658" data-name="Group 1223658" transform="translate(-586 -8013.033)">
    <g id="Group_1222919" data-name="Group 1222919">
      <g id="Group_1219079" data-name="Group 1219079" transform="translate(0 923.189)">
        <g id="Group_1217874" data-name="Group 1217874" transform="translate(-1.234 -2607)">
          <g id="Group_1216306" data-name="Group 1216306" transform="translate(596.234 9702.844)">
            <g id="Group_1208705" data-name="Group 1208705">
              <g id="Group_1148633" data-name="Group 1148633">
                <g id="Group_1148525" data-name="Group 1148525">
                  <g transform="matrix(1, 0, 0, 1, -9, -6)" filter="url(#Path_982547)">
                    <g id="Path_982547-2" data-name="Path 982547" transform="translate(9 6)" fill="#ffe6ef">
                      <path d="M 47.5 93.5 C 41.28937149047852 93.5 35.26533508300781 92.28397369384766 29.59518623352051 89.88570404052734 C 24.11771965026855 87.56893157958984 19.19813346862793 84.25196075439453 14.97309303283691 80.02691650390625 C 10.74804019927979 75.80186462402344 7.431066513061523 70.88229370117188 5.114293098449707 65.40481567382812 C 2.716026782989502 59.73468017578125 1.5 53.71062850952148 1.5 47.5 C 1.5 41.28937149047852 2.716026782989502 35.26533508300781 5.114293098449707 29.59518623352051 C 7.431066513061523 24.11771965026855 10.74804019927979 19.19813346862793 14.97309303283691 14.97309303283691 C 19.19813346862793 10.74804019927979 24.11771965026855 7.431066513061523 29.59518623352051 5.114293098449707 C 35.26533508300781 2.716026782989502 41.28937149047852 1.5 47.5 1.5 C 53.71062850952148 1.5 59.73468017578125 2.716026782989502 65.40481567382812 5.114293098449707 C 70.88229370117188 7.431066513061523 75.80186462402344 10.74804019927979 80.02691650390625 14.97309303283691 C 84.25196075439453 19.19813346862793 87.56893157958984 24.11771965026855 89.88570404052734 29.59518623352051 C 92.28397369384766 35.26533508300781 93.5 41.28937149047852 93.5 47.5 C 93.5 53.71062850952148 92.28397369384766 59.73468017578125 89.88570404052734 65.40481567382812 C 87.56893157958984 70.88229370117188 84.25196075439453 75.80186462402344 80.02691650390625 80.02691650390625 C 75.80186462402344 84.25196075439453 70.88229370117188 87.56893157958984 65.40481567382812 89.88570404052734 C 59.73468017578125 92.28397369384766 53.71062850952148 93.5 47.5 93.5 Z" stroke="none"/>
                      <path d="M 47.5 3 C 41.49121475219727 3 35.66376876831055 4.176155090332031 30.17950439453125 6.495796203613281 C 24.88084411621094 8.736953735351562 20.12152099609375 11.94598388671875 16.03375244140625 16.03375244140625 C 11.94598388671875 20.12152099609375 8.736953735351562 24.88084411621094 6.495796203613281 30.17950439453125 C 4.176155090332031 35.66376876831055 3 41.49121475219727 3 47.5 C 3 53.50878524780273 4.176155090332031 59.33623123168945 6.495796203613281 64.82049560546875 C 8.736953735351562 70.11915588378906 11.94598388671875 74.87847900390625 16.03375244140625 78.96624755859375 C 20.12152099609375 83.05401611328125 24.88084411621094 86.26304626464844 30.17950439453125 88.50419616699219 C 35.66376876831055 90.82384490966797 41.49121475219727 92 47.5 92 C 53.50878524780273 92 59.33623123168945 90.82384490966797 64.82049560546875 88.50419616699219 C 70.11915588378906 86.26304626464844 74.87847900390625 83.05401611328125 78.96624755859375 78.96624755859375 C 83.05401611328125 74.87847900390625 86.26304626464844 70.11915588378906 88.50419616699219 64.82049560546875 C 90.82384490966797 59.33623123168945 92 53.50878524780273 92 47.5 C 92 41.49121475219727 90.82384490966797 35.66376876831055 88.50419616699219 30.17950439453125 C 86.26304626464844 24.88084411621094 83.05401611328125 20.12152099609375 78.96624755859375 16.03375244140625 C 74.87847900390625 11.94598388671875 70.11915588378906 8.736953735351562 64.82049560546875 6.495796203613281 C 59.33623123168945 4.176155090332031 53.50878524780273 3 47.5 3 M 47.5 0 C 73.7335205078125 0 95 21.2664794921875 95 47.5 C 95 73.7335205078125 73.7335205078125 95 47.5 95 C 21.2664794921875 95 0 73.7335205078125 0 47.5 C 0 21.2664794921875 21.2664794921875 0 47.5 0 Z" stroke="none" fill="#ffadcc"/>
                    </g>
                  </g>
                </g>
              </g>
            </g>
          </g>
        </g>
      </g>
      <g id="Layer_55" transform="translate(602.277 8032.588)">
        <g id="Group_1222918" data-name="Group 1222918" transform="translate(0 0)">
          <g id="Group_1222860" data-name="Group 1222860" transform="translate(30.117 29.775)">
            <path id="Path_1174386" data-name="Path 1174386" d="M106.857,93.807c-3.874,4.871-9.588,4.184-11.51,3.782a.566.566,0,0,0-.684.547v8.539a10.606,10.606,0,1,0,21.212,0V97.228c0-.055,0-.111,0-.166a.568.568,0,0,0-.548-.557c-4.406-.129-6.728-1.875-7.62-2.75A.571.571,0,0,0,106.857,93.807Z" transform="translate(-94.663 -93.59)" fill="#f9d0b4"/>
          </g>
          <g id="Group_1222861" data-name="Group 1222861" transform="translate(51.302 34.777)">
            <path id="Path_1174387" data-name="Path 1174387" d="M161.96,109.312a4.4,4.4,0,0,0-.681.054V117.4c0,.239-.011.476-.027.711a4.426,4.426,0,1,0,.707-8.795Z" transform="translate(-161.253 -109.312)" fill="#f9d0b4"/>
          </g>
          <g id="Group_1222862" data-name="Group 1222862" transform="translate(25.008 34.777)">
            <path id="Path_1174388" data-name="Path 1174388" d="M83.714,117.4v-8.029a4.43,4.43,0,1,0,.027,8.74h0C83.725,117.871,83.714,117.634,83.714,117.4Z" transform="translate(-78.606 -109.312)" fill="#f9d0b4"/>
          </g>
          <g id="Group_1222863" data-name="Group 1222863" transform="translate(18.639 52.263)">
            <path id="Path_1174389" data-name="Path 1174389" d="M101.38,192.66a1.374,1.374,0,0,0,1.372-1.454l-.846-14.587a4.186,4.186,0,0,0-3.157-3.826l-6.088-1.533a20.777,20.777,0,0,1-2.02-.623l-4.551,5.251a1.163,1.163,0,0,1-1.64.117l-2.029-1.758a1.163,1.163,0,0,1-.117-1.64l3.915-4.517A3.651,3.651,0,0,1,85.557,166v-1.726a10.52,10.52,0,0,1-9.772,0V166a3.654,3.654,0,0,1-.681,2.123l3.887,4.485a1.163,1.163,0,0,1-.117,1.64l-2.029,1.758a1.163,1.163,0,0,1-1.64-.117l-4.539-5.237a20.677,20.677,0,0,1-1.977.607l-6.1,1.534a4.186,4.186,0,0,0-3.157,3.826l-.846,14.587a1.374,1.374,0,0,0,1.372,1.454H101.38Z" transform="translate(-58.588 -164.273)" fill="#3caadc"/>
          </g>
          <g id="Group_1222864" data-name="Group 1222864" transform="translate(52.644 13.548)">
            <path id="Path_1174390" data-name="Path 1174390" d="M179.543,42.584a14,14,0,0,0-4.033,27.435,1.455,1.455,0,0,1,1.042,1.4v2.3a.524.524,0,0,0,.857.4l4.28-3.519a1.491,1.491,0,0,1,.646-.3,14,14,0,0,0-2.793-27.709Z" transform="translate(-165.471 -42.583)" fill="#edf4fc"/>
          </g>
          <g id="Group_1222865" data-name="Group 1222865" transform="translate(0.795 13.548)">
            <path id="Path_1174391" data-name="Path 1174391" d="M16.434,42.584a14,14,0,0,1,4.033,27.435,1.455,1.455,0,0,0-1.042,1.4v2.3a.524.524,0,0,1-.857.4L14.287,70.6a1.491,1.491,0,0,0-.646-.3,14,14,0,0,1,2.793-27.709Z" transform="translate(-2.5 -42.583)" fill="#edf4fc"/>
          </g>
          <g id="Group_1222866" data-name="Group 1222866" transform="translate(26.673 19.895)">
            <path id="Path_1174392" data-name="Path 1174392" d="M109.812,69.95a13.828,13.828,0,0,1,.55-3.63,6,6,0,0,0-7.268-.82,6.064,6.064,0,0,0-5.2-2.965H94.786a10.959,10.959,0,0,0-9.1,4.884,13.942,13.942,0,0,1-1.847,10.194v.775a4.405,4.405,0,0,1,2.763-.971,4.483,4.483,0,0,1,.681.054v-.51a.566.566,0,0,1,.684-.547c1.921.4,7.636,1.09,11.51-3.782a.571.571,0,0,1,.849-.053c.892.875,3.214,2.621,7.62,2.75a.569.569,0,0,1,.548.557c0,.055,0,.11,0,.166v1.419a4.4,4.4,0,0,1,3.752,1.189v-.575a13.939,13.939,0,0,1-2.434-8.133Z" transform="translate(-83.839 -62.534)" fill="#754e34"/>
          </g>
          <g id="Group_1222867" data-name="Group 1222867" transform="translate(35.155 52.262)">
            <path id="Path_1174393" data-name="Path 1174393" d="M114.388,172.606a1.151,1.151,0,0,1,.277.667h2.758a1.155,1.155,0,0,1,.277-.667l3.915-4.517a3.651,3.651,0,0,1-.661-2.091v-1.726a10.52,10.52,0,0,1-9.772,0V166a3.654,3.654,0,0,1-.681,2.123Z" transform="translate(-110.5 -164.272)" fill="#f9d0b4"/>
          </g>
          <g id="Group_1222868" data-name="Group 1222868" transform="translate(42.071 56.08)">
            <path id="Path_1174394" data-name="Path 1174394" d="M134.668,184.188a1.163,1.163,0,0,0,1.64-.117l4.551-5.251a20.806,20.806,0,0,1-2.2-.943c-.593-.3-1.106-.557-1.2-.618a3.665,3.665,0,0,1-1.019-.987l-3.915,4.517a1.163,1.163,0,0,0,.117,1.64Z" transform="translate(-132.238 -176.272)" fill="#70d6f9"/>
          </g>
          <g id="Group_1222869" data-name="Group 1222869" transform="translate(30.717 56.112)">
            <path id="Path_1174395" data-name="Path 1174395" d="M99.762,177.461c-.05.027-.5.253-1.049.522a20.721,20.721,0,0,1-2.162.918l4.539,5.237a1.163,1.163,0,0,0,1.64.117l2.029-1.758a1.163,1.163,0,0,0,.117-1.64l-3.887-4.485A3.662,3.662,0,0,1,99.762,177.461Z" transform="translate(-96.551 -176.371)" fill="#70d6f9"/>
          </g>
          <g id="Group_1222870" data-name="Group 1222870" transform="translate(18.639 75.497)">
            <path id="Path_1174396" data-name="Path 1174396" d="M59.962,242.456h6.1V237.3H58.8L58.59,241A1.374,1.374,0,0,0,59.962,242.456Z" transform="translate(-58.588 -237.303)" fill="#f9d0b4"/>
          </g>
          <g id="Group_1222871" data-name="Group 1222871" transform="translate(55.49 75.497)">
            <path id="Path_1174397" data-name="Path 1174397" d="M181.515,237.3h-7.1v5.153h5.942A1.374,1.374,0,0,0,181.73,241Z" transform="translate(-174.416 -237.303)" fill="#f9d0b4"/>
          </g>
          <g id="Group_1222872" data-name="Group 1222872" transform="translate(29.321 28.98)">
            <path id="Path_1174398" data-name="Path 1174398" d="M103.564,116.372a11.414,11.414,0,0,1-11.4-11.4V96.439a1.35,1.35,0,0,1,.5-1.055,1.364,1.364,0,0,1,1.142-.277c2.047.429,7.191.946,10.724-3.5a1.367,1.367,0,0,1,2.028-.127c.732.718,2.888,2.4,7.086,2.523a1.361,1.361,0,0,1,1.319,1.336l0,.182v9.448a11.414,11.414,0,0,1-11.4,11.4ZM93.754,96.717v8.253a9.811,9.811,0,0,0,19.621,0V95.586a11.859,11.859,0,0,1-7.753-2.8c-4.005,4.841-9.784,4.316-11.869,3.931Zm11.4-4.614h0Z" transform="translate(-92.163 -91.09)"/>
          </g>
          <g id="Group_1222873" data-name="Group 1222873" transform="translate(50.813 33.982)">
            <path id="Path_1174399" data-name="Path 1174399" d="M160.913,117.259a4.678,4.678,0,0,1-.481-.025.8.8,0,1,1,.16-1.582c.106.01.212.017.321.017a3.633,3.633,0,0,0,0-7.265c-.107,0-.212.005-.316.015a.8.8,0,0,1-.146-1.584c.154-.014.309-.021.462-.021a5.223,5.223,0,0,1,0,10.447Z" transform="translate(-159.716 -106.812)"/>
          </g>
          <g id="Group_1222874" data-name="Group 1222874" transform="translate(24.212 33.981)">
            <path id="Path_1174400" data-name="Path 1174400" d="M81.328,117.258a5.223,5.223,0,0,1,0-10.447,5.163,5.163,0,0,1,.52.027.8.8,0,0,1-.16,1.582,3.591,3.591,0,0,0-.36-.019,3.633,3.633,0,0,0,0,7.266c.1,0,.191-.005.285-.014a.8.8,0,0,1,.146,1.584C81.618,117.251,81.474,117.258,81.328,117.258Z" transform="translate(-76.105 -106.811)"/>
          </g>
          <g id="Group_1222875" data-name="Group 1222875" transform="translate(17.844 51.638)">
            <path id="Path_1174401" data-name="Path 1174401" d="M99.675,192.117H58.256a2.17,2.17,0,0,1-2.166-2.3l.846-14.587a4.959,4.959,0,0,1,3.757-4.552l6.1-1.534a19.806,19.806,0,0,0,1.9-.584.8.8,0,0,1,.871.227L74.1,174.03a.369.369,0,0,0,.519.037l2.029-1.758a.368.368,0,0,0,.037-.519L72.8,167.3a.8.8,0,0,1-.046-.983,2.846,2.846,0,0,0,.533-1.661v-1.5a.8.8,0,0,1,1.591,0v1.5a4.418,4.418,0,0,1-.5,2.04l3.508,4.047a1.959,1.959,0,0,1-.2,2.763l-2.028,1.758a1.958,1.958,0,0,1-2.762-.2l-4.186-4.83c-.517.173-1.031.324-1.535.45l-6.1,1.534a3.375,3.375,0,0,0-2.557,3.1l-.846,14.588a.578.578,0,0,0,.577.612H99.675a.578.578,0,0,0,.577-.612l-.846-14.587a3.375,3.375,0,0,0-2.557-3.1l-6.088-1.532c-.519-.131-1.048-.287-1.578-.465l-4.2,4.843a1.961,1.961,0,0,1-2.763.2l-2.029-1.758a1.958,1.958,0,0,1-.2-2.762l3.538-4.083a4.421,4.421,0,0,1-.479-2v-1.554a.8.8,0,1,1,1.591,0v1.554a2.85,2.85,0,0,0,.518,1.637.8.8,0,0,1-.051.976L81.2,171.789a.367.367,0,0,0,.037.518l2.029,1.758a.368.368,0,0,0,.519-.037l4.551-5.251a.8.8,0,0,1,.873-.227,20.1,20.1,0,0,0,1.942.6l6.088,1.532A4.959,4.959,0,0,1,101,175.237l.846,14.585a2.171,2.171,0,0,1-2.166,2.3Z" transform="translate(-56.087 -162.31)"/>
          </g>
          <g id="Group_1222876" data-name="Group 1222876" transform="translate(54.694 67.143)">
            <path id="Path_1174402" data-name="Path 1174402" d="M172.711,225.245a.8.8,0,0,1-.8-.8V211.841a.8.8,0,1,1,1.591,0V224.45A.8.8,0,0,1,172.711,225.245Z" transform="translate(-171.916 -211.046)"/>
          </g>
          <g id="Group_1222877" data-name="Group 1222877" transform="translate(25.315 67.143)">
            <path id="Path_1174403" data-name="Path 1174403" d="M80.364,225.245a.8.8,0,0,1-.8-.8V211.841a.8.8,0,1,1,1.591,0V224.45A.8.8,0,0,1,80.364,225.245Z" transform="translate(-79.569 -211.046)"/>
          </g>
          <g id="Group_1222878" data-name="Group 1222878" transform="translate(51.849 12.752)">
            <path id="Path_1174404" data-name="Path 1174404" d="M175.376,73.327a1.327,1.327,0,0,1-.567-.128,1.308,1.308,0,0,1-.756-1.193v-2.3a.662.662,0,0,0-.471-.633,14.8,14.8,0,0,1,4.189-28.994h.073a14.8,14.8,0,0,1,2.951,29.282.708.708,0,0,0-.3.14l-4.28,3.519A1.312,1.312,0,0,1,175.376,73.327Zm2.395-31.654a13.209,13.209,0,0,0-3.74,25.877,2.262,2.262,0,0,1,1.613,2.159v1.722l3.837-3.155a2.3,2.3,0,0,1,.989-.469,13.207,13.207,0,0,0-2.634-26.134h-.065Z" transform="translate(-162.971 -40.083)"/>
          </g>
          <g id="Group_1222879" data-name="Group 1222879" transform="translate(0 12.752)">
            <path id="Path_1174405" data-name="Path 1174405" d="M17.193,73.327a1.311,1.311,0,0,1-.835-.3l-4.28-3.52a.707.707,0,0,0-.3-.14,14.8,14.8,0,0,1,2.951-29.283H14.8a14.8,14.8,0,0,1,4.189,28.994.662.662,0,0,0-.471.633v2.3a1.308,1.308,0,0,1-.756,1.193,1.327,1.327,0,0,1-.567.128Zm-2.46-31.653A13.207,13.207,0,0,0,12.1,67.809a2.3,2.3,0,0,1,.989.468l3.837,3.155V69.71a2.262,2.262,0,0,1,1.613-2.159A13.209,13.209,0,0,0,14.8,41.674h-.065Zm0-.8h0Z" transform="translate(0 -40.083)"/>
          </g>
          <g id="Group_1222880" data-name="Group 1222880" transform="translate(27.921 19.1)">
            <path id="Path_1174406" data-name="Path 1174406" d="M88.558,66.224a.8.8,0,0,1-.646-1.259,11.785,11.785,0,0,1,9.551-4.932h3.111a6.892,6.892,0,0,1,5.455,2.726,6.785,6.785,0,0,1,7.353,1.091.8.8,0,1,1-1.051,1.194,5.2,5.2,0,0,0-6.152-.568.8.8,0,0,1-1.091-.274,5.3,5.3,0,0,0-4.514-2.579H97.462A10.192,10.192,0,0,0,89.2,65.892.794.794,0,0,1,88.558,66.224Z" transform="translate(-87.763 -60.034)"/>
          </g>
          <g id="Group_1222881" data-name="Group 1222881" transform="translate(38.661 60.469)">
            <path id="Path_1174407" data-name="Path 1174407" d="M124.742,191.657h-2.426a.8.8,0,1,1,0-1.591h2.426a.8.8,0,1,1,0,1.591Z" transform="translate(-121.521 -190.066)"/>
          </g>
          <g id="Group_1222882" data-name="Group 1222882" transform="translate(45.474 55.285)">
            <path id="Path_1174408" data-name="Path 1174408" d="M148.153,177.911a.8.8,0,0,1-.272-.048,21.74,21.74,0,0,1-2.286-.979c-1.114-.556-1.22-.625-1.277-.661a4.442,4.442,0,0,1-1.241-1.2.8.8,0,0,1,1.3-.91,2.859,2.859,0,0,0,.8.773c.016.009.179.1,1.126.576a20.165,20.165,0,0,0,2.118.907.8.8,0,0,1-.271,1.542Z" transform="translate(-142.934 -173.773)"/>
          </g>
          <g id="Group_1222883" data-name="Group 1222883" transform="translate(29.922 55.316)">
            <path id="Path_1174409" data-name="Path 1174409" d="M94.847,177.992a.8.8,0,0,1-.27-1.544,20.159,20.159,0,0,0,2.08-.883c.519-.257.956-.473,1.026-.51a2.846,2.846,0,0,0,.955-.851.8.8,0,0,1,1.295.924,4.5,4.5,0,0,1-1.492,1.326c-.042.023-.15.078-1.078.537a21.638,21.638,0,0,1-2.245.953A.786.786,0,0,1,94.847,177.992Z" transform="translate(-94.051 -173.87)"/>
          </g>
          <g id="Group_1222884" data-name="Group 1222884" transform="translate(18.333 74.702)">
            <path id="Path_1174410" data-name="Path 1174410" d="M65.181,236.395H58.42a.8.8,0,0,1,0-1.591h6.761a.8.8,0,0,1,0,1.591Z" transform="translate(-57.625 -234.804)"/>
          </g>
          <g id="Group_1222885" data-name="Group 1222885" transform="translate(54.91 74.702)">
            <path id="Path_1174411" data-name="Path 1174411" d="M180.08,236.395h-6.691a.8.8,0,1,1,0-1.591h6.691a.8.8,0,1,1,0,1.591Z" transform="translate(-172.594 -234.804)"/>
          </g>
          <g id="Group_1222886" data-name="Group 1222886" transform="translate(22.431 6.126)">
            <path id="Path_1174412" data-name="Path 1174412" d="M71.3,26.753a.8.8,0,0,1-.548-1.372,26.52,26.52,0,0,1,10.337-6.089.8.8,0,1,1,.473,1.519,24.921,24.921,0,0,0-9.713,5.723.793.793,0,0,1-.548.219Z" transform="translate(-70.506 -19.256)"/>
          </g>
          <g id="Group_1222887" data-name="Group 1222887" transform="translate(47.448 6.126)">
            <path id="Path_1174413" data-name="Path 1174413" d="M159.936,26.724a.794.794,0,0,1-.548-.219,24.772,24.772,0,0,0-9.69-5.7.8.8,0,1,1,.471-1.519,26.363,26.363,0,0,1,10.316,6.064.795.795,0,0,1-.548,1.371Z" transform="translate(-149.138 -19.254)"/>
          </g>
          <g id="Group_1222888" data-name="Group 1222888" transform="translate(36.102 0.795)">
            <path id="Path_1174414" data-name="Path 1174414" d="M118.1,2.5a4.62,4.62,0,1,0,4.62,4.62A4.62,4.62,0,0,0,118.1,2.5Z" transform="translate(-113.477 -2.5)" fill="#87d147"/>
          </g>
          <g id="Group_1222889" data-name="Group 1222889" transform="translate(35.307 0)">
            <path id="Path_1174415" data-name="Path 1174415" d="M116.393,10.832a5.416,5.416,0,1,1,5.416-5.416A5.422,5.422,0,0,1,116.393,10.832Zm0-9.241a3.825,3.825,0,1,0,3.825,3.825,3.829,3.829,0,0,0-3.825-3.825Z" transform="translate(-110.977 0)"/>
          </g>
          <g id="Group_1222890" data-name="Group 1222890" transform="translate(37.925 3.709)">
            <path id="Path_1174416" data-name="Path 1174416" d="M121.541,15.668a.8.8,0,0,1-.562-.233l-1.54-1.54a.8.8,0,1,1,1.125-1.125l.977.977L123.4,11.89a.8.8,0,0,1,1.125,1.125L122.1,15.435A.794.794,0,0,1,121.541,15.668Z" transform="translate(-119.205 -11.657)"/>
          </g>
          <g id="Group_1222891" data-name="Group 1222891" transform="translate(37.066 44.85)">
            <path id="Path_1174417" data-name="Path 1174417" d="M120.315,143.853a4.736,4.736,0,0,1-3.621-1.575.8.8,0,1,1,1.219-1.022,3.37,3.37,0,0,0,4.8,0,.8.8,0,1,1,1.219,1.022A4.734,4.734,0,0,1,120.315,143.853Z" transform="translate(-116.508 -140.972)"/>
          </g>
          <g id="Group_1222892" data-name="Group 1222892" transform="translate(43.892 38.496)">
            <circle id="Ellipse_14547" data-name="Ellipse 14547" cx="1.344" cy="1.344" r="1.344"/>
          </g>
          <g id="Group_1222893" data-name="Group 1222893" transform="translate(34.865 38.496)">
            <circle id="Ellipse_14548" data-name="Ellipse 14548" cx="1.344" cy="1.344" r="1.344"/>
          </g>
          <g id="Group_1222894" data-name="Group 1222894" transform="translate(60.12 23.543)">
            <path id="Path_1174418" data-name="Path 1174418" d="M201.033,75a3.4,3.4,0,0,0-4.814,0l-.265.265a.642.642,0,0,1-.908,0L194.782,75a3.4,3.4,0,1,0-4.814,4.814l4.5,4.5a1.467,1.467,0,0,0,2.075,0l4.5-4.5a3.4,3.4,0,0,0,0-4.814Z" transform="translate(-188.97 -74.001)" fill="#fc657e"/>
          </g>
          <g id="Group_1222895" data-name="Group 1222895" transform="translate(59.327 22.747)">
            <path id="Path_1174419" data-name="Path 1174419" d="M193.8,83.826a2.254,2.254,0,0,1-1.6-.661l-4.5-4.5a4.2,4.2,0,0,1,5.939-5.939l.157.156.156-.156a4.2,4.2,0,1,1,5.939,5.938l-4.5,4.5A2.253,2.253,0,0,1,193.8,83.826Zm-3.126-10.735a2.609,2.609,0,0,0-1.845,4.453l4.5,4.5a.674.674,0,0,0,.95,0l4.5-4.5a2.609,2.609,0,0,0-3.69-3.69l-.264.265a1.438,1.438,0,0,1-2.033,0l-.265-.265A2.591,2.591,0,0,0,190.675,73.091Z" transform="translate(-186.478 -71.5)"/>
          </g>
          <g id="Group_1222896" data-name="Group 1222896" transform="translate(8.394 32.505)">
            <path id="Path_1174420" data-name="Path 1174420" d="M30.52,102.3a2.309,2.309,0,0,1-2.823-.082.237.237,0,0,0-.328.039,1.625,1.625,0,0,1-.741.526,6.316,6.316,0,0,1,.075.854,9.157,9.157,0,0,1-.286,1.981,1.337,1.337,0,0,0,2.06,1.386c.672-.494,1.044-1.976,2.119-4.737A.246.246,0,0,0,30.52,102.3Z" transform="translate(-26.384 -102.17)" fill="#f98fa6"/>
          </g>
          <g id="Group_1222897" data-name="Group 1222897" transform="translate(4.915 18.265)">
            <path id="Path_1174421" data-name="Path 1174421" d="M17.691,72.1a1.774,1.774,0,0,0,2.221-.359.237.237,0,0,1,.328-.039,2.309,2.309,0,0,0,2.823.082.236.236,0,0,1,.252-.011c.551.325,2.816,1.427,4.36-1.378,1.769-3.213,7.329-2.665,8.081-5.734A3.115,3.115,0,0,0,33.046,60.9a.234.234,0,0,1-.23-.171A2.066,2.066,0,0,0,30.269,59.2a.231.231,0,0,1-.24-.122,1.955,1.955,0,0,0-2.458-1,.239.239,0,0,1-.243-.058,1.878,1.878,0,0,0-2.762-.013.23.23,0,0,1-.238.036,2.722,2.722,0,0,0-3.755,1.376.237.237,0,0,1-.194.137,3.142,3.142,0,0,0-3.073,3.39.234.234,0,0,1-.138.223c-.588.256-2.686,1.409-1.194,4.335a.236.236,0,0,1,.016.177A3.6,3.6,0,0,0,17.691,72.1Z" transform="translate(-15.448 -57.411)" fill="#fc657e"/>
          </g>
          <g id="Group_1222898" data-name="Group 1222898" transform="translate(4.118 17.473)">
            <path id="Path_1174422" data-name="Path 1174422" d="M16.954,71.444A2.862,2.862,0,0,1,15.6,71.1a4.322,4.322,0,0,1-2.145-5.13,4.092,4.092,0,0,1-.325-3.178,3.579,3.579,0,0,1,1.67-1.881A3.851,3.851,0,0,1,18.286,57.1a3.427,3.427,0,0,1,4.323-1.61,2.619,2.619,0,0,1,3.326.046,2.679,2.679,0,0,1,2.883,1.136,2.772,2.772,0,0,1,2.926,1.768,3.909,3.909,0,0,1,2.34,1.454,3.725,3.725,0,0,1,.734,3.252c-.484,1.976-2.406,2.706-4.266,3.412-1.557.591-3.167,1.2-3.891,2.517a4.116,4.116,0,0,1-2.472,2.159,3.876,3.876,0,0,1-2.685-.316,3.047,3.047,0,0,1-3.047-.013A2.315,2.315,0,0,1,16.954,71.444Zm4.249-.685h0Zm-2.385-.21h0Zm-2.445-.841a.943.943,0,0,0,1.218-.172,1.028,1.028,0,0,1,1.427-.162,1.512,1.512,0,0,0,1.9.05,1.037,1.037,0,0,1,1.1-.033,2.442,2.442,0,0,0,1.759.314,2.612,2.612,0,0,0,1.5-1.392c1.005-1.826,2.978-2.576,4.72-3.237,1.61-.611,3-1.139,3.285-2.3a2.148,2.148,0,0,0-.437-1.887A2.182,2.182,0,0,0,31.349,60h-.011a1.032,1.032,0,0,1-1-.758,1.286,1.286,0,0,0-1.656-.954,1.028,1.028,0,0,1-1.069-.538,1.154,1.154,0,0,0-1.516-.612,1.032,1.032,0,0,1-1.046-.258,1.12,1.12,0,0,0-1.68.032,1.019,1.019,0,0,1-1.063.165,1.916,1.916,0,0,0-2.727.981,1.033,1.033,0,0,1-.849.591,2.314,2.314,0,0,0-2.342,2.577,1.026,1.026,0,0,1-.618.974,2.1,2.1,0,0,0-1.143,1.125,2.719,2.719,0,0,0,.342,2.119,1.027,1.027,0,0,1,.067.771,2.8,2.8,0,0,0,1.31,3.477l.022.012Zm-1.232-8.963h0Zm3-3.361v0Zm.461-.316h0Zm10.419-.055h0Z" transform="translate(-12.943 -54.922)"/>
          </g>
          <g id="Group_1222899" data-name="Group 1222899" transform="translate(7.6 32.088)">
            <path id="Path_1174423" data-name="Path 1174423" d="M26.034,107.15a2.152,2.152,0,0,1-1.171-.352,2.116,2.116,0,0,1-.925-2.241l.018-.085a8.151,8.151,0,0,0,.25-1.722,5.373,5.373,0,0,0-.044-.619.8.8,0,0,1,1.578-.2,7.024,7.024,0,0,1,.057.807,9.385,9.385,0,0,1-.286,2.074l-.018.083a.521.521,0,0,0,.237.568.5.5,0,0,0,.575.007A7.977,7.977,0,0,0,27.433,103c.177-.481.376-1.024.61-1.632a.8.8,0,1,1,1.485.57c-.231.6-.428,1.135-.6,1.61-.638,1.737-.989,2.694-1.679,3.2a2.042,2.042,0,0,1-1.212.4Z" transform="translate(-23.888 -100.859)"/>
          </g>
          <g id="Group_1222900" data-name="Group 1222900" transform="translate(9.308 22.592)">
            <path id="Path_1174424" data-name="Path 1174424" d="M31,73.672a.8.8,0,0,1-.691-.4,2.919,2.919,0,0,0-.719-.818.8.8,0,0,1,.924-1.295,4.434,4.434,0,0,1,1.176,1.323.8.8,0,0,1-.69,1.19Z" transform="translate(-29.257 -71.012)"/>
          </g>
          <g id="Group_1222901" data-name="Group 1222901" transform="translate(9.729 23.752)">
            <path id="Path_1174425" data-name="Path 1174425" d="M31.377,77.311a.782.782,0,0,1-.222-.032.8.8,0,0,1-.541-.986,2.272,2.272,0,0,1,2.813-1.545.8.8,0,0,1-.444,1.527.679.679,0,0,0-.841.462A.8.8,0,0,1,31.377,77.311Z" transform="translate(-30.582 -74.657)"/>
          </g>
          <g id="Group_1222902" data-name="Group 1222902" transform="translate(15.941 21.359)">
            <path id="Path_1174426" data-name="Path 1174426" d="M52.394,70.181a.8.8,0,0,1-.8-.785.673.673,0,0,0-.205-.477.685.685,0,0,0-.483-.192H50.9a.8.8,0,0,1-.01-1.591,2.284,2.284,0,0,1,1.613.643,2.253,2.253,0,0,1,.687,1.6.8.8,0,0,1-.785.806Z" transform="translate(-50.105 -67.136)"/>
          </g>
          <g id="Group_1222905" data-name="Group 1222905" transform="translate(18.277 2.863)">
            <g id="Group_1222904" data-name="Group 1222904">
              <g id="Group_1222903" data-name="Group 1222903">
                <path id="Path_1174427" data-name="Path 1174427" d="M63.288,11.816a3.53,3.53,0,0,1-2.831-2.768c0-.064-.127-.064-.127,0A3.53,3.53,0,0,1,57.5,11.816c-.064,0-.064.1,0,.127a3.53,3.53,0,0,1,2.831,2.768c0,.064.127.064.127,0a3.53,3.53,0,0,1,2.831-2.768C63.352,11.911,63.352,11.816,63.288,11.816Z" transform="translate(-57.45 -9)" fill="#f5c84c"/>
              </g>
            </g>
          </g>
          <g id="Group_1222908" data-name="Group 1222908" transform="translate(56.174 46.131)">
            <g id="Group_1222907" data-name="Group 1222907">
              <g id="Group_1222906" data-name="Group 1222906">
                <path id="Path_1174428" data-name="Path 1174428" d="M180.437,146.866a2.341,2.341,0,0,1-1.877-1.835c0-.042-.084-.042-.084,0a2.341,2.341,0,0,1-1.877,1.835c-.042,0-.042.063,0,.084a2.341,2.341,0,0,1,1.877,1.835c0,.042.084.042.084,0a2.341,2.341,0,0,1,1.877-1.835C180.479,146.929,180.479,146.866,180.437,146.866Z" transform="translate(-176.566 -144.999)" fill="#fc657e"/>
              </g>
            </g>
          </g>
          <g id="Group_1222911" data-name="Group 1222911" transform="translate(66.652 57.266)">
            <g id="Group_1222910" data-name="Group 1222910">
              <g id="Group_1222909" data-name="Group 1222909">
                <path id="Path_1174429" data-name="Path 1174429" d="M214.018,181.75h-.732v-.732A1.025,1.025,0,0,0,212.268,180a1,1,0,0,0-1.018,1.018v.732h-.732a1.025,1.025,0,0,0-1.018,1.018,1,1,0,0,0,1.018,1.018h.732v.732a1.025,1.025,0,0,0,1.018,1.018,1,1,0,0,0,1.018-1.018v-.732h.732a1.025,1.025,0,0,0,1.018-1.018A1,1,0,0,0,214.018,181.75Z" transform="translate(-209.5 -180)" fill="#87d147"/>
              </g>
            </g>
          </g>
          <g id="Group_1222914" data-name="Group 1222914" transform="translate(27.806)">
            <g id="Group_1222913" data-name="Group 1222913">
              <g id="Group_1222912" data-name="Group 1222912">
                <circle id="Ellipse_14549" data-name="Ellipse 14549" cx="1.082" cy="1.082" r="1.082" fill="#70d6f9"/>
              </g>
            </g>
          </g>
          <g id="Group_1222917" data-name="Group 1222917" transform="translate(65.665 68.083)">
            <g id="Group_1222916" data-name="Group 1222916">
              <g id="Group_1222915" data-name="Group 1222915">
                <circle id="Ellipse_14550" data-name="Ellipse 14550" cx="1.082" cy="1.082" r="1.082" fill="#f5c84c"/>
              </g>
            </g>
          </g>
        </g>
      </g>
    </g>
  </g>
</svg>
