<svg xmlns="http://www.w3.org/2000/svg" xmlns:xlink="http://www.w3.org/1999/xlink" width="93.934" height="93.934" viewBox="0 0 93.934 93.934">
  <defs>
    <filter id="Path_982547" x="0" y="0" width="93.934" height="93.934" filterUnits="userSpaceOnUse">
      <feOffset dy="3" input="SourceAlpha"/>
      <feGaussianBlur stdDeviation="3" result="blur"/>
      <feFlood flood-opacity="0.161"/>
      <feComposite operator="in" in2="blur"/>
      <feComposite in="SourceGraphic"/>
    </filter>
  </defs>
  <g id="Group_1223656" data-name="Group 1223656" transform="translate(-822.066 -7686.033)">
    <g id="Group_1222847" data-name="Group 1222847">
      <g id="Group_1222518" data-name="Group 1222518" transform="translate(-1 4357.033)">
        <g id="Group_1221061" data-name="Group 1221061" transform="translate(212 2134.303)">
          <g id="Group_1215985" data-name="Group 1215985" transform="translate(-0.229 -2679.151)">
            <g id="Group_1214663" data-name="Group 1214663" transform="translate(0 -1254.151)">
              <g id="Group_1214433" data-name="Group 1214433" transform="translate(-0.771 -2738.674)">
                <g id="Group_1183190" data-name="Group 1183190" transform="translate(1 1016.674)">
                  <g id="Group_1179611" data-name="Group 1179611" transform="translate(428 4723.467)">
                    <g id="Group_1175227" data-name="Group 1175227" transform="translate(-5.967 140.533)">
                      <g id="Group_1167337" data-name="Group 1167337" transform="translate(198.033 1992)">
                        <g id="Group_1166720" data-name="Group 1166720">
                          <g id="Group_1164305" data-name="Group 1164305">
                            <g id="Group_1163948" data-name="Group 1163948">
                              <g id="Group_1158168" data-name="Group 1158168">
                                <g id="Group_1152576" data-name="Group 1152576">
                                  <g id="Group_1148633" data-name="Group 1148633">
                                    <g id="Group_1148525" data-name="Group 1148525">
                                      <g transform="matrix(1, 0, 0, 1, -9, -6)" filter="url(#Path_982547)">
                                        <g id="Path_982547-2" data-name="Path 982547" transform="translate(9 6)" fill="#f7fbfc">
                                          <path d="M 37.966796875 74.43359375 C 33.04315185546875 74.43359375 28.26757431030273 73.46962738037109 23.77274131774902 71.56847381591797 C 19.43047523498535 69.73184967041016 15.53040790557861 67.10224914550781 12.18087482452393 63.75271987915039 C 8.831341743469238 60.4031867980957 6.201741218566895 56.50312042236328 4.365118980407715 52.16086196899414 C 2.463963508605957 47.66601943969727 1.499996900558472 42.89044189453125 1.499996900558472 37.966796875 C 1.499996900558472 33.04315185546875 2.463963508605957 28.26757431030273 4.365118980407715 23.77274131774902 C 6.201741218566895 19.43047523498535 8.831341743469238 15.53040790557861 12.18087482452393 12.18087482452393 C 15.53040790557861 8.831341743469238 19.43047523498535 6.201741218566895 23.77274131774902 4.365118980407715 C 28.26757431030273 2.463963508605957 33.04315185546875 1.499996900558472 37.966796875 1.499996900558472 C 42.89044189453125 1.499996900558472 47.66601943969727 2.463963508605957 52.16086196899414 4.365118980407715 C 56.50312042236328 6.201741218566895 60.4031867980957 8.831341743469238 63.75271987915039 12.18087482452393 C 67.10224914550781 15.53040790557861 69.73184967041016 19.43047523498535 71.56847381591797 23.77274131774902 C 73.46962738037109 28.26757431030273 74.43359375 33.04315185546875 74.43359375 37.966796875 C 74.43359375 42.89044189453125 73.46962738037109 47.66601943969727 71.56847381591797 52.16086196899414 C 69.73184967041016 56.50313186645508 67.10224914550781 60.4031867980957 63.75271987915039 63.75271987915039 C 60.4031867980957 67.10224914550781 56.50313186645508 69.73184967041016 52.16086196899414 71.56847381591797 C 47.66601943969727 73.46962738037109 42.89044189453125 74.43359375 37.966796875 74.43359375 Z" stroke="none"/>
                                          <path d="M 37.966796875 3 C 33.2449836730957 3 28.66600799560547 3.924095153808594 24.35705947875977 5.746635437011719 C 20.19359588623047 7.507637023925781 16.45379638671875 10.02928161621094 13.24153518676758 13.24153518676758 C 10.02927398681641 16.45379638671875 7.507621765136719 20.19359588623047 5.746635437011719 24.35705947875977 C 3.924095153808594 28.66600799560547 3 33.2449836730957 3 37.966796875 C 3 42.6886100769043 3.924095153808594 47.26758575439453 5.746635437011719 51.57653427124023 C 7.507621765136719 55.73999786376953 10.02927398681641 59.47979736328125 13.24153518676758 62.69205856323242 C 16.45379638671875 65.90431976318359 20.19359588623047 68.42597198486328 24.35705947875977 70.18695831298828 C 28.66600799560547 72.00949859619141 33.2449836730957 72.93359375 37.966796875 72.93359375 C 42.6886100769043 72.93359375 47.26758575439453 72.00949859619141 51.57653427124023 70.18695831298828 C 55.73999786376953 68.42597198486328 59.47979736328125 65.90431976318359 62.69205856323242 62.69205856323242 C 65.90431976318359 59.47979736328125 68.42597198486328 55.73999786376953 70.18695831298828 51.57653427124023 C 72.00949859619141 47.26758575439453 72.93359375 42.6886100769043 72.93359375 37.966796875 C 72.93359375 33.2449836730957 72.00949859619141 28.66600799560547 70.18695831298828 24.35705947875977 C 68.42597198486328 20.19359588623047 65.90431976318359 16.45379638671875 62.69205856323242 13.24153518676758 C 59.47979736328125 10.02928161621094 55.73999786376953 7.507637023925781 51.57653427124023 5.746635437011719 C 47.26758575439453 3.924095153808594 42.6886100769043 3 37.966796875 3 M 37.966796875 0 C 58.93528366088867 0 75.93359375 16.99832153320312 75.93359375 37.966796875 C 75.93359375 58.93528366088867 58.93528366088867 75.93359375 37.966796875 75.93359375 C 16.99831008911133 75.93359375 0 58.93528366088867 0 37.966796875 C 0 16.99832153320312 16.99831008911133 0 37.966796875 0 Z" stroke="none" fill="#62797e"/>
                                        </g>
                                      </g>
                                    </g>
                                  </g>
                                </g>
                              </g>
                            </g>
                          </g>
                        </g>
                      </g>
                    </g>
                  </g>
                </g>
              </g>
            </g>
          </g>
        </g>
      </g>
      <g id="objetivo_4_" data-name="objetivo (4)" transform="translate(820.165 7705.887)">
        <g id="Group_1222841" data-name="Group 1222841" transform="translate(14.698 0.863)">
          <g id="Group_1222830" data-name="Group 1222830" transform="translate(22.739)">
            <path id="Path_1174321" data-name="Path 1174321" d="M250.181,54.926H219.175l-.115.115v24.53a14.04,14.04,0,0,1,7.334,19.3h23.345a.557.557,0,0,0,.557-.557V55.041Z" transform="translate(-219.06 -49.472)" fill="#c8effe"/>
            <path id="Path_1174322" data-name="Path 1174322" d="M222.5,81.56V55.041l.115-.115h-3.443l-.115.115v24.53A14.021,14.021,0,0,1,222.5,81.56Z" transform="translate(-219.06 -49.472)" fill="#99e6fc"/>
            <g id="Group_1222816" data-name="Group 1222816">
              <path id="Path_1174323" data-name="Path 1174323" d="M250.3,13.069H219.06V8.65a1.15,1.15,0,0,1,1.15-1.15h28.936a1.15,1.15,0,0,1,1.15,1.15Z" transform="translate(-219.06 -7.5)" fill="#7ca1b1"/>
            </g>
            <g id="Group_1222817" data-name="Group 1222817">
              <path id="Path_1174324" data-name="Path 1174324" d="M220.21,7.5a1.15,1.15,0,0,0-1.15,1.15v4.419h6.9V7.5Z" transform="translate(-219.06 -7.5)" fill="#678d98"/>
            </g>
            <g id="Group_1222818" data-name="Group 1222818">
              <path id="Path_1174325" data-name="Path 1174325" d="M223.653,7.5H220.21a1.15,1.15,0,0,0-1.15,1.15v4.419H222.5V8.65A1.15,1.15,0,0,1,223.653,7.5Z" transform="translate(-219.06 -7.5)" fill="#537983"/>
            </g>
            <g id="Group_1222821" data-name="Group 1222821" transform="translate(5.206 9.353)">
              <g id="Group_1222819" data-name="Group 1222819">
                <path id="Path_1174326" data-name="Path 1174326" d="M268.341,93.182h-3.668a.345.345,0,0,1-.345-.345V89.169a.345.345,0,0,1,.345-.345h3.668a.345.345,0,0,1,.345.345v3.668A.345.345,0,0,1,268.341,93.182Z" transform="translate(-264.328 -88.824)" fill="#01d0fb"/>
              </g>
              <g id="Group_1222820" data-name="Group 1222820">
                <path id="Path_1174327" data-name="Path 1174327" d="M266.257,92.837V89.169a.345.345,0,0,1,.345-.345h-1.929a.345.345,0,0,0-.345.345v3.668a.345.345,0,0,0,.345.345H266.6A.345.345,0,0,1,266.257,92.837Z" transform="translate(-264.328 -88.824)" fill="#01c0fa"/>
              </g>
            </g>
            <g id="Group_1222824" data-name="Group 1222824" transform="translate(5.206 17.071)">
              <g id="Group_1222822" data-name="Group 1222822">
                <path id="Path_1174328" data-name="Path 1174328" d="M268.341,160.294h-3.668a.345.345,0,0,1-.345-.345v-3.668a.345.345,0,0,1,.345-.345h3.668a.345.345,0,0,1,.345.345v3.668A.345.345,0,0,1,268.341,160.294Z" transform="translate(-264.328 -155.936)" fill="#01d0fb"/>
              </g>
              <g id="Group_1222823" data-name="Group 1222823">
                <path id="Path_1174329" data-name="Path 1174329" d="M266.257,159.949v-3.668a.345.345,0,0,1,.345-.345h-1.929a.345.345,0,0,0-.345.345v3.668a.345.345,0,0,0,.345.345H266.6A.345.345,0,0,1,266.257,159.949Z" transform="translate(-264.328 -155.936)" fill="#01c0fa"/>
              </g>
            </g>
            <g id="Group_1222827" data-name="Group 1222827" transform="translate(5.206 24.789)">
              <g id="Group_1222825" data-name="Group 1222825">
                <path id="Path_1174330" data-name="Path 1174330" d="M268.341,227.406h-3.668a.345.345,0,0,1-.345-.345v-3.668a.345.345,0,0,1,.345-.345h3.668a.345.345,0,0,1,.345.345v3.668A.345.345,0,0,1,268.341,227.406Z" transform="translate(-264.328 -223.048)" fill="#01d0fb"/>
              </g>
              <g id="Group_1222826" data-name="Group 1222826">
                <path id="Path_1174331" data-name="Path 1174331" d="M266.257,227.061v-3.668a.345.345,0,0,1,.345-.345h-1.929a.345.345,0,0,0-.345.345v3.668a.345.345,0,0,0,.345.345H266.6A.345.345,0,0,1,266.257,227.061Z" transform="translate(-264.328 -223.048)" fill="#01c0fa"/>
              </g>
            </g>
            <g id="Group_1222829" data-name="Group 1222829" transform="translate(5.206 32.507)">
              <path id="Path_1174332" data-name="Path 1174332" d="M268.341,290.159h-3.668a.345.345,0,0,0-.345.345v.885a14.058,14.058,0,0,1,2.133,3.128h1.88a.345.345,0,0,0,.345-.345V290.5A.345.345,0,0,0,268.341,290.159Z" transform="translate(-264.328 -290.159)" fill="#01d0fb"/>
              <g id="Group_1222828" data-name="Group 1222828">
                <path id="Path_1174333" data-name="Path 1174333" d="M266.257,294.124V290.5a.345.345,0,0,1,.345-.345h-1.929a.345.345,0,0,0-.345.345v.885A14.077,14.077,0,0,1,266.257,294.124Z" transform="translate(-264.328 -290.159)" fill="#01c0fa"/>
              </g>
            </g>
          </g>
          <g id="Group_1222837" data-name="Group 1222837" transform="translate(3.488 29.095)">
            <path id="Path_1174334" data-name="Path 1174334" d="M65.693,260.489a14.086,14.086,0,0,0-2.956.313,7.426,7.426,0,0,1-10.2,8.821,14.033,14.033,0,1,0,13.152-9.134Z" transform="translate(-51.662 -260.489)" fill="#fd5426"/>
            <g id="Group_1222831" data-name="Group 1222831" transform="translate(0 9.134)">
              <path id="Path_1174335" data-name="Path 1174335" d="M54.574,344.812a14.023,14.023,0,0,1,.654-4.246,7.383,7.383,0,0,1-2.688-.651,14.039,14.039,0,0,0,13.152,18.928,14.167,14.167,0,0,0,1.456-.075A14.033,14.033,0,0,1,54.574,344.812Z" transform="translate(-51.661 -339.915)" fill="#ef4424"/>
            </g>
            <path id="Path_1174336" data-name="Path 1174336" d="M100.75,300.1a9.43,9.43,0,0,0-3.191.554,7.439,7.439,0,0,1-5.177,4.481,9.474,9.474,0,1,0,8.368-5.035Z" transform="translate(-86.718 -295.545)" fill="#fff"/>
            <path id="Path_1174337" data-name="Path 1174337" d="M94.233,309.577a9.49,9.49,0,0,1,8-9.359,9.465,9.465,0,0,0-4.67.438,7.439,7.439,0,0,1-5.177,4.481,9.473,9.473,0,0,0,9.847,13.8,9.49,9.49,0,0,1-8-9.359Z" transform="translate(-86.718 -295.545)" fill="#eef5f6"/>
            <g id="Group_1222832" data-name="Group 1222832" transform="translate(31.605 10.749)">
              <path id="Path_1174338" data-name="Path 1174338" d="M335.693,353.952h-6.8a.345.345,0,0,0-.285.151l-2.137,3.132,2.137,3.132a.345.345,0,0,0,.285.151h6.8a.345.345,0,0,0,.281-.545l-1.953-2.737,1.953-2.737a.345.345,0,0,0-.281-.545Z" transform="translate(-326.474 -353.952)" fill="#fff"/>
            </g>
            <g id="Group_1222833" data-name="Group 1222833" transform="translate(31.605 10.749)">
              <path id="Path_1174339" data-name="Path 1174339" d="M335.693,353.952h-6.8a.345.345,0,0,0-.285.151l-2.137,3.132,2.137,3.132a.345.345,0,0,0,.285.151h6.8a.345.345,0,0,0,.281-.545l-1.953-2.737,1.953-2.737a.345.345,0,0,0-.281-.545Z" transform="translate(-326.474 -353.952)" fill="#fff"/>
            </g>
            <g id="Group_1222834" data-name="Group 1222834" transform="translate(31.605 10.749)">
              <path id="Path_1174340" data-name="Path 1174340" d="M331.528,360.366l-2.137-3.132,2.137-3.132a.345.345,0,0,1,.285-.151H328.9a.345.345,0,0,0-.285.151l-2.137,3.132,2.137,3.132a.345.345,0,0,0,.285.151h2.916A.345.345,0,0,1,331.528,360.366Z" transform="translate(-326.475 -353.951)" fill="#eef5f6"/>
            </g>
            <g id="Group_1222835" data-name="Group 1222835" transform="translate(9.111 9.111)">
              <circle id="Ellipse_14545" data-name="Ellipse 14545" cx="4.92" cy="4.92" r="4.92" transform="translate(0)" fill="#fd5426"/>
            </g>
            <g id="Group_1222836" data-name="Group 1222836" transform="translate(9.111 9.111)">
              <path id="Path_1174341" data-name="Path 1174341" d="M133.774,344.634a4.929,4.929,0,0,1,3.476-4.7,4.92,4.92,0,1,0,0,9.407A4.928,4.928,0,0,1,133.774,344.634Z" transform="translate(-130.886 -339.714)" fill="#ef4424"/>
            </g>
          </g>
          <g id="Group_1222840" data-name="Group 1222840" transform="translate(0 24.036)">
            <g id="Group_1222838" data-name="Group 1222838">
              <circle id="Ellipse_14546" data-name="Ellipse 14546" cx="7.427" cy="7.427" r="7.427" fill="#fed402"/>
            </g>
            <g id="Group_1222839" data-name="Group 1222839" transform="translate(0)">
              <path id="Path_1174342" data-name="Path 1174342" d="M25.207,223.929a7.429,7.429,0,0,1,5.491-7.17,7.427,7.427,0,1,0,0,14.34A7.429,7.429,0,0,1,25.207,223.929Z" transform="translate(-21.335 -216.502)" fill="#fac600"/>
            </g>
          </g>
        </g>
        <g id="Group_1222845" data-name="Group 1222845" transform="translate(21.099 5.635)">
          <g id="Group_1222843" data-name="Group 1222843" transform="translate(0 0)">
            <g id="Group_1222842" data-name="Group 1222842">
              <path id="Path_1174343" data-name="Path 1174343" d="M79.519,49.118l-2.4,2.4A.4.4,0,0,0,77,51.8V64.87a.4.4,0,0,0,.4.4H89.589a.4.4,0,0,0,.4-.4V49.4a.4.4,0,0,0-.4-.4H79.8A.4.4,0,0,0,79.519,49.118Z" transform="translate(-77 -49)" fill="#fdf6ec"/>
            </g>
          </g>
          <g id="Group_1222844" data-name="Group 1222844" transform="translate(0)">
            <path id="Path_1174344" data-name="Path 1174344" d="M80.91,64.87V51.8a.4.4,0,0,1,.118-.285l2.4-2.4A.4.4,0,0,1,83.714,49H79.8a.4.4,0,0,0-.285.118l-2.4,2.4A.4.4,0,0,0,77,51.8V64.87a.4.4,0,0,0,.4.4h3.91a.4.4,0,0,1-.4-.4Z" transform="translate(-77 -49)" fill="#fef1da"/>
          </g>
        </g>
        <g id="Group_1222846" data-name="Group 1222846" transform="translate(13.835)">
          <path id="Path_1174345" data-name="Path 1174345" d="M68.673,26.509a.862.862,0,0,0,.863-.863V2.013A2.015,2.015,0,0,0,67.523,0H38.587a2.015,2.015,0,0,0-2.013,2.013V29.746a14.9,14.9,0,0,0-6.74-.459A8.287,8.287,0,1,0,18.01,39.517a14.892,14.892,0,0,0,27.278,11.6H68.116A1.421,1.421,0,0,0,69.536,49.7V29.671a.863.863,0,1,0-1.725,0V49.4H46.094a14.789,14.789,0,0,0,.991-4.545h2.25l1.88,2.755a1.206,1.206,0,0,0,1,.527h6.8a1.207,1.207,0,0,0,.983-1.909l-.98-1.374h.042a.863.863,0,1,0,0-1.725h-.042l.98-1.373a1.207,1.207,0,0,0-.983-1.909h-6.8a1.207,1.207,0,0,0-1,.527l-1.88,2.756h-2.25a14.791,14.791,0,0,0-.987-4.535h.559a1.209,1.209,0,0,0,1.208-1.208V33.715a1.209,1.209,0,0,0-1.208-1.208H42.988a1.2,1.2,0,0,0-.867.369A14.938,14.938,0,0,0,38.3,30.4V7.294H67.81V25.646a.862.862,0,0,0,.863.863Zm-16.187,19.9-1.063-1.557h5.47L58,46.409Zm0-4.84H58l-1.112,1.557h-5.47ZM15.56,32.325a6.564,6.564,0,1,1,6.564,6.564A6.571,6.571,0,0,1,15.56,32.325ZM32.217,57.158A13.171,13.171,0,0,1,19.6,40.22a8.256,8.256,0,0,0,2.526.395c.108,0,.216,0,.324-.008A10.333,10.333,0,0,0,37.868,52.64a.863.863,0,1,0-.945-1.443A8.607,8.607,0,0,1,24.445,40.281a8.325,8.325,0,0,0,5.218-4.518,8.61,8.61,0,0,1,11.123,7.363H37.934a5.783,5.783,0,1,0,0,1.725h2.851a8.571,8.571,0,0,1-1.293,3.738.863.863,0,0,0,1.457.925,10.292,10.292,0,0,0,1.569-4.662h2.839a13.185,13.185,0,0,1-13.14,12.306Zm0-12.306h3.964a4.057,4.057,0,1,1,0-1.725H32.217a.863.863,0,1,0,0,1.725ZM43.505,34.232h2.633v2.633h-.846a14.962,14.962,0,0,0-1.788-2.581v-.052Zm1.851,8.894H42.518a10.334,10.334,0,0,0-12.245-9.291,8.2,8.2,0,0,0,.026-2.874A13.163,13.163,0,0,1,45.356,43.126ZM43.475,5.569H38.3V2.013a.288.288,0,0,1,.288-.288h4.888V5.569Zm1.725,0V1.725H67.523a.288.288,0,0,1,.288.288V5.569Z" transform="translate(-13.835)"/>
          <path id="Path_1174346" data-name="Path 1174346" d="M335.345,87.114H321.907a.863.863,0,1,0,0,1.725h13.439a.863.863,0,1,0,0-1.725Z" transform="translate(-285.713 -77.095)"/>
          <path id="Path_1174347" data-name="Path 1174347" d="M321.907,115.157h7.959a.863.863,0,1,0,0-1.725h-7.959a.863.863,0,1,0,0,1.725Z" transform="translate(-285.713 -100.387)"/>
          <path id="Path_1174348" data-name="Path 1174348" d="M335.345,154.226H321.907a.863.863,0,1,0,0,1.725h13.439a.863.863,0,1,0,0-1.725Z" transform="translate(-285.713 -136.489)"/>
          <path id="Path_1174349" data-name="Path 1174349" d="M321.907,182.269h7.959a.863.863,0,1,0,0-1.725h-7.959a.863.863,0,1,0,0,1.725Z" transform="translate(-285.713 -159.781)"/>
          <path id="Path_1174350" data-name="Path 1174350" d="M335.345,221.337H321.907a.863.863,0,1,0,0,1.725h13.439a.863.863,0,1,0,0-1.725Z" transform="translate(-285.713 -195.882)"/>
          <path id="Path_1174351" data-name="Path 1174351" d="M321.907,249.381h7.959a.863.863,0,1,0,0-1.725h-7.959a.863.863,0,1,0,0,1.725Z" transform="translate(-285.713 -219.174)"/>
          <path id="Path_1174352" data-name="Path 1174352" d="M262.912,82.532a1.209,1.209,0,0,0-1.208-1.208h-3.668a1.209,1.209,0,0,0-1.208,1.208V86.2a1.209,1.209,0,0,0,1.208,1.208H261.7a1.209,1.209,0,0,0,1.208-1.208Zm-1.725,3.151h-2.633V83.049h2.633Z" transform="translate(-228.883 -71.971)"/>
          <path id="Path_1174353" data-name="Path 1174353" d="M262.912,149.644a1.209,1.209,0,0,0-1.208-1.208h-3.668a1.209,1.209,0,0,0-1.208,1.208v3.668a1.209,1.209,0,0,0,1.208,1.208H261.7a1.209,1.209,0,0,0,1.208-1.208Zm-1.725,3.151h-2.633v-2.633h2.633Z" transform="translate(-228.883 -131.365)"/>
          <path id="Path_1174354" data-name="Path 1174354" d="M261.7,215.547h-3.668a1.209,1.209,0,0,0-1.208,1.208v3.668a1.209,1.209,0,0,0,1.208,1.208H261.7a1.209,1.209,0,0,0,1.208-1.208v-3.668A1.209,1.209,0,0,0,261.7,215.547Zm-.517,4.359h-2.633v-2.633h2.633Z" transform="translate(-228.883 -190.758)"/>
          <path id="Path_1174355" data-name="Path 1174355" d="M336.208,289.312a.862.862,0,0,0-.863-.863H321.907a.863.863,0,1,0,0,1.725h13.439A.862.862,0,0,0,336.208,289.312Z" transform="translate(-285.713 -255.276)"/>
          <path id="Path_1174356" data-name="Path 1174356" d="M321.907,314.768a.863.863,0,1,0,0,1.725h7.959a.863.863,0,1,0,0-1.725Z" transform="translate(-285.713 -278.568)"/>
          <path id="Path_1174357" data-name="Path 1174357" d="M62.881,245.177v-.623a2.306,2.306,0,0,0-.065-4.61h-1.6a.582.582,0,0,1,0-1.163h2.812a.863.863,0,1,0,0-1.725H62.881v-.62a.863.863,0,1,0-1.725,0v.623a2.306,2.306,0,0,0,.065,4.61h1.6a.582.582,0,0,1,0,1.163H60a.863.863,0,1,0,0,1.725h1.152v.62a.863.863,0,0,0,1.725,0Z" transform="translate(-53.73 -208.481)"/>
          <path id="Path_1174358" data-name="Path 1174358" d="M70.766,59.5H82.952a1.267,1.267,0,0,0,1.266-1.266V52.368a.863.863,0,1,0-1.725,0v5.405H71.225V45.357l2.132-2.132h9.136v5.118a.863.863,0,1,0,1.725,0V42.766A1.267,1.267,0,0,0,82.952,41.5H73.167a1.258,1.258,0,0,0-.9.371l-2.4,2.4a1.257,1.257,0,0,0-.371.9V58.232A1.267,1.267,0,0,0,70.766,59.5Z" transform="translate(-63.098 -36.727)"/>
          <path id="Path_1174359" data-name="Path 1174359" d="M108.638,74.185H103.2a.863.863,0,0,0,0,1.725h5.441a.863.863,0,1,0,0-1.725Z" transform="translate(-92.157 -65.653)"/>
          <path id="Path_1174360" data-name="Path 1174360" d="M108.638,99.448H103.2a.863.863,0,0,0,0,1.725h5.441a.863.863,0,1,0,0-1.725Z" transform="translate(-92.157 -88.011)"/>
          <path id="Path_1174361" data-name="Path 1174361" d="M109.5,125.8a.862.862,0,0,0-.863-.863H103.2a.863.863,0,0,0,0,1.725h5.441A.862.862,0,0,0,109.5,125.8Z" transform="translate(-92.157 -110.569)"/>
          <path id="Path_1174362" data-name="Path 1174362" d="M103.2,150.315a.863.863,0,0,0,0,1.725h2.439a.863.863,0,0,0,0-1.725Z" transform="translate(-92.157 -133.028)"/>
        </g>
      </g>
    </g>
  </g>
</svg>
