<svg xmlns="http://www.w3.org/2000/svg" xmlns:xlink="http://www.w3.org/1999/xlink" width="103" height="103" viewBox="0 0 103 103">
  <defs>
    <filter id="Path_978624" x="0" y="0" width="103" height="103" filterUnits="userSpaceOnUse">
      <feOffset dy="3" input="SourceAlpha"/>
      <feGaussianBlur stdDeviation="3" result="blur"/>
      <feFlood flood-opacity="0.161"/>
      <feComposite operator="in" in2="blur"/>
      <feComposite in="SourceGraphic"/>
    </filter>
  </defs>
  <g id="Group_1210686" data-name="Group 1210686" transform="translate(-164.789 -2527.5)">
    <g id="Group_1209768" data-name="Group 1209768">
      <g id="Group_1208651" data-name="Group 1208651" transform="translate(-0.711 1469.5)">
        <g id="Group_1178144" data-name="Group 1178144" transform="translate(-19.5 -2004)">
          <g id="Group_1177896" data-name="Group 1177896" transform="translate(14 196)">
            <g id="Group_1176881" data-name="Group 1176881">
              <g id="Group_1175148" data-name="Group 1175148" transform="translate(0 1580)">
                <g id="Group_1173798" data-name="Group 1173798" transform="translate(-3 -3520)">
                  <g id="Group_1171925" data-name="Group 1171925" transform="translate(-22 -2246)">
                    <g id="Group_1164524" data-name="Group 1164524" transform="translate(205 7058)">
                      <g id="Group_1144123" data-name="Group 1144123">
                        <g transform="matrix(1, 0, 0, 1, -9, -6)" filter="url(#Path_978624)">
                          <g id="Path_978624-2" data-name="Path 978624" transform="translate(9 6)" fill="#f9f9fe">
                            <path d="M 42.5 83.5 C 36.96437835693359 83.5 31.59512901306152 82.41617584228516 26.54141235351562 80.27863311767578 C 21.65934181213379 78.21369171142578 17.27447128295898 75.25723266601562 13.50862312316895 71.49137878417969 C 9.742764472961426 67.72553253173828 6.786305904388428 63.34066009521484 4.721364498138428 58.45858764648438 C 2.583823442459106 53.40486907958984 1.5 48.03562164306641 1.5 42.5 C 1.5 36.96437835693359 2.583823442459106 31.59512901306152 4.721364498138428 26.54141235351562 C 6.786305904388428 21.65934181213379 9.742764472961426 17.27447128295898 13.50862312316895 13.50862312316895 C 17.27447128295898 9.742764472961426 21.65934181213379 6.786305904388428 26.54141235351562 4.721364498138428 C 31.59512901306152 2.583823442459106 36.96437835693359 1.5 42.5 1.5 C 48.03562164306641 1.5 53.40486907958984 2.583823442459106 58.45858764648438 4.721364498138428 C 63.34066009521484 6.786305904388428 67.72553253173828 9.742764472961426 71.49137878417969 13.50862312316895 C 75.25723266601562 17.27447128295898 78.21369171142578 21.65934181213379 80.27863311767578 26.54141235351562 C 82.41617584228516 31.59512901306152 83.5 36.96437835693359 83.5 42.5 C 83.5 48.03562164306641 82.41617584228516 53.40486907958984 80.27863311767578 58.45858764648438 C 78.21369171142578 63.34066009521484 75.25723266601562 67.72553253173828 71.49137878417969 71.49137878417969 C 67.72553253173828 75.25723266601562 63.34066009521484 78.21369171142578 58.45858764648438 80.27863311767578 C 53.40486907958984 82.41617584228516 48.03562164306641 83.5 42.5 83.5 Z" stroke="none"/>
                            <path d="M 42.5 3 C 37.16621398925781 3 31.99356079101562 4.043960571289062 27.125732421875 6.102882385253906 C 22.42246627807617 8.092185974121094 18.19785308837891 10.94070434570312 14.56928253173828 14.56928253173828 C 10.94070434570312 18.19785308837891 8.092185974121094 22.42246627807617 6.102882385253906 27.125732421875 C 4.043960571289062 31.99356079101562 3 37.16621398925781 3 42.5 C 3 47.83378601074219 4.043960571289062 53.00643920898438 6.102882385253906 57.87425231933594 C 8.092185974121094 62.57753372192383 10.94070434570312 66.80213165283203 14.56928253173828 70.43071746826172 C 18.19786834716797 74.05929565429688 22.42246627807617 76.90781402587891 27.125732421875 78.89711761474609 C 31.99356079101562 80.95603942871094 37.16621398925781 82 42.5 82 C 47.83378601074219 82 53.00642395019531 80.95603942871094 57.87425231933594 78.89711761474609 C 62.57753372192383 76.90781402587891 66.80213165283203 74.05929565429688 70.43071746826172 70.43071746826172 C 74.05929565429688 66.80213165283203 76.90781402587891 62.57753372192383 78.89711761474609 57.87425231933594 C 80.95603942871094 53.00642395019531 82 47.83378601074219 82 42.5 C 82 37.16621398925781 80.95603942871094 31.99356079101562 78.89711761474609 27.125732421875 C 76.90781402587891 22.42246627807617 74.05929565429688 18.19786834716797 70.43071746826172 14.56928253173828 C 66.80213165283203 10.94070434570312 62.57753372192383 8.092185974121094 57.87425231933594 6.102882385253906 C 53.00643920898438 4.043960571289062 47.83378601074219 3 42.5 3 M 42.5 0 C 65.97209167480469 0 85 19.02789306640625 85 42.5 C 85 65.97209167480469 65.97209167480469 85 42.5 85 C 19.02789306640625 85 0 65.97209167480469 0 42.5 C 0 19.02789306640625 19.02789306640625 0 42.5 0 Z" stroke="none" fill="#cbc9f9"/>
                          </g>
                        </g>
                      </g>
                    </g>
                  </g>
                </g>
              </g>
            </g>
          </g>
        </g>
      </g>
      <g id="pastillas" transform="translate(181.779 2538.025)">
        <path id="Path_1079231" data-name="Path 1079231" d="M22.79,33.86,9.034,20.1a7.375,7.375,0,0,1,0-10.429h0a7.375,7.375,0,0,1,10.429,0L33.219,23.431a7.375,7.375,0,0,1,0,10.429h0A7.374,7.374,0,0,1,22.79,33.86Z" transform="translate(-5.969 -6.565)" fill="#ffca28"/>
        <path id="Path_1079232" data-name="Path 1079232" d="M66.706,23.44,52.95,9.683A7.374,7.374,0,0,0,45.207,7.97a7.345,7.345,0,0,1,2.686,1.713L61.649,23.44a7.375,7.375,0,0,1,0,10.429h0a7.342,7.342,0,0,1-2.686,1.713,7.374,7.374,0,0,0,7.743-1.713h0A7.374,7.374,0,0,0,66.706,23.44Z" transform="translate(-39.456 -6.573)" fill="#ffa000"/>
        <path id="Path_1079233" data-name="Path 1079233" d="M308.482,272.686l9.977-17.281a7.124,7.124,0,0,1,9.732-2.608l.433.25a7.124,7.124,0,0,1,2.608,9.732l-9.977,17.281a7.124,7.124,0,0,1-9.732,2.608l-.433-.25A7.125,7.125,0,0,1,308.482,272.686Z" transform="translate(-268.613 -220.004)" fill="#ef5350"/>
        <path id="Path_1079234" data-name="Path 1079234" d="M339.761,255.363l-.433-.25a7.143,7.143,0,0,0-1.408-.621,7.126,7.126,0,0,1,.656,8.074L328.6,279.848a7.126,7.126,0,0,1-8.324,3.228,7.1,7.1,0,0,0,1.952,1.658l.433.25a7.124,7.124,0,0,0,9.732-2.608l9.977-17.281A7.124,7.124,0,0,0,339.761,255.363Z" transform="translate(-279.749 -222.319)" fill="#d32f2f"/>
        <path id="Path_1079235" data-name="Path 1079235" d="M372.307,262.779a7.124,7.124,0,0,0-2.608-9.732l-.433-.25a7.124,7.124,0,0,0-9.732,2.608l-4.989,8.641,12.773,7.374Z" transform="translate(-309.687 -220.004)" fill="#42a5f5"/>
        <path id="Path_1079236" data-name="Path 1079236" d="M430.741,255.361l-.25-.144-.183-.106h0q-.167-.1-.337-.182l-.05-.024c-.1-.05-.2-.1-.3-.142l-.023-.01a7.217,7.217,0,0,0-.694-.261,7.126,7.126,0,0,1,.656,8.074l-5.135,8.895,3.939,2.274,4.989-8.641a7.091,7.091,0,0,0,.939-4.042c-.016-.233-.043-.466-.082-.7q-.028-.169-.065-.336A7.105,7.105,0,0,0,430.741,255.361Z" transform="translate(-370.73 -222.317)" fill="#1976d2"/>
        <rect id="Rectangle_418186" data-name="Rectangle 418186" width="14.749" height="3.439" transform="translate(8.727 19.201) rotate(-45)" fill="#ffa000"/>
        <circle id="Ellipse_11836" data-name="Ellipse 11836" cx="12.553" cy="12.553" r="12.553" transform="translate(4.917 36.255)" fill="#90caf9"/>
        <path id="Path_1079237" data-name="Path 1079237" d="M85.6,289.523a12.556,12.556,0,0,1-10.933,21.885A12.554,12.554,0,1,0,85.6,289.523Z" transform="translate(-65.193 -252.921)" fill="#42a5f5"/>
        <circle id="Ellipse_11837" data-name="Ellipse 11837" cx="8.371" cy="8.371" r="8.371" transform="translate(36.503 9.276)" fill="#ef5350"/>
        <path id="Path_1079238" data-name="Path 1079238" d="M313.3,76.557a8.371,8.371,0,0,1-8.927,13.408A8.37,8.37,0,1,0,313.3,76.557Z" transform="translate(-265.856 -66.879)" fill="#d32f2f"/>
        <path id="Path_1079239" data-name="Path 1079239" d="M46.053,337.777a12.644,12.644,0,0,0,1.112,1.622L68.645,327a12.7,12.7,0,0,0-1.961-3.4L45.205,336A12.661,12.661,0,0,0,46.053,337.777Z" transform="translate(-39.454 -282.692)" fill="#42a5f5"/>
        <g id="Group_1209767" data-name="Group 1209767" transform="translate(0.041 0)">
          <path id="Path_1079240" data-name="Path 1079240" d="M16.231,27.966A8.323,8.323,0,1,0,28,16.2L14.245,2.439a8.323,8.323,0,0,0-11.77,11.77ZM26.66,26.625a6.423,6.423,0,0,1-9.088,0L12.58,21.633l.824-.824a.948.948,0,0,0-1.341-1.341l-.824.824L10.148,19.2l9.088-9.088L20.327,11.2,15.192,16.34a.948.948,0,0,0,1.341,1.341l5.136-5.136,4.992,4.992A6.434,6.434,0,0,1,26.66,26.625ZM3.816,3.78a6.434,6.434,0,0,1,9.088,0L17.9,8.772,8.807,17.86,3.816,12.869A6.423,6.423,0,0,1,3.816,3.78Z" transform="translate(-0.041 0)"/>
          <path id="Path_1079241" data-name="Path 1079241" d="M323.171,245.663l-.433-.25a8.068,8.068,0,0,0-11.027,2.955l-1.022,1.77a.948.948,0,1,0,1.642.948l1.022-1.77a6.173,6.173,0,0,1,8.437-2.26l.433.25a6.183,6.183,0,0,1,2.261,8.437l-4.515,7.82-11.131-6.426,1.28-2.217a.948.948,0,1,0-1.642-.948l-6.743,11.679a8.068,8.068,0,0,0,2.955,11.027l.433.25a8.069,8.069,0,0,0,11.027-2.955l9.977-17.281A8.082,8.082,0,0,0,323.171,245.663Zm-8.665,27.36a6.173,6.173,0,0,1-8.437,2.261l-.433-.25a6.173,6.173,0,0,1-2.261-8.437l4.514-7.82,11.131,6.426Z" transform="translate(-262.646 -213.44)"/>
          <path id="Path_1079242" data-name="Path 1079242" d="M290.917,84.51a9.319,9.319,0,1,0-9.319-9.319A9.329,9.329,0,0,0,290.917,84.51Zm0-16.742a7.423,7.423,0,1,1-7.423,7.423A7.431,7.431,0,0,1,290.917,67.768Z" transform="translate(-246.003 -57.544)"/>
          <path id="Path_1079243" data-name="Path 1079243" d="M45.251,279.281a13.5,13.5,0,1,0,13.5,13.5A13.517,13.517,0,0,0,45.251,279.281Zm0,1.9a11.569,11.569,0,0,1,8.27,3.472l-13.178,7.608a.948.948,0,1,0,.948,1.642l13.462-7.772a11.611,11.611,0,0,1,1.015,1.752L35.749,299.437a11.615,11.615,0,0,1-1.015-1.752l2.725-1.573a.948.948,0,0,0-.948-1.642l-2.444,1.411a11.607,11.607,0,0,1,11.184-14.7Zm0,23.21a11.57,11.57,0,0,1-8.27-3.472l19.454-11.232a11.607,11.607,0,0,1-11.184,14.7Z" transform="translate(-27.741 -243.974)"/>
        </g>
      </g>
    </g>
  </g>
</svg>
