<svg xmlns="http://www.w3.org/2000/svg" xmlns:xlink="http://www.w3.org/1999/xlink" width="93.934" height="93.934" viewBox="0 0 93.934 93.934">
  <defs>
    <filter id="Path_978624" x="0" y="0" width="93.934" height="93.934" filterUnits="userSpaceOnUse">
      <feOffset dy="3" input="SourceAlpha"/>
      <feGaussianBlur stdDeviation="3" result="blur"/>
      <feFlood flood-opacity="0.161"/>
      <feComposite operator="in" in2="blur"/>
      <feComposite in="SourceGraphic"/>
    </filter>
  </defs>
  <g id="Group_1210704" data-name="Group 1210704" transform="translate(-189 -5799.375)">
    <g id="Group_1209922" data-name="Group 1209922">
      <g id="Group_1208655" data-name="Group 1208655" transform="translate(-420 3898.655)">
        <g id="Group_1208068" data-name="Group 1208068" transform="translate(412 470.719)">
          <g id="Group_1144123" data-name="Group 1144123" transform="translate(206 1436)">
            <g transform="matrix(1, 0, 0, 1, -9, -6)" filter="url(#Path_978624)">
              <g id="Path_978624-2" data-name="Path 978624" transform="translate(9 6)" fill="#f7fbfc">
                <path d="M 37.966796875 74.43359375 C 33.04315185546875 74.43359375 28.26757431030273 73.46962738037109 23.77274131774902 71.56847381591797 C 19.43047523498535 69.73184967041016 15.53040790557861 67.10224914550781 12.18087482452393 63.75271987915039 C 8.831341743469238 60.4031867980957 6.201741218566895 56.50312042236328 4.365118980407715 52.16086196899414 C 2.463963508605957 47.66601943969727 1.499996900558472 42.89044189453125 1.499996900558472 37.966796875 C 1.499996900558472 33.04315185546875 2.463963508605957 28.26757431030273 4.365118980407715 23.77274131774902 C 6.201741218566895 19.43047523498535 8.831341743469238 15.53040790557861 12.18087482452393 12.18087482452393 C 15.53040790557861 8.831341743469238 19.43047523498535 6.201741218566895 23.77274131774902 4.365118980407715 C 28.26757431030273 2.463963508605957 33.04315185546875 1.499996900558472 37.966796875 1.499996900558472 C 42.89044189453125 1.499996900558472 47.66601943969727 2.463963508605957 52.16086196899414 4.365118980407715 C 56.50312042236328 6.201741218566895 60.4031867980957 8.831341743469238 63.75271987915039 12.18087482452393 C 67.10224914550781 15.53040790557861 69.73184967041016 19.43047523498535 71.56847381591797 23.77274131774902 C 73.46962738037109 28.26757431030273 74.43359375 33.04315185546875 74.43359375 37.966796875 C 74.43359375 42.89044189453125 73.46962738037109 47.66601943969727 71.56847381591797 52.16086196899414 C 69.73184967041016 56.50313186645508 67.10224914550781 60.4031867980957 63.75271987915039 63.75271987915039 C 60.4031867980957 67.10224914550781 56.50313186645508 69.73184967041016 52.16086196899414 71.56847381591797 C 47.66601943969727 73.46962738037109 42.89044189453125 74.43359375 37.966796875 74.43359375 Z" stroke="none"/>
                <path d="M 37.966796875 3 C 33.2449836730957 3 28.66600799560547 3.924095153808594 24.35705947875977 5.746635437011719 C 20.19359588623047 7.507621765136719 16.45379638671875 10.02927398681641 13.24153518676758 13.24153518676758 C 10.02927398681641 16.45379638671875 7.507621765136719 20.19359588623047 5.746635437011719 24.35705947875977 C 3.924095153808594 28.66600799560547 3 33.2449836730957 3 37.966796875 C 3 42.6886100769043 3.924095153808594 47.26758575439453 5.746635437011719 51.57653427124023 C 7.507621765136719 55.73999786376953 10.02927398681641 59.47979736328125 13.24153518676758 62.69205856323242 C 16.45379638671875 65.90431976318359 20.19359588623047 68.42597198486328 24.35705947875977 70.18695831298828 C 28.66600799560547 72.00949859619141 33.2449836730957 72.93359375 37.966796875 72.93359375 C 42.6886100769043 72.93359375 47.26758575439453 72.00949859619141 51.57653427124023 70.18695831298828 C 55.73999786376953 68.42597198486328 59.47979736328125 65.90431976318359 62.69205856323242 62.69205856323242 C 65.90431976318359 59.47979736328125 68.42597198486328 55.73999786376953 70.18695831298828 51.57653427124023 C 72.00949859619141 47.26758575439453 72.93359375 42.6886100769043 72.93359375 37.966796875 C 72.93359375 33.2449836730957 72.00949859619141 28.66600799560547 70.18695831298828 24.35705947875977 C 68.42597198486328 20.19359588623047 65.90431976318359 16.45379638671875 62.69205856323242 13.24153518676758 C 59.47979736328125 10.02927398681641 55.73999786376953 7.507621765136719 51.57653427124023 5.746635437011719 C 47.26758575439453 3.924095153808594 42.6886100769043 3 37.966796875 3 M 37.966796875 0 C 58.93528366088867 0 75.93359375 16.99831008911133 75.93359375 37.966796875 C 75.93359375 58.93528366088867 58.93528366088867 75.93359375 37.966796875 75.93359375 C 16.99831008911133 75.93359375 0 58.93528366088867 0 37.966796875 C 0 16.99831008911133 16.99831008911133 0 37.966796875 0 Z" stroke="none" fill="#62797e"/>
              </g>
            </g>
          </g>
        </g>
      </g>
      <g id="mdma" transform="translate(209.635 5817.074)">
        <path id="Path_1079354" data-name="Path 1079354" d="M168.267,187.294a17.507,17.507,0,1,1,19.1-19.1A17.507,17.507,0,0,1,168.267,187.294Z" transform="translate(-135.689 -135.689)" fill="#ff8ca5"/>
        <path id="Path_1079355" data-name="Path 1079355" d="M204.7,200.713a17.524,17.524,0,0,1-28.888-.718,1.754,1.754,0,0,1,1.3-2.7,22.775,22.775,0,0,0,20.242-20.237,1.752,1.752,0,0,1,2.692-1.3A17.529,17.529,0,0,1,204.7,200.713Z" transform="translate(-156.259 -156.283)" fill="#ffa4b8"/>
        <path id="Path_1079356" data-name="Path 1079356" d="M23.907,42.934a17.507,17.507,0,1,1,19.1-19.1A17.507,17.507,0,0,1,23.907,42.934Z" transform="translate(-7.125 -7.125)" fill="#ffa4b8"/>
        <path id="Path_1079357" data-name="Path 1079357" d="M31.619,14.332A17.99,17.99,0,0,0,14.567,31.406a2.626,2.626,0,0,1-5.034.958A17.516,17.516,0,0,1,32.576,9.3a2.626,2.626,0,0,1-.957,5.034Z" transform="translate(-7.125 -6.968)" fill="#ffbfcb"/>
        <path id="Path_1079358" data-name="Path 1079358" d="M246.807,253.492a4.574,4.574,0,0,1,4.2,4.917c-.491,6.281-5.838,9.937-8.85,9.937-2.73,0-7.377-3-8.588-8.244a17.563,17.563,0,0,0,7.023-5.724,4.6,4.6,0,0,1,1.566,2.092,4.571,4.571,0,0,1,4.646-2.978Z" transform="translate(-207.952 -225.744)" fill="#e84857"/>
        <circle id="Ellipse_11848" data-name="Ellipse 11848" cx="10.955" cy="10.955" r="10.955" transform="translate(7.656 7.584)" fill="#ffe773"/>
        <path id="Path_1079359" data-name="Path 1079359" d="M76.845,67.814a18.422,18.422,0,0,0-9.021,9.046.875.875,0,0,1-1.669-.425A11.269,11.269,0,0,1,76.418,66.146.875.875,0,0,1,76.845,67.814Z" transform="translate(-58.85 -58.905)" fill="#fe9"/>
        <path id="Path_1079360" data-name="Path 1079360" d="M274.759,259.958c-.491,6.281-5.838,9.937-8.849,9.937a8.6,8.6,0,0,1-5.4-2.647.877.877,0,0,1,.207-1.409,22.852,22.852,0,0,0,9.872-10.13.877.877,0,0,1,1.064-.448A4.577,4.577,0,0,1,274.759,259.958Z" transform="translate(-231.701 -227.292)" fill="#fe4f60"/>
        <path id="Path_1079361" data-name="Path 1079361" d="M18.454,36.764a18.372,18.372,0,1,1,8.2-1.927c1.385,4.587,5.5,6.89,7.554,6.891,2.465,0,7.514-3.223,7.976-9.129a3.7,3.7,0,0,0-4.459-3.908.875.875,0,0,1-.365-1.712,5.457,5.457,0,0,1,6.569,5.757c-.513,6.557-6.1,10.742-9.72,10.743h0c-3.016,0-8.113-3.178-9.441-8.922a.876.876,0,0,1,.5-1,16.64,16.64,0,1,0-6.81,1.453.875.875,0,1,1,0,1.751Zm23.777-19.17a.875.875,0,0,0-.765,1.575A16.634,16.634,0,1,1,19.241,41.394a.875.875,0,0,0-1.575.765A18.385,18.385,0,1,0,42.231,17.594ZM8.966,12.437a.875.875,0,0,0-1.181.369,12.036,12.036,0,1,0,5.784-5.427.875.875,0,1,0,.711,1.6,10.286,10.286,0,1,1-4.945,4.64.875.875,0,0,0-.369-1.181Zm4.717,6.339a.875.875,0,1,0-1.751,0,6.521,6.521,0,1,0,13.042,0,.875.875,0,1,0-1.751,0,4.771,4.771,0,1,1-9.541,0Zm3.151-3.545v-.525a.875.875,0,0,0-1.751,0v.525a.875.875,0,0,0,1.751,0Zm4.989,0v-.525a.875.875,0,1,0-1.751,0v.525a.875.875,0,1,0,1.751,0Z"/>
      </g>
    </g>
  </g>
</svg>
