<svg xmlns="http://www.w3.org/2000/svg" xmlns:xlink="http://www.w3.org/1999/xlink" width="103" height="103" viewBox="0 0 103 103">
  <defs>
    <filter id="Path_978624" x="0" y="0" width="103" height="103" filterUnits="userSpaceOnUse">
      <feOffset dy="3" input="SourceAlpha"/>
      <feGaussianBlur stdDeviation="3" result="blur"/>
      <feFlood flood-opacity="0.161"/>
      <feComposite operator="in" in2="blur"/>
      <feComposite in="SourceGraphic"/>
    </filter>
  </defs>
  <g id="Group_1210697" data-name="Group 1210697" transform="translate(-192 -4462.5)">
    <g id="Group_1209788" data-name="Group 1209788">
      <g id="Group_1208683" data-name="Group 1208683" transform="translate(201 4468.5)">
        <g id="Group_1178144" data-name="Group 1178144">
          <g id="Group_1177896" data-name="Group 1177896">
            <g id="Group_1176881" data-name="Group 1176881">
              <g id="Group_1175148" data-name="Group 1175148">
                <g id="Group_1173798" data-name="Group 1173798">
                  <g id="Group_1171925" data-name="Group 1171925">
                    <g id="Group_1164524" data-name="Group 1164524">
                      <g id="Group_1144123" data-name="Group 1144123">
                        <g transform="matrix(1, 0, 0, 1, -9, -6)" filter="url(#Path_978624)">
                          <g id="Path_978624-2" data-name="Path 978624" transform="translate(9 6)" fill="#fff9f4">
                            <path d="M 42.5 83.5 C 36.96437835693359 83.5 31.59512901306152 82.41617584228516 26.54141235351562 80.27863311767578 C 21.65934181213379 78.21369171142578 17.27447128295898 75.25723266601562 13.50862312316895 71.49137878417969 C 9.742764472961426 67.72553253173828 6.786305904388428 63.34066009521484 4.721364498138428 58.45858764648438 C 2.583823442459106 53.40486907958984 1.5 48.03562164306641 1.5 42.5 C 1.5 36.96437835693359 2.583823442459106 31.59512901306152 4.721364498138428 26.54141235351562 C 6.786305904388428 21.65934181213379 9.742764472961426 17.27447128295898 13.50862312316895 13.50862312316895 C 17.27447128295898 9.742764472961426 21.65934181213379 6.786305904388428 26.54141235351562 4.721364498138428 C 31.59512901306152 2.583823442459106 36.96437835693359 1.5 42.5 1.5 C 48.03562164306641 1.5 53.40486907958984 2.583823442459106 58.45858764648438 4.721364498138428 C 63.34066009521484 6.786305904388428 67.72553253173828 9.742764472961426 71.49137878417969 13.50862312316895 C 75.25723266601562 17.27447128295898 78.21369171142578 21.65934181213379 80.27863311767578 26.54141235351562 C 82.41617584228516 31.59512901306152 83.5 36.96437835693359 83.5 42.5 C 83.5 48.03562164306641 82.41617584228516 53.40486907958984 80.27863311767578 58.45858764648438 C 78.21369171142578 63.34066009521484 75.25723266601562 67.72553253173828 71.49137878417969 71.49137878417969 C 67.72553253173828 75.25723266601562 63.34066009521484 78.21369171142578 58.45858764648438 80.27863311767578 C 53.40486907958984 82.41617584228516 48.03562164306641 83.5 42.5 83.5 Z" stroke="none"/>
                            <path d="M 42.5 3 C 37.16621398925781 3 31.99356079101562 4.043960571289062 27.125732421875 6.102882385253906 C 22.42246627807617 8.092185974121094 18.19785308837891 10.94070434570312 14.56928253173828 14.56928253173828 C 10.94070434570312 18.19785308837891 8.092185974121094 22.42246627807617 6.102882385253906 27.125732421875 C 4.043960571289062 31.99356079101562 3 37.16621398925781 3 42.5 C 3 47.83378601074219 4.043960571289062 53.00643920898438 6.102882385253906 57.87425231933594 C 8.092185974121094 62.57753372192383 10.94070434570312 66.80213165283203 14.56928253173828 70.43071746826172 C 18.19786834716797 74.05929565429688 22.42246627807617 76.90781402587891 27.125732421875 78.89711761474609 C 31.99356079101562 80.95603942871094 37.16621398925781 82 42.5 82 C 47.83378601074219 82 53.00642395019531 80.95603942871094 57.87425231933594 78.89711761474609 C 62.57753372192383 76.90781402587891 66.80213165283203 74.05929565429688 70.43071746826172 70.43071746826172 C 74.05929565429688 66.80213165283203 76.90781402587891 62.57753372192383 78.89711761474609 57.87425231933594 C 80.95603942871094 53.00642395019531 82 47.83378601074219 82 42.5 C 82 37.16621398925781 80.95603942871094 31.99356079101562 78.89711761474609 27.125732421875 C 76.90781402587891 22.42246627807617 74.05929565429688 18.19786834716797 70.43071746826172 14.56928253173828 C 66.80213165283203 10.94070434570312 62.57753372192383 8.092185974121094 57.87425231933594 6.102882385253906 C 53.00643920898438 4.043960571289062 47.83378601074219 3 42.5 3 M 42.5 0 C 65.97209167480469 0 85 19.02789306640625 85 42.5 C 85 65.97209167480469 65.97209167480469 85 42.5 85 C 19.02789306640625 85 0 65.97209167480469 0 42.5 C 0 19.02789306640625 19.02789306640625 0 42.5 0 Z" stroke="none" fill="#8b7157"/>
                          </g>
                        </g>
                      </g>
                    </g>
                  </g>
                </g>
              </g>
            </g>
          </g>
        </g>
      </g>
      <g id="alucinogeno" transform="translate(193.285 4477.321)">
        <path id="Path_1079263" data-name="Path 1079263" d="M159.481,47.112c-4.12,0-12.547-4.737-13.051-11.573l-.955-12.966a14.044,14.044,0,1,1,28.011,0l-.955,12.966C172.028,42.375,163.6,47.112,159.481,47.112Z" transform="translate(-109.266 -6.546)" fill="#ffccbc"/>
        <path id="Path_1079264" data-name="Path 1079264" d="M208.1,11.171a14.019,14.019,0,0,1,5.32,12.068L212.461,36.2c-.5,6.836-8.931,11.573-13.051,11.573a8.808,8.808,0,0,1-2.414-.4,14.453,14.453,0,0,0,7.495,2.938c4.12,0,12.547-4.737,13.051-11.573l.955-12.966A14.05,14.05,0,0,0,208.1,11.171Z" transform="translate(-154.276 -9.752)" fill="#ff8a65"/>
        <path id="Path_1079265" data-name="Path 1079265" d="M360.088,154.529h-.435l.657-8.921h2.36a3,3,0,0,1,3,3v.329A5.587,5.587,0,0,1,360.088,154.529Z" transform="translate(-296.271 -127.112)" fill="#ff8a65"/>
        <path id="Path_1079266" data-name="Path 1079266" d="M110.524,154.529h.435l-.657-8.921h-2.36a3,3,0,0,0-3,3v.329A5.587,5.587,0,0,0,110.524,154.529Z" transform="translate(-73.911 -127.112)" fill="#ff8a65"/>
        <path id="Path_1079267" data-name="Path 1079267" d="M77.327,345.854H66.32a9.557,9.557,0,1,1-19.114,0H36.2a8.427,8.427,0,0,0-8.427,8.427v11.725H85.754V354.281A8.427,8.427,0,0,0,77.327,345.854Z" transform="translate(-6.548 -301.922)" fill="#ffca28"/>
        <path id="Path_1079268" data-name="Path 1079268" d="M78.332,346.341a8.4,8.4,0,0,1,2.34,5.825v1.553A10.172,10.172,0,0,1,70.5,363.891H27.771v2.541H85.753V354.706A8.427,8.427,0,0,0,78.332,346.341Z" transform="translate(-6.547 -302.347)" fill="#ffa000"/>
        <path id="Path_1079269" data-name="Path 1079269" d="M190.321,313.759a9.557,9.557,0,0,0,9.557-9.574h-1.2a1.206,1.206,0,0,1-1.206-1.206v-4.857a14.164,14.164,0,0,1-7.152,2.7,14.166,14.166,0,0,1-7.152-2.7v4.857a1.206,1.206,0,0,1-1.206,1.206h-1.2A9.557,9.557,0,0,0,190.321,313.759Z" transform="translate(-140.106 -260.253)" fill="#ffccbc"/>
        <path id="Path_1079270" data-name="Path 1079270" d="M218.883,304.184a1.206,1.206,0,0,1-1.206-1.206v-4.857a16.905,16.905,0,0,1-5.077,2.392,1.2,1.2,0,0,0,1.2,1.13h0a1.126,1.126,0,0,1,1.117,1.27,9.556,9.556,0,0,1-11.011,8.179,9.554,9.554,0,0,0,16.174-6.909h-1.2Z" transform="translate(-160.31 -260.252)" fill="#ff8a65"/>
        <path id="Path_1079271" data-name="Path 1079271" d="M201.938,230.975h0a7.866,7.866,0,0,1-7.866-7.866H209.8A7.867,7.867,0,0,1,201.938,230.975Z" transform="translate(-151.724 -194.769)" fill="#ef5350"/>
        <path id="Path_1079272" data-name="Path 1079272" d="M217.67,252.132a7.833,7.833,0,0,0,4.869,1.687h0a7.833,7.833,0,0,0,4.869-1.687,5.579,5.579,0,0,0-9.738,0Z" transform="translate(-172.324 -217.613)" fill="#ef9a9a"/>
        <path id="Path_1079273" data-name="Path 1079273" d="M202.626,46.376a7.572,7.572,0,0,0-5.081-2.906l-.1,0a5.354,5.354,0,0,1,1.869-.144,1.47,1.47,0,1,0,.313-2.923,7.846,7.846,0,0,0-5.776,1.683,5.359,5.359,0,0,1,1.278-1.5,1.47,1.47,0,1,0-1.839-2.293,7.852,7.852,0,0,0-2.924,5.1,6.743,6.743,0,0,1-.125-1.848,1.47,1.47,0,0,0-2.933-.2,8.014,8.014,0,0,0,1.529,5.582,7.045,7.045,0,0,1-1.4-1.205,1.47,1.47,0,1,0-2.183,1.969,8.156,8.156,0,0,0,5.1,2.855,9.7,9.7,0,0,1-1.977.127h-.025a1.47,1.47,0,0,0-.024,2.94q.179,0,.361,0a7.724,7.724,0,0,0,5.094-1.485l.019-.015c.081-.069.158-.139.232-.209a5.068,5.068,0,0,1-1.3,1.487,1.47,1.47,0,1,0,1.765,2.351,7.472,7.472,0,0,0,2.981-5.107,5.329,5.329,0,0,1,.111,1.769,1.47,1.47,0,1,0,2.923.315,7.58,7.58,0,0,0-1.509-5.554c-.085-.1-.174-.2-.265-.3a5.543,5.543,0,0,1,1.592,1.352,1.47,1.47,0,1,0,2.293-1.84Z" transform="translate(-143.701 -33.142)" fill="#ab47bc"/>
        <g id="Group_1209787" data-name="Group 1209787" transform="translate(20.271 0)">
          <path id="Path_1079274" data-name="Path 1079274" d="M187.524,215.609a.953.953,0,0,0-.953.953,8.819,8.819,0,0,0,17.638,0,.953.953,0,0,0-.953-.953Zm4.321,6.885a4.627,4.627,0,0,1,7.092,0A6.9,6.9,0,0,1,191.844,222.494Zm8.575-1.195a6.528,6.528,0,0,0-10.059,0,6.9,6.9,0,0,1-1.819-3.785h13.7A6.894,6.894,0,0,1,200.42,221.3Z" transform="translate(-165.446 -188.221)"/>
          <path id="Path_1079275" data-name="Path 1079275" d="M70.779,42.98H58.572a.254.254,0,0,1-.253-.253V38.363c6.348-4.593,5.846-9.73,5.949-10.011a6.547,6.547,0,0,0,6.088-6.523V21.5A3.962,3.962,0,0,0,66.4,17.543H65.064a15.678,15.678,0,0,0-2.9-11.6A.953.953,0,1,0,60.65,7.091a13.069,13.069,0,0,1,2.62,8.866l-.955,12.966c-.249,3.384-2.674,6.217-5.488,8.161a13.131,13.131,0,0,1-6.613,2.53c-2.305,0-5.328-1.527-7.305-3.029-1.674-1.271-4.523-3.956-4.8-7.661l-.955-12.966A13.092,13.092,0,0,1,57.817,4.336a.953.953,0,0,0,1.108-1.55A15,15,0,0,0,35.259,16.1l.106,1.446H34.031A3.962,3.962,0,0,0,30.073,21.5v.329a6.547,6.547,0,0,0,6.088,6.523c.1.278-.388,5.426,5.949,10.011v4.364a.254.254,0,0,1-.253.253H29.651a9.39,9.39,0,0,0-9.38,9.38v4.221a.953.953,0,1,0,1.905,0V52.359a7.483,7.483,0,0,1,7.474-7.474h10.1A10.518,10.518,0,0,0,54.388,53.6a.953.953,0,0,0-.757-1.748,8.61,8.61,0,0,1-11.969-6.963h.194a2.161,2.161,0,0,0,2.159-2.159V39.58a13.635,13.635,0,0,0,6.2,1.939,13.635,13.635,0,0,0,6.2-1.939v3.147a2.161,2.161,0,0,0,2.159,2.159h.193a8.613,8.613,0,0,1-1.905,4.53.953.953,0,1,0,1.471,1.211,10.526,10.526,0,0,0,2.35-5.741h10.1a7.483,7.483,0,0,1,7.474,7.474V63.132H70.022V58.339a.953.953,0,0,0-1.905,0v4.793h-35.8V58.339a.953.953,0,0,0-1.905,0v4.793H22.176v-2.1a.953.953,0,1,0-1.905,0v3.058a.953.953,0,0,0,.953.953H79.206a.953.953,0,0,0,.953-.953V52.359A9.39,9.39,0,0,0,70.779,42.98ZM66.4,19.448A2.055,2.055,0,0,1,68.451,21.5v.329a4.64,4.64,0,0,1-4.041,4.6l.514-6.976H66.4Zm-34.42,2.381V21.5a2.055,2.055,0,0,1,2.052-2.052h1.475l.514,6.976A4.64,4.64,0,0,1,31.979,21.829Z" transform="translate(-20.271 0)"/>
          <path id="Path_1079276" data-name="Path 1079276" d="M194.458,37.13a2.426,2.426,0,0,0-1.309-4.256,9.478,9.478,0,0,0-3.108.217,2.426,2.426,0,0,0-3.926-2.124,9.229,9.229,0,0,0-2.065,2.337,2.426,2.426,0,0,0-4.272,1.394A10.512,10.512,0,0,0,180,37.713a2.424,2.424,0,0,0-2.026,4.033,10.842,10.842,0,0,0,2.28,1.935,2.422,2.422,0,0,0,1.483,4.3,13.092,13.092,0,0,0,2.89-.22,2.425,2.425,0,0,0,3.866,2.161,8.874,8.874,0,0,0,2.159-2.346,2.424,2.424,0,0,0,4.23-1.337,9.191,9.191,0,0,0-.2-3.108,2.426,2.426,0,0,0,2.1-3.929A9.414,9.414,0,0,0,194.458,37.13Zm.762,3.992a.517.517,0,0,1-.727-.08,6.453,6.453,0,0,0-1.872-1.588.953.953,0,0,0-1.154,1.489,6.491,6.491,0,0,1,1.517,5.092.517.517,0,1,1-1.028-.111,6.3,6.3,0,0,0-.13-2.088.953.953,0,0,0-1.877.144,6.512,6.512,0,0,1-2.6,4.419.517.517,0,0,1-.621-.827A6.047,6.047,0,0,0,188.28,45.8a.953.953,0,0,0-1.482-1.167c-1.323,1.264-3.228,1.474-5.032,1.443a.517.517,0,1,1,.017-1.034h0a10.442,10.442,0,0,0,2.174-.144.953.953,0,0,0-.083-1.883,7.269,7.269,0,0,1-4.489-2.545.517.517,0,1,1,.768-.693,7.977,7.977,0,0,0,1.588,1.368.953.953,0,0,0,1.249-1.409,7,7,0,0,1-1.311-4.908.517.517,0,0,1,1.032.07,7.675,7.675,0,0,0,.145,2.115.953.953,0,0,0,1.878-.1,6.9,6.9,0,0,1,2.574-4.462.517.517,0,0,1,.647.807,6.318,6.318,0,0,0-1.508,1.769.953.953,0,0,0,1.461,1.185,6.913,6.913,0,0,1,5.04-1.446.517.517,0,1,1-.11,1.028,6.287,6.287,0,0,0-2.206.168.953.953,0,0,0,.189,1.875,6.257,6.257,0,0,1,4.482,2.555A.518.518,0,0,1,195.22,41.122Z" transform="translate(-157.389 -26.565)"/>
          <path id="Path_1079277" data-name="Path 1079277" d="M240.87,102.368h-2.923a.953.953,0,1,0,0,1.905h2.923a.953.953,0,0,0,0-1.905Z" transform="translate(-209.464 -89.364)"/>
        </g>
      </g>
    </g>
  </g>
</svg>
