<svg xmlns="http://www.w3.org/2000/svg" xmlns:xlink="http://www.w3.org/1999/xlink" width="103" height="103" viewBox="0 0 103 103">
  <defs>
    <filter id="Path_978624" x="0" y="0" width="103" height="103" filterUnits="userSpaceOnUse">
      <feOffset dy="3" input="SourceAlpha"/>
      <feGaussianBlur stdDeviation="3" result="blur"/>
      <feFlood flood-opacity="0.161"/>
      <feComposite operator="in" in2="blur"/>
      <feComposite in="SourceGraphic"/>
    </filter>
  </defs>
  <g id="Group_1210730" data-name="Group 1210730" transform="translate(-191 -287)">
    <g id="Group_1210516" data-name="Group 1210516">
      <g id="Group_1208719" data-name="Group 1208719" transform="translate(25.5 -771)">
        <g id="Group_1178144" data-name="Group 1178144" transform="translate(-19.5 -2004)">
          <g id="Group_1177896" data-name="Group 1177896" transform="translate(14 196)">
            <g id="Group_1176881" data-name="Group 1176881">
              <g id="Group_1175148" data-name="Group 1175148" transform="translate(0 1580)">
                <g id="Group_1173798" data-name="Group 1173798" transform="translate(-3 -3520)">
                  <g id="Group_1171925" data-name="Group 1171925" transform="translate(-22 -2246)">
                    <g id="Group_1164524" data-name="Group 1164524" transform="translate(205 7058)">
                      <g id="Group_1144123" data-name="Group 1144123">
                        <g transform="matrix(1, 0, 0, 1, -9, -6)" filter="url(#Path_978624)">
                          <g id="Path_978624-2" data-name="Path 978624" transform="translate(9 6)" fill="#fff6f9">
                            <path d="M 42.5 83.5 C 36.96437835693359 83.5 31.59512901306152 82.41617584228516 26.54141235351562 80.27863311767578 C 21.65934181213379 78.21369171142578 17.27447128295898 75.25723266601562 13.50862312316895 71.49137878417969 C 9.742764472961426 67.72553253173828 6.786305904388428 63.34066009521484 4.721364498138428 58.45858764648438 C 2.583823442459106 53.40486907958984 1.5 48.03562164306641 1.5 42.5 C 1.5 36.96437835693359 2.583823442459106 31.59512901306152 4.721364498138428 26.54141235351562 C 6.786305904388428 21.65934181213379 9.742764472961426 17.27447128295898 13.50862312316895 13.50862312316895 C 17.27447128295898 9.742764472961426 21.65934181213379 6.786305904388428 26.54141235351562 4.721364498138428 C 31.59512901306152 2.583823442459106 36.96437835693359 1.5 42.5 1.5 C 48.03562164306641 1.5 53.40486907958984 2.583823442459106 58.45858764648438 4.721364498138428 C 63.34066009521484 6.786305904388428 67.72553253173828 9.742764472961426 71.49137878417969 13.50862312316895 C 75.25723266601562 17.27447128295898 78.21369171142578 21.65934181213379 80.27863311767578 26.54141235351562 C 82.41617584228516 31.59512901306152 83.5 36.96437835693359 83.5 42.5 C 83.5 48.03562164306641 82.41617584228516 53.40486907958984 80.27863311767578 58.45858764648438 C 78.21369171142578 63.34066009521484 75.25723266601562 67.72553253173828 71.49137878417969 71.49137878417969 C 67.72553253173828 75.25723266601562 63.34066009521484 78.21369171142578 58.45858764648438 80.27863311767578 C 53.40486907958984 82.41617584228516 48.03562164306641 83.5 42.5 83.5 Z" stroke="none"/>
                            <path d="M 42.5 3 C 37.16621398925781 3 31.99356079101562 4.043960571289062 27.125732421875 6.102882385253906 C 22.42246627807617 8.092185974121094 18.19785308837891 10.94070434570312 14.56928253173828 14.56928253173828 C 10.94070434570312 18.19785308837891 8.092185974121094 22.42246627807617 6.102882385253906 27.125732421875 C 4.043960571289062 31.99356079101562 3 37.16621398925781 3 42.5 C 3 47.83378601074219 4.043960571289062 53.00643920898438 6.102882385253906 57.87425231933594 C 8.092185974121094 62.57753372192383 10.94070434570312 66.80213165283203 14.56928253173828 70.43071746826172 C 18.19786834716797 74.05929565429688 22.42246627807617 76.90781402587891 27.125732421875 78.89711761474609 C 31.99356079101562 80.95603942871094 37.16621398925781 82 42.5 82 C 47.83378601074219 82 53.00642395019531 80.95603942871094 57.87425231933594 78.89711761474609 C 62.57753372192383 76.90781402587891 66.80213165283203 74.05929565429688 70.43071746826172 70.43071746826172 C 74.05929565429688 66.80213165283203 76.90781402587891 62.57753372192383 78.89711761474609 57.87425231933594 C 80.95603942871094 53.00642395019531 82 47.83378601074219 82 42.5 C 82 37.16621398925781 80.95603942871094 31.99356079101562 78.89711761474609 27.125732421875 C 76.90781402587891 22.42246627807617 74.05929565429688 18.19786834716797 70.43071746826172 14.56928253173828 C 66.80213165283203 10.94070434570312 62.57753372192383 8.092185974121094 57.87425231933594 6.102882385253906 C 53.00643920898438 4.043960571289062 47.83378601074219 3 42.5 3 M 42.5 0 C 65.97209167480469 0 85 19.02789306640625 85 42.5 C 85 65.97209167480469 65.97209167480469 85 42.5 85 C 19.02789306640625 85 0 65.97209167480469 0 42.5 C 0 19.02789306640625 19.02789306640625 0 42.5 0 Z" stroke="none" fill="#8b5e6f"/>
                          </g>
                        </g>
                      </g>
                    </g>
                  </g>
                </g>
              </g>
            </g>
          </g>
        </g>
      </g>
      <g id="sobremedicando" transform="translate(204.998 308.036)">
        <path id="Path_1080071" data-name="Path 1080071" d="M72.123,23.956a4.586,4.586,0,0,0-6.485,0l3.872-3.872A4.586,4.586,0,0,0,63.025,13.6l-3.872,3.872a4.586,4.586,0,0,0-.067-6.551,4.645,4.645,0,0,0-6.482.13l-4.268,4.268a4.586,4.586,0,1,0-6.485-6.485L18.838,31.845a18.263,18.263,0,0,0-5.229,10.676,11.007,11.007,0,0,1-3.153,6.4L7.593,51.787a.318.318,0,0,0-.093.225V73.138a.318.318,0,0,0,.318.318H20.279a.318.318,0,0,0,.225-.093l7.2-7.2a10.921,10.921,0,0,1,6.363-3.147,18.37,18.37,0,0,0,3.034-.637l27.645-7.408a1.936,1.936,0,0,0,1.373-2.365,7.233,7.233,0,0,0-8.861-5.124l-2.975.8L72.123,30.441a4.586,4.586,0,0,0,0-6.485Z" transform="translate(-6.505 -6.487)" fill="#fed2a4"/>
        <path id="Path_1080072" data-name="Path 1080072" d="M59.424,307a7.206,7.206,0,0,1,1.384,2.711,1.936,1.936,0,0,1-1.373,2.365L31.79,319.481a18.371,18.371,0,0,1-3.034.637,10.922,10.922,0,0,0-6.363,3.147l-3.9,3.9a11.573,11.573,0,0,1-8.183,3.389H7.5v2.337a.318.318,0,0,0,.318.318H20.279a.318.318,0,0,0,.225-.093l7.2-7.2a10.922,10.922,0,0,1,6.363-3.147,18.375,18.375,0,0,0,3.034-.637l27.645-7.408a1.936,1.936,0,0,0,1.373-2.365A7.236,7.236,0,0,0,59.424,307Z" transform="translate(-6.505 -266.242)" fill="#ffbd86"/>
        <circle id="Ellipse_11865" data-name="Ellipse 11865" cx="2.749" cy="2.749" r="2.749" transform="translate(24.817 22.992)" fill="#fdb441"/>
        <path id="Path_1080073" data-name="Path 1080073" d="M117.944,232.96a2.749,2.749,0,1,0,5.5,0v-2.749l-1.832-1.832-3.665,1.832v2.749Z" transform="translate(-102.29 -198.058)" fill="#0996a4"/>
        <path id="Path_1080074" data-name="Path 1080074" d="M120.694,200.767a2.748,2.748,0,0,0-2.749,2.749v2.749h5.5v-2.749A2.749,2.749,0,0,0,120.694,200.767Z" transform="translate(-102.29 -174.111)" fill="#e94444"/>
        <path id="Path_1080075" data-name="Path 1080075" d="M249.524,218.237h-5.5a1.832,1.832,0,0,1,0-3.665h5.5a1.832,1.832,0,1,1,0,3.665Z" transform="translate(-210.048 -186.083)" fill="#fef1da"/>
        <circle id="Ellipse_11866" data-name="Ellipse 11866" cx="3.665" cy="3.665" r="3.665" transform="translate(22.984 37.651)" fill="#f9b1b1"/>
        <path id="Path_1080076" data-name="Path 1080076" d="M61.073,356.734a1,1,0,0,0,0,1.408l6.562,6.562a1,1,0,0,0,1.408-1.408l-6.562-6.562A1,1,0,0,0,61.073,356.734Z" transform="translate(-52.714 -309.124)"/>
        <path id="Path_1080077" data-name="Path 1080077" d="M199.957,20.711a5.582,5.582,0,0,0-5.1-5.561l.85-.85a5.581,5.581,0,0,0-7.893-7.893l-.85.85a5.536,5.536,0,0,0-1.726-3.572,5.668,5.668,0,0,0-7.848.176l-1.245,1.246a5.578,5.578,0,0,0-9.5-3.466l-9.984,9.984a1,1,0,0,0,1.408,1.408L168.05,3.05a3.59,3.59,0,1,1,5.077,5.077l-10.2,10.2a1,1,0,0,0,1.408,1.408L178.8,5.27a3.663,3.663,0,0,1,5.072-.138,3.59,3.59,0,0,1,.078,5.143l0,0L169.41,24.815a1,1,0,1,0,1.408,1.408L189.224,7.816a3.59,3.59,0,0,1,5.077,5.077L175.895,31.3a1,1,0,0,0,1.408,1.408l14.535-14.535a3.59,3.59,0,1,1,5.077,5.077L179.262,40.9l-3.465.928a1.925,1.925,0,0,1-2.223-1.007,10.284,10.284,0,0,0-14.708-4.165,4.665,4.665,0,1,0,2.584.933A8.291,8.291,0,0,1,171.786,41.7a3.92,3.92,0,0,0,4.525,2.053l6.7-1.795a6.238,6.238,0,0,1,7.641,4.419.941.941,0,0,1-.669,1.147l-27.674,7.416a17.428,17.428,0,0,1-2.869.6,11.966,11.966,0,0,0-6.945,3.431,1,1,0,1,0,1.408,1.408,9.966,9.966,0,0,1,5.782-2.863,19.421,19.421,0,0,0,3.183-.667l27.632-7.4a2.934,2.934,0,0,0,2.077-3.582,8.23,8.23,0,0,0-9.5-5.963l15.245-15.245a5.544,5.544,0,0,0,1.635-3.947ZM161.126,40.32h-4.954A2.674,2.674,0,0,1,161.126,40.32Zm-4.954,1.991h4.954A2.671,2.671,0,0,1,156.172,42.311Z" transform="translate(-132 0)"/>
        <path id="Path_1080078" data-name="Path 1080078" d="M17.1,158.033l-3.608,3.608H1.991V141.473l2.665-2.665a12.058,12.058,0,0,0,3.436-6.983,17.177,17.177,0,0,1,4.945-10.1l9.712-9.712a1,1,0,0,0-1.408-1.408l-9.712,9.712a19.149,19.149,0,0,0-5.513,11.256A10.056,10.056,0,0,1,3.248,137.4L.384,140.264a1.3,1.3,0,0,0-.384.928v21.126a1.315,1.315,0,0,0,1.313,1.313H13.775a1.306,1.306,0,0,0,.929-.384l3.807-3.806a1,1,0,0,0-1.408-1.408Z" transform="translate(0 -95.667)"/>
        <path id="Path_1080079" data-name="Path 1080079" d="M183.217,165.656a3.744,3.744,0,1,0,3.744,3.744A3.748,3.748,0,0,0,183.217,165.656Zm0,5.5a1.753,1.753,0,1,1,1.753-1.753A1.755,1.755,0,0,1,183.217,171.153Z" transform="translate(-155.652 -143.66)"/>
        <path id="Path_1080080" data-name="Path 1080080" d="M117.933,202.508v-5.5a3.744,3.744,0,1,0-7.488,0v5.5a3.744,3.744,0,1,0,7.488,0Zm-5.5-5.5a1.753,1.753,0,1,1,3.506,0v1.753h-3.506v-1.753Zm0,5.5v-1.753h3.506v1.753a1.753,1.753,0,0,1-3.506,0Z" transform="translate(-95.786 -167.606)"/>
        <path id="Path_1080081" data-name="Path 1080081" d="M243.019,210.737h-.563a1,1,0,0,0,0,1.991h.563a2.828,2.828,0,0,0,0-5.656h-5.5a2.828,2.828,0,0,0,0,5.656h.289a1,1,0,0,0,0-1.991h-.289a.837.837,0,0,1,0-1.674h5.5a.837.837,0,0,1,0,1.674Z" transform="translate(-203.544 -179.579)"/>
        <circle id="Ellipse_11867" data-name="Ellipse 11867" cx="0.995" cy="0.995" r="0.995" transform="translate(23.552 30.321)"/>
        <circle id="Ellipse_11868" data-name="Ellipse 11868" cx="0.995" cy="0.995" r="0.995" transform="translate(26.49 32.637)"/>
      </g>
    </g>
  </g>
</svg>
