<svg xmlns="http://www.w3.org/2000/svg" xmlns:xlink="http://www.w3.org/1999/xlink" width="103" height="103" viewBox="0 0 103 103">
  <defs>
    <filter id="Path_978624" x="0" y="0" width="103" height="103" filterUnits="userSpaceOnUse">
      <feOffset dy="3" input="SourceAlpha"/>
      <feGaussianBlur stdDeviation="3" result="blur"/>
      <feFlood flood-opacity="0.161"/>
      <feComposite operator="in" in2="blur"/>
      <feComposite in="SourceGraphic"/>
    </filter>
  </defs>
  <g id="Group_1210691" data-name="Group 1210691" transform="translate(-147 -3565)">
    <g id="Group_1209770" data-name="Group 1209770">
      <g id="Group_1208738" data-name="Group 1208738" transform="translate(156 3571)">
        <g id="Group_1178144" data-name="Group 1178144">
          <g id="Group_1177896" data-name="Group 1177896">
            <g id="Group_1176881" data-name="Group 1176881">
              <g id="Group_1175148" data-name="Group 1175148">
                <g id="Group_1173798" data-name="Group 1173798">
                  <g id="Group_1171925" data-name="Group 1171925">
                    <g id="Group_1164524" data-name="Group 1164524">
                      <g id="Group_1144123" data-name="Group 1144123">
                        <g transform="matrix(1, 0, 0, 1, -9, -6)" filter="url(#Path_978624)">
                          <g id="Path_978624-2" data-name="Path 978624" transform="translate(9 6)" fill="#f9f9fe">
                            <path d="M 42.5 83.5 C 36.96437835693359 83.5 31.59512901306152 82.41617584228516 26.54141235351562 80.27863311767578 C 21.65934181213379 78.21369171142578 17.27447128295898 75.25723266601562 13.50862312316895 71.49137878417969 C 9.742764472961426 67.72553253173828 6.786305904388428 63.34066009521484 4.721364498138428 58.45858764648438 C 2.583823442459106 53.40486907958984 1.5 48.03562164306641 1.5 42.5 C 1.5 36.96437835693359 2.583823442459106 31.59512901306152 4.721364498138428 26.54141235351562 C 6.786305904388428 21.65934181213379 9.742764472961426 17.27447128295898 13.50862312316895 13.50862312316895 C 17.27447128295898 9.742764472961426 21.65934181213379 6.786305904388428 26.54141235351562 4.721364498138428 C 31.59512901306152 2.583823442459106 36.96437835693359 1.5 42.5 1.5 C 48.03562164306641 1.5 53.40486907958984 2.583823442459106 58.45858764648438 4.721364498138428 C 63.34066009521484 6.786305904388428 67.72553253173828 9.742764472961426 71.49137878417969 13.50862312316895 C 75.25723266601562 17.27447128295898 78.21369171142578 21.65934181213379 80.27863311767578 26.54141235351562 C 82.41617584228516 31.59512901306152 83.5 36.96437835693359 83.5 42.5 C 83.5 48.03562164306641 82.41617584228516 53.40486907958984 80.27863311767578 58.45858764648438 C 78.21369171142578 63.34066009521484 75.25723266601562 67.72553253173828 71.49137878417969 71.49137878417969 C 67.72553253173828 75.25723266601562 63.34066009521484 78.21369171142578 58.45858764648438 80.27863311767578 C 53.40486907958984 82.41617584228516 48.03562164306641 83.5 42.5 83.5 Z" stroke="none"/>
                            <path d="M 42.5 3 C 37.16621398925781 3 31.99356079101562 4.043960571289062 27.125732421875 6.102882385253906 C 22.42246627807617 8.092185974121094 18.19785308837891 10.94070434570312 14.56928253173828 14.56928253173828 C 10.94070434570312 18.19785308837891 8.092185974121094 22.42246627807617 6.102882385253906 27.125732421875 C 4.043960571289062 31.99356079101562 3 37.16621398925781 3 42.5 C 3 47.83378601074219 4.043960571289062 53.00643920898438 6.102882385253906 57.87425231933594 C 8.092185974121094 62.57753372192383 10.94070434570312 66.80213165283203 14.56928253173828 70.43071746826172 C 18.19786834716797 74.05929565429688 22.42246627807617 76.90781402587891 27.125732421875 78.89711761474609 C 31.99356079101562 80.95603942871094 37.16621398925781 82 42.5 82 C 47.83378601074219 82 53.00642395019531 80.95603942871094 57.87425231933594 78.89711761474609 C 62.57753372192383 76.90781402587891 66.80213165283203 74.05929565429688 70.43071746826172 70.43071746826172 C 74.05929565429688 66.80213165283203 76.90781402587891 62.57753372192383 78.89711761474609 57.87425231933594 C 80.95603942871094 53.00642395019531 82 47.83378601074219 82 42.5 C 82 37.16621398925781 80.95603942871094 31.99356079101562 78.89711761474609 27.125732421875 C 76.90781402587891 22.42246627807617 74.05929565429688 18.19786834716797 70.43071746826172 14.56928253173828 C 66.80213165283203 10.94070434570312 62.57753372192383 8.092185974121094 57.87425231933594 6.102882385253906 C 53.00643920898438 4.043960571289062 47.83378601074219 3 42.5 3 M 42.5 0 C 65.97209167480469 0 85 19.02789306640625 85 42.5 C 85 65.97209167480469 65.97209167480469 85 42.5 85 C 19.02789306640625 85 0 65.97209167480469 0 42.5 C 0 19.02789306640625 19.02789306640625 0 42.5 0 Z" stroke="none" fill="#6f6e88"/>
                          </g>
                        </g>
                      </g>
                    </g>
                  </g>
                </g>
              </g>
            </g>
          </g>
        </g>
      </g>
      <g id="bebida-energetica" transform="translate(73.279 3584.815)">
        <path id="Path_1079244" data-name="Path 1079244" d="M119.427,444.115a1.679,1.679,0,0,0,.57.465l.38.19a7.284,7.284,0,0,1,3.257,3.257l.035.07a2.241,2.241,0,0,0,2,1.239h18.113a2.241,2.241,0,0,0,2-1.239l.035-.07a7.284,7.284,0,0,1,3.257-3.257l.38-.19a1.677,1.677,0,0,0,.57-.465l-15.3-1.74Z" transform="translate(-9.509 -392.807)" fill="#b2caec"/>
        <path id="Path_1079245" data-name="Path 1079245" d="M172.242,451.088a7.284,7.284,0,0,0-1.971,2.435,2.367,2.367,0,0,1-2.117,1.309H152.005a7.289,7.289,0,0,1,.556.932l.035.07a2.241,2.241,0,0,0,2,1.239h18.113a2.241,2.241,0,0,0,2-1.239l.035-.07a7.284,7.284,0,0,1,3.257-3.257l.38-.19a1.677,1.677,0,0,0,.57-.465Z" transform="translate(-38.437 -400.544)" fill="#82aee3"/>
        <path id="Path_1079246" data-name="Path 1079246" d="M142.322,24.771l-10.442-1.74-10.442,1.74-4.212,5.616a5.042,5.042,0,0,0-1.008,3.025V70.719a1.68,1.68,0,0,0,.359,1.039h30.606a1.68,1.68,0,0,0,.359-1.039V33.413a5.042,5.042,0,0,0-1.008-3.025Z" transform="translate(-6.66 -20.45)" fill="#46cc8d"/>
        <path id="Path_1079247" data-name="Path 1079247" d="M328.03,39.951l-4.212-5.616-3.2-.534,2.932,3.909a5.042,5.042,0,0,1,1.008,3.025V78.042a1.681,1.681,0,0,1-.929,1.5l-.38.19a7.286,7.286,0,0,0-2.106,1.586h7.537a1.68,1.68,0,0,0,.359-1.039V42.976a5.042,5.042,0,0,0-1.008-3.025Z" transform="translate(-188.155 -30.014)" fill="#00c27a"/>
        <path id="Path_1079248" data-name="Path 1079248" d="M169.964,10.98h-21A1.681,1.681,0,0,1,147.281,9.3V9.181A1.681,1.681,0,0,1,148.962,7.5h21a1.681,1.681,0,0,1,1.681,1.681V9.3A1.681,1.681,0,0,1,169.964,10.98Z" transform="translate(-34.242 -6.66)" fill="#b2caec"/>
        <path id="Path_1079249" data-name="Path 1079249" d="M185.305,147.281,178.344,161.2l8.7,1.74-6.961,13.922,15.662-17.4-8.7-1.74,6.961-10.442Z" transform="translate(-61.824 -130.778)" fill="#fed402"/>
        <g id="Group_1209769" data-name="Group 1209769" transform="translate(114.779 16.503)">
          <circle id="Ellipse_11838" data-name="Ellipse 11838" cx="1.74" cy="1.74" r="1.74" fill="#91deb6"/>
          <circle id="Ellipse_11839" data-name="Ellipse 11839" cx="1.74" cy="1.74" r="1.74" transform="translate(17.403 5.221)" fill="#91deb6"/>
          <circle id="Ellipse_11840" data-name="Ellipse 11840" cx="1.74" cy="1.74" r="1.74" transform="translate(0 17.403)" fill="#91deb6"/>
          <circle id="Ellipse_11841" data-name="Ellipse 11841" cx="1.74" cy="1.74" r="1.74" transform="translate(19.143 17.403)" fill="#91deb6"/>
        </g>
        <path id="Path_1079250" data-name="Path 1079250" d="M356.782,305.635a1.741,1.741,0,0,0-1-1.576v3.152A1.741,1.741,0,0,0,356.782,305.635Z" transform="translate(-219.38 -269.989)" fill="#6ed5a1"/>
        <circle id="Ellipse_11842" data-name="Ellipse 11842" cx="1.74" cy="1.74" r="1.74" transform="translate(128.701 39.126)" fill="#91deb6"/>
        <path id="Path_1079251" data-name="Path 1079251" d="M140.883,18.451a.84.84,0,0,0,.84-.84V12.963a5.919,5.919,0,0,0-1.177-3.53l-3.491-4.655a2.522,2.522,0,0,0,1.187-2.138V2.521A2.524,2.524,0,0,0,135.722,0h-21A2.524,2.524,0,0,0,112.2,2.521V2.64a2.522,2.522,0,0,0,1.187,2.138l-3.491,4.655a5.919,5.919,0,0,0-1.177,3.53V50.269a2.522,2.522,0,0,0,1.394,2.255l.38.19a6.482,6.482,0,0,1,2.881,2.882l.035.07a3.064,3.064,0,0,0,2.756,1.7h18.113a3.064,3.064,0,0,0,2.756-1.7l.035-.071a6.482,6.482,0,0,1,2.881-2.881l.38-.19a2.522,2.522,0,0,0,1.394-2.255V21.532a.84.84,0,0,0-1.681,0V50.269a.838.838,0,0,1-.024.2h-29.6a.838.838,0,0,1-.024-.2V12.963a4.227,4.227,0,0,1,.84-2.521l3.96-5.28h1.54a.84.84,0,0,0,0-1.681h-2.02a.841.841,0,0,1-.84-.84V2.521a.841.841,0,0,1,.84-.84h21a.841.841,0,0,1,.84.84V2.64a.841.841,0,0,1-.84.84h-15.06a.84.84,0,0,0,0,1.681h14.581l3.96,5.28a4.228,4.228,0,0,1,.84,2.521v4.648a.84.84,0,0,0,.84.84Zm-5.318,36.392-.035.071a1.393,1.393,0,0,1-1.253.774H116.164a1.393,1.393,0,0,1-1.253-.775l-.035-.07a8.168,8.168,0,0,0-2.176-2.7h25.041A8.166,8.166,0,0,0,135.565,54.843Z" transform="translate(0)"/>
        <path id="Path_1079252" data-name="Path 1079252" d="M177.036,93.188H156.152a.84.84,0,1,0,0,1.681h20.883a.84.84,0,0,0,0-1.681Z" transform="translate(-41.373 -82.746)"/>
        <path id="Path_1079253" data-name="Path 1079253" d="M189.884,152.54a.84.84,0,0,0-.633-.559l-7.471-1.494,6.265-9.4a.84.84,0,0,0-.7-1.306h-8.7a.84.84,0,0,0-.752.465l-6.961,13.922a.84.84,0,0,0,.587,1.2l2.78.556a.84.84,0,0,0,.33-1.648l-1.7-.34,6.237-12.473h6.612l-6.09,9.135a.84.84,0,0,0,.534,1.29l7.254,1.451-10.523,11.693,4.185-8.371a.84.84,0,0,0-.587-1.2l-1.943-.389a.84.84,0,1,0-.33,1.648l.864.173-6.469,12.938a.84.84,0,0,0,1.376.938l15.662-17.4a.84.84,0,0,0,.173-.827Z" transform="translate(-55.165 -124.12)"/>
        <path id="Path_1079254" data-name="Path 1079254" d="M157.894,144.943a2.581,2.581,0,1,0-2.581-2.581A2.584,2.584,0,0,0,157.894,144.943Zm0-3.481a.9.9,0,1,1-.9.9A.9.9,0,0,1,157.894,141.463Z" transform="translate(-41.374 -124.12)"/>
        <path id="Path_1079255" data-name="Path 1079255" d="M313.206,186.375a2.581,2.581,0,1,0,2.581,2.581A2.584,2.584,0,0,0,313.206,186.375Zm0,3.481a.9.9,0,1,1,.9-.9A.9.9,0,0,1,313.206,189.856Z" transform="translate(-179.284 -165.492)"/>
        <path id="Path_1079256" data-name="Path 1079256" d="M160.474,297.675a2.581,2.581,0,1,0-2.581,2.581A2.584,2.584,0,0,0,160.474,297.675Zm-3.481,0a.9.9,0,1,1,.9.9A.9.9,0,0,1,156.994,297.675Z" transform="translate(-41.374 -262.029)"/>
        <path id="Path_1079257" data-name="Path 1079257" d="M331.318,297.675a2.581,2.581,0,1,0-2.581,2.581A2.584,2.584,0,0,0,331.318,297.675Zm-2.581.9a.9.9,0,1,1,.9-.9A.9.9,0,0,1,328.738,298.574Z" transform="translate(-193.075 -262.029)"/>
        <path id="Path_1079258" data-name="Path 1079258" d="M279.562,344.269a2.581,2.581,0,1,0,2.581-2.581A2.584,2.584,0,0,0,279.562,344.269Zm3.481,0a.9.9,0,1,1-.9-.9A.9.9,0,0,1,283.043,344.269Z" transform="translate(-151.701 -303.402)"/>
        <circle id="Ellipse_11843" data-name="Ellipse 11843" cx="0.84" cy="0.84" r="0.84" transform="translate(136.565 19.007)"/>
        <circle id="Ellipse_11844" data-name="Ellipse 11844" cx="0.84" cy="0.84" r="0.84" transform="translate(113.039 21.783)"/>
        <circle id="Ellipse_11845" data-name="Ellipse 11845" cx="0.84" cy="0.84" r="0.84" transform="translate(135.662 40.866)"/>
        <circle id="Ellipse_11846" data-name="Ellipse 11846" cx="0.84" cy="0.84" r="0.84" transform="translate(114.839 40.866)"/>
        <circle id="Ellipse_11847" data-name="Ellipse 11847" cx="0.84" cy="0.84" r="0.84" transform="translate(112.199 38.286)"/>
      </g>
    </g>
  </g>
</svg>
