<svg xmlns="http://www.w3.org/2000/svg" width="30.937" height="33.966" viewBox="0 0 30.937 33.966">
  <g id="Group_1210711" data-name="Group 1210711" transform="translate(-22.823 0)">
    <path id="Path_1079530" data-name="Path 1079530" d="M51.217,13.933a7.206,7.206,0,0,0-1.024-.729,7.313,7.313,0,0,0-1.132-.54,7.192,7.192,0,0,0-3.066-.438,5.251,5.251,0,0,0-3.672-6.519.5.5,0,1,0-.26.96,4.213,4.213,0,0,1,1.759.968,4.253,4.253,0,0,1,.267,6.009L41.91,16.027l-6.275-5.741L37.814,7.9A4.207,4.207,0,0,1,40.3,6.572a.5.5,0,0,0-.153-.983A5.263,5.263,0,0,0,37.28,7.027,7.224,7.224,0,0,0,27.013.677a7.282,7.282,0,0,0-1.088.624,7.223,7.223,0,0,0,5.092,13.1,5.212,5.212,0,0,0-.063,3.57,5.252,5.252,0,0,0-2.614,8.45l4.812,5.69a5.214,5.214,0,0,0,3.57,1.841q.224.019.446.019a5.248,5.248,0,0,0,4-8.637l-3.478-4.113a5.177,5.177,0,0,0,1.661-.968A7.232,7.232,0,0,0,44,26.2a7.159,7.159,0,0,0,2.286.455H46.3a.5.5,0,0,0,.016-.995,6.17,6.17,0,0,1-1.4-.21L51.007,15.1a6.232,6.232,0,0,1-2.874,10.356.5.5,0,1,0,.256.962,7.227,7.227,0,0,0,2.827-12.483ZM35.708,4.609a6.189,6.189,0,0,1,.506,3.57L33.635,11l-4.6-9.915A6.216,6.216,0,0,1,35.708,4.609Zm-8.276-3.03a6.231,6.231,0,0,1,.62-.248l4.855,10.461-.857.937c-.04.044-.079.088-.118.133l-5.09-10.97a6.331,6.331,0,0,1,.59-.314ZM24.4,9.855a6.216,6.216,0,0,1,1.616-7.373l5.057,10.9A6.215,6.215,0,0,1,24.4,9.855Zm5.2,9.925a4.221,4.221,0,0,1,2.739-1.006q.18,0,.362.015a4.225,4.225,0,0,1,2.893,1.492l2.085,2.465-6.5,5.492L29.1,25.774A4.258,4.258,0,0,1,29.6,19.78ZM39.9,31.965a4.258,4.258,0,0,1-5.994-.5L31.826,29l6.5-5.492,2.085,2.465a4.258,4.258,0,0,1-.5,5.994ZM36.988,20.389l-.635-.75a5.213,5.213,0,0,0-3.57-1.841,5.325,5.325,0,0,0-.834,0,4.23,4.23,0,0,1,.834-4.393l2.179-2.382,6.276,5.741-2.179,2.382a4.212,4.212,0,0,1-2.071,1.246ZM40.3,19.264l4.526-4.947a5.261,5.261,0,0,0,.741-1.04,6.216,6.216,0,0,1,2.578.137L42.05,23.768A6.278,6.278,0,0,1,40.3,19.264Zm2.514,5.171,6.283-10.678a6.424,6.424,0,0,1,.594.306,6.192,6.192,0,0,1,.556.37L43.962,25.111a6.38,6.38,0,0,1-.594-.307A6.193,6.193,0,0,1,42.812,24.435Z"/>
  </g>
</svg>
