<svg xmlns="http://www.w3.org/2000/svg" xmlns:xlink="http://www.w3.org/1999/xlink" width="108" height="108" viewBox="0 0 108 108">
  <defs>
    <filter id="Path_978624" x="0" y="0" width="108" height="108" filterUnits="userSpaceOnUse">
      <feOffset dy="3" input="SourceAlpha"/>
      <feGaussianBlur stdDeviation="3" result="blur"/>
      <feFlood flood-opacity="0.161"/>
      <feComposite operator="in" in2="blur"/>
      <feComposite in="SourceGraphic"/>
    </filter>
    <filter id="Path_1076716" x="0" y="0" width="108" height="108" filterUnits="userSpaceOnUse">
      <feOffset dy="3" input="SourceAlpha"/>
      <feGaussianBlur stdDeviation="3" result="blur-2"/>
      <feFlood flood-opacity="0.161"/>
      <feComposite operator="in" in2="blur-2"/>
      <feComposite in="SourceGraphic"/>
    </filter>
  </defs>
  <g id="Group_1223668" data-name="Group 1223668" transform="translate(-615 -1061.133)">
    <g id="Group_1222932" data-name="Group 1222932">
      <g id="Group_1222524" data-name="Group 1222524" transform="translate(0 -4334.867)">
        <g id="Group_1220987" data-name="Group 1220987" transform="translate(-1 3097)">
          <g id="Group_1208503" data-name="Group 1208503" transform="translate(0 1813)">
            <g id="Group_1200660" data-name="Group 1200660">
              <g id="Group_1181203" data-name="Group 1181203" transform="translate(625 492)">
                <g id="Group_1172348" data-name="Group 1172348" transform="translate(0)">
                  <g id="Group_1171897" data-name="Group 1171897">
                    <g id="Group_1171052" data-name="Group 1171052">
                      <g id="Group_1164581" data-name="Group 1164581">
                        <g id="Group_1144123" data-name="Group 1144123">
                          <g transform="matrix(1, 0, 0, 1, -9, -6)" filter="url(#Path_978624)">
                            <g id="Path_978624-2" data-name="Path 978624" transform="translate(9 6)" fill="#fff9f4">
                              <path d="M 45 88.5 C 39.12687683105469 88.5 33.43022537231445 87.35007476806641 28.06830024719238 85.08217620849609 C 22.88852500915527 82.89131164550781 18.23629951477051 79.75458526611328 14.2408504486084 75.75914764404297 C 10.24541282653809 71.76370239257812 7.108687400817871 67.11147308349609 4.917825222015381 61.93170166015625 C 2.649924993515015 56.56977462768555 1.5 50.87312316894531 1.5 45 C 1.5 39.12687683105469 2.649924993515015 33.43022537231445 4.917825222015381 28.06830024719238 C 7.108687400817871 22.88852500915527 10.24541282653809 18.23629951477051 14.2408504486084 14.2408504486084 C 18.23629951477051 10.24541282653809 22.88852500915527 7.108687400817871 28.06830024719238 4.917825222015381 C 33.43022537231445 2.649924993515015 39.12687683105469 1.5 45 1.5 C 50.87312316894531 1.5 56.56977462768555 2.649924993515015 61.93170166015625 4.917825222015381 C 67.11147308349609 7.108687400817871 71.76370239257812 10.24541282653809 75.75914764404297 14.2408504486084 C 79.75458526611328 18.23629951477051 82.89131164550781 22.88852500915527 85.08217620849609 28.06830024719238 C 87.35007476806641 33.43022537231445 88.5 39.12687683105469 88.5 45 C 88.5 50.87312316894531 87.35007476806641 56.56977462768555 85.08217620849609 61.93170166015625 C 82.89131164550781 67.11147308349609 79.75458526611328 71.76370239257812 75.75914764404297 75.75914764404297 C 71.76370239257812 79.75458526611328 67.11147308349609 82.89131164550781 61.93170166015625 85.08217620849609 C 56.56977462768555 87.35007476806641 50.87312316894531 88.5 45 88.5 Z" stroke="none"/>
                              <path d="M 45 3 C 39.32871246337891 3 33.82865524291992 4.110054016113281 28.65262985229492 6.299339294433594 C 23.65165710449219 8.414573669433594 19.15968322753906 11.44334411621094 15.301513671875 15.301513671875 C 11.44334411621094 19.15968322753906 8.414573669433594 23.65165710449219 6.299339294433594 28.65262985229492 C 4.110054016113281 33.82865524291992 3 39.32871246337891 3 45 C 3 50.67128753662109 4.110054016113281 56.17134475708008 6.299339294433594 61.34737396240234 C 8.414573669433594 66.34834289550781 11.44334411621094 70.84031677246094 15.301513671875 74.698486328125 C 19.15968322753906 78.55665588378906 23.65165710449219 81.58542633056641 28.65262985229492 83.70066070556641 C 33.82865524291992 85.88994598388672 39.32871246337891 87 45 87 C 50.67128753662109 87 56.17134475708008 85.88994598388672 61.34737396240234 83.70066070556641 C 66.34834289550781 81.58542633056641 70.84031677246094 78.55665588378906 74.698486328125 74.698486328125 C 78.55665588378906 70.84031677246094 81.58542633056641 66.34834289550781 83.70066070556641 61.34737396240234 C 85.88994598388672 56.17134475708008 87 50.67128753662109 87 45 C 87 39.32871246337891 85.88994598388672 33.82865524291992 83.70066070556641 28.65262985229492 C 81.58542633056641 23.65165710449219 78.55665588378906 19.15968322753906 74.698486328125 15.301513671875 C 70.84031677246094 11.44334411621094 66.34834289550781 8.414573669433594 61.34737396240234 6.299339294433594 C 56.17134475708008 4.110054016113281 50.67128753662109 3 45 3 M 45 0 C 69.85281372070312 0 90 20.14718627929688 90 45 C 90 69.85281372070312 69.85281372070312 90 45 90 C 20.14718627929688 90 0 69.85281372070312 0 45 C 0 20.14718627929688 20.14718627929688 0 45 0 Z" stroke="none" fill="#8b7157"/>
                            </g>
                          </g>
                          <g transform="matrix(1, 0, 0, 1, -9, -6)" filter="url(#Path_1076716)">
                            <g id="Path_1076716-2" data-name="Path 1076716" transform="translate(9 6)" fill="#fff9f4">
                              <path d="M 45 88.5 C 39.12687683105469 88.5 33.43022537231445 87.35007476806641 28.06830024719238 85.08217620849609 C 22.88852500915527 82.89131164550781 18.23629951477051 79.75458526611328 14.2408504486084 75.75914764404297 C 10.24541282653809 71.76370239257812 7.108687400817871 67.11147308349609 4.917825222015381 61.93170166015625 C 2.649924993515015 56.56977462768555 1.5 50.87312316894531 1.5 45 C 1.5 39.12687683105469 2.649924993515015 33.43022537231445 4.917825222015381 28.06830024719238 C 7.108687400817871 22.88852500915527 10.24541282653809 18.23629951477051 14.2408504486084 14.2408504486084 C 18.23629951477051 10.24541282653809 22.88852500915527 7.108687400817871 28.06830024719238 4.917825222015381 C 33.43022537231445 2.649924993515015 39.12687683105469 1.5 45 1.5 C 50.87312316894531 1.5 56.56977462768555 2.649924993515015 61.93170166015625 4.917825222015381 C 67.11147308349609 7.108687400817871 71.76370239257812 10.24541282653809 75.75914764404297 14.2408504486084 C 79.75458526611328 18.23629951477051 82.89131164550781 22.88852500915527 85.08217620849609 28.06830024719238 C 87.35007476806641 33.43022537231445 88.5 39.12687683105469 88.5 45 C 88.5 50.87312316894531 87.35007476806641 56.56977462768555 85.08217620849609 61.93170166015625 C 82.89131164550781 67.11147308349609 79.75458526611328 71.76370239257812 75.75914764404297 75.75914764404297 C 71.76370239257812 79.75458526611328 67.11147308349609 82.89131164550781 61.93170166015625 85.08217620849609 C 56.56977462768555 87.35007476806641 50.87312316894531 88.5 45 88.5 Z" stroke="none"/>
                              <path d="M 45 3 C 39.32871246337891 3 33.82865524291992 4.110054016113281 28.65262985229492 6.299339294433594 C 23.65165710449219 8.414573669433594 19.15968322753906 11.44334411621094 15.301513671875 15.301513671875 C 11.44334411621094 19.15968322753906 8.414573669433594 23.65165710449219 6.299339294433594 28.65262985229492 C 4.110054016113281 33.82865524291992 3 39.32871246337891 3 45 C 3 50.67128753662109 4.110054016113281 56.17134475708008 6.299339294433594 61.34737396240234 C 8.414573669433594 66.34834289550781 11.44334411621094 70.84031677246094 15.301513671875 74.698486328125 C 19.15968322753906 78.55665588378906 23.65165710449219 81.58542633056641 28.65262985229492 83.70066070556641 C 33.82865524291992 85.88994598388672 39.32871246337891 87 45 87 C 50.67128753662109 87 56.17134475708008 85.88994598388672 61.34737396240234 83.70066070556641 C 66.34834289550781 81.58542633056641 70.84031677246094 78.55665588378906 74.698486328125 74.698486328125 C 78.55665588378906 70.84031677246094 81.58542633056641 66.34834289550781 83.70066070556641 61.34737396240234 C 85.88994598388672 56.17134475708008 87 50.67128753662109 87 45 C 87 39.32871246337891 85.88994598388672 33.82865524291992 83.70066070556641 28.65262985229492 C 81.58542633056641 23.65165710449219 78.55665588378906 19.15968322753906 74.698486328125 15.301513671875 C 70.84031677246094 11.44334411621094 66.34834289550781 8.414573669433594 61.34737396240234 6.299339294433594 C 56.17134475708008 4.110054016113281 50.67128753662109 3 45 3 M 45 0 C 69.85281372070312 0 90 20.14718627929688 90 45 C 90 69.85281372070312 69.85281372070312 90 45 90 C 20.14718627929688 90 0 69.85281372070312 0 45 C 0 20.14718627929688 20.14718627929688 0 45 0 Z" stroke="none" fill="#8b7157"/>
                            </g>
                          </g>
                        </g>
                      </g>
                    </g>
                  </g>
                </g>
              </g>
            </g>
          </g>
        </g>
      </g>
      <g id="idea_4_" data-name="idea (4)" transform="translate(624 1070.125)">
        <path id="Path_1174498" data-name="Path 1174498" d="M149.991,320.678a3.562,3.562,0,0,0-4.015-2.28l-18,3.441a3.558,3.558,0,0,0-.861-7.054l-4.14.3a9.735,9.735,0,0,1-5.737-1.379l-4.895-2.959a10.15,10.15,0,0,0-9.789-.392l-8.023,4.01L91.7,316.311V329.42l2.835,3.056,4.641,1.893a29.929,29.929,0,0,0,21.223.525l27.43-9.636A3.562,3.562,0,0,0,149.991,320.678Z" transform="translate(-78.698 -265.439)" fill="#f1d0a5"/>
        <path id="Path_1174499" data-name="Path 1174499" d="M167.156,343.871a3.557,3.557,0,0,0-.342-.689,3.552,3.552,0,0,1-2.122,2.03l-27.43,9.636a29.852,29.852,0,0,1-18.818.319,6.01,6.01,0,0,1-4.245-5.747V336.307l-2.5,1.251v18.111l4.641,1.893a29.929,29.929,0,0,0,21.223.525l27.43-9.636A3.561,3.561,0,0,0,167.156,343.871Z" transform="translate(-95.863 -288.631)" fill="#f1b986"/>
        <path id="Path_1174500" data-name="Path 1174500" d="M20.433,335.064H9.338A1.837,1.837,0,0,1,7.5,333.228V308.919a1.837,1.837,0,0,1,1.837-1.837h11.1a1.837,1.837,0,0,1,1.837,1.837v24.309A1.837,1.837,0,0,1,20.433,335.064Z" transform="translate(-6.438 -263.549)" fill="#365e7d"/>
        <path id="Path_1174501" data-name="Path 1174501" d="M79.442,307.081H76.255a1.837,1.837,0,0,1,1.837,1.837v24.309a1.837,1.837,0,0,1-1.837,1.837h3.187a1.837,1.837,0,0,0,1.837-1.837V308.918A1.837,1.837,0,0,0,79.442,307.081Z" transform="translate(-65.447 -263.548)" fill="#2b4d66"/>
        <path id="Path_1174502" data-name="Path 1174502" d="M248.951,96.626a11.863,11.863,0,1,0-18.472,9.851,1.8,1.8,0,0,1,.8,1.493v1.723l1.693,1.722h7.467l2.458-1.722V107.97a1.8,1.8,0,0,1,.8-1.491,11.85,11.85,0,0,0,5.256-9.853Z" transform="translate(-193.302 -72.742)" fill="#f6e266"/>
        <path id="Path_1174503" data-name="Path 1174503" d="M299.142,84.764a11.824,11.824,0,0,0-1.806.114,11.861,11.861,0,0,1,4.976,21.6,1.8,1.8,0,0,0-.8,1.491v1.723l-2.457,1.722h3.272l2.458-1.722V107.97a1.8,1.8,0,0,1,.8-1.491,11.863,11.863,0,0,0-6.443-21.715Z" transform="translate(-255.191 -72.742)" fill="#ecbe6b"/>
        <path id="Path_1174504" data-name="Path 1174504" d="M275.844,267.96h-4.192a3.713,3.713,0,0,1-3.713-3.713v-3.6h11.617v3.6A3.712,3.712,0,0,1,275.844,267.96Z" transform="translate(-229.961 -223.698)" fill="#365e7d"/>
        <path id="Path_1174505" data-name="Path 1174505" d="M304.335,260.65v3.6a3.713,3.713,0,0,1-3.713,3.713h3.272a3.713,3.713,0,0,0,3.713-3.713v-3.6Z" transform="translate(-258.011 -223.698)" fill="#2b4d66"/>
        <g id="Group_1222931" data-name="Group 1222931" transform="translate(0 0.008)">
          <path id="Path_1174506" data-name="Path 1174506" d="M72.291,311.987a4.606,4.606,0,0,0-5.214-2.96l-14.117,2.7a4.622,4.622,0,0,0-4.623-6.328l-4.14.3a8.63,8.63,0,0,1-5.111-1.228l-4.895-2.959a11.156,11.156,0,0,0-10.814-.434l-6.484,3.241v-1.837a2.9,2.9,0,0,0-2.9-2.9H2.9a2.9,2.9,0,0,0-2.9,2.9v5.614a1.063,1.063,0,0,0,2.126,0v-5.614a.774.774,0,0,1,.774-.774H14a.774.774,0,0,1,.773.774V326.79a.774.774,0,0,1-.773.774H2.9a.774.774,0,0,1-.774-.774V312.345a1.063,1.063,0,0,0-2.126,0V326.79a2.9,2.9,0,0,0,2.9,2.9H14a2.9,2.9,0,0,0,2.9-2.9v-1.06l3.177,1.3a30.966,30.966,0,0,0,21.977.543l12.932-4.543a1.063,1.063,0,1,0-.7-2.006l-12.932,4.543a28.843,28.843,0,0,1-20.47-.506l-3.98-1.623V306.695l7.435-3.716a9.04,9.04,0,0,1,8.763.351l4.895,2.959a10.746,10.746,0,0,0,6.364,1.529l4.14-.3a2.494,2.494,0,0,1,.609,4.945l-.015,0-8.77,1.512a23.1,23.1,0,0,1-7.873,0l-3.405-.588a1.063,1.063,0,1,0-.362,2.1l3.405.588a25.217,25.217,0,0,0,8.6,0l8.793-1.516h0l18-3.441a2.5,2.5,0,0,1,1.3,4.811l-10.438,3.667a1.063,1.063,0,0,0,.7,2.006l10.438-3.667a4.621,4.621,0,0,0,2.813-5.945Z" transform="translate(0 -257.119)"/>
          <path id="Path_1174507" data-name="Path 1174507" d="M66.26,438.124v-2.685a1.063,1.063,0,0,0-2.126,0v2.685a1.063,1.063,0,0,0,2.126,0Z" transform="translate(-55.044 -372.808)"/>
          <path id="Path_1174508" data-name="Path 1174508" d="M302.482,6.707a1.063,1.063,0,0,0,1.063-1.063V1.071a1.063,1.063,0,1,0-2.126,0V5.644A1.063,1.063,0,0,0,302.482,6.707Z" transform="translate(-258.695 -0.008)"/>
          <path id="Path_1174509" data-name="Path 1174509" d="M390.9,50.815l3.233-3.233a1.063,1.063,0,0,0-1.5-1.5l-3.233,3.233a1.063,1.063,0,0,0,1.5,1.5Z" transform="translate(-333.931 -39.281)"/>
          <path id="Path_1174510" data-name="Path 1174510" d="M194.491,50.815a1.063,1.063,0,1,0,1.5-1.5l-3.233-3.233a1.063,1.063,0,0,0-1.5,1.5Z" transform="translate(-163.881 -39.281)"/>
          <path id="Path_1174511" data-name="Path 1174511" d="M146.251,158.365h4.573a1.063,1.063,0,1,0,0-2.126h-4.573a1.063,1.063,0,1,0,0,2.126Z" transform="translate(-124.609 -134.095)"/>
          <path id="Path_1174512" data-name="Path 1174512" d="M426.454,158.365h4.572a1.063,1.063,0,0,0,0-2.126h-4.572a1.063,1.063,0,1,0,0,2.126Z" transform="translate(-365.095 -134.095)"/>
          <path id="Path_1174513" data-name="Path 1174513" d="M223.448,100.922a.737.737,0,0,1,.331.611v5.321a4.781,4.781,0,0,0,4.776,4.776h4.192a4.781,4.781,0,0,0,4.776-4.776v-5.321a.734.734,0,0,1,.328-.609,12.918,12.918,0,0,0-13.931-21.753,1.063,1.063,0,1,0,1.113,1.812A10.793,10.793,0,0,1,236.663,99.16a2.856,2.856,0,0,0-1.268,2.374v.66h-3.682V95.765a3.581,3.581,0,0,0,2.511-3.413,1.063,1.063,0,0,0-2.126,0,1.448,1.448,0,1,1-2.9,0,1.063,1.063,0,0,0-2.126,0,3.581,3.581,0,0,0,2.511,3.413v6.428H225.9v-.66a2.861,2.861,0,0,0-1.271-2.375,10.774,10.774,0,0,1-4.782-9.163,10.665,10.665,0,0,1,2.284-6.429,1.063,1.063,0,1,0-1.675-1.309,12.9,12.9,0,0,0,2.986,18.666Zm11.948,3.4v2.535a2.652,2.652,0,0,1-2.649,2.649h-4.192a2.653,2.653,0,0,1-2.65-2.649V104.32Z" transform="translate(-186.863 -66.313)"/>
        </g>
      </g>
    </g>
  </g>
</svg>
