<svg xmlns="http://www.w3.org/2000/svg" xmlns:xlink="http://www.w3.org/1999/xlink" width="113" height="113" viewBox="0 0 113 113">
  <defs>
    <filter id="Path_982547" x="0" y="0" width="113" height="113" filterUnits="userSpaceOnUse">
      <feOffset dy="3" input="SourceAlpha"/>
      <feGaussianBlur stdDeviation="3" result="blur"/>
      <feFlood flood-opacity="0.161"/>
      <feComposite operator="in" in2="blur"/>
      <feComposite in="SourceGraphic"/>
    </filter>
  </defs>
  <g id="Group_1210717" data-name="Group 1210717" transform="translate(-1162.5 -7528.808)">
    <g id="Group_1209994" data-name="Group 1209994">
      <g id="Group_1208707" data-name="Group 1208707" transform="translate(-1.454 3213.429)">
        <g id="Group_1148635" data-name="Group 1148635" transform="translate(908.908 600.047)">
          <g id="Group_1148525" data-name="Group 1148525" transform="translate(264.046 3721.333)">
            <g transform="matrix(1, 0, 0, 1, -9, -6)" filter="url(#Path_982547)">
              <g id="Path_982547-2" data-name="Path 982547" transform="translate(9 6)" fill="#ffe6ef">
                <path d="M 47.5 93.5 C 41.28937149047852 93.5 35.26533508300781 92.28397369384766 29.59518623352051 89.88570404052734 C 24.11771965026855 87.56893157958984 19.19813346862793 84.25196075439453 14.97309303283691 80.02691650390625 C 10.74804019927979 75.80186462402344 7.431066513061523 70.88229370117188 5.114293098449707 65.40481567382812 C 2.716026782989502 59.73468017578125 1.5 53.71062850952148 1.5 47.5 C 1.5 41.28937149047852 2.716026782989502 35.26533508300781 5.114293098449707 29.59518623352051 C 7.431066513061523 24.11771965026855 10.74804019927979 19.19813346862793 14.97309303283691 14.97309303283691 C 19.19813346862793 10.74804019927979 24.11771965026855 7.431066513061523 29.59518623352051 5.114293098449707 C 35.26533508300781 2.716026782989502 41.28937149047852 1.5 47.5 1.5 C 53.71062850952148 1.5 59.73468017578125 2.716026782989502 65.40481567382812 5.114293098449707 C 70.88229370117188 7.431066513061523 75.80186462402344 10.74804019927979 80.02691650390625 14.97309303283691 C 84.25196075439453 19.19813346862793 87.56893157958984 24.11771965026855 89.88570404052734 29.59518623352051 C 92.28397369384766 35.26533508300781 93.5 41.28937149047852 93.5 47.5 C 93.5 53.71062850952148 92.28397369384766 59.73468017578125 89.88570404052734 65.40481567382812 C 87.56893157958984 70.88229370117188 84.25196075439453 75.80186462402344 80.02691650390625 80.02691650390625 C 75.80186462402344 84.25196075439453 70.88229370117188 87.56893157958984 65.40481567382812 89.88570404052734 C 59.73468017578125 92.28397369384766 53.71062850952148 93.5 47.5 93.5 Z" stroke="none"/>
                <path d="M 47.5 3 C 41.49121475219727 3 35.66376876831055 4.176155090332031 30.17950439453125 6.495796203613281 C 24.88084411621094 8.736953735351562 20.12152099609375 11.94598388671875 16.03375244140625 16.03375244140625 C 11.94598388671875 20.12152099609375 8.736953735351562 24.88084411621094 6.495796203613281 30.17950439453125 C 4.176155090332031 35.66376876831055 3 41.49121475219727 3 47.5 C 3 53.50878524780273 4.176155090332031 59.33623123168945 6.495796203613281 64.82049560546875 C 8.736953735351562 70.11915588378906 11.94598388671875 74.87847900390625 16.03375244140625 78.96624755859375 C 20.12152099609375 83.05401611328125 24.88084411621094 86.26304626464844 30.17950439453125 88.50419616699219 C 35.66376876831055 90.82384490966797 41.49121475219727 92 47.5 92 C 53.50878524780273 92 59.33623123168945 90.82384490966797 64.82049560546875 88.50419616699219 C 70.11915588378906 86.26304626464844 74.87847900390625 83.05401611328125 78.96624755859375 78.96624755859375 C 83.05401611328125 74.87847900390625 86.26304626464844 70.11915588378906 88.50419616699219 64.82049560546875 C 90.82384490966797 59.33623123168945 92 53.50878524780273 92 47.5 C 92 41.49121475219727 90.82384490966797 35.66376876831055 88.50419616699219 30.17950439453125 C 86.26304626464844 24.88084411621094 83.05401611328125 20.12152099609375 78.96624755859375 16.03375244140625 C 74.87847900390625 11.94598388671875 70.11915588378906 8.736953735351562 64.82049560546875 6.495796203613281 C 59.33623123168945 4.176155090332031 53.50878524780273 3 47.5 3 M 47.5 0 C 73.7335205078125 0 95 21.2664794921875 95 47.5 C 95 73.7335205078125 73.7335205078125 95 47.5 95 C 21.2664794921875 95 0 73.7335205078125 0 47.5 C 0 21.2664794921875 21.2664794921875 0 47.5 0 Z" stroke="none" fill="#ffadcc"/>
              </g>
            </g>
          </g>
        </g>
      </g>
      <g id="drogas" transform="translate(1175.699 7537.57)">
        <g id="Group_1209984" data-name="Group 1209984" transform="translate(17.073 42.711)">
          <path id="Path_1079570" data-name="Path 1079570" d="M153.231,187.548c0,12.216-6.179,26.989-18.542,31.2a23.231,23.231,0,0,1-15.292-.092c-12.25-4.412-18.454-19.017-18.454-31.268q-.021-1.245.035-2.471a32.442,32.442,0,0,1,1.611-8.942,23.549,23.549,0,0,1,1.143-2.708.313.313,0,0,0,.018-.035s0,0,0,0c.239-.284,6.214-7.091,18.3-7.091h10.228c12.332,0,18.3,7.1,18.3,7.1l0-.007a18.921,18.921,0,0,1,1.318,3.217,32.3,32.3,0,0,1,1.289,8.46C153.233,185.78,153.247,186.661,153.231,187.548Z" transform="translate(-100.936 -166.14)" fill="#ffbecc"/>
        </g>
        <g id="Group_1209985" data-name="Group 1209985" transform="translate(1.691 19.276)">
          <path id="Path_1079571" data-name="Path 1079571" d="M76.713,34.266c-13.84-13.131-25.2-2.839-25.2-2.839s-11.356-10.291-25.2,2.839S10,53.087,10,53.087,25.256,41.26,51.517,41.26,93.038,53.087,93.038,53.087,90.554,47.4,76.713,34.266Z" transform="translate(-9.996 -27.591)" fill="#ff5c7f"/>
        </g>
        <g id="Group_1209986" data-name="Group 1209986" transform="translate(1.691 19.276)">
          <path id="Path_1079572" data-name="Path 1079572" d="M76.713,34.266c-13.84-13.131-25.2-2.839-25.2-2.839s-11.356-10.291-25.2,2.839S10,53.087,10,53.087,25.256,41.26,51.517,41.26,93.038,53.087,93.038,53.087,90.554,47.4,76.713,34.266Z" transform="translate(-9.996 -27.591)" fill="#ff5c7f"/>
        </g>
        <g id="Group_1209987" data-name="Group 1209987" transform="translate(1.69 44.773)">
          <path id="Path_1079573" data-name="Path 1079573" d="M28.184,183.367a.239.239,0,0,1-.015.031,23.583,23.583,0,0,0-1.143,2.708,32.456,32.456,0,0,0-1.611,8.943c-5.455-.5-13.726-9.7-15.424-16.718a56.2,56.2,0,0,0,18.193,5.037Z" transform="translate(-9.991 -178.33)" fill="#ff5c7f"/>
        </g>
        <g id="Group_1209988" data-name="Group 1209988" transform="translate(66.718 44.773)">
          <path id="Path_1079574" data-name="Path 1079574" d="M394.434,183.367a.238.238,0,0,0,.015.031,23.58,23.58,0,0,1,1.143,2.708,32.448,32.448,0,0,1,1.449,8.943c5.455-.5,13.888-9.7,15.586-16.718a56.2,56.2,0,0,1-18.193,5.037Z" transform="translate(-394.434 -178.33)" fill="#ff5c7f"/>
        </g>
        <g id="Group_1209989" data-name="Group 1209989" transform="translate(1.69 32.945)">
          <path id="Path_1079575" data-name="Path 1079575" d="M93.036,120.232c-.117.074-.235.159-.351.251a56.286,56.286,0,0,1-17.643,4.784l-.023-.011,0,0-.005-.012a.029.029,0,0,0-.009.009c-.343-.408-6.319-7.08-18.286-7.08H46.488A27.023,27.023,0,0,0,32.9,121.61a18.755,18.755,0,0,0-4.708,3.651s0,0,0,0,0,0,0,.005a54.516,54.516,0,0,1-18.193-5.038S25.251,108.4,51.513,108.4c26.055,0,41.282,11.588,41.517,11.826Z" transform="translate(-9.991 -108.404)" fill="#fff"/>
        </g>
        <g id="Group_1209990" data-name="Group 1209990" transform="translate(31.948 63.448)">
          <ellipse id="Ellipse_11851" data-name="Ellipse 11851" cx="8.449" cy="8.449" rx="8.449" ry="8.449" transform="translate(0 7.79) rotate(-27.436)" fill="#fff"/>
        </g>
        <g id="Group_1209991" data-name="Group 1209991" transform="translate(0 17.583)">
          <path id="Path_1079576" data-name="Path 1079576" d="M85.965,43.449l-.022-.015c-1.051-1.882-4.883-7.812-16.37-18.711-4.238-4.02-11.024-8.459-19.291-6.774a19.308,19.308,0,0,0-7.07,3.03,19.3,19.3,0,0,0-7.07-3.03c-8.266-1.684-15.053,2.753-19.29,6.774C2.922,37.938.247,43.85.14,44.1a1.729,1.729,0,0,0-.095,1.076c.869,3.594,3.374,7.911,6.7,11.548,2.909,3.182,5.972,5.343,8.64,6.141q-.006.553,0,1.117A41.624,41.624,0,0,0,20.2,83.292c3.547,6.62,8.619,11.286,14.665,13.493a1.691,1.691,0,1,0,1.16-3.178c-6.638-2.423-10.648-7.816-12.844-11.913A38.728,38.728,0,0,1,18.77,63.962c0-4.4.458-9.284,2.553-13.225,4.222-4.45,10.885-6.333,16.863-6.333h3.425V64.845a10.065,10.065,0,0,0-5.479,2.828c-3.793,3.793-4.063,10.591,0,14.343a10.141,10.141,0,0,0,14.34-14.343,10.064,10.064,0,0,0-5.479-2.828V44.4h3.419c5.956,0,12.712,1.887,16.891,6.377,1.964,4.2,2.371,8.747,2.371,13.339,0,11.764-5.976,25.709-17.4,29.6a1.691,1.691,0,1,0,1.091,3.2c6.125-2.087,11.26-6.721,14.852-13.4a41.662,41.662,0,0,0,4.837-19.388c.007-.425.007-.851,0-1.275,2.677-.8,5.763-2.956,8.707-6.132,3.383-3.65,5.921-7.97,6.788-11.556a1.69,1.69,0,0,0-.591-1.721ZM38.525,70.065a6.763,6.763,0,0,1,8.21-1.045l-9.256,9.255A6.814,6.814,0,0,1,38.525,70.065Zm9.557,9.557a6.769,6.769,0,0,1-8.209,1.044l9.255-9.255a6.814,6.814,0,0,1-1.045,8.21ZM69.141,47.829q-.878.128-1.762.22C62.445,43.178,55.22,41.02,48.414,41.02H38.186c-10.855,0-17.063,5.15-18.967,7.029a54.36,54.36,0,0,1-14-3.584c11.291-6.832,24.892-9.828,37.994-9.828s26.783,2.991,38.07,9.871A54.17,54.17,0,0,1,69.141,47.829ZM19.179,27.178c12.485-11.844,22.482-3.183,22.9-2.813a1.692,1.692,0,0,0,2.272,0,15.227,15.227,0,0,1,6.61-3.1c5.491-1.119,10.971.87,16.286,5.913a145.466,145.466,0,0,1,11.5,12.047,79.971,79.971,0,0,0-35.532-7.972A81.655,81.655,0,0,0,11.953,37.3c-1.6.666-3.034,1.331-4.3,1.965a145.179,145.179,0,0,1,11.53-12.084ZM9.241,54.436a29.533,29.533,0,0,1-4.56-6.517A56.97,56.97,0,0,0,17.4,51.239a30.815,30.815,0,0,0-1.825,8.1A19.942,19.942,0,0,1,9.241,54.436ZM70.9,59.345a29.8,29.8,0,0,0-1.691-8.108,56.83,56.83,0,0,0,12.7-3.335C79.441,52.739,74.635,57.8,70.9,59.345Z" transform="translate(0 -17.583)"/>
          <path id="Path_1079577" data-name="Path 1079577" d="M248.655,474.862a1.69,1.69,0,1,0,.638,2.013A1.708,1.708,0,0,0,248.655,474.862Z" transform="translate(-204.412 -397.28)"/>
        </g>
      </g>
    </g>
  </g>
</svg>
