<svg xmlns="http://www.w3.org/2000/svg" xmlns:xlink="http://www.w3.org/1999/xlink" width="113" height="113.335" viewBox="0 0 113 113.335">
  <defs>
    <filter id="Path_982547" x="0" y="0.335" width="113" height="113" filterUnits="userSpaceOnUse">
      <feOffset dy="3" input="SourceAlpha"/>
      <feGaussianBlur stdDeviation="3" result="blur"/>
      <feFlood flood-opacity="0.161"/>
      <feComposite operator="in" in2="blur"/>
      <feComposite in="SourceGraphic"/>
    </filter>
  </defs>
  <g id="Group_1210715" data-name="Group 1210715" transform="translate(-325 -7528.473)">
    <g id="Group_1209992" data-name="Group 1209992">
      <g id="Group_1208705" data-name="Group 1208705" transform="translate(-1.454 3213.429)">
        <g id="Group_1148633" data-name="Group 1148633" transform="translate(71.408 600.047)">
          <g id="Group_1148525" data-name="Group 1148525" transform="translate(264.046 3721.333)">
            <g transform="matrix(1, 0, 0, 1, -9, -6.33)" filter="url(#Path_982547)">
              <g id="Path_982547-2" data-name="Path 982547" transform="translate(9 6.33)" fill="#ffe6ef">
                <path d="M 47.5 93.5 C 41.28937149047852 93.5 35.26533508300781 92.28397369384766 29.59518623352051 89.88570404052734 C 24.11771965026855 87.56893157958984 19.19813346862793 84.25196075439453 14.97309303283691 80.02691650390625 C 10.74804019927979 75.80186462402344 7.431066513061523 70.88229370117188 5.114293098449707 65.40481567382812 C 2.716026782989502 59.73468017578125 1.5 53.71062850952148 1.5 47.5 C 1.5 41.28937149047852 2.716026782989502 35.26533508300781 5.114293098449707 29.59518623352051 C 7.431066513061523 24.11771965026855 10.74804019927979 19.19813346862793 14.97309303283691 14.97309303283691 C 19.19813346862793 10.74804019927979 24.11771965026855 7.431066513061523 29.59518623352051 5.114293098449707 C 35.26533508300781 2.716026782989502 41.28937149047852 1.5 47.5 1.5 C 53.71062850952148 1.5 59.73468017578125 2.716026782989502 65.40481567382812 5.114293098449707 C 70.88229370117188 7.431066513061523 75.80186462402344 10.74804019927979 80.02691650390625 14.97309303283691 C 84.25196075439453 19.19813346862793 87.56893157958984 24.11771965026855 89.88570404052734 29.59518623352051 C 92.28397369384766 35.26533508300781 93.5 41.28937149047852 93.5 47.5 C 93.5 53.71062850952148 92.28397369384766 59.73468017578125 89.88570404052734 65.40481567382812 C 87.56893157958984 70.88229370117188 84.25196075439453 75.80186462402344 80.02691650390625 80.02691650390625 C 75.80186462402344 84.25196075439453 70.88229370117188 87.56893157958984 65.40481567382812 89.88570404052734 C 59.73468017578125 92.28397369384766 53.71062850952148 93.5 47.5 93.5 Z" stroke="none"/>
                <path d="M 47.5 3 C 41.49121475219727 3 35.66376876831055 4.176155090332031 30.17950439453125 6.495796203613281 C 24.88084411621094 8.736953735351562 20.12152099609375 11.94598388671875 16.03375244140625 16.03375244140625 C 11.94598388671875 20.12152099609375 8.736953735351562 24.88084411621094 6.495796203613281 30.17950439453125 C 4.176155090332031 35.66376876831055 3 41.49121475219727 3 47.5 C 3 53.50878524780273 4.176155090332031 59.33623123168945 6.495796203613281 64.82049560546875 C 8.736953735351562 70.11915588378906 11.94598388671875 74.87847900390625 16.03375244140625 78.96624755859375 C 20.12152099609375 83.05401611328125 24.88084411621094 86.26304626464844 30.17950439453125 88.50419616699219 C 35.66376876831055 90.82384490966797 41.49121475219727 92 47.5 92 C 53.50878524780273 92 59.33623123168945 90.82384490966797 64.82049560546875 88.50419616699219 C 70.11915588378906 86.26304626464844 74.87847900390625 83.05401611328125 78.96624755859375 78.96624755859375 C 83.05401611328125 74.87847900390625 86.26304626464844 70.11915588378906 88.50419616699219 64.82049560546875 C 90.82384490966797 59.33623123168945 92 53.50878524780273 92 47.5 C 92 41.49121475219727 90.82384490966797 35.66376876831055 88.50419616699219 30.17950439453125 C 86.26304626464844 24.88084411621094 83.05401611328125 20.12152099609375 78.96624755859375 16.03375244140625 C 74.87847900390625 11.94598388671875 70.11915588378906 8.736953735351562 64.82049560546875 6.495796203613281 C 59.33623123168945 4.176155090332031 53.50878524780273 3 47.5 3 M 47.5 0 C 73.7335205078125 0 95 21.2664794921875 95 47.5 C 95 73.7335205078125 73.7335205078125 95 47.5 95 C 21.2664794921875 95 0 73.7335205078125 0 47.5 C 0 21.2664794921875 21.2664794921875 0 47.5 0 Z" stroke="none" fill="#ffadcc"/>
              </g>
            </g>
          </g>
        </g>
      </g>
      <g id="cocaina" transform="translate(339.316 7519.27)">
        <g id="Group_1209980" data-name="Group 1209980" transform="translate(1.236 10.439)">
          <g id="Group_1209979" data-name="Group 1209979" transform="translate(0 0)">
            <path id="Path_1079533" data-name="Path 1079533" d="M39.726,404.777a12.1,12.1,0,0,0-23.411-2.2,1.33,1.33,0,0,1-1.266.9h-.023a7.579,7.579,0,0,0-7.521,6.654.825.825,0,0,0,.82.922h13.52L45.38,409.4c0-3.263-2.478-4.3-5.654-4.625Z" transform="translate(-7.499 -332.187)" fill="#e9e9e9"/>
            <path id="Path_1079534" data-name="Path 1079534" d="M92.915,426.085a.828.828,0,0,0,.824.885h-3.3a.828.828,0,0,1-.824-.885,13.483,13.483,0,0,1,14.942-12.514c.013.012.025.021.036.033A13.482,13.482,0,0,0,92.915,426.085Z" transform="translate(-76.086 -348.106)" fill="#b3adb5"/>
            <path id="Path_1079535" data-name="Path 1079535" d="M103.429,62.2,65.058,100.568a4.12,4.12,0,0,1-5.826,0L45.59,86.926l-2.07-4.4-5.1-2.766-3.511-3.511a4.12,4.12,0,0,1,0-5.826l38.37-38.371a4.12,4.12,0,0,1,5.826,0l24.32,24.32a4.119,4.119,0,0,1,0,5.826Z" transform="translate(-29.387 -28.514)" fill="#ffe187"/>
            <path id="Path_1079536" data-name="Path 1079536" d="M271.18,17.91l3.511,3.511,3.082,5.413,4.085,1.754L295.5,42.23a4.119,4.119,0,0,1,0,5.826l-4.473,4.473a4.12,4.12,0,0,0,0-5.826L277.385,33.061l-1.638-3.969-5.529-3.2-3.511-3.511a4.12,4.12,0,0,0-5.826,0l4.473-4.473a4.119,4.119,0,0,1,5.826,0Z" transform="translate(-219.128 -16.703)" fill="#ffd26f"/>
            <circle id="Ellipse_11850" data-name="Ellipse 11850" cx="4.117" cy="4.117" r="4.117" transform="translate(59.353 23.277)" fill="#a4c6f6"/>
            <path id="Path_1079537" data-name="Path 1079537" d="M111.551,79.639,69.5,121.693l-7.168-7.168,42.054-42.054,5.633,1.348Z" transform="translate(-53.295 -63.281)" fill="#6f6571"/>
            <path id="Path_1079538" data-name="Path 1079538" d="M0,0H6.326V10.136H0Z" transform="translate(51.083 9.196) rotate(-45)" fill="#5d5360"/>
            <path id="Path_1079539" data-name="Path 1079539" d="M164.669,380.406a10.1,10.1,0,0,0-2.457.137q-.345.087-.679.2a1.668,1.668,0,0,1-1.8-.5c-.123-.144-.553-.312-.624-.5a15.19,15.19,0,0,0-14.569-9.991,16.567,16.567,0,0,0-2.473-.139,15.917,15.917,0,0,0-11.3,7.755,1.638,1.638,0,0,1-2.1.663,13.486,13.486,0,0,0-19.054,11.379.828.828,0,0,0,.824.885h60.122a.825.825,0,0,0,.823-.895C170.934,384.267,169.919,380.406,164.669,380.406Z" transform="translate(-92.789 -311.431)" fill="#f7f7f7"/>
            <g id="Group_1209978" data-name="Group 1209978" transform="translate(49.283 57.991)">
              <path id="Path_1079540" data-name="Path 1079540" d="M323.95,378.949a1.66,1.66,0,0,0,.295.5h-.013a10.061,10.061,0,0,0-3.136.5,1.665,1.665,0,0,1-2.089-1,15.927,15.927,0,0,0-12.428-10.129,16.1,16.1,0,0,1,2.473-.191A15.911,15.911,0,0,1,323.95,378.949Z" transform="translate(-306.579 -368.629)" fill="#e9e9e9"/>
              <path id="Path_1079541" data-name="Path 1079541" d="M440.354,444.342H435.41a.825.825,0,0,0,.824-.895,10.058,10.058,0,0,0-7.545-8.852,10.065,10.065,0,0,1,12.489,8.852.825.825,0,0,1-.824.895Z" transform="translate(-408.567 -423.469)" fill="#e9e9e9"/>
            </g>
          </g>
        </g>
        <g id="Group_1209981" data-name="Group 1209981" transform="translate(0 9.203)">
          <path id="Path_1079542" data-name="Path 1079542" d="M174.071,296.807l-11.6,11.6a1.236,1.236,0,1,0,1.748,1.748l11.6-11.6a1.236,1.236,0,0,0-1.748-1.748Z" transform="translate(-135.397 -249.113)"/>
          <path id="Path_1079543" data-name="Path 1079543" d="M365.513,161.183a5.353,5.353,0,1,0-3.785-1.568A5.317,5.317,0,0,0,365.513,161.183Zm-2.037-7.391a2.882,2.882,0,1,1,0,4.075A2.885,2.885,0,0,1,363.476,153.792Z" transform="translate(-300.814 -127.199)"/>
          <path id="Path_1079544" data-name="Path 1079544" d="M54.155,10.772a5.355,5.355,0,0,0-7.574,0L36,21.357A1.236,1.236,0,1,0,37.744,23.1L48.329,12.519a2.884,2.884,0,0,1,4.078,0l2.636,2.636L10.264,59.935,7.628,57.3a2.887,2.887,0,0,1,0-4.078L33.935,26.913a1.236,1.236,0,1,0-1.748-1.748L5.88,51.473a5.355,5.355,0,0,0,0,7.574L18.6,71.765a13.388,13.388,0,0,0-9.716,8.658.1.1,0,0,1-.1.067H8.763A8.815,8.815,0,0,0,.015,88.231a2.061,2.061,0,0,0,2.047,2.307H66.076a1.236,1.236,0,0,0,0-2.472H19.333A12.266,12.266,0,0,1,31.514,77.058a12.142,12.142,0,0,1,5.09,1.1,2.861,2.861,0,0,0,3.683-1.168,14.677,14.677,0,0,1,26.446,2.189,2.9,2.9,0,0,0,3.632,1.738,8.823,8.823,0,0,1,11.482,7.144H71.462a1.236,1.236,0,0,0,0,2.472H82.306A2.061,2.061,0,0,0,84.361,88.3a11.3,11.3,0,0,0-14.766-9.725.431.431,0,0,1-.547-.258A17.139,17.139,0,0,0,53.919,67.221L78.475,42.665a5.355,5.355,0,0,0,0-7.574Zm-37.3,77.295H2.542a6.343,6.343,0,0,1,6.22-5.1V81.726l.018,1.236H8.79a2.571,2.571,0,0,0,2.43-1.731,10.9,10.9,0,0,1,9.556-7.289l2.911,2.911a14.711,14.711,0,0,0-6.831,11.214Zm21.292-12.31a.4.4,0,0,1-.515.159,14.711,14.711,0,0,0-11.638-.25L22.125,71.8l0,0L19.18,68.85,30.831,57.2a1.236,1.236,0,0,0-1.748-1.748L17.432,67.1l-5.42-5.42L56.791,16.9l5.42,5.42-29.32,29.32a1.236,1.236,0,1,0,1.748,1.748l29.32-29.32L76.727,36.839a2.883,2.883,0,0,1,0,4.078l-26.5,26.5a17.221,17.221,0,0,0-12.076,8.335Z" transform="translate(0 -9.203)"/>
          <path id="Path_1079545" data-name="Path 1079545" d="M294.928,418.2a1.236,1.236,0,1,0,1.236-1.236A1.236,1.236,0,0,0,294.928,418.2Z" transform="translate(-246.329 -349.77)"/>
          <path id="Path_1079546" data-name="Path 1079546" d="M66.724,463.034a1.236,1.236,0,1,0,1.236,1.236A1.236,1.236,0,0,0,66.724,463.034Z" transform="translate(-54.697 -388.251)"/>
          <path id="Path_1079547" data-name="Path 1079547" d="M353.261,458.495a1.236,1.236,0,1,0,1.236-1.236A1.236,1.236,0,0,0,353.261,458.495Z" transform="translate(-295.05 -383.427)"/>
          <path id="Path_1079548" data-name="Path 1079548" d="M205.128,454.755a1.236,1.236,0,1,0,1.236-1.236A1.236,1.236,0,0,0,205.128,454.755Z" transform="translate(-171.327 -380.304)"/>
        </g>
      </g>
    </g>
  </g>
</svg>
