<svg xmlns="http://www.w3.org/2000/svg" xmlns:xlink="http://www.w3.org/1999/xlink" width="93.934" height="93.934" viewBox="0 0 93.934 93.934">
  <defs>
    <filter id="Path_978624" x="0" y="0" width="93.934" height="93.934" filterUnits="userSpaceOnUse">
      <feOffset dy="3" input="SourceAlpha"/>
      <feGaussianBlur stdDeviation="3" result="blur"/>
      <feFlood flood-opacity="0.161"/>
      <feComposite operator="in" in2="blur"/>
      <feComposite in="SourceGraphic"/>
    </filter>
  </defs>
  <g id="Group_1210705" data-name="Group 1210705" transform="translate(-189 -5978.375)">
    <g id="Group_1209926" data-name="Group 1209926">
      <g id="Group_1208657" data-name="Group 1208657" transform="translate(-420 3935.655)">
        <g id="Group_1208063" data-name="Group 1208063" transform="translate(412 612.719)">
          <g id="Group_1144123" data-name="Group 1144123" transform="translate(206 1436)">
            <g transform="matrix(1, 0, 0, 1, -9, -6)" filter="url(#Path_978624)">
              <g id="Path_978624-2" data-name="Path 978624" transform="translate(9 6)" fill="#f7fbfc">
                <path d="M 37.966796875 74.43359375 C 33.04315185546875 74.43359375 28.26757431030273 73.46962738037109 23.77274131774902 71.56847381591797 C 19.43047523498535 69.73184967041016 15.53040790557861 67.10224914550781 12.18087482452393 63.75271987915039 C 8.831341743469238 60.4031867980957 6.201741218566895 56.50312042236328 4.365118980407715 52.16086196899414 C 2.463963508605957 47.66601943969727 1.499996900558472 42.89044189453125 1.499996900558472 37.966796875 C 1.499996900558472 33.04315185546875 2.463963508605957 28.26757431030273 4.365118980407715 23.77274131774902 C 6.201741218566895 19.43047523498535 8.831341743469238 15.53040790557861 12.18087482452393 12.18087482452393 C 15.53040790557861 8.831341743469238 19.43047523498535 6.201741218566895 23.77274131774902 4.365118980407715 C 28.26757431030273 2.463963508605957 33.04315185546875 1.499996900558472 37.966796875 1.499996900558472 C 42.89044189453125 1.499996900558472 47.66601943969727 2.463963508605957 52.16086196899414 4.365118980407715 C 56.50312042236328 6.201741218566895 60.4031867980957 8.831341743469238 63.75271987915039 12.18087482452393 C 67.10224914550781 15.53040790557861 69.73184967041016 19.43047523498535 71.56847381591797 23.77274131774902 C 73.46962738037109 28.26757431030273 74.43359375 33.04315185546875 74.43359375 37.966796875 C 74.43359375 42.89044189453125 73.46962738037109 47.66601943969727 71.56847381591797 52.16086196899414 C 69.73184967041016 56.50313186645508 67.10224914550781 60.4031867980957 63.75271987915039 63.75271987915039 C 60.4031867980957 67.10224914550781 56.50313186645508 69.73184967041016 52.16086196899414 71.56847381591797 C 47.66601943969727 73.46962738037109 42.89044189453125 74.43359375 37.966796875 74.43359375 Z" stroke="none"/>
                <path d="M 37.966796875 3 C 33.2449836730957 3 28.66600799560547 3.924095153808594 24.35705947875977 5.746635437011719 C 20.19359588623047 7.507621765136719 16.45379638671875 10.02927398681641 13.24153518676758 13.24153518676758 C 10.02927398681641 16.45379638671875 7.507621765136719 20.19359588623047 5.746635437011719 24.35705947875977 C 3.924095153808594 28.66600799560547 3 33.2449836730957 3 37.966796875 C 3 42.6886100769043 3.924095153808594 47.26758575439453 5.746635437011719 51.57653427124023 C 7.507621765136719 55.73999786376953 10.02927398681641 59.47979736328125 13.24153518676758 62.69205856323242 C 16.45379638671875 65.90431976318359 20.19359588623047 68.42597198486328 24.35705947875977 70.18695831298828 C 28.66600799560547 72.00949859619141 33.2449836730957 72.93359375 37.966796875 72.93359375 C 42.6886100769043 72.93359375 47.26758575439453 72.00949859619141 51.57653427124023 70.18695831298828 C 55.73999786376953 68.42597198486328 59.47979736328125 65.90431976318359 62.69205856323242 62.69205856323242 C 65.90431976318359 59.47979736328125 68.42597198486328 55.73999786376953 70.18695831298828 51.57653427124023 C 72.00949859619141 47.26758575439453 72.93359375 42.6886100769043 72.93359375 37.966796875 C 72.93359375 33.2449836730957 72.00949859619141 28.66600799560547 70.18695831298828 24.35705947875977 C 68.42597198486328 20.19359588623047 65.90431976318359 16.45379638671875 62.69205856323242 13.24153518676758 C 59.47979736328125 10.02927398681641 55.73999786376953 7.507621765136719 51.57653427124023 5.746635437011719 C 47.26758575439453 3.924095153808594 42.6886100769043 3 37.966796875 3 M 37.966796875 0 C 58.93528366088867 0 75.93359375 16.99831008911133 75.93359375 37.966796875 C 75.93359375 58.93528366088867 58.93528366088867 75.93359375 37.966796875 75.93359375 C 16.99831008911133 75.93359375 0 58.93528366088867 0 37.966796875 C 0 16.99831008911133 16.99831008911133 0 37.966796875 0 Z" stroke="none" fill="#62797e"/>
              </g>
            </g>
          </g>
        </g>
      </g>
      <g id="heroina" transform="matrix(0.848, -0.53, 0.53, 0.848, 145.375, 6047.598)">
        <g id="Group_1209924" data-name="Group 1209924" transform="translate(71.775 0.779)">
          <path id="Path_1079362" data-name="Path 1079362" d="M92.163,129.4l.919,1.042h32.144l.968-1.042V112H92.163Z" transform="translate(-90.744 -101.151)" fill="#dbedff"/>
          <path id="Path_1079363" data-name="Path 1079363" d="M97.771,112H92.163v17.4l.919,1.042h5.608l-.919-1.042Z" transform="translate(-90.744 -101.151)" fill="#b5dcff"/>
          <path id="Path_1079364" data-name="Path 1079364" d="M126.194,14.834V8.859A1.359,1.359,0,0,0,124.835,7.5H93.523a1.359,1.359,0,0,0-1.359,1.359v5.975Z" transform="translate(-90.744 -7.5)" fill="#dbedff"/>
          <path id="Path_1079365" data-name="Path 1079365" d="M99.131,7.5H93.523a1.359,1.359,0,0,0-1.359,1.359v5.975h5.608V8.859A1.359,1.359,0,0,1,99.131,7.5Z" transform="translate(-90.744 -7.5)" fill="#b5dcff"/>
          <path id="Path_1079366" data-name="Path 1079366" d="M92.163,48.047h34.031v3.326H92.163Z" transform="translate(-90.744 -43.836)" fill="#b5dcff"/>
          <path id="Path_1079367" data-name="Path 1079367" d="M92.163,48.047h5.608v3.326H92.163Z" transform="translate(-90.744 -43.836)" fill="#8bcaff"/>
          <path id="Path_1079368" data-name="Path 1079368" d="M92.163,109.571h34.031v3.376H92.163Z" transform="translate(-90.744 -98.97)" fill="#b5dcff"/>
          <path id="Path_1079369" data-name="Path 1079369" d="M92.163,109.571h5.608v3.376H92.163Z" transform="translate(-90.744 -98.97)" fill="#8bcaff"/>
          <path id="Path_1079370" data-name="Path 1079370" d="M126.2,258.252v-22l-.664-.455a7.069,7.069,0,0,0-4-1.239H120.7a7.069,7.069,0,0,1-4.553-1.662,7.069,7.069,0,0,0-4.553-1.662H106.77a7.069,7.069,0,0,0-4.553,1.662,7.069,7.069,0,0,1-4.553,1.662h-.838a7.068,7.068,0,0,0-4,1.239l-.664.455v22a1.359,1.359,0,0,0,1.359,1.359h31.312a1.359,1.359,0,0,0,1.359-1.359Z" transform="translate(-90.745 -207.994)" fill="#fff1af"/>
          <g id="Group_1209923" data-name="Group 1209923" transform="translate(1.42 26.557)">
            <path id="Path_1079371" data-name="Path 1079371" d="M97.772,286.78V263.207l-.109,0h-.838a7.068,7.068,0,0,0-4,1.239l-.664.455v22a1.359,1.359,0,0,0,1.359,1.359h5.736a1.487,1.487,0,0,1-1.487-1.487Z" transform="translate(-92.164 -263.207)" fill="#ffe559"/>
          </g>
          <path id="Path_1079372" data-name="Path 1079372" d="M114.489,78.119H79.373A.877.877,0,0,0,78.5,79v1.765a.877.877,0,0,0,.877.877h35.116a.877.877,0,0,0,.877-.877V79A.877.877,0,0,0,114.489,78.119Z" transform="translate(-78.496 -70.785)" fill="#60b9fe"/>
          <path id="Path_1079373" data-name="Path 1079373" d="M84.1,80.761V79a.877.877,0,0,1,.877-.877H79.373A.877.877,0,0,0,78.5,79v1.765a.877.877,0,0,0,.877.877h5.608A.877.877,0,0,1,84.1,80.761Z" transform="translate(-78.496 -70.785)" fill="#1ca8ff"/>
        </g>
        <g id="Group_1209925" data-name="Group 1209925" transform="translate(70.996 0)">
          <path id="Path_1079374" data-name="Path 1079374" d="M244.865,294.73h.917a.779.779,0,1,0,0-1.558h-.917a.779.779,0,1,0,0,1.558Z" transform="translate(-226.109 -262.724)"/>
          <path id="Path_1079375" data-name="Path 1079375" d="M297.279,350.063h.917a.779.779,0,0,0,0-1.558h-.917a.779.779,0,0,0,0,1.558Z" transform="translate(-273.08 -312.31)"/>
          <path id="Path_1079376" data-name="Path 1079376" d="M359.279,400.063h.917a.779.779,0,1,0,0-1.558h-.917a.779.779,0,1,0,0,1.558Z" transform="translate(-328.641 -357.117)"/>
          <path id="Path_1079377" data-name="Path 1079377" d="M141.107,326.4h.917a.779.779,0,1,0,0-1.558h-.917a.779.779,0,1,0,0,1.558Z" transform="translate(-133.127 -291.101)"/>
          <path id="Path_1079378" data-name="Path 1079378" d="M189.946,368.063h.917a.779.779,0,1,0,0-1.558h-.917a.779.779,0,1,0,0,1.558Z" transform="translate(-176.894 -328.441)"/>
          <path id="Path_1079379" data-name="Path 1079379" d="M262.833,399.284a.779.779,0,0,0,.779.779h.917a.779.779,0,1,0,0-1.558h-.917A.779.779,0,0,0,262.833,399.284Z" transform="translate(-242.909 -357.117)"/>
          <path id="Path_1079380" data-name="Path 1079380" d="M203.5,433.284a.779.779,0,0,0,.779.779h.917a.779.779,0,1,0,0-1.558h-.917A.779.779,0,0,0,203.5,433.284Z" transform="translate(-189.738 -387.586)"/>
          <path id="Path_1079381" data-name="Path 1079381" d="M72.415,51.037a2.138,2.138,0,0,0,2.138,2.138h31.312A2.138,2.138,0,0,0,108,51.037V22.122a.779.779,0,1,0-1.558,0v5.466a7.809,7.809,0,0,0-3.882-1.028h-.838a6.3,6.3,0,0,1-4.051-1.479,7.859,7.859,0,0,0-5.055-1.845H87.8a7.859,7.859,0,0,0-5.055,1.845,6.3,6.3,0,0,1-4.051,1.479h-.838a7.809,7.809,0,0,0-3.882,1.028V15.535H88.393a.779.779,0,1,0,0-1.558H73.973V12.411h32.474v1.565H92.028a.779.779,0,1,0,0,1.558h14.419v2.952a.779.779,0,0,0,1.558,0V12.393a1.657,1.657,0,0,0,1.419-1.637V8.99A1.657,1.657,0,0,0,108,7.353V2.138A2.141,2.141,0,0,0,105.866,0H74.554a2.141,2.141,0,0,0-2.138,2.138V7.353A1.657,1.657,0,0,0,71,8.991v1.765a1.657,1.657,0,0,0,1.419,1.637ZM74.3,29.22a6.264,6.264,0,0,1,3.557-1.1h.838a7.86,7.86,0,0,0,5.055-1.845A6.3,6.3,0,0,1,87.8,24.794h4.821a6.3,6.3,0,0,1,4.051,1.479,7.859,7.859,0,0,0,5.055,1.845h.838a6.264,6.264,0,0,1,3.557,1.1l.325.223V51.037a.581.581,0,0,1-.581.581H74.554a.581.581,0,0,1-.581-.581V29.443ZM72.652,10.854a.1.1,0,0,1-.1-.1V8.99a.1.1,0,0,1,.1-.1h35.116a.1.1,0,0,1,.1.1v1.765a.1.1,0,0,1-.1.1H72.652Zm1.321-5.085h32.474V7.334H73.973Zm.581-4.211h31.312a.581.581,0,0,1,.581.581V4.211H73.973V2.138A.581.581,0,0,1,74.554,1.558Z" transform="translate(-70.996 0)"/>
        </g>
      </g>
    </g>
  </g>
</svg>
