<svg xmlns="http://www.w3.org/2000/svg" xmlns:xlink="http://www.w3.org/1999/xlink" width="103" height="103" viewBox="0 0 103 103">
  <defs>
    <filter id="Path_978624" x="0" y="0" width="103" height="103" filterUnits="userSpaceOnUse">
      <feOffset dy="3" input="SourceAlpha"/>
      <feGaussianBlur stdDeviation="3" result="blur"/>
      <feFlood flood-opacity="0.161"/>
      <feComposite operator="in" in2="blur"/>
      <feComposite in="SourceGraphic"/>
    </filter>
  </defs>
  <g id="Group_1210720" data-name="Group 1210720" transform="translate(-195 -703)">
    <g id="Group_1210168" data-name="Group 1210168">
      <g id="Group_1208708" data-name="Group 1208708" transform="translate(29.5 -355)">
        <g id="Group_1178144" data-name="Group 1178144" transform="translate(-19.5 -2004)">
          <g id="Group_1177896" data-name="Group 1177896" transform="translate(14 196)">
            <g id="Group_1176881" data-name="Group 1176881">
              <g id="Group_1175148" data-name="Group 1175148" transform="translate(0 1580)">
                <g id="Group_1173798" data-name="Group 1173798" transform="translate(-3 -3520)">
                  <g id="Group_1171925" data-name="Group 1171925" transform="translate(-22 -2246)">
                    <g id="Group_1164524" data-name="Group 1164524" transform="translate(205 7058)">
                      <g id="Group_1144123" data-name="Group 1144123">
                        <g transform="matrix(1, 0, 0, 1, -9, -6)" filter="url(#Path_978624)">
                          <g id="Path_978624-2" data-name="Path 978624" transform="translate(9 6)" fill="#fff6f9">
                            <path d="M 42.5 83.5 C 36.96437835693359 83.5 31.59512901306152 82.41617584228516 26.54141235351562 80.27863311767578 C 21.65934181213379 78.21369171142578 17.27447128295898 75.25723266601562 13.50862312316895 71.49137878417969 C 9.742764472961426 67.72553253173828 6.786305904388428 63.34066009521484 4.721364498138428 58.45858764648438 C 2.583823442459106 53.40486907958984 1.5 48.03562164306641 1.5 42.5 C 1.5 36.96437835693359 2.583823442459106 31.59512901306152 4.721364498138428 26.54141235351562 C 6.786305904388428 21.65934181213379 9.742764472961426 17.27447128295898 13.50862312316895 13.50862312316895 C 17.27447128295898 9.742764472961426 21.65934181213379 6.786305904388428 26.54141235351562 4.721364498138428 C 31.59512901306152 2.583823442459106 36.96437835693359 1.5 42.5 1.5 C 48.03562164306641 1.5 53.40486907958984 2.583823442459106 58.45858764648438 4.721364498138428 C 63.34066009521484 6.786305904388428 67.72553253173828 9.742764472961426 71.49137878417969 13.50862312316895 C 75.25723266601562 17.27447128295898 78.21369171142578 21.65934181213379 80.27863311767578 26.54141235351562 C 82.41617584228516 31.59512901306152 83.5 36.96437835693359 83.5 42.5 C 83.5 48.03562164306641 82.41617584228516 53.40486907958984 80.27863311767578 58.45858764648438 C 78.21369171142578 63.34066009521484 75.25723266601562 67.72553253173828 71.49137878417969 71.49137878417969 C 67.72553253173828 75.25723266601562 63.34066009521484 78.21369171142578 58.45858764648438 80.27863311767578 C 53.40486907958984 82.41617584228516 48.03562164306641 83.5 42.5 83.5 Z" stroke="none"/>
                            <path d="M 42.5 3 C 37.16621398925781 3 31.99356079101562 4.043960571289062 27.125732421875 6.102882385253906 C 22.42246627807617 8.092185974121094 18.19785308837891 10.94070434570312 14.56928253173828 14.56928253173828 C 10.94070434570312 18.19785308837891 8.092185974121094 22.42246627807617 6.102882385253906 27.125732421875 C 4.043960571289062 31.99356079101562 3 37.16621398925781 3 42.5 C 3 47.83378601074219 4.043960571289062 53.00643920898438 6.102882385253906 57.87425231933594 C 8.092185974121094 62.57753372192383 10.94070434570312 66.80213165283203 14.56928253173828 70.43071746826172 C 18.19786834716797 74.05929565429688 22.42246627807617 76.90781402587891 27.125732421875 78.89711761474609 C 31.99356079101562 80.95603942871094 37.16621398925781 82 42.5 82 C 47.83378601074219 82 53.00642395019531 80.95603942871094 57.87425231933594 78.89711761474609 C 62.57753372192383 76.90781402587891 66.80213165283203 74.05929565429688 70.43071746826172 70.43071746826172 C 74.05929565429688 66.80213165283203 76.90781402587891 62.57753372192383 78.89711761474609 57.87425231933594 C 80.95603942871094 53.00642395019531 82 47.83378601074219 82 42.5 C 82 37.16621398925781 80.95603942871094 31.99356079101562 78.89711761474609 27.125732421875 C 76.90781402587891 22.42246627807617 74.05929565429688 18.19786834716797 70.43071746826172 14.56928253173828 C 66.80213165283203 10.94070434570312 62.57753372192383 8.092185974121094 57.87425231933594 6.102882385253906 C 53.00643920898438 4.043960571289062 47.83378601074219 3 42.5 3 M 42.5 0 C 65.97209167480469 0 85 19.02789306640625 85 42.5 C 85 65.97209167480469 65.97209167480469 85 42.5 85 C 19.02789306640625 85 0 65.97209167480469 0 42.5 C 0 19.02789306640625 19.02789306640625 0 42.5 0 Z" stroke="none" fill="#8b5e6f"/>
                          </g>
                        </g>
                      </g>
                    </g>
                  </g>
                </g>
              </g>
            </g>
          </g>
        </g>
      </g>
      <g id="medicamento" transform="translate(214.327 698.168)">
        <g id="Group_1210166" data-name="Group 1210166" transform="translate(0.943 25.143)">
          <path id="Path_1079839" data-name="Path 1079839" d="M318.814,55.371a.691.691,0,0,1-.407-.8,9.645,9.645,0,0,0-9.886-11.926.7.7,0,0,1-.714-.488,6.9,6.9,0,0,0-3.367-4.09h-1.83l-2.765,4.111V87.587l1.089,3.351,3.506,1.9a6.9,6.9,0,0,0,3.367-4.09.7.7,0,0,1,.714-.488,9.646,9.646,0,0,0,9.886-11.926.691.691,0,0,1,.407-.8,10.9,10.9,0,0,0,0-20.166Z" transform="translate(-263.105 -37.264)" fill="#ffdecf"/>
          <path id="Path_1079840" data-name="Path 1079840" d="M255.84,81.088V38.7a7.064,7.064,0,0,1,3.719-6.193,6.846,6.846,0,0,0-3.186-.8,6.991,6.991,0,0,0-6.919,6.993l-.941,1.522V78.842l.941,2.246a6.99,6.99,0,0,0,6.919,6.993,6.845,6.845,0,0,0,3.186-.8A7.064,7.064,0,0,1,255.84,81.088Z" transform="translate(-218.223 -31.702)" fill="#ffcebe"/>
          <path id="Path_1079841" data-name="Path 1079841" d="M73.9,39.107H71.566l-2.514,3.057H66.539l-6.513,4.524-2.452,8.043s-3.435,4.116-3.77,4.739a78.591,78.591,0,0,0-2.095,8.918A19.658,19.658,0,0,0,53.8,73.261c.587.909,3.686,4.2,3.686,4.2s1.759,5.086,1.759,5.5,2.984,4.193,2.984,4.193l5.227,2.484,2.849,1.366L71.733,93.1l1.757.742a7.064,7.064,0,0,0,3.893-6.285V45.169A7.064,7.064,0,0,0,73.9,39.107Z" transform="translate(-46.153 -38.176)" fill="#ffdecf"/>
          <path id="Path_1079842" data-name="Path 1079842" d="M32.117,83.189A.7.7,0,0,0,31.4,82.7a9.646,9.646,0,0,1-9.886-11.926.691.691,0,0,0-.407-.8,10.9,10.9,0,0,1,0-20.166.691.691,0,0,0,.407-.8A9.645,9.645,0,0,1,31.4,37.078a.7.7,0,0,0,.714-.488,6.9,6.9,0,0,1,3.131-3.959,6.7,6.7,0,0,0-3.433-.931,6.884,6.884,0,0,0-6.553,4.89.7.7,0,0,1-.714.488A9.645,9.645,0,0,0,14.663,49a.691.691,0,0,1-.407.8,10.9,10.9,0,0,0,0,20.166.691.691,0,0,1,.407.8A9.646,9.646,0,0,0,24.549,82.7a.7.7,0,0,1,.714.488,6.884,6.884,0,0,0,6.553,4.89,6.7,6.7,0,0,0,3.433-.931A6.9,6.9,0,0,1,32.117,83.189Z" transform="translate(-7.504 -31.7)" fill="#ffcebe"/>
          <path id="Path_1079843" data-name="Path 1079843" d="M225.13,187.385l2.035.783,1.468-1.4.1-.643a3.811,3.811,0,0,0-.779-2.221l-2.35-3.09-.5-.032-3.082,2.363Z" transform="translate(-195.057 -162.05)" fill="#60b9fe"/>
          <path id="Path_1079844" data-name="Path 1079844" d="M207.794,201.659s-1.488-1.9-2.966-3.8l-2.721,2.086-.075.436,2.35,3.09a3.819,3.819,0,0,0,2.743,1.5l.749-.144,1.909-1.815A4.99,4.99,0,0,1,207.794,201.659Z" transform="translate(-177.584 -176.974)" fill="#1ca8ff"/>
          <path id="Path_1079845" data-name="Path 1079845" d="M196.793,147.77V149.4l3.356,4.564,3.4-2.584-2.093-2.752a3.83,3.83,0,0,0-4.109-1.361Z" transform="translate(-173.004 -132.615)" fill="#ffe02f"/>
          <path id="Path_1079846" data-name="Path 1079846" d="M185.027,154.785c-.977-1.255-1.978-2.545-2.569-3.316a3.375,3.375,0,0,1-.526-3.16,3.829,3.829,0,0,0-1.987,6l2.093,2.752Z" transform="translate(-157.59 -133.654)" fill="#fbc700"/>
          <path id="Path_1079847" data-name="Path 1079847" d="M273.077,225.531a6.415,6.415,0,0,0-2.376-1.507h-1.944l-2.366,2.463s-1,2.681-1.038,3.058a11.148,11.148,0,0,0,.471,2.514,27.865,27.865,0,0,0,1.7,2.3l1.23,1.466,1.473.466a6.438,6.438,0,0,0,2.846-10.763Z" transform="translate(-232.945 -199.853)" fill="#ff72c7"/>
          <path id="Path_1079848" data-name="Path 1079848" d="M245.584,232.008a6.442,6.442,0,0,1,2.375-10.616,6.442,6.442,0,0,0-8.43,7.618l.423.626,2.828,1.727,1.1,2.064.719.358a6.469,6.469,0,0,0,3.365-.27,6.417,6.417,0,0,1-2.375-1.507Z" transform="translate(-210.202 -197.221)" fill="#ff4fb9"/>
          <path id="Path_1079849" data-name="Path 1079849" d="M214.968,288.288a6.415,6.415,0,0,0-2.375-1.507h-1.26a28.425,28.425,0,0,0-2.569,2.084,15.461,15.461,0,0,0-1.351,3.035,14.674,14.674,0,0,0,.377,3.616c.189.628,1.728,2.074,1.791,2.294a16.336,16.336,0,0,0,2.817,1.161,6.44,6.44,0,0,0,2.57-10.682Z" transform="translate(-182.272 -254.723)" fill="#ff72c7"/>
          <path id="Path_1079850" data-name="Path 1079850" d="M186.409,294.763a6.442,6.442,0,0,1,2.375-10.617,6.442,6.442,0,1,0,0,12.124A6.414,6.414,0,0,1,186.409,294.763Z" transform="translate(-158.464 -252.089)" fill="#ff4fb9"/>
        </g>
        <g id="Group_1210167" data-name="Group 1210167" transform="translate(0 24.2)">
          <path id="Path_1079851" data-name="Path 1079851" d="M210.07,327.511h-4.964a.943.943,0,0,0,0,1.885h4.964a.943.943,0,1,0,0-1.885Z" transform="translate(-178.504 -289.392)"/>
          <path id="Path_1079852" data-name="Path 1079852" d="M270.727,251.067a.943.943,0,0,0-1.333,1.333l3.51,3.51a.943.943,0,0,0,1.333-1.333Z" transform="translate(-235.296 -222.314)"/>
          <path id="Path_1079853" data-name="Path 1079853" d="M57.209,42.461A10.588,10.588,0,0,0,46.487,29.571,7.824,7.824,0,0,0,32.176,28.3a7.8,7.8,0,0,0-4.508-3.73.943.943,0,1,0-.573,1.8,5.921,5.921,0,0,1,4.135,5.661v9.99l-1.087-1.429a4.771,4.771,0,0,0-7.6,5.776l4.442,5.842,0,.005a4.806,4.806,0,0,0,2.3,1.638,7.353,7.353,0,0,0-.144,2.029C21.931,55.8,18.919,65.216,24.837,69.3a7.374,7.374,0,0,0,4.246,1.341,7.533,7.533,0,0,0,2.147-.318v4.312a5.948,5.948,0,0,1-5.941,5.942c-3.885,0-7.221-3.927-5.243-8.009a.943.943,0,1,0-1.7-.822,8.289,8.289,0,0,0-.771,3.465,8.7,8.7,0,0,1-8.65-10.366,12.132,12.132,0,0,0,5.926.295,6.465,6.465,0,0,0,3.265,1.953.943.943,0,1,0,.372-1.848,4.589,4.589,0,0,1-1.725-.877,4.739,4.739,0,0,1-1.636-4.106.943.943,0,1,0-1.884-.072,7.548,7.548,0,0,0,.537,3.25c-6.2.537-11.9-3.694-11.9-10.109,0-6.129,5.37-10.678,11.9-10.109a7.549,7.549,0,0,0-.537,3.25.942.942,0,0,0,.941.907h.037a.942.942,0,0,0,.906-.978c-.159-4.172,3.21-4.951,3.366-4.984a.943.943,0,0,0-.377-1.847,6.45,6.45,0,0,0-3.265,1.953,12.119,12.119,0,0,0-5.926.294,8.7,8.7,0,0,1,8.65-10.366,8.289,8.289,0,0,0,.771,3.465.943.943,0,0,0,1.7-.822,6.686,6.686,0,0,1-.554-3.358A5.978,5.978,0,0,1,23.3,26.427a.943.943,0,1,0-.632-1.776,7.887,7.887,0,0,0-4.808,4.92A10.588,10.588,0,0,0,7.137,42.461a11.848,11.848,0,0,0,0,21.742A10.588,10.588,0,0,0,17.859,77.092a7.824,7.824,0,0,0,14.314,1.266,7.824,7.824,0,0,0,14.314-1.266A10.59,10.59,0,0,0,57.209,64.2a11.848,11.848,0,0,0,0-21.742ZM24.048,45.223a2.886,2.886,0,0,1,4.6-3.494l1.522,2-4.6,3.494Zm4.442,5.842-1.779-2.34,4.6-3.494,1.779,2.34.005.008a2.939,2.939,0,0,1,.492,1.021A7.409,7.409,0,0,0,31.3,50.154h0a7.312,7.312,0,0,0-1.381,1.915A2.9,2.9,0,0,1,28.49,51.066ZM25.374,67.32a5.5,5.5,0,0,1,4.046-9.546h.016a5.5,5.5,0,1,1-4.062,9.545Zm25.188-3.88a7.548,7.548,0,0,0,.537-3.25.943.943,0,0,0-1.884.072c.159,4.172-3.211,4.951-3.366,4.984a.943.943,0,0,0,.377,1.847,6.45,6.45,0,0,0,3.265-1.953,12.1,12.1,0,0,0,5.926-.295,8.7,8.7,0,0,1-8.65,10.366A8.286,8.286,0,0,0,46,71.748a.943.943,0,1,0-1.7.822,5.617,5.617,0,0,1-5.243,8.009,5.948,5.948,0,0,1-5.942-5.942V69.448a7.364,7.364,0,0,0,3.337-6.69A7.383,7.383,0,0,0,43.46,57.9a.943.943,0,1,0-1.772-.643,5.494,5.494,0,0,1-5.627,3.6,7.364,7.364,0,0,0-4.984-4.7,5.511,5.511,0,0,1,1.554-4.669h0a5.5,5.5,0,0,1,9.057,2.01.943.943,0,0,0,1.772-.643A7.385,7.385,0,0,0,35.4,48.077a4.8,4.8,0,0,0-.81-1.647L33.116,44.5V32.027a5.94,5.94,0,0,1,11.738-1.293,6.714,6.714,0,0,1-.554,3.36.943.943,0,1,0,1.7.822,8.288,8.288,0,0,0,.771-3.465,8.7,8.7,0,0,1,8.65,10.366,12.194,12.194,0,0,0-5.926-.294,6.466,6.466,0,0,0-3.265-1.953.943.943,0,0,0-.372,1.848,4.59,4.59,0,0,1,1.725.878A4.739,4.739,0,0,1,49.216,46.4a.942.942,0,0,0,.906.978h.037a.943.943,0,0,0,.941-.907,7.548,7.548,0,0,0-.537-3.25c6.2-.536,11.9,3.7,11.9,10.109C62.461,59.627,56.859,63.99,50.562,63.441Z" transform="translate(0 -24.2)"/>
        </g>
      </g>
    </g>
  </g>
</svg>
