<svg xmlns="http://www.w3.org/2000/svg" xmlns:xlink="http://www.w3.org/1999/xlink" width="108" height="108" viewBox="0 0 108 108">
  <defs>
    <filter id="Path_978624" x="0" y="0" width="108" height="108" filterUnits="userSpaceOnUse">
      <feOffset dy="3" input="SourceAlpha"/>
      <feGaussianBlur stdDeviation="3" result="blur"/>
      <feFlood flood-opacity="0.161"/>
      <feComposite operator="in" in2="blur"/>
      <feComposite in="SourceGraphic"/>
    </filter>
    <filter id="Path_1076716" x="0" y="0" width="108" height="108" filterUnits="userSpaceOnUse">
      <feOffset dy="3" input="SourceAlpha"/>
      <feGaussianBlur stdDeviation="3" result="blur-2"/>
      <feFlood flood-opacity="0.161"/>
      <feComposite operator="in" in2="blur-2"/>
      <feComposite in="SourceGraphic"/>
    </filter>
  </defs>
  <g id="Group_1210736" data-name="Group 1210736" transform="translate(-616 -2299)">
    <g id="Group_1210635" data-name="Group 1210635">
      <g id="Group_1208503" data-name="Group 1208503" transform="translate(0 1813)">
        <g id="Group_1200660" data-name="Group 1200660">
          <g id="Group_1181203" data-name="Group 1181203" transform="translate(625 492)">
            <g id="Group_1172348" data-name="Group 1172348" transform="translate(0)">
              <g id="Group_1171897" data-name="Group 1171897">
                <g id="Group_1171052" data-name="Group 1171052">
                  <g id="Group_1164581" data-name="Group 1164581">
                    <g id="Group_1144123" data-name="Group 1144123">
                      <g transform="matrix(1, 0, 0, 1, -9, -6)" filter="url(#Path_978624)">
                        <g id="Path_978624-2" data-name="Path 978624" transform="translate(9 6)" fill="#f9f9fe">
                          <path d="M 45 88.5 C 39.12687683105469 88.5 33.43022537231445 87.35007476806641 28.06830024719238 85.08217620849609 C 22.88852500915527 82.89131164550781 18.23629951477051 79.75458526611328 14.2408504486084 75.75914764404297 C 10.24541282653809 71.76370239257812 7.108687400817871 67.11147308349609 4.917825222015381 61.93170166015625 C 2.649924993515015 56.56977462768555 1.5 50.87312316894531 1.5 45 C 1.5 39.12687683105469 2.649924993515015 33.43022537231445 4.917825222015381 28.06830024719238 C 7.108687400817871 22.88852500915527 10.24541282653809 18.23629951477051 14.2408504486084 14.2408504486084 C 18.23629951477051 10.24541282653809 22.88852500915527 7.108687400817871 28.06830024719238 4.917825222015381 C 33.43022537231445 2.649924993515015 39.12687683105469 1.5 45 1.5 C 50.87312316894531 1.5 56.56977462768555 2.649924993515015 61.93170166015625 4.917825222015381 C 67.11147308349609 7.108687400817871 71.76370239257812 10.24541282653809 75.75914764404297 14.2408504486084 C 79.75458526611328 18.23629951477051 82.89131164550781 22.88852500915527 85.08217620849609 28.06830024719238 C 87.35007476806641 33.43022537231445 88.5 39.12687683105469 88.5 45 C 88.5 50.87312316894531 87.35007476806641 56.56977462768555 85.08217620849609 61.93170166015625 C 82.89131164550781 67.11147308349609 79.75458526611328 71.76370239257812 75.75914764404297 75.75914764404297 C 71.76370239257812 79.75458526611328 67.11147308349609 82.89131164550781 61.93170166015625 85.08217620849609 C 56.56977462768555 87.35007476806641 50.87312316894531 88.5 45 88.5 Z" stroke="none"/>
                          <path d="M 45 3 C 39.32871246337891 3 33.82865524291992 4.110054016113281 28.65262985229492 6.299339294433594 C 23.65165710449219 8.414573669433594 19.15968322753906 11.44334411621094 15.301513671875 15.301513671875 C 11.44334411621094 19.15968322753906 8.414573669433594 23.65165710449219 6.299339294433594 28.65262985229492 C 4.110054016113281 33.82865524291992 3 39.32871246337891 3 45 C 3 50.67128753662109 4.110054016113281 56.17134475708008 6.299339294433594 61.34737396240234 C 8.414573669433594 66.34834289550781 11.44334411621094 70.84031677246094 15.301513671875 74.698486328125 C 19.15968322753906 78.55665588378906 23.65165710449219 81.58542633056641 28.65262985229492 83.70066070556641 C 33.82865524291992 85.88994598388672 39.32871246337891 87 45 87 C 50.67128753662109 87 56.17134475708008 85.88994598388672 61.34737396240234 83.70066070556641 C 66.34834289550781 81.58542633056641 70.84031677246094 78.55665588378906 74.698486328125 74.698486328125 C 78.55665588378906 70.84031677246094 81.58542633056641 66.34834289550781 83.70066070556641 61.34737396240234 C 85.88994598388672 56.17134475708008 87 50.67128753662109 87 45 C 87 39.32871246337891 85.88994598388672 33.82865524291992 83.70066070556641 28.65262985229492 C 81.58542633056641 23.65165710449219 78.55665588378906 19.15968322753906 74.698486328125 15.301513671875 C 70.84031677246094 11.44334411621094 66.34834289550781 8.414573669433594 61.34737396240234 6.299339294433594 C 56.17134475708008 4.110054016113281 50.67128753662109 3 45 3 M 45 0 C 69.85281372070312 0 90 20.14718627929688 90 45 C 90 69.85281372070312 69.85281372070312 90 45 90 C 20.14718627929688 90 0 69.85281372070312 0 45 C 0 20.14718627929688 20.14718627929688 0 45 0 Z" stroke="none" fill="#6f6e88"/>
                        </g>
                      </g>
                      <g transform="matrix(1, 0, 0, 1, -9, -6)" filter="url(#Path_1076716)">
                        <g id="Path_1076716-2" data-name="Path 1076716" transform="translate(9 6)" fill="#f9f9fe">
                          <path d="M 45 88.5 C 39.12687683105469 88.5 33.43022537231445 87.35007476806641 28.06830024719238 85.08217620849609 C 22.88852500915527 82.89131164550781 18.23629951477051 79.75458526611328 14.2408504486084 75.75914764404297 C 10.24541282653809 71.76370239257812 7.108687400817871 67.11147308349609 4.917825222015381 61.93170166015625 C 2.649924993515015 56.56977462768555 1.5 50.87312316894531 1.5 45 C 1.5 39.12687683105469 2.649924993515015 33.43022537231445 4.917825222015381 28.06830024719238 C 7.108687400817871 22.88852500915527 10.24541282653809 18.23629951477051 14.2408504486084 14.2408504486084 C 18.23629951477051 10.24541282653809 22.88852500915527 7.108687400817871 28.06830024719238 4.917825222015381 C 33.43022537231445 2.649924993515015 39.12687683105469 1.5 45 1.5 C 50.87312316894531 1.5 56.56977462768555 2.649924993515015 61.93170166015625 4.917825222015381 C 67.11147308349609 7.108687400817871 71.76370239257812 10.24541282653809 75.75914764404297 14.2408504486084 C 79.75458526611328 18.23629951477051 82.89131164550781 22.88852500915527 85.08217620849609 28.06830024719238 C 87.35007476806641 33.43022537231445 88.5 39.12687683105469 88.5 45 C 88.5 50.87312316894531 87.35007476806641 56.56977462768555 85.08217620849609 61.93170166015625 C 82.89131164550781 67.11147308349609 79.75458526611328 71.76370239257812 75.75914764404297 75.75914764404297 C 71.76370239257812 79.75458526611328 67.11147308349609 82.89131164550781 61.93170166015625 85.08217620849609 C 56.56977462768555 87.35007476806641 50.87312316894531 88.5 45 88.5 Z" stroke="none"/>
                          <path d="M 45 3 C 39.32871246337891 3 33.82865524291992 4.110054016113281 28.65262985229492 6.299339294433594 C 23.65165710449219 8.414573669433594 19.15968322753906 11.44334411621094 15.301513671875 15.301513671875 C 11.44334411621094 19.15968322753906 8.414573669433594 23.65165710449219 6.299339294433594 28.65262985229492 C 4.110054016113281 33.82865524291992 3 39.32871246337891 3 45 C 3 50.67128753662109 4.110054016113281 56.17134475708008 6.299339294433594 61.34737396240234 C 8.414573669433594 66.34834289550781 11.44334411621094 70.84031677246094 15.301513671875 74.698486328125 C 19.15968322753906 78.55665588378906 23.65165710449219 81.58542633056641 28.65262985229492 83.70066070556641 C 33.82865524291992 85.88994598388672 39.32871246337891 87 45 87 C 50.67128753662109 87 56.17134475708008 85.88994598388672 61.34737396240234 83.70066070556641 C 66.34834289550781 81.58542633056641 70.84031677246094 78.55665588378906 74.698486328125 74.698486328125 C 78.55665588378906 70.84031677246094 81.58542633056641 66.34834289550781 83.70066070556641 61.34737396240234 C 85.88994598388672 56.17134475708008 87 50.67128753662109 87 45 C 87 39.32871246337891 85.88994598388672 33.82865524291992 83.70066070556641 28.65262985229492 C 81.58542633056641 23.65165710449219 78.55665588378906 19.15968322753906 74.698486328125 15.301513671875 C 70.84031677246094 11.44334411621094 66.34834289550781 8.414573669433594 61.34737396240234 6.299339294433594 C 56.17134475708008 4.110054016113281 50.67128753662109 3 45 3 M 45 0 C 69.85281372070312 0 90 20.14718627929688 90 45 C 90 69.85281372070312 69.85281372070312 90 45 90 C 20.14718627929688 90 0 69.85281372070312 0 45 C 0 20.14718627929688 20.14718627929688 0 45 0 Z" stroke="none" fill="#6f6e88"/>
                        </g>
                      </g>
                    </g>
                  </g>
                </g>
              </g>
            </g>
          </g>
        </g>
      </g>
      <g id="psicologia" transform="translate(637.75 2317.745)">
        <g id="Group_1210633" data-name="Group 1210633" transform="translate(0.945 0.949)">
          <g id="Group_1210630" data-name="Group 1210630" transform="translate(10.924)">
            <g id="Group_1210628" data-name="Group 1210628" transform="translate(4.928)">
              <path id="Path_1080431" data-name="Path 1080431" d="M159.318,12.887,156.354,14.6a11.687,11.687,0,0,0-3.489-2.013V9.162A1.66,1.66,0,0,0,151.2,7.5h-4.851a1.661,1.661,0,0,0-1.661,1.66v3.422A11.787,11.787,0,0,0,141.2,14.6l-2.96-1.709a1.661,1.661,0,0,0-2.268.608l-2.426,4.2a1.661,1.661,0,0,0,.608,2.268l2.958,1.709a11.831,11.831,0,0,0,0,4.03l-2.964,1.711a1.661,1.661,0,0,0-.607,2.268l2.425,4.2a1.661,1.661,0,0,0,2.268.609l2.964-1.711a11.719,11.719,0,0,0,3.489,2.015v3.421a1.66,1.66,0,0,0,1.66,1.661h4.852a1.661,1.661,0,0,0,1.66-1.661V34.8a11.823,11.823,0,0,0,3.492-2.013l2.96,1.709a1.66,1.66,0,0,0,2.268-.607l2.425-4.2a1.66,1.66,0,0,0-.607-2.268l-2.96-1.709a11.782,11.782,0,0,0,0-4.03l2.964-1.711a1.66,1.66,0,0,0,.607-2.268l-2.425-4.2a1.66,1.66,0,0,0-2.268-.609ZM154.8,27.163a6.947,6.947,0,1,1-2.543-9.49,6.947,6.947,0,0,1,2.543,9.49Z" transform="translate(-133.325 -7.502)" fill="#685e68"/>
            </g>
            <path id="Path_1080432" data-name="Path 1080432" d="M124.75,167.713V152.181h33.069v9.355" transform="translate(-120.903 -133.954)" fill="#ffc344"/>
            <path id="Path_1080433" data-name="Path 1080433" d="M186.511,423.305H163.1a11.7,11.7,0,0,1,23.406,0Z" transform="translate(-154.426 -360.695)" fill="#9be69d"/>
            <path id="Path_1080434" data-name="Path 1080434" d="M177.911,412.019a11.706,11.706,0,0,0-8.6,11.286h-6.2a11.713,11.713,0,0,1,14.806-11.286Z" transform="translate(-154.426 -360.695)" fill="#6fd7a3"/>
            <path id="Path_1080435" data-name="Path 1080435" d="M134.974,185.419c0,2.884-1.722,5.221-3.847,5.221a3.316,3.316,0,0,1-2.511-1.267,14.165,14.165,0,0,1-8.96,11.326c-.4.152-.8.287-1.217.4v2.134a3.847,3.847,0,0,1-7.695,0V201.1a14.165,14.165,0,0,1-10.177-11.73,3.316,3.316,0,0,1-2.511,1.267c-2.125,0-3.847-2.337-3.847-5.221s1.722-5.221,3.847-5.221a3.264,3.264,0,0,1,2.385,1.126c5.838-1.088,7.933-7.792,7.933-7.792s4.508,7.808,19.971,4.083a14.091,14.091,0,0,1,.4,3.331v.378a3.264,3.264,0,0,1,2.385-1.126C133.252,180.2,134.974,182.535,134.974,185.419Z" transform="translate(-94.21 -152.617)" fill="#ffdfcf"/>
            <path id="Path_1080436" data-name="Path 1080436" d="M119.656,246.942c-.4.152-.8.287-1.217.4v2.134a3.847,3.847,0,0,1-7.695,0v-2.134a14.165,14.165,0,0,1-10.177-11.73,3.316,3.316,0,0,1-2.511,1.267c-2.125,0-3.847-2.337-3.847-5.221s1.722-5.221,3.847-5.221a3.264,3.264,0,0,1,2.385,1.126,8.362,8.362,0,0,0,2.307-.79c-.005,1-.008,1.683-.008,1.867,0,9.671,7.033,17.512,15.71,17.512A1.514,1.514,0,0,1,119.656,246.942Z" transform="translate(-94.21 -198.861)" fill="#ffcebf"/>
            <g id="Group_1210629" data-name="Group 1210629" transform="translate(2.442 30.994)">
              <path id="Path_1080437" data-name="Path 1080437" d="M378.9,256.289a4.028,4.028,0,0,1,1.843-2.765,2.914,2.914,0,0,1,.248,3.1C380.041,258.132,378.9,256.289,378.9,256.289Z" transform="translate(-345.477 -253.524)" fill="#ffcebf"/>
              <path id="Path_1080438" data-name="Path 1080438" d="M116.053,256.289a4.028,4.028,0,0,0-1.843-2.765,2.914,2.914,0,0,0-.248,3.1C114.912,258.132,116.053,256.289,116.053,256.289Z" transform="translate(-113.596 -253.524)" fill="#ffb09e"/>
            </g>
          </g>
          <g id="Group_1210631" data-name="Group 1210631" transform="translate(43.721 14.281)">
            <circle id="Ellipse_11869" data-name="Ellipse 11869" cx="9.445" cy="9.445" r="9.445" transform="translate(0 0.001)" fill="#fef056"/>
            <path id="Path_1080439" data-name="Path 1080439" d="M366.454,139.431a9.445,9.445,0,1,1,0-18.246,9.448,9.448,0,0,0,0,18.246Z" transform="translate(-354.553 -120.863)" fill="#fedf30"/>
          </g>
          <g id="Group_1210632" data-name="Group 1210632" transform="translate(0 14.281)">
            <circle id="Ellipse_11870" data-name="Ellipse 11870" cx="9.445" cy="9.445" r="9.445" transform="translate(0 0.001)" fill="#fe646f"/>
            <path id="Path_1080440" data-name="Path 1080440" d="M19.4,139.431a9.445,9.445,0,1,1,0-18.246,9.448,9.448,0,0,0,0,18.246Z" transform="translate(-7.5 -120.863)" fill="#fd4755"/>
          </g>
        </g>
        <g id="Group_1210634" data-name="Group 1210634" transform="translate(0 0.005)">
          <path id="Path_1080441" data-name="Path 1080441" d="M223.134,240.88a.945.945,0,1,0-1.89,0v2.486a.945.945,0,0,0,1.89,0Z" transform="translate(-193.372 -209.709)"/>
          <path id="Path_1080442" data-name="Path 1080442" d="M277.646,243.367v-2.486a.945.945,0,1,0-1.89,0v2.486a.945.945,0,1,0,1.89,0Z" transform="translate(-241.017 -209.71)"/>
          <path id="Path_1080443" data-name="Path 1080443" d="M233.71,313.664h3.964a.945.945,0,1,0,0-1.89H233.71a.945.945,0,1,0,0,1.89Z" transform="translate(-203.442 -272.498)"/>
          <path id="Path_1080444" data-name="Path 1080444" d="M55.056,14.331V11.153a2.988,2.988,0,0,0-2.985-2.985H46.855l-.98-1.7a2.609,2.609,0,0,0-3.559-.955L39.908,6.907a12.52,12.52,0,0,0-2.627-1.517V2.609a2.607,2.607,0,0,0-2.6-2.6H29.825a2.608,2.608,0,0,0-2.605,2.6v2.78a12.727,12.727,0,0,0-2.631,1.516l-2.405-1.39a2.61,2.61,0,0,0-3.558.955l-.981,1.7H12.43a2.988,2.988,0,0,0-2.985,2.985v3.178a10.394,10.394,0,0,0-8.5,14.685.945.945,0,0,0,1.717-.789,8.512,8.512,0,1,1,2.455,3.117.945.945,0,0,0-1.174,1.481,10.275,10.275,0,0,0,6.445,2.241c.215,0,.428-.009.64-.022.46,2.8,2.386,4.873,4.686,4.873a3.918,3.918,0,0,0,1.876-.486,15.065,15.065,0,0,0,9.866,10.7V51.57c0,.095,0,.189.009.282A12.638,12.638,0,0,0,19.6,63.56a.945.945,0,0,0,.945.945H43.953a.945.945,0,0,0,.945-.945,12.563,12.563,0,0,0-3.7-8.942,12.738,12.738,0,0,0-4.16-2.767c.005-.093.009-.186.009-.281V50.133q.31-.1.611-.219a15.176,15.176,0,0,0,2.017-.951.945.945,0,0,0-.931-1.645,13.258,13.258,0,0,1-1.764.832c-.365.14-.748.267-1.136.377a.945.945,0,0,0-.687.909V51.57a2.9,2.9,0,0,1-5.805,0V49.436a.945.945,0,0,0-.688-.909,13.179,13.179,0,0,1-9.5-10.946.945.945,0,0,0-1.655-.488,2.408,2.408,0,0,1-1.792.936c-1.337,0-2.5-1.408-2.818-3.27a10.324,10.324,0,0,0,2.538-1,3.827,3.827,0,0,1,.4,1.094.945.945,0,0,0,.933.806.955.955,0,0,0,.141-.01.945.945,0,0,0,.8-1.074,5.527,5.527,0,0,0-.7-1.884,10.474,10.474,0,0,0,2.05-2.279c4.056-1.117,6.275-4.646,7.257-6.715a12.53,12.53,0,0,0,3.241,2.335c4.656,2.376,10.3,2.078,14.515,1.3A10.411,10.411,0,0,0,47.5,32.685a5.53,5.53,0,0,0-.7,1.884.945.945,0,0,0,1.868.284,3.823,3.823,0,0,1,.4-1.1,10.319,10.319,0,0,0,2.538,1c-.315,1.861-1.481,3.27-2.818,3.27a2.408,2.408,0,0,1-1.792-.936.945.945,0,0,0-1.655.488,13.1,13.1,0,0,1-3.382,7.188.945.945,0,0,0,1.389,1.282,14.988,14.988,0,0,0,3.565-6.618,3.916,3.916,0,0,0,1.876.486c2.3,0,4.226-2.072,4.686-4.873.212.013.425.022.64.022a10.389,10.389,0,0,0,.945-20.735ZM32.251,56.362a4.793,4.793,0,0,0,4.3-2.667,10.839,10.839,0,0,1,3.31,2.259,10.675,10.675,0,0,1,3.11,6.661H21.534a10.749,10.749,0,0,1,6.423-8.92,4.8,4.8,0,0,0,4.294,2.667Zm19.821-46.3a1.1,1.1,0,0,1,1.095,1.1v3.178a10.381,10.381,0,0,0-7.2,3.9h-.987a12.751,12.751,0,0,0-.044-2.611l2.408-1.39a2.608,2.608,0,0,0,.953-3.558l-.354-.614h4.125ZM20.263,7.415a.717.717,0,0,1,.977-.263L24.2,8.862a.945.945,0,0,0,1.077-.092,10.853,10.853,0,0,1,3.214-1.852.945.945,0,0,0,.619-.887V2.609a.716.716,0,0,1,.716-.714h4.851a.715.715,0,0,1,.714.714V6.032a.945.945,0,0,0,.619.887,10.746,10.746,0,0,1,3.211,1.854.945.945,0,0,0,1.077.092L43.26,7.153a.717.717,0,0,1,.978.262l2.426,4.2a.716.716,0,0,1-.262.977L43.44,14.3a.945.945,0,0,0-.459.979,10.907,10.907,0,0,1,.1,2.949H40.067a7.865,7.865,0,0,0-.748-4.6.945.945,0,0,0-1.693.84,5.982,5.982,0,0,1,.527,3.763h-11.8a6,6,0,0,1,8.676-6.416.945.945,0,1,0,.876-1.675,7.889,7.889,0,0,0-11.464,8.091H21.418a10.8,10.8,0,0,1,.1-2.951.945.945,0,0,0-.459-.979L18.1,12.593a.715.715,0,0,1-.262-.977Zm-8.928,6.916V11.153a1.1,1.1,0,0,1,1.1-1.1h4.125l-.354.613a2.6,2.6,0,0,0,.954,3.559l2.4,1.388a12.674,12.674,0,0,0-.039,2.614h-.989a10.382,10.382,0,0,0-7.2-3.9Zm19.2,10.076a9.212,9.212,0,0,1-3.685-3.014.945.945,0,0,0-1.72.189c-.016.05-1.4,4.3-4.853,6.276a10.367,10.367,0,0,0-.553-7.737H44.775a10.326,10.326,0,0,0-1.054,4.555c0,.265.013.527.033.787-6.634,1.235-10.835.126-13.217-1.056Zm23.574,8.769a8.5,8.5,0,1,1,8.5-8.5A8.51,8.51,0,0,1,54.111,33.177Z" transform="translate(0 -0.005)"/>
          <path id="Path_1080445" data-name="Path 1080445" d="M389.174,188.343a.945.945,0,0,0-.945.945,4.747,4.747,0,1,1-9.494,0,.945.945,0,1,0-1.89,0,6.637,6.637,0,0,0,13.273,0,.945.945,0,0,0-.945-.945Z" transform="translate(-329.371 -164.616)"/>
          <path id="Path_1080446" data-name="Path 1080446" d="M403.475,163.384a.945.945,0,0,0,.945-.945v-2.486a.945.945,0,1,0-1.89,0v2.486A.945.945,0,0,0,403.475,163.384Z" transform="translate(-351.82 -138.977)"/>
          <path id="Path_1080447" data-name="Path 1080447" d="M442.468,163.384a.945.945,0,0,0,.945-.945v-2.486a.945.945,0,1,0-1.89,0v2.486A.945.945,0,0,0,442.468,163.384Z" transform="translate(-385.9 -138.977)"/>
          <path id="Path_1080448" data-name="Path 1080448" d="M44.176,200.359a.945.945,0,0,0,1.89,0,2.935,2.935,0,0,1,5.87,0,.945.945,0,0,0,1.89,0,4.825,4.825,0,0,0-9.649,0Z" transform="translate(-38.611 -170.901)"/>
          <path id="Path_1080449" data-name="Path 1080449" d="M57.367,162.439v-2.486a.945.945,0,0,0-1.89,0v2.486a.945.945,0,1,0,1.89,0Z" transform="translate(-48.488 -138.977)"/>
          <path id="Path_1080450" data-name="Path 1080450" d="M96.36,162.439v-2.486a.945.945,0,0,0-1.89,0v2.486a.945.945,0,1,0,1.89,0Z" transform="translate(-82.569 -138.977)"/>
        </g>
      </g>
    </g>
  </g>
</svg>
