<svg xmlns="http://www.w3.org/2000/svg" xmlns:xlink="http://www.w3.org/1999/xlink" width="113" height="113" viewBox="0 0 113 113">
  <defs>
    <filter id="Path_982547" x="0" y="0" width="113" height="113" filterUnits="userSpaceOnUse">
      <feOffset dy="3" input="SourceAlpha"/>
      <feGaussianBlur stdDeviation="3" result="blur"/>
      <feFlood flood-opacity="0.161"/>
      <feComposite operator="in" in2="blur"/>
      <feComposite in="SourceGraphic"/>
    </filter>
  </defs>
  <g id="Group_1223660" data-name="Group 1223660" transform="translate(-1216 -8013.033)">
    <g id="Group_1222922" data-name="Group 1222922">
      <g id="Group_1219118" data-name="Group 1219118" transform="translate(0 923.189)">
        <g id="Group_1217927" data-name="Group 1217927" transform="translate(-1.234 -2607)">
          <g id="Group_1216308" data-name="Group 1216308" transform="translate(1226.234 9702.844)">
            <g id="Group_1208705" data-name="Group 1208705">
              <g id="Group_1148633" data-name="Group 1148633">
                <g id="Group_1148525" data-name="Group 1148525">
                  <g transform="matrix(1, 0, 0, 1, -9, -6)" filter="url(#Path_982547)">
                    <g id="Path_982547-2" data-name="Path 982547" transform="translate(9 6)" fill="#ffe6ef">
                      <path d="M 47.5 93.5 C 41.28937149047852 93.5 35.26533508300781 92.28397369384766 29.59518623352051 89.88570404052734 C 24.11771965026855 87.56893157958984 19.19813346862793 84.25196075439453 14.97309303283691 80.02691650390625 C 10.74804019927979 75.80186462402344 7.431066513061523 70.88229370117188 5.114293098449707 65.40481567382812 C 2.716026782989502 59.73468017578125 1.5 53.71062850952148 1.5 47.5 C 1.5 41.28937149047852 2.716026782989502 35.26533508300781 5.114293098449707 29.59518623352051 C 7.431066513061523 24.11771965026855 10.74804019927979 19.19813346862793 14.97309303283691 14.97309303283691 C 19.19813346862793 10.74804019927979 24.11771965026855 7.431066513061523 29.59518623352051 5.114293098449707 C 35.26533508300781 2.716026782989502 41.28937149047852 1.5 47.5 1.5 C 53.71062850952148 1.5 59.73468017578125 2.716026782989502 65.40481567382812 5.114293098449707 C 70.88229370117188 7.431066513061523 75.80186462402344 10.74804019927979 80.02691650390625 14.97309303283691 C 84.25196075439453 19.19813346862793 87.56893157958984 24.11771965026855 89.88570404052734 29.59518623352051 C 92.28397369384766 35.26533508300781 93.5 41.28937149047852 93.5 47.5 C 93.5 53.71062850952148 92.28397369384766 59.73468017578125 89.88570404052734 65.40481567382812 C 87.56893157958984 70.88229370117188 84.25196075439453 75.80186462402344 80.02691650390625 80.02691650390625 C 75.80186462402344 84.25196075439453 70.88229370117188 87.56893157958984 65.40481567382812 89.88570404052734 C 59.73468017578125 92.28397369384766 53.71062850952148 93.5 47.5 93.5 Z" stroke="none"/>
                      <path d="M 47.5 3 C 41.49121475219727 3 35.66376876831055 4.176155090332031 30.17950439453125 6.495796203613281 C 24.88084411621094 8.736953735351562 20.12152099609375 11.94598388671875 16.03375244140625 16.03375244140625 C 11.94598388671875 20.12152099609375 8.736953735351562 24.88084411621094 6.495796203613281 30.17950439453125 C 4.176155090332031 35.66376876831055 3 41.49121475219727 3 47.5 C 3 53.50878524780273 4.176155090332031 59.33623123168945 6.495796203613281 64.82049560546875 C 8.736953735351562 70.11915588378906 11.94598388671875 74.87847900390625 16.03375244140625 78.96624755859375 C 20.12152099609375 83.05401611328125 24.88084411621094 86.26304626464844 30.17950439453125 88.50419616699219 C 35.66376876831055 90.82384490966797 41.49121475219727 92 47.5 92 C 53.50878524780273 92 59.33623123168945 90.82384490966797 64.82049560546875 88.50419616699219 C 70.11915588378906 86.26304626464844 74.87847900390625 83.05401611328125 78.96624755859375 78.96624755859375 C 83.05401611328125 74.87847900390625 86.26304626464844 70.11915588378906 88.50419616699219 64.82049560546875 C 90.82384490966797 59.33623123168945 92 53.50878524780273 92 47.5 C 92 41.49121475219727 90.82384490966797 35.66376876831055 88.50419616699219 30.17950439453125 C 86.26304626464844 24.88084411621094 83.05401611328125 20.12152099609375 78.96624755859375 16.03375244140625 C 74.87847900390625 11.94598388671875 70.11915588378906 8.736953735351562 64.82049560546875 6.495796203613281 C 59.33623123168945 4.176155090332031 53.50878524780273 3 47.5 3 M 47.5 0 C 73.7335205078125 0 95 21.2664794921875 95 47.5 C 95 73.7335205078125 73.7335205078125 95 47.5 95 C 21.2664794921875 95 0 73.7335205078125 0 47.5 C 0 21.2664794921875 21.2664794921875 0 47.5 0 Z" stroke="none" fill="#ffadcc"/>
                    </g>
                  </g>
                </g>
              </g>
            </g>
          </g>
        </g>
      </g>
      <g id="_02-Medical_Result" data-name="02-Medical Result" transform="translate(1238 8030)">
        <path id="Path_1174441" data-name="Path 1174441" d="M16.25,8V35.925l-2.575,1.5L12.125,25.5,10,9.25Z" transform="translate(2.5 2)" fill="#7cb6d3"/>
        <path id="Path_1174442" data-name="Path 1174442" d="M13.05,8.5V35.925l-.251.146.176,1.354,2.575-1.5V8Z" transform="translate(3.2 2)" fill="#6796ae"/>
        <path id="Path_1174443" data-name="Path 1174443" d="M31.5,8.75v5H27.75V17.5h-5V13.75H19v-5h3.75V5h5V8.75Z" transform="translate(4.75 1.25)" fill="#fc6a78"/>
        <path id="Path_1174444" data-name="Path 1174444" d="M20,32H44.762a6.116,6.116,0,0,0,3.987,1.25h2.5s0,7.6,6.25,10.3V52H15V37.625c.012-.4,0-.625,0-.625l2.862-1.25A4.465,4.465,0,0,0,19.987,32Z" transform="translate(3.75 8)" fill="#e7f7ff"/>
        <path id="Path_1174445" data-name="Path 1174445" d="M57.5,1V37.25L55,34.75H52.5V23.5H20V39.75h-.012A5.771,5.771,0,0,0,17.862,36L15,37.675V1Zm-25,13.75v-5H28.75V6h-5V9.75H20v5h3.75V18.5h5V14.75Z" transform="translate(3.75 0.25)" fill="#e7f7ff"/>
        <path id="Path_1174446" data-name="Path 1174446" d="M41.5,29.25a7.019,7.019,0,0,0,2.263,5H19v-7.5h5L27.75,23l7.5,7.5,6.25-6.25h10v5Z" transform="translate(4.75 5.75)" fill="#1babb1"/>
        <path id="Path_1174447" data-name="Path 1174447" d="M51.5,19v6.25h-10L35.25,31.5,27.75,24,24,27.75H19V19Z" transform="translate(4.75 4.75)" fill="#94fde5"/>
        <path id="Path_1174448" data-name="Path 1174448" d="M3,59H20.5v5H3Z" transform="translate(0.75 14.75)" fill="#25dddb"/>
        <path id="Path_1174449" data-name="Path 1174449" d="M11,59h7.5v5H11Z" transform="translate(2.75 14.75)" fill="#1fc1c7"/>
        <path id="Path_1174450" data-name="Path 1174450" d="M64.5,33V50.5H57V33Z" transform="translate(14.25 8.25)" fill="#94fde5"/>
        <path id="Path_1174451" data-name="Path 1174451" d="M64.5,42v6.25H57V42Z" transform="translate(14.25 10.5)" fill="#3dfcdd"/>
        <path id="Path_1174452" data-name="Path 1174452" d="M20.5,53v7.5H3V53H20.5Z" transform="translate(0.75 13.25)" fill="#94fde5"/>
        <path id="Path_1174453" data-name="Path 1174453" d="M18.5,53v7.5H11V53h7.5Z" transform="translate(2.75 13.25)" fill="#3dfcdd"/>
        <path id="Path_1174454" data-name="Path 1174454" d="M18.5,40.125V54.5h3.75l-2.5,6.25h-15v-5L1,35.75,11,22h3.375l1.55,11.925,2.575-1.5,2.862-1.675a5.771,5.771,0,0,1,2.125,3.75,4.465,4.465,0,0,1-2.125,3.75L18.5,39.5Z" transform="translate(0.25 5.5)" fill="#ffcdbe"/>
        <path id="Path_1174455" data-name="Path 1174455" d="M52,44.55c-6.25-2.7-6.25-10.3-6.25-10.3h-2.5A6.116,6.116,0,0,1,39.262,33,7.019,7.019,0,0,1,37,28H49.5L52,30.5l5,5h5V49.25H59.5L57,51.75H52Z" transform="translate(9.25 7)" fill="#ffcdbe"/>
        <path id="Path_1174456" data-name="Path 1174456" d="M13.525,26l.9,6.925L7,37.25,12,26Z" transform="translate(1.75 6.5)" fill="#faa68e"/>
        <path id="Path_1174457" data-name="Path 1174457" d="M20.25,50.875l-2.5,6.25H11.5v-6.25L9,47.125A12.17,12.17,0,0,0,16.5,36.5V50.875Z" transform="translate(2.25 9.125)" fill="#faa68e"/>
        <path id="Path_1174458" data-name="Path 1174458" d="M54,42.19h5v3.75H56.5L54,48.44H49v-7.2a12.209,12.209,0,0,0,5,.95Z" transform="translate(12.25 10.31)" fill="#faa68e"/>
        <g id="Group_1222921" data-name="Group 1222921" transform="translate(23.75 8.75)">
          <path id="Path_1174459" data-name="Path 1174459" d="M36,7h2.5V9.5H36Z" transform="translate(-14.75 -7)" fill="#5b849a"/>
          <path id="Path_1174460" data-name="Path 1174460" d="M40,7h7.5V9.5H40Z" transform="translate(-13.75 -7)" fill="#5b849a"/>
          <path id="Path_1174461" data-name="Path 1174461" d="M36,11H48.5v2.5H36Z" transform="translate(-14.75 -6)" fill="#5b849a"/>
          <path id="Path_1174462" data-name="Path 1174462" d="M19,37h2.5v2.5H19Z" transform="translate(-19 0.5)" fill="#5b849a"/>
          <path id="Path_1174463" data-name="Path 1174463" d="M23,37H46.75v2.5H23Z" transform="translate(-18 0.5)" fill="#5b849a"/>
          <path id="Path_1174464" data-name="Path 1174464" d="M19,41H51.5v2.5H19Z" transform="translate(-19 1.5)" fill="#5b849a"/>
        </g>
        <path id="Path_1174465" data-name="Path 1174465" d="M26.5,8.75V5H24V17.5h2.5V13.75h3.75v-5Z" transform="translate(6 1.25)" fill="#d64351"/>
        <path id="Path_1174466" data-name="Path 1174466" d="M78.75,40h-7.5A1.25,1.25,0,0,0,70,41.25H66.767L62.5,36.982V1.25A1.25,1.25,0,0,0,61.25,0H18.75A1.25,1.25,0,0,0,17.5,1.25V8.975l-5.25,1.05a1.25,1.25,0,0,0-1,1.386L13.2,26.25H11.25a1.25,1.25,0,0,0-1.011.515l-10,13.75a1.25,1.25,0,0,0-.217.965L3.75,61.366V65A1.25,1.25,0,0,0,2.5,66.25v12.5H5V75H20v3.75h2.5V66.25a1.241,1.241,0,0,0-.707-1.114l1.554-3.886h37.9A1.25,1.25,0,0,0,62.5,60h3.75a1.25,1.25,0,0,0,.884-.366L69.267,57.5H70v1.25A1.25,1.25,0,0,0,71.25,60h7.5A1.25,1.25,0,0,0,80,58.75V41.25A1.25,1.25,0,0,0,78.75,40ZM17.5,11.525V37.2l-.33.192L13.89,12.25ZM5,67.5H20v5H5ZM19.154,65H6.25V61.25a1.28,1.28,0,0,0-.021-.23L2.578,41.549l9.309-12.8h1.636l1.3,10.007-6.7,3.912,1.25,2.16L19.8,38.75H20v-.115l1.424-.831A3.8,3.8,0,0,1,22.5,40.149a3.426,3.426,0,0,1-1.542,2.521l-2.709,1.185A1.25,1.25,0,0,0,17.51,45H17.5v.59a10.969,10.969,0,0,1-6.779,9.527l1.057,2.265A14.519,14.519,0,0,0,17.5,52.825V60a1.25,1.25,0,0,0,1.25,1.25h1.9ZM20,58.75V45.817l2.109-.922a1.258,1.258,0,0,0,.265-.158,6.417,6.417,0,0,0,2.487-3.487H43.75v-2.5H24.774a7.781,7.781,0,0,0-2.4-3.487,1.25,1.25,0,0,0-1.4-.092L20,35.74V2.5H60V34.482l-.366-.366a1.25,1.25,0,0,0-.884-.366H57.5v-10a1.25,1.25,0,0,0-1.25-1.25H23.75a1.25,1.25,0,0,0-1.25,1.25v10h6.25a1.25,1.25,0,0,0,.884-.366L32.5,30.517l6.616,6.616a1.25,1.25,0,0,0,1.768,0l5.884-5.884H55v2.5H46.25A1.25,1.25,0,0,0,45,35a7.231,7.231,0,0,0,7.5,7.5h1.351c.3,2.347,1.489,7.391,6.149,9.846v6.4Zm35-30H46.25a1.25,1.25,0,0,0-.884.366L40,34.482l-6.616-6.616a1.25,1.25,0,0,0-1.767,0L28.232,31.25H25V25H55ZM68.75,55a1.25,1.25,0,0,0-.884.366L65.732,57.5H62.5V53.291a14.927,14.927,0,0,0,3.75.459v-2.5c-9.839,0-10-9.595-10-10A1.25,1.25,0,0,0,55,40H52.5a4.555,4.555,0,0,1-4.841-3.75H58.232l7.134,7.134a1.25,1.25,0,0,0,.884.366H70V55Zm8.75,2.5h-5v-15h5Z"/>
        <path id="Path_1174467" data-name="Path 1174467" d="M19.25,15.25h2.5v2.5A1.25,1.25,0,0,0,23,19h5a1.25,1.25,0,0,0,1.25-1.25v-2.5h2.5A1.25,1.25,0,0,0,33,14V9a1.25,1.25,0,0,0-1.25-1.25h-2.5V5.25A1.25,1.25,0,0,0,28,4H23a1.25,1.25,0,0,0-1.25,1.25v2.5h-2.5A1.25,1.25,0,0,0,18,9v5A1.25,1.25,0,0,0,19.25,15.25Zm1.25-5H23A1.25,1.25,0,0,0,24.25,9V6.5h2.5V9A1.25,1.25,0,0,0,28,10.25h2.5v2.5H28A1.25,1.25,0,0,0,26.75,14v2.5h-2.5V14A1.25,1.25,0,0,0,23,12.75H20.5Z" transform="translate(4.5 1)"/>
        <path id="Path_1174468" data-name="Path 1174468" d="M36,7h2.5V9.5H36Z" transform="translate(9 1.75)"/>
        <path id="Path_1174469" data-name="Path 1174469" d="M40,7h7.5V9.5H40Z" transform="translate(10 1.75)"/>
        <path id="Path_1174470" data-name="Path 1174470" d="M36,11H48.5v2.5H36Z" transform="translate(9 2.75)"/>
        <path id="Path_1174471" data-name="Path 1174471" d="M19,37h2.5v2.5H19Z" transform="translate(4.75 9.25)"/>
        <path id="Path_1174472" data-name="Path 1174472" d="M23,37H46.75v2.5H23Z" transform="translate(5.75 9.25)"/>
        <path id="Path_1174473" data-name="Path 1174473" d="M19,41H51.5v2.5H19Z" transform="translate(4.75 10.25)"/>
      </g>
    </g>
  </g>
</svg>
