<svg xmlns="http://www.w3.org/2000/svg" xmlns:xlink="http://www.w3.org/1999/xlink" width="93.934" height="93.934" viewBox="0 0 93.934 93.934">
  <defs>
    <filter id="Path_982547" x="0" y="0" width="93.934" height="93.934" filterUnits="userSpaceOnUse">
      <feOffset dy="3" input="SourceAlpha"/>
      <feGaussianBlur stdDeviation="3" result="blur"/>
      <feFlood flood-opacity="0.161"/>
      <feComposite operator="in" in2="blur"/>
      <feComposite in="SourceGraphic"/>
    </filter>
  </defs>
  <g id="Group_1223654" data-name="Group 1223654" transform="translate(-822.066 -7528.533)">
    <g id="Group_1222804" data-name="Group 1222804">
      <g id="Group_1222516" data-name="Group 1222516" transform="translate(-1 4360)">
        <g id="Group_1221059" data-name="Group 1221059" transform="translate(212 1973.836)">
          <g id="Group_1215985" data-name="Group 1215985" transform="translate(-0.229 -2679.151)">
            <g id="Group_1214663" data-name="Group 1214663" transform="translate(0 -1254.151)">
              <g id="Group_1214433" data-name="Group 1214433" transform="translate(-0.771 -2738.674)">
                <g id="Group_1183190" data-name="Group 1183190" transform="translate(1 1016.674)">
                  <g id="Group_1179611" data-name="Group 1179611" transform="translate(428 4723.467)">
                    <g id="Group_1175227" data-name="Group 1175227" transform="translate(-5.967 140.533)">
                      <g id="Group_1167337" data-name="Group 1167337" transform="translate(198.033 1992)">
                        <g id="Group_1166720" data-name="Group 1166720">
                          <g id="Group_1164305" data-name="Group 1164305">
                            <g id="Group_1163948" data-name="Group 1163948">
                              <g id="Group_1158168" data-name="Group 1158168">
                                <g id="Group_1152576" data-name="Group 1152576">
                                  <g id="Group_1148633" data-name="Group 1148633">
                                    <g id="Group_1148525" data-name="Group 1148525">
                                      <g transform="matrix(1, 0, 0, 1, -9, -6)" filter="url(#Path_982547)">
                                        <g id="Path_982547-2" data-name="Path 982547" transform="translate(9 6)" fill="#f7fbfc">
                                          <path d="M 37.966796875 74.43359375 C 33.04315185546875 74.43359375 28.26757431030273 73.46962738037109 23.77274131774902 71.56847381591797 C 19.43047523498535 69.73184967041016 15.53040790557861 67.10224914550781 12.18087482452393 63.75271987915039 C 8.831341743469238 60.4031867980957 6.201741218566895 56.50312042236328 4.365118980407715 52.16086196899414 C 2.463963508605957 47.66601943969727 1.499996900558472 42.89044189453125 1.499996900558472 37.966796875 C 1.499996900558472 33.04315185546875 2.463963508605957 28.26757431030273 4.365118980407715 23.77274131774902 C 6.201741218566895 19.43047523498535 8.831341743469238 15.53040790557861 12.18087482452393 12.18087482452393 C 15.53040790557861 8.831341743469238 19.43047523498535 6.201741218566895 23.77274131774902 4.365118980407715 C 28.26757431030273 2.463963508605957 33.04315185546875 1.499996900558472 37.966796875 1.499996900558472 C 42.89044189453125 1.499996900558472 47.66601943969727 2.463963508605957 52.16086196899414 4.365118980407715 C 56.50312042236328 6.201741218566895 60.4031867980957 8.831341743469238 63.75271987915039 12.18087482452393 C 67.10224914550781 15.53040790557861 69.73184967041016 19.43047523498535 71.56847381591797 23.77274131774902 C 73.46962738037109 28.26757431030273 74.43359375 33.04315185546875 74.43359375 37.966796875 C 74.43359375 42.89044189453125 73.46962738037109 47.66601943969727 71.56847381591797 52.16086196899414 C 69.73184967041016 56.50313186645508 67.10224914550781 60.4031867980957 63.75271987915039 63.75271987915039 C 60.4031867980957 67.10224914550781 56.50313186645508 69.73184967041016 52.16086196899414 71.56847381591797 C 47.66601943969727 73.46962738037109 42.89044189453125 74.43359375 37.966796875 74.43359375 Z" stroke="none"/>
                                          <path d="M 37.966796875 3 C 33.2449836730957 3 28.66600799560547 3.924095153808594 24.35705947875977 5.746635437011719 C 20.19359588623047 7.507637023925781 16.45379638671875 10.02928161621094 13.24153518676758 13.24153518676758 C 10.02927398681641 16.45379638671875 7.507621765136719 20.19359588623047 5.746635437011719 24.35705947875977 C 3.924095153808594 28.66600799560547 3 33.2449836730957 3 37.966796875 C 3 42.6886100769043 3.924095153808594 47.26758575439453 5.746635437011719 51.57653427124023 C 7.507621765136719 55.73999786376953 10.02927398681641 59.47979736328125 13.24153518676758 62.69205856323242 C 16.45379638671875 65.90431976318359 20.19359588623047 68.42597198486328 24.35705947875977 70.18695831298828 C 28.66600799560547 72.00949859619141 33.2449836730957 72.93359375 37.966796875 72.93359375 C 42.6886100769043 72.93359375 47.26758575439453 72.00949859619141 51.57653427124023 70.18695831298828 C 55.73999786376953 68.42597198486328 59.47979736328125 65.90431976318359 62.69205856323242 62.69205856323242 C 65.90431976318359 59.47979736328125 68.42597198486328 55.73999786376953 70.18695831298828 51.57653427124023 C 72.00949859619141 47.26758575439453 72.93359375 42.6886100769043 72.93359375 37.966796875 C 72.93359375 33.2449836730957 72.00949859619141 28.66600799560547 70.18695831298828 24.35705947875977 C 68.42597198486328 20.19359588623047 65.90431976318359 16.45379638671875 62.69205856323242 13.24153518676758 C 59.47979736328125 10.02928161621094 55.73999786376953 7.507637023925781 51.57653427124023 5.746635437011719 C 47.26758575439453 3.924095153808594 42.6886100769043 3 37.966796875 3 M 37.966796875 0 C 58.93528366088867 0 75.93359375 16.99832153320312 75.93359375 37.966796875 C 75.93359375 58.93528366088867 58.93528366088867 75.93359375 37.966796875 75.93359375 C 16.99831008911133 75.93359375 0 58.93528366088867 0 37.966796875 C 0 16.99832153320312 16.99831008911133 0 37.966796875 0 Z" stroke="none" fill="#62797e"/>
                                        </g>
                                      </g>
                                    </g>
                                  </g>
                                </g>
                              </g>
                            </g>
                          </g>
                        </g>
                      </g>
                    </g>
                  </g>
                </g>
              </g>
            </g>
          </g>
        </g>
      </g>
      <g id="grupo_4_" data-name="grupo (4)" transform="translate(832.119 7535.942)">
        <path id="Path_1174282" data-name="Path 1174282" d="M38.189,25.252a11.311,11.311,0,1,0-19.27-.032,3.654,3.654,0,0,0,3.112,1.746H35.1a3.634,3.634,0,0,0,3.093-1.714Zm0,0" transform="translate(-14.766 -6.421)" fill="#c47a4a"/>
        <path id="Path_1174283" data-name="Path 1174283" d="M97.2,25.249a3.634,3.634,0,0,1-3.094,1.715H91.37a3.634,3.634,0,0,0,3.094-1.715A11.313,11.313,0,0,0,86.211,8.081,11.312,11.312,0,0,1,98.885,19.057,11.266,11.266,0,0,1,97.2,25.249Zm0,0" transform="translate(-73.78 -6.418)" fill="#b26944"/>
        <path id="Path_1174284" data-name="Path 1174284" d="M56.639,88.672a6.58,6.58,0,0,1-6.58-6.58V76.1a2.852,2.852,0,0,1,2.852-2.851h7.457A2.851,2.851,0,0,1,63.218,76.1v5.994a6.579,6.579,0,0,1-6.58,6.58Zm0,0" transform="translate(-42.841 -62.257)" fill="#fdd1a7"/>
        <path id="Path_1174285" data-name="Path 1174285" d="M52.473,62.457c-1.023,7.75-10.528,6.269-10.528,6.269V62.457Zm0,0" transform="translate(-35.897 -53.024)" fill="#c47a4a"/>
        <path id="Path_1174286" data-name="Path 1174286" d="M31.308,341.371a11.31,11.31,0,1,0-22.2-.061,3.6,3.6,0,0,1-.727,2.98,3.9,3.9,0,0,0,3.014,6.373H29.034a3.9,3.9,0,0,0,3.014-6.373,3.522,3.522,0,0,1-.74-2.918Zm0,0" transform="translate(-6.419 -280.139)" fill="#ff5a96"/>
        <path id="Path_1174287" data-name="Path 1174287" d="M101.311,346.764a3.9,3.9,0,0,1-3.9,3.9H95.033a3.9,3.9,0,0,0,3.014-6.375,3.517,3.517,0,0,1-.74-2.917A11.315,11.315,0,0,0,87.4,327.9a11.508,11.508,0,0,1,1.79-.046,11.314,11.314,0,0,1,10.5,13.516,3.517,3.517,0,0,0,.74,2.917,3.88,3.88,0,0,1,.885,2.474Zm0,0" transform="translate(-74.796 -280.14)" fill="#ff3b82"/>
        <path id="Path_1174288" data-name="Path 1174288" d="M56.639,408.508a6.58,6.58,0,0,1-6.58-6.58v-5.994a2.852,2.852,0,0,1,2.852-2.852h7.457a2.852,2.852,0,0,1,2.851,2.852v5.994a6.579,6.579,0,0,1-6.58,6.58Zm0,0" transform="translate(-42.841 -335.973)" fill="#fdd1a7"/>
        <path id="Path_1174289" data-name="Path 1174289" d="M52.473,382.293c-1.023,7.75-10.528,6.269-10.528,6.269v-6.269Zm0,0" transform="translate(-35.897 -326.74)" fill="#ff5a96"/>
        <path id="Path_1174290" data-name="Path 1174290" d="M358.811,25.252a11.31,11.31,0,1,0-19.27-.032,3.655,3.655,0,0,0,3.113,1.746h13.064a3.636,3.636,0,0,0,3.093-1.715Zm0,0" transform="translate(-289.155 -6.421)" fill="#756f6f"/>
        <path id="Path_1174291" data-name="Path 1174291" d="M417.821,25.249a3.634,3.634,0,0,1-3.093,1.715h-2.74a3.63,3.63,0,0,0,3.092-1.715,11.312,11.312,0,0,0-8.251-17.168A11.313,11.313,0,0,1,419.5,19.057,11.262,11.262,0,0,1,417.821,25.249Zm0,0" transform="translate(-348.165 -6.418)" fill="#5b5555"/>
        <path id="Path_1174292" data-name="Path 1174292" d="M377.256,88.672a6.58,6.58,0,0,1-6.58-6.58V76.1a2.852,2.852,0,0,1,2.852-2.851h7.457a2.852,2.852,0,0,1,2.852,2.851v5.994A6.58,6.58,0,0,1,377.256,88.672Zm0,0" transform="translate(-317.226 -62.257)" fill="#fdd1a7"/>
        <path id="Path_1174293" data-name="Path 1174293" d="M373.094,62.457c-1.023,7.75-10.528,6.269-10.528,6.269V62.457Zm0,0" transform="translate(-310.285 -53.024)" fill="#756f6f"/>
        <path id="Path_1174294" data-name="Path 1174294" d="M351.926,341.371a11.31,11.31,0,1,0-22.2-.061,3.6,3.6,0,0,1-.727,2.98,3.9,3.9,0,0,0,3.013,6.373h17.635a3.9,3.9,0,0,0,3.014-6.373,3.521,3.521,0,0,1-.739-2.918Zm0,0" transform="translate(-280.803 -280.139)" fill="#ffa730"/>
        <path id="Path_1174295" data-name="Path 1174295" d="M421.932,346.764a3.9,3.9,0,0,1-3.9,3.9h-2.379a3.9,3.9,0,0,0,3.014-6.375,3.515,3.515,0,0,1-.74-2.917,11.322,11.322,0,0,0-9.908-13.47,11.506,11.506,0,0,1,1.79-.046,11.322,11.322,0,0,1,10.5,13.516,3.515,3.515,0,0,0,.74,2.917,3.88,3.88,0,0,1,.885,2.474Zm0,0" transform="translate(-349.184 -280.14)" fill="#fa8916"/>
        <path id="Path_1174296" data-name="Path 1174296" d="M377.256,408.508a6.58,6.58,0,0,1-6.58-6.58v-5.994a2.852,2.852,0,0,1,2.852-2.852h7.457a2.852,2.852,0,0,1,2.852,2.852v5.994A6.58,6.58,0,0,1,377.256,408.508Zm0,0" transform="translate(-317.226 -335.973)" fill="#fdd1a7"/>
        <path id="Path_1174297" data-name="Path 1174297" d="M373.094,382.293c-1.023,7.75-10.528,6.269-10.528,6.269v-6.269Zm0,0" transform="translate(-310.285 -326.74)" fill="#ffa730"/>
        <path id="Path_1174298" data-name="Path 1174298" d="M223.535,233H205.5a1.512,1.512,0,0,0-1.512,1.512v9.769a1.511,1.511,0,0,0,1.512,1.512h9.862v1.271a1.512,1.512,0,0,0,2.53,1.118l2.619-2.388h3.02a1.512,1.512,0,0,0,1.512-1.512v-9.769A1.512,1.512,0,0,0,223.535,233Zm0,0" transform="translate(-174.578 -198.971)" fill="#00c2f8"/>
        <path id="Path_1174299" data-name="Path 1174299" d="M323.306,234.508v9.769a1.512,1.512,0,0,1-1.511,1.511h-2.987a1.511,1.511,0,0,0,1.511-1.511v-9.769A1.511,1.511,0,0,0,318.809,233H321.8A1.511,1.511,0,0,1,323.306,234.508Zm0,0" transform="translate(-272.837 -198.971)" fill="#00abef"/>
        <path id="Path_1174300" data-name="Path 1174300" d="M163.512,167.027h15.309a1.512,1.512,0,0,1,1.512,1.512v8.409a1.512,1.512,0,0,1-1.512,1.512h-3.554v1.706a1.512,1.512,0,0,1-2.535,1.113l-3.068-2.819h-6.153A1.512,1.512,0,0,1,162,176.947v-8.409a1.512,1.512,0,0,1,1.512-1.512Zm0,0" transform="translate(-138.64 -142.515)" fill="#ffb54e"/>
        <path id="Path_1174301" data-name="Path 1174301" d="M261.023,168.543v8.409a1.512,1.512,0,0,1-1.512,1.511h-3.226a1.511,1.511,0,0,0,1.512-1.511v-8.409a1.511,1.511,0,0,0-1.512-1.512h3.226A1.512,1.512,0,0,1,261.023,168.543Zm0,0" transform="translate(-219.33 -142.519)" fill="#ff9a1b"/>
        <path id="Path_1174302" data-name="Path 1174302" d="M72.7,63.463a2.423,2.423,0,0,1-.514-2.02,12.394,12.394,0,0,0-7.269-13.815,30.027,30.027,0,0,0-.225-21.718A7.674,7.674,0,0,0,67.5,21.533,4.686,4.686,0,0,0,70.576,19.4,12.349,12.349,0,0,0,70,5.556a1.082,1.082,0,0,0-1.74,1.285,10.186,10.186,0,0,1,.477,11.421,2.527,2.527,0,0,1-1.044.942V13.84a3.936,3.936,0,0,0-3.861-3.931q.028-.166.051-.335a1.082,1.082,0,0,0-2.144-.283,5.545,5.545,0,0,1-3.987,4.888,12.453,12.453,0,0,1-4.954.5,1.082,1.082,0,0,0-.426,2.109V19.2a2.571,2.571,0,0,1-1.061-.967A10.229,10.229,0,0,1,60.277,2.666,10.035,10.035,0,0,1,64.848,3.88a1.081,1.081,0,0,0,1.027-1.9A12.39,12.39,0,0,0,48.159,9.324a29.991,29.991,0,0,0-22.5,0A12.39,12.39,0,1,0,3.231,19.366a4.717,4.717,0,0,0,3.1,2.166A7.678,7.678,0,0,0,9.14,25.911a30.027,30.027,0,0,0-.226,21.715,12.3,12.3,0,0,0-2.7,1.59,1.081,1.081,0,1,0,1.326,1.708,10.232,10.232,0,0,1,16.294,10.1,4.58,4.58,0,0,0,.964,3.817,2.781,2.781,0,0,1,.64,1.787,2.821,2.821,0,0,1-2.818,2.818h-2a7.607,7.607,0,0,0,.843-3.488V59.961A3.937,3.937,0,0,0,17.6,56.03c.019-.111.037-.222.051-.335a1.082,1.082,0,0,0-2.144-.283,5.543,5.543,0,0,1-2.146,3.934c-2.732,2.052-7.1,1.414-7.143,1.408a1.081,1.081,0,0,0-.333,2.137c.025,0,.113.017.255.034v3.03a7.607,7.607,0,0,0,.843,3.488h-2a2.821,2.821,0,0,1-2.818-2.818,2.781,2.781,0,0,1,.64-1.787,4.668,4.668,0,0,0,.954-3.873,10.285,10.285,0,0,1-.187-1.953,10.12,10.12,0,0,1,1.088-4.594,1.081,1.081,0,1,0-1.931-.973,12.267,12.267,0,0,0-1.319,5.567,12.442,12.442,0,0,0,.226,2.365,2.515,2.515,0,0,1-.5,2.087A4.98,4.98,0,0,0,4.98,71.606H8.63a7.645,7.645,0,0,0,10.335,0h3.65a4.974,4.974,0,0,0,4.839-6.154,30.053,30.053,0,0,0,18.919,0,4.974,4.974,0,0,0,4.839,6.154h3.65a7.645,7.645,0,0,0,10.335,0h3.65A4.981,4.981,0,0,0,72.7,63.463ZM8.3,65.955V63.011a11.228,11.228,0,0,0,6.348-1.928,7.27,7.27,0,0,0,2.313-2.893h.567a1.772,1.772,0,0,1,1.77,1.77v5.994a5.5,5.5,0,1,1-11,0ZM58.454,16.224a7.7,7.7,0,0,0,4.737-4.153h.568a1.772,1.772,0,0,1,1.77,1.77v5.994a5.5,5.5,0,0,1-11,0V16.889a13.389,13.389,0,0,0,3.922-.666Zm-53.38,2.01a10.229,10.229,0,1,1,17.429.029,2.528,2.528,0,0,1-1.044.943V13.84A3.937,3.937,0,0,0,17.6,9.909q.027-.166.05-.335A1.082,1.082,0,0,0,15.5,9.291a5.545,5.545,0,0,1-3.987,4.888,12.453,12.453,0,0,1-4.954.5,1.082,1.082,0,0,0-.426,2.109V19.2a2.577,2.577,0,0,1-1.062-.968Zm3.225,1.6V16.889a13.392,13.392,0,0,0,3.922-.666,7.7,7.7,0,0,0,4.737-4.153h.568a1.771,1.771,0,0,1,1.77,1.77v5.994a5.5,5.5,0,1,1-11,0ZM26,62.589a2.4,2.4,0,0,1-.054-1.145A12.381,12.381,0,0,0,10.971,46.95a27.863,27.863,0,0,1,.072-19.969,7.654,7.654,0,0,0,10.225-5.449A4.679,4.679,0,0,0,24.342,19.4a12.348,12.348,0,0,0,1.844-6.784c-.008-.381-.035-.759-.078-1.134a27.832,27.832,0,0,1,21.611,0,12.551,12.551,0,0,0-.082,1.408,12.359,12.359,0,0,0,1.826,6.475,4.72,4.72,0,0,0,3.1,2.167,7.655,7.655,0,0,0,10.225,5.449,27.859,27.859,0,0,1,.073,19.966,12.39,12.39,0,0,0-15.22,12.063,12.448,12.448,0,0,0,.226,2.366,2.616,2.616,0,0,1-.05,1.215,27.834,27.834,0,0,1-21.812,0ZM60.03,71.453a5.5,5.5,0,0,1-5.5-5.5V63.011a11.228,11.228,0,0,0,6.348-1.928,7.271,7.271,0,0,0,2.313-2.893h.566a1.772,1.772,0,0,1,1.77,1.77v5.994a5.5,5.5,0,0,1-5.5,5.5Zm8.818-2.011h-2a7.608,7.608,0,0,0,.844-3.488V59.961A3.937,3.937,0,0,0,63.83,56.03c.019-.111.037-.222.051-.335a1.082,1.082,0,0,0-2.144-.283,5.543,5.543,0,0,1-2.146,3.934c-2.732,2.052-7.1,1.414-7.143,1.408a1.081,1.081,0,0,0-.333,2.137c.025,0,.113.017.255.034v3.03a7.607,7.607,0,0,0,.843,3.488h-2A2.821,2.821,0,0,1,48.4,66.625a2.781,2.781,0,0,1,.64-1.788,4.67,4.67,0,0,0,.954-3.873,10.291,10.291,0,0,1-.187-1.953A10.23,10.23,0,0,1,60.569,48.8,10.236,10.236,0,0,1,70.062,61.02a4.58,4.58,0,0,0,.964,3.817,2.783,2.783,0,0,1,.64,1.787,2.821,2.821,0,0,1-2.818,2.818Zm0,0" transform="translate(0 0)"/>
        <path id="Path_1174303" data-name="Path 1174303" d="M183.772,181.406v-9.769a2.6,2.6,0,0,0-2.593-2.593H175v-6.919a2.6,2.6,0,0,0-2.593-2.593H157.093a2.6,2.6,0,0,0-2.593,2.593v8.409a2.6,2.6,0,0,0,2.593,2.593h3.462v8.28A2.6,2.6,0,0,0,163.148,184H165.2a1.081,1.081,0,0,0,0-2.163h-2.057a.43.43,0,0,1-.43-.43v-8.28h.107l2.757,2.534a2.567,2.567,0,0,0,1.743.689,2.615,2.615,0,0,0,1.054-.225,2.56,2.56,0,0,0,1.55-2.374v-.625H172.4a2.6,2.6,0,0,0,2.5-1.92h6.275a.431.431,0,0,1,.43.43v9.769a.43.43,0,0,1-.43.43h-3.02a1.083,1.083,0,0,0-.729.282l-2.618,2.388a.431.431,0,0,1-.72-.318v-1.271a1.081,1.081,0,0,0-1.081-1.081h-2.827a1.081,1.081,0,1,0,0,2.163h1.746v.189a2.561,2.561,0,0,0,1.546,2.373,2.611,2.611,0,0,0,1.058.226,2.567,2.567,0,0,0,1.737-.682L178.578,184h2.6a2.6,2.6,0,0,0,2.593-2.593Zm-10.939-10.873a.43.43,0,0,1-.43.43h-3.554a1.082,1.082,0,0,0-1.081,1.081v1.706a.43.43,0,0,1-.721.317l-3.068-2.819a1.082,1.082,0,0,0-.732-.286h-6.153a.431.431,0,0,1-.43-.43v-8.409a.431.431,0,0,1,.43-.43H172.4a.431.431,0,0,1,.43.43v8.409Zm0,0" transform="translate(-132.222 -136.1)"/>
        <path id="Path_1174304" data-name="Path 1174304" d="M198.645,199.172h-5.38a1.081,1.081,0,1,0,0,2.163h5.38a1.081,1.081,0,0,0,0-2.163Zm0,0" transform="translate(-164.471 -170.024)"/>
        <path id="Path_1174305" data-name="Path 1174305" d="M279.194,272.015a1.081,1.081,0,1,0,0-2.163h-5.082a1.081,1.081,0,0,0,0,2.163Zm0,0" transform="translate(-233.661 -230.513)"/>
      </g>
    </g>
  </g>
</svg>
