<svg xmlns="http://www.w3.org/2000/svg" xmlns:xlink="http://www.w3.org/1999/xlink" width="113" height="113" viewBox="0 0 113 113">
  <defs>
    <filter id="Path_982547" x="0" y="0" width="113" height="113" filterUnits="userSpaceOnUse">
      <feOffset dy="3" input="SourceAlpha"/>
      <feGaussianBlur stdDeviation="3" result="blur"/>
      <feFlood flood-opacity="0.161"/>
      <feComposite operator="in" in2="blur"/>
      <feComposite in="SourceGraphic"/>
    </filter>
  </defs>
  <g id="Group_1223659" data-name="Group 1223659" transform="translate(-901 -8013.033)">
    <g id="Group_1222920" data-name="Group 1222920">
      <g id="Group_1219103" data-name="Group 1219103" transform="translate(0 923.189)">
        <g id="Group_1217906" data-name="Group 1217906" transform="translate(-1.234 -2607)">
          <g id="Group_1216307" data-name="Group 1216307" transform="translate(911.234 9702.844)">
            <g id="Group_1208705" data-name="Group 1208705">
              <g id="Group_1148633" data-name="Group 1148633">
                <g id="Group_1148525" data-name="Group 1148525">
                  <g transform="matrix(1, 0, 0, 1, -9, -6)" filter="url(#Path_982547)">
                    <g id="Path_982547-2" data-name="Path 982547" transform="translate(9 6)" fill="#ffe6ef">
                      <path d="M 47.5 93.5 C 41.28937149047852 93.5 35.26533508300781 92.28397369384766 29.59518623352051 89.88570404052734 C 24.11771965026855 87.56893157958984 19.19813346862793 84.25196075439453 14.97309303283691 80.02691650390625 C 10.74804019927979 75.80186462402344 7.431066513061523 70.88229370117188 5.114293098449707 65.40481567382812 C 2.716026782989502 59.73468017578125 1.5 53.71062850952148 1.5 47.5 C 1.5 41.28937149047852 2.716026782989502 35.26533508300781 5.114293098449707 29.59518623352051 C 7.431066513061523 24.11771965026855 10.74804019927979 19.19813346862793 14.97309303283691 14.97309303283691 C 19.19813346862793 10.74804019927979 24.11771965026855 7.431066513061523 29.59518623352051 5.114293098449707 C 35.26533508300781 2.716026782989502 41.28937149047852 1.5 47.5 1.5 C 53.71062850952148 1.5 59.73468017578125 2.716026782989502 65.40481567382812 5.114293098449707 C 70.88229370117188 7.431066513061523 75.80186462402344 10.74804019927979 80.02691650390625 14.97309303283691 C 84.25196075439453 19.19813346862793 87.56893157958984 24.11771965026855 89.88570404052734 29.59518623352051 C 92.28397369384766 35.26533508300781 93.5 41.28937149047852 93.5 47.5 C 93.5 53.71062850952148 92.28397369384766 59.73468017578125 89.88570404052734 65.40481567382812 C 87.56893157958984 70.88229370117188 84.25196075439453 75.80186462402344 80.02691650390625 80.02691650390625 C 75.80186462402344 84.25196075439453 70.88229370117188 87.56893157958984 65.40481567382812 89.88570404052734 C 59.73468017578125 92.28397369384766 53.71062850952148 93.5 47.5 93.5 Z" stroke="none"/>
                      <path d="M 47.5 3 C 41.49121475219727 3 35.66376876831055 4.176155090332031 30.17950439453125 6.495796203613281 C 24.88084411621094 8.736953735351562 20.12152099609375 11.94598388671875 16.03375244140625 16.03375244140625 C 11.94598388671875 20.12152099609375 8.736953735351562 24.88084411621094 6.495796203613281 30.17950439453125 C 4.176155090332031 35.66376876831055 3 41.49121475219727 3 47.5 C 3 53.50878524780273 4.176155090332031 59.33623123168945 6.495796203613281 64.82049560546875 C 8.736953735351562 70.11915588378906 11.94598388671875 74.87847900390625 16.03375244140625 78.96624755859375 C 20.12152099609375 83.05401611328125 24.88084411621094 86.26304626464844 30.17950439453125 88.50419616699219 C 35.66376876831055 90.82384490966797 41.49121475219727 92 47.5 92 C 53.50878524780273 92 59.33623123168945 90.82384490966797 64.82049560546875 88.50419616699219 C 70.11915588378906 86.26304626464844 74.87847900390625 83.05401611328125 78.96624755859375 78.96624755859375 C 83.05401611328125 74.87847900390625 86.26304626464844 70.11915588378906 88.50419616699219 64.82049560546875 C 90.82384490966797 59.33623123168945 92 53.50878524780273 92 47.5 C 92 41.49121475219727 90.82384490966797 35.66376876831055 88.50419616699219 30.17950439453125 C 86.26304626464844 24.88084411621094 83.05401611328125 20.12152099609375 78.96624755859375 16.03375244140625 C 74.87847900390625 11.94598388671875 70.11915588378906 8.736953735351562 64.82049560546875 6.495796203613281 C 59.33623123168945 4.176155090332031 53.50878524780273 3 47.5 3 M 47.5 0 C 73.7335205078125 0 95 21.2664794921875 95 47.5 C 95 73.7335205078125 73.7335205078125 95 47.5 95 C 21.2664794921875 95 0 73.7335205078125 0 47.5 C 0 21.2664794921875 21.2664794921875 0 47.5 0 Z" stroke="none" fill="#ffadcc"/>
                    </g>
                  </g>
                </g>
              </g>
            </g>
          </g>
        </g>
      </g>
      <g id="Layer_1" data-name="Layer 1" transform="translate(916.726 8013.167)">
        <path id="Path_1174430" data-name="Path 1174430" d="M75.527,84.929H16.395a5.249,5.249,0,0,1-5.25-5.25v-43.6a5.249,5.249,0,0,1,5.25-5.249H75.528a5.249,5.249,0,0,1,5.249,5.249v43.6a5.249,5.249,0,0,1-5.25,5.249Z" transform="translate(-7.366 -4.425)" fill="#393939"/>
        <path id="Path_1174431" data-name="Path 1174431" d="M19.7,84.929h-3.3a5.249,5.249,0,0,1-5.25-5.25v-43.6a5.249,5.249,0,0,1,5.25-5.249h3.3a5.249,5.249,0,0,0-5.249,5.249v43.6A5.249,5.249,0,0,0,19.7,84.929Z" transform="translate(-7.366 -4.425)" fill="#343434"/>
        <path id="Path_1174432" data-name="Path 1174432" d="M35.415,100.32V56.5a1.4,1.4,0,0,1,1.4-1.4H96.169a1.4,1.4,0,0,1,1.4,1.4V100.32a1.4,1.4,0,0,1-1.4,1.4H36.81A1.4,1.4,0,0,1,35.415,100.32Z" transform="translate(-27.894 -24.952)" fill="#f5f5f5"/>
        <path id="Path_1174433" data-name="Path 1174433" d="M39.982,101.715H36.81a1.4,1.4,0,0,1-1.4-1.4V56.5a1.4,1.4,0,0,1,1.4-1.4h3.171a1.4,1.4,0,0,0-1.4,1.4V100.32a1.4,1.4,0,0,0,1.4,1.4Z" transform="translate(-27.894 -24.952)" fill="#e6e6e6"/>
        <path id="Path_1174434" data-name="Path 1174434" d="M121.536,117.026a5.993,5.993,0,1,1-5.993-5.993A5.993,5.993,0,0,1,121.536,117.026Zm-5.993,11.39a5.993,5.993,0,1,0,5.993,5.993A5.993,5.993,0,0,0,115.542,128.417Z" transform="translate(-90.6 -72.263)" fill="#52cc7b"/>
        <path id="Path_1174435" data-name="Path 1174435" d="M109.537,117.027a5.992,5.992,0,0,1,6.86-5.93,5.993,5.993,0,0,0,0,11.86,5.992,5.992,0,0,1-6.86-5.93Zm1.734,17.384a5.994,5.994,0,0,1,5.126-5.93,5.993,5.993,0,1,0,0,11.86,5.994,5.994,0,0,1-5.126-5.93Z" transform="translate(-90.588 -72.263)" fill="#3d997a"/>
        <path id="Path_1174436" data-name="Path 1174436" d="M351.573,421.65l-.444-1.921a2.131,2.131,0,0,1,1.6-2.555l18.384-4.244a2.131,2.131,0,0,1,2.555,1.6l.444,1.921a2.131,2.131,0,0,1-1.6,2.556l-18.384,4.244A2.131,2.131,0,0,1,351.573,421.65Z" transform="translate(-294.894 -327.575)" fill="#6cf"/>
        <path id="Path_1174437" data-name="Path 1174437" d="M354.677,444.906l-1.586.367a1.628,1.628,0,0,1-1.953-1.22l-.669-2.9a1.628,1.628,0,0,1,1.22-1.953l1.817-.419a1.4,1.4,0,0,0-.854,1.643l.735,3.183c.139.6.655,1.447,1.291,1.3Z" transform="translate(-294.346 -349.487)" fill="#4da6ff"/>
        <path id="Path_1174438" data-name="Path 1174438" d="M324.493,241.379a11.329,11.329,0,0,1-.812,6.154l-19.376,4.473a18.2,18.2,0,0,1-6.253-7.6c-1.813-3.831-2.175-5.613-3.205-7.063a2.341,2.341,0,0,1,1.533-3.673c2.153-.324,3.454.519,7.345,6.264l-4.419-19.359a2.454,2.454,0,1,1,4.769-1.153l2.38,10.31a2.491,2.491,0,1,1,4.854-1.121l.2.88a2.491,2.491,0,0,1,1.867-2.988,2.35,2.35,0,0,1,2.988,1.867l.3,1.32a2.491,2.491,0,0,1,4.854-1.121Z" transform="translate(-246.965 -162.293)" fill="#ffd9b3"/>
        <path id="Path_1174439" data-name="Path 1174439" d="M316.512,229.431v-.006l.17.737a2.489,2.489,0,0,1,1.518-2.876,3.227,3.227,0,0,0-.27,2.1l1.417,6.135a.7.7,0,1,1-1.355.313l-1.4-6.08Zm-12.791,10.661a.7.7,0,1,0,1.355-.313l-4.454-19.294a3.486,3.486,0,0,1,.44-2.458,2.372,2.372,0,0,0-1.788,2.8l.007.03Zm2.744-9.888,1.325,5.737a.7.7,0,1,0,1.355-.313l-1.338-5.794a3.625,3.625,0,0,1,.524-2.619,2.491,2.491,0,0,0-1.866,2.988Zm5.051-.233,1.325,5.737a.7.7,0,1,0,1.355-.313l-1.338-5.794a3.624,3.624,0,0,1,.524-2.619v-.005a2.491,2.491,0,0,0-1.859,2.985l-.091-.4.01.077ZM300.4,245.615a52.588,52.588,0,0,0-4.09-8.287,5.48,5.48,0,0,1-.96-2.751,2.359,2.359,0,0,0-.5,3.239c1.03,1.45,1.392,3.232,3.205,7.063a18.2,18.2,0,0,0,6.253,7.6l1.82-.42c-2.485-1.964-4.632-4-5.733-6.442Z" transform="translate(-246.974 -162.764)" fill="#fb9"/>
        <path id="Path_1174440" data-name="Path 1174440" d="M31.082,38.5l-1.521,1.521a7,7,0,1,0,1.258,1.795l1.79-1.789A1.079,1.079,0,0,0,31.082,38.5ZM29.37,44.885a4.874,4.874,0,1,1-1.334-3.341L24.5,45.074l-1.764-1.764a1.079,1.079,0,0,0-1.526,1.526l2.527,2.527a1.079,1.079,0,0,0,1.526,0l3.892-3.892a4.85,4.85,0,0,1,.21,1.413Zm1.713,10.852-1.521,1.521a7,7,0,1,0,1.258,1.795l1.79-1.789a1.079,1.079,0,1,0-1.526-1.526ZM29.37,62.124a4.874,4.874,0,1,1-1.334-3.341L24.5,62.315l-1.764-1.764a1.079,1.079,0,1,0-1.526,1.526L23.742,64.6a1.079,1.079,0,0,0,1.526,0l3.892-3.892a4.847,4.847,0,0,1,.21,1.412Zm6.322-4.81a1.079,1.079,0,0,1,1.079-1.079H47.15a1.079,1.079,0,1,1,0,2.158H36.771a1.079,1.079,0,0,1-1.079-1.079Zm0-12.431a1.079,1.079,0,0,1,1.079-1.079H57.53a1.079,1.079,0,1,1,0,2.158H36.771a1.079,1.079,0,0,1-1.079-1.079Zm0-4.81A1.079,1.079,0,0,1,36.771,39H57.53a1.079,1.079,0,1,1,0,2.158H36.771a1.079,1.079,0,0,1-1.079-1.08Zm21.838,10.7H36.771a1.079,1.079,0,1,1,0-2.158H57.53a1.079,1.079,0,1,1,0,2.158ZM80.535,88.68,80.118,86.8a3.206,3.206,0,0,0-1.929-2.278,10.6,10.6,0,0,0,.771-5.494c0-.023-.008-.045-.013-.067L76.111,66.21a3.556,3.556,0,0,0-2.458-2.636V31.884A6.292,6.292,0,0,0,67.368,25.6H8.722a6.292,6.292,0,0,0-6.285,6.284v43.24A6.292,6.292,0,0,0,8.722,81.41H50.167c.142.322.293.659.458,1.014A20.56,20.56,0,0,0,56.1,89.693c-.029.041-.06.081-.088.123a3.189,3.189,0,0,0-.427,2.419L56,94.119a3.2,3.2,0,0,0,3.828,2.439L78.1,92.508a3.21,3.21,0,0,0,2.439-3.828ZM8.722,79.251A4.131,4.131,0,0,1,4.6,75.124V31.884a4.131,4.131,0,0,1,4.127-4.126H67.368A4.131,4.131,0,0,1,71.5,31.885V63.616a3.524,3.524,0,0,0-1.261.752,3.271,3.271,0,0,0-.291-.314V31.784a2.477,2.477,0,0,0-2.474-2.474H8.622a2.477,2.477,0,0,0-2.475,2.474V75.225A2.477,2.477,0,0,0,8.622,77.7H48.654c.082.207.168.427.26.663q.162.416.35.89ZM52,58.541l3.116,14.221c-1.814-2.129-3.237-2.821-5.233-2.538a3.351,3.351,0,0,0-2.617,2,3.4,3.4,0,0,0,.326,3.32H8.622a.317.317,0,0,1-.316-.316V31.784a.317.317,0,0,1,.316-.316H67.469a.317.317,0,0,1,.316.316v31.39a4,4,0,0,0-1.034.092,3.534,3.534,0,0,0-1.841,1.061,3.55,3.55,0,0,0-3.185-.865,3.508,3.508,0,0,0-1.3.581l-1.571-7.071a3.443,3.443,0,0,0-2.326-2.642,3.685,3.685,0,0,0-3.541.781A3.5,3.5,0,0,0,52,58.541Zm.581,22.977c-.764-1.652-1.261-2.922-1.659-3.942a15.11,15.11,0,0,0-1.557-3.265,1.256,1.256,0,0,1-.12-1.227,1.2,1.2,0,0,1,.94-.722c1.4-.2,2.308-.029,6.191,5.814a1.079,1.079,0,0,0,1.953-.828L54.11,58.076a1.346,1.346,0,0,1,.338-1.374,1.513,1.513,0,0,1,1.434-.314,1.293,1.293,0,0,1,.868,1.052l3.432,15.452a1.079,1.079,0,1,0,2.107-.468L61.14,67.253a1.393,1.393,0,1,1,2.716-.623l0,.015,1.512,6.361a1.079,1.079,0,1,0,2.1-.5l-1.34-5.637a1.4,1.4,0,0,1,1.086-1.5,1.47,1.47,0,0,1,1.064.117,1.374,1.374,0,0,1,.6.943l1.5,6.764a1.079,1.079,0,1,0,2.107-.467L71.28,67.28a1.4,1.4,0,1,1,2.725-.6L76.832,79.39a9.054,9.054,0,0,1-.982,5.064L58.02,88.407l-.044.012a18.018,18.018,0,0,1-5.393-6.9Zm25.705,8.422a1.045,1.045,0,0,1-.659.462L59.36,94.451a1.052,1.052,0,0,1-1.254-.8l-.418-1.884a1.052,1.052,0,0,1,.8-1.254l18.269-4.05a1.052,1.052,0,0,1,1.254.8l.418,1.884A1.045,1.045,0,0,1,78.289,89.939Zm-28.836-23a1.079,1.079,0,0,1-1.079,1.079h-11.6a1.079,1.079,0,1,1,0-2.158h11.6A1.079,1.079,0,0,1,49.452,66.935Zm-13.761-4.81a1.079,1.079,0,0,1,1.079-1.079H47.915a1.079,1.079,0,1,1,0,2.158H36.771a1.079,1.079,0,0,1-1.079-1.08Z"/>
      </g>
    </g>
  </g>
</svg>
