<svg xmlns="http://www.w3.org/2000/svg" width="36.291" height="43.809" viewBox="0 0 36.291 43.809">
  <g id="Group_1210710" data-name="Group 1210710" transform="translate(-745.904 -6855.447)">
    <g id="cigarrillo" transform="translate(778.682 6899.256) rotate(-150)">
      <path id="Path_1079528" data-name="Path 1079528" d="M37.19,4.881a1.287,1.287,0,0,1-.359.359l-.936.624a.19.19,0,0,0-.023.019l-.852.8a1.29,1.29,0,0,1-.883.348H7.914a.555.555,0,1,1,0-1.109h4.733V1.109H1.294a.185.185,0,0,0-.185.185V5.732a.185.185,0,0,0,.185.185H5.325a.555.555,0,1,1,0,1.109H1.294A1.3,1.3,0,0,1,0,5.732V1.294A1.3,1.3,0,0,1,1.294,0H23.962a.555.555,0,0,1,0,1.109H16.345V5.917H32.1V1.109H26.551a.555.555,0,1,1,0-1.109h7.776a1.3,1.3,0,0,1,.948.414l.637.686a.186.186,0,0,0,.062.044l.765.335a1.287,1.287,0,0,1,.683.705l.334.836a1.293,1.293,0,0,1-.125,1.2ZM15.235,1.109H13.756V5.917h1.479ZM36.726,3.432,36.392,2.6a.184.184,0,0,0-.1-.1l-.765-.335a1.287,1.287,0,0,1-.43-.305l-.637-.686a.186.186,0,0,0-.135-.059h-1.12V5.917h.929a.185.185,0,0,0,.126-.05l.852-.8a1.3,1.3,0,0,1,.165-.131l.936-.624a.183.183,0,0,0,.051-.051l.442-.663a.184.184,0,0,0,.018-.171Z" transform="translate(0 0)"/>
      <path id="Path_1079529" data-name="Path 1079529" d="M3.739,5.008A8.6,8.6,0,0,0,6.947.794,1.155,1.155,0,0,1,8.034,0,1.225,1.225,0,0,1,9.122.791c1,3.428-.558,5.412-2.114,7.708a.555.555,0,0,1-.918-.623C7.521,5.791,8.926,3.964,8.065,1.128c-.007-.021-.014-.036-.031-.036s-.024.025-.027.031A9.621,9.621,0,0,1,4.46,5.851,7.976,7.976,0,0,0,1.548,9.557a7.2,7.2,0,0,0,1.951,7.9A5.66,5.66,0,0,0,6.6,19.1a17.377,17.377,0,0,0-1.053-2.632,8.2,8.2,0,0,1-1.1-4.716,6.883,6.883,0,0,1,.286-1.331.555.555,0,0,1,1.057.339,5.762,5.762,0,0,0-.241,1.116,7.128,7.128,0,0,0,1,4.122A18.126,18.126,0,0,1,7.7,18.908a.956.956,0,0,1-.35,1.1c-.854.583-2.614-.18-3.888-1.136A8.381,8.381,0,0,1,.487,9.234,8.959,8.959,0,0,1,3.739,5.008Z" transform="translate(28.425 8.519)"/>
    </g>
  </g>
</svg>
