<svg xmlns="http://www.w3.org/2000/svg" xmlns:xlink="http://www.w3.org/1999/xlink" width="103" height="103" viewBox="0 0 103 103">
  <defs>
    <filter id="Path_978624" x="0" y="0" width="103" height="103" filterUnits="userSpaceOnUse">
      <feOffset dy="3" input="SourceAlpha"/>
      <feGaussianBlur stdDeviation="3" result="blur"/>
      <feFlood flood-opacity="0.161"/>
      <feComposite operator="in" in2="blur"/>
      <feComposite in="SourceGraphic"/>
    </filter>
  </defs>
  <g id="Group_1210727" data-name="Group 1210727" transform="translate(-195 -3078)">
    <g id="Group_1210515" data-name="Group 1210515">
      <g id="Group_1208718" data-name="Group 1208718" transform="translate(204 3084)">
        <g id="Group_1178144" data-name="Group 1178144">
          <g id="Group_1177896" data-name="Group 1177896">
            <g id="Group_1176881" data-name="Group 1176881">
              <g id="Group_1175148" data-name="Group 1175148">
                <g id="Group_1173798" data-name="Group 1173798">
                  <g id="Group_1171925" data-name="Group 1171925">
                    <g id="Group_1164524" data-name="Group 1164524">
                      <g id="Group_1144123" data-name="Group 1144123">
                        <g transform="matrix(1, 0, 0, 1, -9, -6)" filter="url(#Path_978624)">
                          <g id="Path_978624-2" data-name="Path 978624" transform="translate(9 6)" fill="#f7fbfc">
                            <path d="M 42.5 83.5 C 36.96437835693359 83.5 31.59512901306152 82.41617584228516 26.54141235351562 80.27863311767578 C 21.65934181213379 78.21369171142578 17.27447128295898 75.25723266601562 13.50862312316895 71.49137878417969 C 9.742764472961426 67.72553253173828 6.786305904388428 63.34066009521484 4.721364498138428 58.45858764648438 C 2.583823442459106 53.40486907958984 1.5 48.03562164306641 1.5 42.5 C 1.5 36.96437835693359 2.583823442459106 31.59512901306152 4.721364498138428 26.54141235351562 C 6.786305904388428 21.65934181213379 9.742764472961426 17.27447128295898 13.50862312316895 13.50862312316895 C 17.27447128295898 9.742764472961426 21.65934181213379 6.786305904388428 26.54141235351562 4.721364498138428 C 31.59512901306152 2.583823442459106 36.96437835693359 1.5 42.5 1.5 C 48.03562164306641 1.5 53.40486907958984 2.583823442459106 58.45858764648438 4.721364498138428 C 63.34066009521484 6.786305904388428 67.72553253173828 9.742764472961426 71.49137878417969 13.50862312316895 C 75.25723266601562 17.27447128295898 78.21369171142578 21.65934181213379 80.27863311767578 26.54141235351562 C 82.41617584228516 31.59512901306152 83.5 36.96437835693359 83.5 42.5 C 83.5 48.03562164306641 82.41617584228516 53.40486907958984 80.27863311767578 58.45858764648438 C 78.21369171142578 63.34066009521484 75.25723266601562 67.72553253173828 71.49137878417969 71.49137878417969 C 67.72553253173828 75.25723266601562 63.34066009521484 78.21369171142578 58.45858764648438 80.27863311767578 C 53.40486907958984 82.41617584228516 48.03562164306641 83.5 42.5 83.5 Z" stroke="none"/>
                            <path d="M 42.5 3 C 37.16621398925781 3 31.99356079101562 4.043960571289062 27.125732421875 6.102882385253906 C 22.42246627807617 8.092185974121094 18.19785308837891 10.94070434570312 14.56928253173828 14.56928253173828 C 10.94070434570312 18.19785308837891 8.092185974121094 22.42246627807617 6.102882385253906 27.125732421875 C 4.043960571289062 31.99356079101562 3 37.16621398925781 3 42.5 C 3 47.83378601074219 4.043960571289062 53.00643920898438 6.102882385253906 57.87425231933594 C 8.092185974121094 62.57753372192383 10.94070434570312 66.80213165283203 14.56928253173828 70.43071746826172 C 18.19786834716797 74.05929565429688 22.42246627807617 76.90781402587891 27.125732421875 78.89711761474609 C 31.99356079101562 80.95603942871094 37.16621398925781 82 42.5 82 C 47.83378601074219 82 53.00642395019531 80.95603942871094 57.87425231933594 78.89711761474609 C 62.57753372192383 76.90781402587891 66.80213165283203 74.05929565429688 70.43071746826172 70.43071746826172 C 74.05929565429688 66.80213165283203 76.90781402587891 62.57753372192383 78.89711761474609 57.87425231933594 C 80.95603942871094 53.00642395019531 82 47.83378601074219 82 42.5 C 82 37.16621398925781 80.95603942871094 31.99356079101562 78.89711761474609 27.125732421875 C 76.90781402587891 22.42246627807617 74.05929565429688 18.19786834716797 70.43071746826172 14.56928253173828 C 66.80213165283203 10.94070434570312 62.57753372192383 8.092185974121094 57.87425231933594 6.102882385253906 C 53.00643920898438 4.043960571289062 47.83378601074219 3 42.5 3 M 42.5 0 C 65.97209167480469 0 85 19.02789306640625 85 42.5 C 85 65.97209167480469 65.97209167480469 85 42.5 85 C 19.02789306640625 85 0 65.97209167480469 0 42.5 C 0 19.02789306640625 19.02789306640625 0 42.5 0 Z" stroke="none" fill="#62797e"/>
                          </g>
                        </g>
                      </g>
                    </g>
                  </g>
                </g>
              </g>
            </g>
          </g>
        </g>
      </g>
      <g id="droga-medicina" transform="translate(194 3084.316)">
        <g id="Flat" transform="translate(10.774 4.778)">
          <g id="Group_1210501" data-name="Group 1210501" transform="translate(0)">
            <path id="Path_1080063" data-name="Path 1080063" d="M57.063,41.22,35.221,63.062,15.526,43.368A15.444,15.444,0,1,1,37.368,21.526Z" transform="translate(-11.003 -7.734)" fill="#ef5959"/>
            <path id="Path_1080064" data-name="Path 1080064" d="M99.924,31.368,83.7,47.587,61.863,25.745,78.082,9.526A15.444,15.444,0,0,1,99.924,31.368Z" transform="translate(-22.582 -5.002)" fill="#ffd5c5"/>
            <circle id="Ellipse_11861" data-name="Ellipse 11861" cx="9.268" cy="9.268" r="9.268" transform="translate(40.159 44.021)" fill="#ef5959"/>
            <circle id="Ellipse_11862" data-name="Ellipse 11862" cx="6.179" cy="6.179" r="6.179" transform="translate(25.485 61.785)" fill="#ffd5c5"/>
            <circle id="Ellipse_11863" data-name="Ellipse 11863" cx="4.634" cy="4.634" r="4.634" transform="translate(42.476 73.37)" fill="#ffd5c5"/>
            <circle id="Ellipse_11864" data-name="Ellipse 11864" cx="3.089" cy="3.089" r="3.089" transform="translate(30.891 84.955)" fill="#ef5959"/>
          </g>
        </g>
        <g id="Outline_00000059300727942576820450000010236448880994546363_" transform="translate(10 4.015)">
          <g id="Group_1210514" data-name="Group 1210514">
            <g id="Group_1210503" data-name="Group 1210503" transform="translate(0 9.256)">
              <g id="Group_1210502" data-name="Group 1210502">
                <path id="Path_1080065" data-name="Path 1080065" d="M57.383,40.444,37.688,20.75A16.22,16.22,0,0,0,14.75,43.688L34.444,63.383a.783.783,0,0,0,1.1,0L57.383,41.541A.778.778,0,0,0,57.383,40.444Zm-22.39,21.3L15.847,42.591A14.669,14.669,0,1,1,36.591,21.847L55.745,40.993Z" transform="translate(-10 -16)"/>
              </g>
            </g>
            <g id="Group_1210505" data-name="Group 1210505" transform="translate(39.281)">
              <g id="Group_1210504" data-name="Group 1210504">
                <path id="Path_1080066" data-name="Path 1080066" d="M100.241,8.753a16.241,16.241,0,0,0-22.931,0L61.092,24.972a.765.765,0,0,0,0,1.1L82.933,47.911a.773.773,0,0,0,.541.224.791.791,0,0,0,.548-.224l16.219-16.219a16.236,16.236,0,0,0,0-22.938ZM99.152,30.595,83.474,46.273,62.729,25.521,78.4,9.85A14.672,14.672,0,1,1,99.152,30.595Z" transform="translate(-60.86 -4.015)"/>
              </g>
            </g>
            <g id="Group_1210507" data-name="Group 1210507" transform="translate(40.161 44.012)">
              <g id="Group_1210506" data-name="Group 1210506">
                <path id="Path_1080067" data-name="Path 1080067" d="M72.04,61a10.04,10.04,0,1,0,10.04,10.04A10.05,10.05,0,0,0,72.04,61Zm0,18.536a8.5,8.5,0,1,1,8.5-8.5A8.5,8.5,0,0,1,72.04,79.536Z" transform="translate(-62 -61)"/>
              </g>
            </g>
            <g id="Group_1210509" data-name="Group 1210509" transform="translate(25.487 61.775)">
              <g id="Group_1210508" data-name="Group 1210508">
                <path id="Path_1080068" data-name="Path 1080068" d="M49.951,84A6.951,6.951,0,1,0,56.9,90.951,6.961,6.961,0,0,0,49.951,84Zm0,12.357a5.406,5.406,0,1,1,5.406-5.406A5.412,5.412,0,0,1,49.951,96.357Z" transform="translate(-43 -84)"/>
              </g>
            </g>
            <g id="Group_1210511" data-name="Group 1210511" transform="translate(42.478 73.36)">
              <g id="Group_1210510" data-name="Group 1210510">
                <path id="Path_1080069" data-name="Path 1080069" d="M70.406,99a5.406,5.406,0,1,0,5.406,5.406A5.412,5.412,0,0,0,70.406,99Zm0,9.268a3.862,3.862,0,1,1,3.862-3.862A3.863,3.863,0,0,1,70.406,108.268Z" transform="translate(-65 -99)"/>
              </g>
            </g>
            <g id="Group_1210513" data-name="Group 1210513" transform="translate(30.893 84.945)">
              <g id="Group_1210512" data-name="Group 1210512">
                <path id="Path_1080070" data-name="Path 1080070" d="M53.862,114a3.862,3.862,0,1,0,3.862,3.862A3.863,3.863,0,0,0,53.862,114Zm0,6.179a2.317,2.317,0,1,1,2.317-2.317A2.324,2.324,0,0,1,53.862,120.179Z" transform="translate(-50 -114)"/>
              </g>
            </g>
          </g>
        </g>
      </g>
    </g>
  </g>
</svg>
