<svg xmlns="http://www.w3.org/2000/svg" xmlns:xlink="http://www.w3.org/1999/xlink" width="113" height="119.524" viewBox="0 0 113 119.524">
  <defs>
    <filter id="Path_982547" x="0" y="6.524" width="113" height="113" filterUnits="userSpaceOnUse">
      <feOffset dy="3" input="SourceAlpha"/>
      <feGaussianBlur stdDeviation="3" result="blur"/>
      <feFlood flood-opacity="0.161"/>
      <feComposite operator="in" in2="blur"/>
      <feComposite in="SourceGraphic"/>
    </filter>
  </defs>
  <g id="Group_1210716" data-name="Group 1210716" transform="translate(-742.046 -7522.284)">
    <g id="Group_1209993" data-name="Group 1209993">
      <g id="Group_1208706" data-name="Group 1208706" transform="translate(-1.454 3213.429)">
        <g id="Group_1148634" data-name="Group 1148634" transform="translate(488.454 600.047)">
          <g id="Group_1148525" data-name="Group 1148525" transform="translate(264.046 3721.333)">
            <g transform="matrix(1, 0, 0, 1, -9, -12.52)" filter="url(#Path_982547)">
              <g id="Path_982547-2" data-name="Path 982547" transform="translate(9 12.52)" fill="#ffe6ef">
                <path d="M 47.5 93.5 C 41.28937149047852 93.5 35.26533508300781 92.28397369384766 29.59518623352051 89.88570404052734 C 24.11771965026855 87.56893157958984 19.19813346862793 84.25196075439453 14.97309303283691 80.02691650390625 C 10.74804019927979 75.80186462402344 7.431066513061523 70.88229370117188 5.114293098449707 65.40481567382812 C 2.716026782989502 59.73468017578125 1.5 53.71062850952148 1.5 47.5 C 1.5 41.28937149047852 2.716026782989502 35.26533508300781 5.114293098449707 29.59518623352051 C 7.431066513061523 24.11771965026855 10.74804019927979 19.19813346862793 14.97309303283691 14.97309303283691 C 19.19813346862793 10.74804019927979 24.11771965026855 7.431066513061523 29.59518623352051 5.114293098449707 C 35.26533508300781 2.716026782989502 41.28937149047852 1.5 47.5 1.5 C 53.71062850952148 1.5 59.73468017578125 2.716026782989502 65.40481567382812 5.114293098449707 C 70.88229370117188 7.431066513061523 75.80186462402344 10.74804019927979 80.02691650390625 14.97309303283691 C 84.25196075439453 19.19813346862793 87.56893157958984 24.11771965026855 89.88570404052734 29.59518623352051 C 92.28397369384766 35.26533508300781 93.5 41.28937149047852 93.5 47.5 C 93.5 53.71062850952148 92.28397369384766 59.73468017578125 89.88570404052734 65.40481567382812 C 87.56893157958984 70.88229370117188 84.25196075439453 75.80186462402344 80.02691650390625 80.02691650390625 C 75.80186462402344 84.25196075439453 70.88229370117188 87.56893157958984 65.40481567382812 89.88570404052734 C 59.73468017578125 92.28397369384766 53.71062850952148 93.5 47.5 93.5 Z" stroke="none"/>
                <path d="M 47.5 3 C 41.49121475219727 3 35.66376876831055 4.176155090332031 30.17950439453125 6.495796203613281 C 24.88084411621094 8.736953735351562 20.12152099609375 11.94598388671875 16.03375244140625 16.03375244140625 C 11.94598388671875 20.12152099609375 8.736953735351562 24.88084411621094 6.495796203613281 30.17950439453125 C 4.176155090332031 35.66376876831055 3 41.49121475219727 3 47.5 C 3 53.50878524780273 4.176155090332031 59.33623123168945 6.495796203613281 64.82049560546875 C 8.736953735351562 70.11915588378906 11.94598388671875 74.87847900390625 16.03375244140625 78.96624755859375 C 20.12152099609375 83.05401611328125 24.88084411621094 86.26304626464844 30.17950439453125 88.50419616699219 C 35.66376876831055 90.82384490966797 41.49121475219727 92 47.5 92 C 53.50878524780273 92 59.33623123168945 90.82384490966797 64.82049560546875 88.50419616699219 C 70.11915588378906 86.26304626464844 74.87847900390625 83.05401611328125 78.96624755859375 78.96624755859375 C 83.05401611328125 74.87847900390625 86.26304626464844 70.11915588378906 88.50419616699219 64.82049560546875 C 90.82384490966797 59.33623123168945 92 53.50878524780273 92 47.5 C 92 41.49121475219727 90.82384490966797 35.66376876831055 88.50419616699219 30.17950439453125 C 86.26304626464844 24.88084411621094 83.05401611328125 20.12152099609375 78.96624755859375 16.03375244140625 C 74.87847900390625 11.94598388671875 70.11915588378906 8.736953735351562 64.82049560546875 6.495796203613281 C 59.33623123168945 4.176155090332031 53.50878524780273 3 47.5 3 M 47.5 0 C 73.7335205078125 0 95 21.2664794921875 95 47.5 C 95 73.7335205078125 73.7335205078125 95 47.5 95 C 21.2664794921875 95 0 73.7335205078125 0 47.5 C 0 21.2664794921875 21.2664794921875 0 47.5 0 Z" stroke="none" fill="#ffadcc"/>
              </g>
            </g>
          </g>
        </g>
      </g>
      <g id="heroina_2_" data-name="heroina (2)" transform="translate(741.43 7522.284)">
        <g id="Group_1209983" data-name="Group 1209983" transform="translate(10.986 1.372)">
          <g id="Group_1209982" data-name="Group 1209982">
            <path id="Path_1079549" data-name="Path 1079549" d="M217.535,79.876,227.8,90.143,197.7,120.248a2.74,2.74,0,0,1-3.875,0l-5.1-5.1a2.74,2.74,0,0,1,0-3.875l19.11-21.693Z" transform="translate(-156.72 -66.658)" fill="#f8f6f6"/>
            <path id="Path_1079550" data-name="Path 1079550" d="M245.97,133.615l-9.7,9.7L214.49,162.511a2.683,2.683,0,0,1-3.792-.083l-4.186-4.186a2.683,2.683,0,0,0,3.792.083l21.776-19.192,9.7-9.7Z" transform="translate(-171.916 -107.159)" fill="#ebebeb"/>
            <path id="Path_1079551" data-name="Path 1079551" d="M173.294,247.424l4.971,4.971-9.424,9.424a1.827,1.827,0,0,1-2.583,0l-2.388-2.388a1.827,1.827,0,0,1,0-2.583Z" transform="translate(-136.626 -203.6)" fill="#a4c6f6"/>
            <path id="Path_1079552" data-name="Path 1079552" d="M189.687,272.978l-9.425,9.425a1.827,1.827,0,0,1-2.583,0L175.1,279.82a1.827,1.827,0,0,0,2.583,0l9.425-9.425Z" transform="translate(-146.238 -222.375)" fill="#8ab4f5"/>
            <path id="Path_1079553" data-name="Path 1079553" d="M201.741,165.852l-16.509,19.571a2.739,2.739,0,0,1-3.874,0l-6.78-6.778a2.739,2.739,0,0,1,0-3.874l3.475-3.475,2.374.209-.437-2.146,4.444-4.444,2.149.435-.211-2.372,5.412-5.412Z" transform="translate(-145.159 -130.154)" fill="#ffe187"/>
            <path id="Path_1079554" data-name="Path 1079554" d="M231.779,207.571l-17.206,17.206a2.74,2.74,0,0,1-3.875,0l-4.186-4.186a2.74,2.74,0,0,0,3.875,0l18.04-18.04Z" transform="translate(-171.916 -166.924)" fill="#ffd26f"/>
            <path id="Path_1079555" data-name="Path 1079555" d="M0,0H4.323V21.255H0Z" transform="translate(66.75 21.786) rotate(-135)" fill="#b3adb5"/>
            <path id="Path_1079556" data-name="Path 1079556" d="M0,0H21.255V3.441H0Z" transform="translate(66.108 21.159) rotate(-45)" fill="#a59ba6"/>
            <path id="Path_1079557" data-name="Path 1079557" d="M0,0H4.321V15.516H0Z" transform="translate(65.117 17.276) rotate(45)" fill="#b3adb5"/>
            <path id="Path_1079558" data-name="Path 1079558" d="M0,0H15.516V3.44H0Z" transform="translate(56.573 30.692) rotate(-45)" fill="#a59ba6"/>
            <path id="Path_1079559" data-name="Path 1079559" d="M323.716,59.616l13.392,13.392a3.532,3.532,0,0,1,0,4.995h0a3.532,3.532,0,0,1-4.995,0L318.72,64.612a3.532,3.532,0,0,1,0-4.995h0a3.532,3.532,0,0,1,4.995,0Z" transform="translate(-262.782 -49.253)" fill="#a4c6f6"/>
            <path id="Path_1079560" data-name="Path 1079560" d="M398.46,139.357h0a3.531,3.531,0,0,1-4.995,0l-3.875-3.875a3.531,3.531,0,0,0,4.995,0h0a3.531,3.531,0,0,0,0-4.995l3.875,3.875A3.531,3.531,0,0,1,398.46,139.357Z" transform="translate(-321.551 -108.024)" fill="#8ab4f5"/>
            <path id="Path_1079561" data-name="Path 1079561" d="M417.657,8.441l6.168,6.168a3.172,3.172,0,0,1,0,4.486h0a3.172,3.172,0,0,1-4.486,0l-6.168-6.168a3.172,3.172,0,0,1,0-4.486h0a3.172,3.172,0,0,1,4.486,0Z" transform="translate(-340.066 -7.511)" fill="#a4c6f6"/>
            <path id="Path_1079562" data-name="Path 1079562" d="M452.384,47.653a3.175,3.175,0,0,1-4.487,0l-3.875-3.875a3.173,3.173,0,0,0,4.487-4.487l3.875,3.875A3.174,3.174,0,0,1,452.384,47.653Z" transform="translate(-366.041 -33.486)" fill="#8ab4f5"/>
            <path id="Path_1079563" data-name="Path 1079563" d="M67.663,378.5l-6.889-8.838c-2.32-3.591-4.754-6.632-8.386-5.469a8.792,8.792,0,0,0-4.732,3.643L40.766,378.5Z" transform="translate(-36.446 -298.835)" fill="#ffe187"/>
            <path id="Path_1079564" data-name="Path 1079564" d="M121.492,377.722h-5.48l-6.888-10.666a8.8,8.8,0,0,0-4.733-3.642,8.888,8.888,0,0,1,10.213,3.642Z" transform="translate(-88.449 -298.055)" fill="#ffd26f"/>
            <path id="Path_1079565" data-name="Path 1079565" d="M19.861,417.534A2.742,2.742,0,0,0,17.41,421.5,21.558,21.558,0,0,0,47.4,430.573a38.955,38.955,0,0,1,19.41-5.1H95.9a3.972,3.972,0,0,0,0-7.943Z" transform="translate(-17.117 -342.637)" fill="#f8f6f6"/>
            <path id="Path_1079566" data-name="Path 1079566" d="M447.892,421.5a3.973,3.973,0,0,1-3.971,3.973h-5.48a3.972,3.972,0,0,0,0-7.944h5.48a3.973,3.973,0,0,1,3.971,3.971Z" transform="translate(-361.48 -342.635)" fill="#ebebeb"/>
            <path id="Path_1079567" data-name="Path 1079567" d="M285.906,142.052l-1.02,3.453-3.467,1.034-9.049-9.051L276.856,133Z" transform="translate(-225.744 -110.079)" fill="#a4c6f6"/>
            <path id="Path_1079568" data-name="Path 1079568" d="M330.587,186.737l-4.487,4.487-4.187-4.188,4.488-4.486Z" transform="translate(-266.237 -150.577)" fill="#8ab4f5"/>
          </g>
        </g>
        <path id="Path_1079569" data-name="Path 1079569" d="M85.059,5.817a1.8,1.8,0,0,1,2.549-2.549L88.69,4.35a1.37,1.37,0,1,0,1.937-1.937L89.546,1.331a4.542,4.542,0,0,0-6.424,6.424l.975.975-6.622,6.622-4.586-4.586a4.9,4.9,0,0,0-6.933,0l-.011.011a4.9,4.9,0,0,0,.011,6.922l.4.4L39.436,45.017a4.115,4.115,0,0,0,0,5.812l.323.323-2.5,2.5a3.2,3.2,0,0,0,0,4.521l1.13,1.13-6,6a10.263,10.263,0,0,0-11.343,4.328l-3.4,5.268H13.73a4.112,4.112,0,0,0-3.676,5.952,22.928,22.928,0,0,0,31.9,9.644,37.628,37.628,0,0,1,18.728-4.914H93.426a5.341,5.341,0,1,0,0-10.683H61.966a1.37,1.37,0,0,0,0,2.74H93.426a2.6,2.6,0,1,1,0,5.2H60.679a40.372,40.372,0,0,0-20.092,5.278A20.188,20.188,0,0,1,12.5,79.625a1.372,1.372,0,0,1,1.226-1.986H55.995a1.37,1.37,0,0,0,0-2.74h-14.3l-3.4-5.268a10.265,10.265,0,0,0-3.2-3.153l5.241-5.241,1.129,1.129a3.2,3.2,0,0,0,4.521,0l2.5-2.5.323.323a4.114,4.114,0,0,0,5.812,0l4.867-4.867a1.37,1.37,0,0,0-1.938-1.937l-4.867,4.867a1.372,1.372,0,0,1-1.938,0l-1.291-1.291h0l-6.778-6.778,0,0h0l-1.29-1.29a1.372,1.372,0,0,1,0-1.938l3.475-3.475,5.65,5.65a1.37,1.37,0,0,0,1.937-1.938l-5.65-5.65L51.23,37.1l5.65,5.65a1.37,1.37,0,0,0,1.937-1.937l-5.65-5.65,4.444-4.444,11.3,11.3-7.149,7.149A1.37,1.37,0,1,0,63.7,51.1l17.83-17.83.4.4a4.9,4.9,0,0,0,6.933,0l.01-.01a4.9,4.9,0,0,0-.01-6.923l-4.586-4.586L90.9,15.531l.974.974a4.542,4.542,0,0,0,6.423,0l.01-.01a4.542,4.542,0,0,0-.01-6.414L94.849,6.634a1.37,1.37,0,0,0-1.938,1.937l3.448,3.448a1.8,1.8,0,0,1,0,2.549l-.007.007a1.8,1.8,0,0,1-2.542-.007ZM73.4,37.53l-2.549,2.549-11.3-11.3L62.1,26.23Zm2.009-10.381-4.257,4.257-2.928-2.928,4.257-4.257Zm-.071,8.444-2.249-2.249,4.257-4.257,2.249,2.249Zm10.7-24.926,2.928,2.928-6.622,6.622-2.928-2.928Zm.892,18.011a2.162,2.162,0,0,1,0,3.058l-.007.007a2.165,2.165,0,0,1-3.051-.007L67.892,15.76a2.162,2.162,0,0,1,0-3.057l.007-.008a2.165,2.165,0,0,1,3.051.007ZM70.541,22.284l-4.257,4.257-2.249-2.249,4.257-4.257ZM39.2,55.587l2.5-2.5,4.842,4.842-2.5,2.5a.457.457,0,0,1-.646,0l-4.2-4.2a.457.457,0,0,1,0-.646ZM23.346,71.117a7.526,7.526,0,0,1,12.644,0L38.432,74.9H20.9Z" transform="translate(0 0)"/>
      </g>
    </g>
  </g>
</svg>
