<svg xmlns="http://www.w3.org/2000/svg" width="29.256" height="33.966" viewBox="0 0 29.256 33.966">
  <g id="Group_1210709" data-name="Group 1210709" transform="translate(-335.079 -6866.778)">
    <g id="cerveza" transform="translate(299.579 6866.778)">
      <g id="Group_1209962" data-name="Group 1209962" transform="translate(51.455 29.938)">
        <g id="Group_1209961" data-name="Group 1209961">
          <path id="Path_1079524" data-name="Path 1079524" d="M276.663,451.29a.663.663,0,1,0,.663.663A.664.664,0,0,0,276.663,451.29Z" transform="translate(-276 -451.29)"/>
        </g>
      </g>
      <g id="Group_1209964" data-name="Group 1209964" transform="translate(42.134 13.287)">
        <g id="Group_1209963" data-name="Group 1209963">
          <path id="Path_1079525" data-name="Path 1079525" d="M136.163,200.29a.663.663,0,0,0-.663.663v12.671a.663.663,0,0,0,1.327,0V200.953A.663.663,0,0,0,136.163,200.29Z" transform="translate(-135.5 -200.29)"/>
        </g>
      </g>
      <g id="Group_1209966" data-name="Group 1209966" transform="translate(47.441 13.287)">
        <g id="Group_1209965" data-name="Group 1209965">
          <path id="Path_1079526" data-name="Path 1079526" d="M216.163,200.29a.663.663,0,0,0-.663.663v12.671a.663.663,0,0,0,1.327,0V200.953A.663.663,0,0,0,216.163,200.29Z" transform="translate(-215.5 -200.29)"/>
        </g>
      </g>
      <g id="Group_1209968" data-name="Group 1209968" transform="translate(35.5)">
        <g id="Group_1209967" data-name="Group 1209967">
          <path id="Path_1079527" data-name="Path 1079527" d="M61.439,10.681H58.122V8.673A3.305,3.305,0,0,0,56.857,2.8a3.354,3.354,0,0,0-1.9.137,3.322,3.322,0,0,0-2.8-1.541,3.273,3.273,0,0,0-1.251.246,5.936,5.936,0,0,0-9.067,1.053A5.984,5.984,0,0,0,35.5,8.643V16.6a2.009,2.009,0,0,0,2.023,1.99,1.988,1.988,0,0,0,.7-.126v12.18a3.321,3.321,0,0,0,3.317,3.317H54.8a3.321,3.321,0,0,0,3.317-3.317v-1.99h3.317a3.321,3.321,0,0,0,3.317-3.317V14A3.321,3.321,0,0,0,61.439,10.681Zm-4.644,19.3H54.771a.66.66,0,1,0,0,1.32h1.91A2,2,0,0,1,54.8,32.639H41.537a1.993,1.993,0,0,1-1.876-1.327h9.8a.663.663,0,0,0,0-1.327H39.547V11.908a4.606,4.606,0,0,0,3.459-2.554.491.491,0,0,1,.352.138,3.98,3.98,0,0,0,5.651-.072.219.219,0,0,1,.157-.066c1.033,0,1.708.221,2.009.656a2.227,2.227,0,0,1,.247,1.257v2.684a1.993,1.993,0,0,0,1.327,1.876V26.621a.663.663,0,1,0,1.327,0V15.827A1.993,1.993,0,0,0,55.4,13.951V9.276a3.52,3.52,0,0,0,1.393,0ZM55.039,7.758a.663.663,0,0,0-.964.591v5.6a.663.663,0,1,1-1.327,0V11.267a3.377,3.377,0,0,0-.482-2.011,3.524,3.524,0,0,0-3.1-1.229,1.552,1.552,0,0,0-1.111.471,2.653,2.653,0,0,1-3.767.047,1.817,1.817,0,0,0-1.282-.518,1.333,1.333,0,0,0-1.191.743,3.288,3.288,0,0,1-2.938,1.863.663.663,0,0,0-.658.663v5.276a.717.717,0,0,1-.7.695.69.69,0,0,1-.7-.663V8.643A4.654,4.654,0,0,1,41.5,4.009a4.732,4.732,0,0,1,.6.039.663.663,0,0,0,.663-.333,4.617,4.617,0,0,1,7.51-.82.663.663,0,0,0,.849.118,1.92,1.92,0,0,1,1.029-.293A1.992,1.992,0,0,1,54.029,4.05a.663.663,0,0,0,1,.332,1.99,1.99,0,0,1,3.043,1.184A2.039,2.039,0,0,1,55.039,7.758Zm3.083,6.9h2.654V24.678H58.122Zm5.307,10.681a1.992,1.992,0,0,1-1.99,1.99H58.122V26.005h3.317a.663.663,0,0,0,.663-.663V14a.663.663,0,0,0-.663-.663H58.122V12.007h3.317A1.992,1.992,0,0,1,63.429,14Z" transform="translate(-35.5)"/>
        </g>
      </g>
    </g>
  </g>
</svg>
