<svg xmlns="http://www.w3.org/2000/svg" xmlns:xlink="http://www.w3.org/1999/xlink" width="113" height="113" viewBox="0 0 113 113">
  <defs>
    <filter id="Path_982547" x="0" y="0" width="113" height="113" filterUnits="userSpaceOnUse">
      <feOffset dy="3" input="SourceAlpha"/>
      <feGaussianBlur stdDeviation="3" result="blur"/>
      <feFlood flood-opacity="0.161"/>
      <feComposite operator="in" in2="blur"/>
      <feComposite in="SourceGraphic"/>
    </filter>
  </defs>
  <g id="Group_1223657" data-name="Group 1223657" transform="translate(-272 -8013.033)">
    <g id="Group_1222859" data-name="Group 1222859">
      <g id="Group_1219059" data-name="Group 1219059" transform="translate(0 923.189)">
        <g id="Group_1217866" data-name="Group 1217866" transform="translate(-0.234 -2607)">
          <g id="Group_1216305" data-name="Group 1216305" transform="translate(281.234 9702.844)">
            <g id="Group_1208705" data-name="Group 1208705">
              <g id="Group_1148633" data-name="Group 1148633">
                <g id="Group_1148525" data-name="Group 1148525">
                  <g transform="matrix(1, 0, 0, 1, -9, -6)" filter="url(#Path_982547)">
                    <g id="Path_982547-2" data-name="Path 982547" transform="translate(9 6)" fill="#ffe6ef">
                      <path d="M 47.5 93.5 C 41.28937149047852 93.5 35.26533508300781 92.28397369384766 29.59518623352051 89.88570404052734 C 24.11771965026855 87.56893157958984 19.19813346862793 84.25196075439453 14.97309303283691 80.02691650390625 C 10.74804019927979 75.80186462402344 7.431066513061523 70.88229370117188 5.114293098449707 65.40481567382812 C 2.716026782989502 59.73468017578125 1.5 53.71062850952148 1.5 47.5 C 1.5 41.28937149047852 2.716026782989502 35.26533508300781 5.114293098449707 29.59518623352051 C 7.431066513061523 24.11771965026855 10.74804019927979 19.19813346862793 14.97309303283691 14.97309303283691 C 19.19813346862793 10.74804019927979 24.11771965026855 7.431066513061523 29.59518623352051 5.114293098449707 C 35.26533508300781 2.716026782989502 41.28937149047852 1.5 47.5 1.5 C 53.71062850952148 1.5 59.73468017578125 2.716026782989502 65.40481567382812 5.114293098449707 C 70.88229370117188 7.431066513061523 75.80186462402344 10.74804019927979 80.02691650390625 14.97309303283691 C 84.25196075439453 19.19813346862793 87.56893157958984 24.11771965026855 89.88570404052734 29.59518623352051 C 92.28397369384766 35.26533508300781 93.5 41.28937149047852 93.5 47.5 C 93.5 53.71062850952148 92.28397369384766 59.73468017578125 89.88570404052734 65.40481567382812 C 87.56893157958984 70.88229370117188 84.25196075439453 75.80186462402344 80.02691650390625 80.02691650390625 C 75.80186462402344 84.25196075439453 70.88229370117188 87.56893157958984 65.40481567382812 89.88570404052734 C 59.73468017578125 92.28397369384766 53.71062850952148 93.5 47.5 93.5 Z" stroke="none"/>
                      <path d="M 47.5 3 C 41.49121475219727 3 35.66376876831055 4.176155090332031 30.17950439453125 6.495796203613281 C 24.88084411621094 8.736953735351562 20.12152099609375 11.94598388671875 16.03375244140625 16.03375244140625 C 11.94598388671875 20.12152099609375 8.736953735351562 24.88084411621094 6.495796203613281 30.17950439453125 C 4.176155090332031 35.66376876831055 3 41.49121475219727 3 47.5 C 3 53.50878524780273 4.176155090332031 59.33623123168945 6.495796203613281 64.82049560546875 C 8.736953735351562 70.11915588378906 11.94598388671875 74.87847900390625 16.03375244140625 78.96624755859375 C 20.12152099609375 83.05401611328125 24.88084411621094 86.26304626464844 30.17950439453125 88.50419616699219 C 35.66376876831055 90.82384490966797 41.49121475219727 92 47.5 92 C 53.50878524780273 92 59.33623123168945 90.82384490966797 64.82049560546875 88.50419616699219 C 70.11915588378906 86.26304626464844 74.87847900390625 83.05401611328125 78.96624755859375 78.96624755859375 C 83.05401611328125 74.87847900390625 86.26304626464844 70.11915588378906 88.50419616699219 64.82049560546875 C 90.82384490966797 59.33623123168945 92 53.50878524780273 92 47.5 C 92 41.49121475219727 90.82384490966797 35.66376876831055 88.50419616699219 30.17950439453125 C 86.26304626464844 24.88084411621094 83.05401611328125 20.12152099609375 78.96624755859375 16.03375244140625 C 74.87847900390625 11.94598388671875 70.11915588378906 8.736953735351562 64.82049560546875 6.495796203613281 C 59.33623123168945 4.176155090332031 53.50878524780273 3 47.5 3 M 47.5 0 C 73.7335205078125 0 95 21.2664794921875 95 47.5 C 95 73.7335205078125 73.7335205078125 95 47.5 95 C 21.2664794921875 95 0 73.7335205078125 0 47.5 C 0 21.2664794921875 21.2664794921875 0 47.5 0 Z" stroke="none" fill="#ffadcc"/>
                    </g>
                  </g>
                </g>
              </g>
            </g>
          </g>
        </g>
      </g>
      <g id="lista-de-verificacion_1_" data-name="lista-de-verificacion (1)" transform="translate(268.98 8032.517)">
        <g id="Group_1222855" data-name="Group 1222855" transform="translate(35.016 0.997)">
          <g id="Group_1222854" data-name="Group 1222854" transform="translate(0)">
            <g id="Group_1222851" data-name="Group 1222851">
              <g id="Group_1222848" data-name="Group 1222848">
                <path id="Path_1174363" data-name="Path 1174363" d="M86.023,109H43.955a2.439,2.439,0,0,1-2.439-2.439V50.83a2.439,2.439,0,0,1,2.439-2.439H86.023a2.439,2.439,0,0,1,2.439,2.439v55.727A2.439,2.439,0,0,1,86.023,109Z" transform="translate(-41.515 -42.958)" fill="#ffc250"/>
                <path id="Path_1174364" data-name="Path 1174364" d="M323.191,48.39h-8.165a2.439,2.439,0,0,1,2.439,2.439v55.727A2.439,2.439,0,0,1,315.026,109h8.165a2.439,2.439,0,0,0,2.439-2.439V50.83a2.439,2.439,0,0,0-2.439-2.44Z" transform="translate(-278.683 -42.957)" fill="#eab14d"/>
                <path id="Path_1174365" data-name="Path 1174365" d="M71.522,130.158V79.27a.872.872,0,0,1,.872-.872h37.229a.872.872,0,0,1,.872.872v50.888a.872.872,0,0,1-.872.872H72.394A.872.872,0,0,1,71.522,130.158Z" transform="translate(-67.535 -68.977)" fill="#f5f5f5"/>
                <path id="Path_1174366" data-name="Path 1174366" d="M304.981,78.4h-8.165a.872.872,0,0,1,.872.872v50.888a.872.872,0,0,1-.872.872h8.165a.872.872,0,0,0,.872-.872V79.27A.872.872,0,0,0,304.981,78.4Z" transform="translate(-262.892 -68.977)" fill="#eaeaea"/>
                <path id="Path_1174367" data-name="Path 1174367" d="M155,10.536V9.252A1.752,1.752,0,0,0,153.249,7.5h-6.862a1.752,1.752,0,0,0-1.752,1.752v1.284a.716.716,0,0,1-.716.716h-2.856a1.72,1.72,0,0,0-1.72,1.72v3.948h20.949V12.973a1.72,1.72,0,0,0-1.72-1.72h-2.856a.716.716,0,0,1-.717-.716Z" transform="translate(-126.345 -7.5)" fill="#c2d0da"/>
              </g>
              <g id="Group_1222850" data-name="Group 1222850" transform="translate(9.059 14.357)">
                <g id="Group_1222849" data-name="Group 1222849">
                  <path id="Path_1174368" data-name="Path 1174368" d="M109.694,124.768v-7.679a1.541,1.541,0,0,1,1.541-1.541h7.679a1.541,1.541,0,0,1,1.541,1.541v7.679a1.541,1.541,0,0,1-1.541,1.541h-7.679A1.54,1.54,0,0,1,109.694,124.768Z" transform="translate(-109.694 -115.548)" fill="#66b49d"/>
                  <path id="Path_1174369" data-name="Path 1174369" d="M109.694,245.175V237.5a1.541,1.541,0,0,1,1.541-1.541h7.679a1.541,1.541,0,0,1,1.541,1.541v7.679a1.541,1.541,0,0,1-1.541,1.541h-7.679A1.541,1.541,0,0,1,109.694,245.175Z" transform="translate(-109.694 -219.956)" fill="#66b49d"/>
                  <path id="Path_1174370" data-name="Path 1174370" d="M109.694,365.58V357.9a1.541,1.541,0,0,1,1.541-1.541h7.679a1.541,1.541,0,0,1,1.541,1.541v7.68a1.541,1.541,0,0,1-1.541,1.541h-7.679A1.541,1.541,0,0,1,109.694,365.58Z" transform="translate(-109.694 -324.362)" fill="#66b49d"/>
                </g>
              </g>
            </g>
            <g id="Group_1222853" data-name="Group 1222853" transform="translate(25.711 15.484)">
              <g id="Group_1222852" data-name="Group 1222852" transform="translate(1.637)">
                <path id="Path_1174371" data-name="Path 1174371" d="M273.1,178.319l-.979-1.289-3.661-2.318-1.407-.222L248.31,204.114a7.717,7.717,0,0,0-.982,2.32,6.039,6.039,0,0,1,5.352,3.389,7.715,7.715,0,0,0,1.677-1.88Z" transform="translate(-247.328 -167.785)" fill="#fc8086"/>
                <path id="Path_1174372" data-name="Path 1174372" d="M417.646,125.439l-1.582-1a2.642,2.642,0,0,0-3.647.819l-1.451,2.293.463.933,4.4,2.788,1.182.109,1.452-2.294A2.642,2.642,0,0,0,417.646,125.439Z" transform="translate(-389.223 -124.027)" fill="#8c9ba6"/>
              </g>
              <path id="Path_1174373" data-name="Path 1174373" d="M0,0H3.767V7.158H0Z" transform="matrix(0.535, -0.845, 0.845, 0.535, 21.369, 6.697)" fill="#c9e2e7"/>
              <path id="Path_1174374" data-name="Path 1174374" d="M242,418.284l-5.338,4.3a1.013,1.013,0,0,1-1.62-1.026l1.606-6.665A6.039,6.039,0,0,1,242,418.284Z" transform="translate(-235.011 -376.245)" fill="#7c8b96"/>
            </g>
          </g>
        </g>
        <g id="Group_1222858" data-name="Group 1222858" transform="translate(34.02 0)">
          <g id="Group_1222857" data-name="Group 1222857" transform="translate(0 0)">
            <g id="Group_1222856" data-name="Group 1222856">
              <path id="Path_1174375" data-name="Path 1174375" d="M132.52,135.533a1,1,0,0,0-1.394.212l-1.973,2.68-.674-.926a1,1,0,1,0-1.612,1.174l1.164,1.6a1.391,1.391,0,0,0,1.116.57h0a1.39,1.39,0,0,0,1.116-.564l2.465-3.349a1,1,0,0,0-.212-1.394Z" transform="translate(-114.364 -117.355)"/>
              <path id="Path_1174376" data-name="Path 1174376" d="M132.519,258.56a1,1,0,0,0-1.394.212l-1.973,2.68-.674-.926a1,1,0,1,0-1.612,1.173l1.164,1.6a1.39,1.39,0,0,0,1.116.57h0a1.39,1.39,0,0,0,1.116-.564l2.465-3.349a1,1,0,0,0-.212-1.394Z" transform="translate(-114.363 -224.035)"/>
              <path id="Path_1174377" data-name="Path 1174377" d="M132.519,376.344a1,1,0,0,0-1.394.212l-1.973,2.68-.674-.926a1,1,0,1,0-1.612,1.173l1.164,1.6a1.39,1.39,0,0,0,1.116.57h0a1.39,1.39,0,0,0,1.116-.564l2.465-3.349a1,1,0,0,0-.212-1.394Z" transform="translate(-114.363 -326.168)"/>
              <path id="Path_1174378" data-name="Path 1174378" d="M221.522,134.861h12.32a1,1,0,1,0,0-1.994h-12.32a1,1,0,0,0,0,1.994Z" transform="translate(-195.743 -115.212)"/>
              <path id="Path_1174379" data-name="Path 1174379" d="M221.522,166.2h6.16a1,1,0,1,0,0-1.994h-6.16a1,1,0,1,0,0,1.994Z" transform="translate(-195.743 -142.389)"/>
              <path id="Path_1174380" data-name="Path 1174380" d="M221.522,255.266h8.266a1,1,0,1,0,0-1.994h-8.266a1,1,0,1,0,0,1.994Z" transform="translate(-195.743 -219.618)"/>
              <path id="Path_1174381" data-name="Path 1174381" d="M227.682,286.608a1,1,0,1,0,0-1.994h-6.16a1,1,0,1,0,0,1.994Z" transform="translate(-195.743 -246.795)"/>
              <path id="Path_1174382" data-name="Path 1174382" d="M112.414,108.047h-7.679a2.54,2.54,0,0,0-2.537,2.537v7.679a2.54,2.54,0,0,0,2.537,2.537h7.679a2.54,2.54,0,0,0,2.537-2.537v-7.679A2.54,2.54,0,0,0,112.414,108.047Zm.544,10.217a.544.544,0,0,1-.544.544h-7.68a.544.544,0,0,1-.544-.544v-7.679a.544.544,0,0,1,.544-.544h7.68a.544.544,0,0,1,.544.544Z" transform="translate(-93.138 -93.69)"/>
              <path id="Path_1174383" data-name="Path 1174383" d="M112.414,228.453h-7.679a2.54,2.54,0,0,0-2.537,2.537v7.679a2.54,2.54,0,0,0,2.537,2.537h7.679a2.54,2.54,0,0,0,2.537-2.537V230.99A2.54,2.54,0,0,0,112.414,228.453Zm.544,10.217a.544.544,0,0,1-.544.544h-7.68a.544.544,0,0,1-.544-.544V230.99a.544.544,0,0,1,.544-.544h7.68a.544.544,0,0,1,.544.544Z" transform="translate(-93.138 -198.097)"/>
              <path id="Path_1174384" data-name="Path 1174384" d="M112.414,348.857h-7.679a2.54,2.54,0,0,0-2.537,2.537v7.68a2.54,2.54,0,0,0,2.537,2.537h7.679a2.54,2.54,0,0,0,2.537-2.537v-7.68A2.54,2.54,0,0,0,112.414,348.857Zm.544,10.217a.544.544,0,0,1-.544.544h-7.68a.544.544,0,0,1-.544-.544v-7.68a.544.544,0,0,1,.544-.544h7.68a.544.544,0,0,1,.544.544Z" transform="translate(-93.138 -302.502)"/>
              <path id="Path_1174385" data-name="Path 1174385" d="M91.321,17.051l-1.582-1a3.639,3.639,0,0,0-5.022,1.129L83.266,19.47l-2.014,3.183-2.278,3.6V11.289A1.871,1.871,0,0,0,77.1,9.421H69.962V7.427h9.563A1.444,1.444,0,0,1,80.967,8.87V17.5a1,1,0,0,0,1.994,0V8.87a3.44,3.44,0,0,0-3.436-3.436H69.756a2.721,2.721,0,0,0-2.511-1.681H64.67v-1A2.752,2.752,0,0,0,61.921,0H55.06a2.752,2.752,0,0,0-2.749,2.749v1H49.736a2.72,2.72,0,0,0-2.511,1.681H37.456A3.44,3.44,0,0,0,34.02,8.87V64.6a3.44,3.44,0,0,0,3.436,3.436H79.525A3.44,3.44,0,0,0,82.961,64.6V42.246a1,1,0,1,0-1.994,0V64.6a1.444,1.444,0,0,1-1.443,1.443H37.456A1.444,1.444,0,0,1,36.014,64.6V8.87a1.444,1.444,0,0,1,1.443-1.443h9.563V9.421H39.876a1.871,1.871,0,0,0-1.869,1.869V62.177a1.871,1.871,0,0,0,1.869,1.869H77.1a1.871,1.871,0,0,0,1.869-1.869V43.365l10.01-15.817h0L91,24.365l1.452-2.294a3.644,3.644,0,0,0-1.128-5.021Zm-3.89.467a1.633,1.633,0,0,1,1.241.215l1.582,1a1.647,1.647,0,0,1,.51,2.27l-.918,1.451-4.363-2.763.918-1.45a1.634,1.634,0,0,1,1.03-.726ZM68.552,56.106a6.709,6.709,0,0,1-.631.842,7.008,7.008,0,0,0-1.06-1.134L85.435,26.481l1.33.843Zm-6.807,5.945a.134.134,0,0,0-.019-.007h0L63.133,56.2a5.018,5.018,0,0,1,3.291,2.084c-5.278,4.253-4.6,3.7-4.679,3.771ZM84.417,21.378l4.363,2.763-.948,1.5-4.363-2.763ZM49.013,6.492c0-.012,0-.024,0-.037s0-.008,0-.013a.724.724,0,0,1,.722-.7h2.856A1.715,1.715,0,0,0,54.3,4.033V2.748a.756.756,0,0,1,.755-.755h6.862a.756.756,0,0,1,.755.755V4.033a1.715,1.715,0,0,0,1.713,1.713h2.856a.724.724,0,0,1,.722.7s0,.008,0,.013,0,.024,0,.037V9.421H49.013ZM40,11.414H76.98V29.4L66.547,45.889a1,1,0,1,0,1.685,1.066L82.4,24.561l1.348.853L65.176,54.747a7,7,0,0,0-1.478-.473,6.74,6.74,0,0,1,.491-.931l1.55-2.449a1,1,0,1,0-1.685-1.066L62.5,52.277A8.7,8.7,0,0,0,61.4,54.9h0l-1.606,6.664a2.069,2.069,0,0,0-.058.491H40ZM76.98,62.052H64.921L68.342,59.3a8.693,8.693,0,0,0,1.894-2.123L76.98,46.516Z" transform="translate(-34.02 0)"/>
            </g>
          </g>
        </g>
      </g>
    </g>
  </g>
</svg>
