<svg xmlns="http://www.w3.org/2000/svg" xmlns:xlink="http://www.w3.org/1999/xlink" width="93.934" height="93.934" viewBox="0 0 93.934 93.934">
  <defs>
    <filter id="Path_982547" x="0" y="0" width="93.934" height="93.934" filterUnits="userSpaceOnUse">
      <feOffset dy="3" input="SourceAlpha"/>
      <feGaussianBlur stdDeviation="3" result="blur"/>
      <feFlood flood-opacity="0.161"/>
      <feComposite operator="in" in2="blur"/>
      <feComposite in="SourceGraphic"/>
    </filter>
  </defs>
  <g id="Group_1223655" data-name="Group 1223655" transform="translate(-192.066 -7686.033)">
    <g id="Group_1222815" data-name="Group 1222815">
      <g id="Group_1222517" data-name="Group 1222517" transform="translate(-1 4356.5)">
        <g id="Group_1221060" data-name="Group 1221060" transform="translate(-418 2134.836)">
          <g id="Group_1215985" data-name="Group 1215985" transform="translate(-0.229 -2679.151)">
            <g id="Group_1214663" data-name="Group 1214663" transform="translate(0 -1254.151)">
              <g id="Group_1214433" data-name="Group 1214433" transform="translate(-0.771 -2738.674)">
                <g id="Group_1183190" data-name="Group 1183190" transform="translate(1 1016.674)">
                  <g id="Group_1179611" data-name="Group 1179611" transform="translate(428 4723.467)">
                    <g id="Group_1175227" data-name="Group 1175227" transform="translate(-5.967 140.533)">
                      <g id="Group_1167337" data-name="Group 1167337" transform="translate(198.033 1992)">
                        <g id="Group_1166720" data-name="Group 1166720">
                          <g id="Group_1164305" data-name="Group 1164305">
                            <g id="Group_1163948" data-name="Group 1163948">
                              <g id="Group_1158168" data-name="Group 1158168">
                                <g id="Group_1152576" data-name="Group 1152576">
                                  <g id="Group_1148633" data-name="Group 1148633">
                                    <g id="Group_1148525" data-name="Group 1148525">
                                      <g transform="matrix(1, 0, 0, 1, -9, -6)" filter="url(#Path_982547)">
                                        <g id="Path_982547-2" data-name="Path 982547" transform="translate(9 6)" fill="#f7fbfc">
                                          <path d="M 37.966796875 74.43359375 C 33.04315185546875 74.43359375 28.26757431030273 73.46962738037109 23.77274131774902 71.56847381591797 C 19.43047523498535 69.73184967041016 15.53040790557861 67.10224914550781 12.18087482452393 63.75271987915039 C 8.831341743469238 60.4031867980957 6.201741218566895 56.50312042236328 4.365118980407715 52.16086196899414 C 2.463963508605957 47.66601943969727 1.499996900558472 42.89044189453125 1.499996900558472 37.966796875 C 1.499996900558472 33.04315185546875 2.463963508605957 28.26757431030273 4.365118980407715 23.77274131774902 C 6.201741218566895 19.43047523498535 8.831341743469238 15.53040790557861 12.18087482452393 12.18087482452393 C 15.53040790557861 8.831341743469238 19.43047523498535 6.201741218566895 23.77274131774902 4.365118980407715 C 28.26757431030273 2.463963508605957 33.04315185546875 1.499996900558472 37.966796875 1.499996900558472 C 42.89044189453125 1.499996900558472 47.66601943969727 2.463963508605957 52.16086196899414 4.365118980407715 C 56.50312042236328 6.201741218566895 60.4031867980957 8.831341743469238 63.75271987915039 12.18087482452393 C 67.10224914550781 15.53040790557861 69.73184967041016 19.43047523498535 71.56847381591797 23.77274131774902 C 73.46962738037109 28.26757431030273 74.43359375 33.04315185546875 74.43359375 37.966796875 C 74.43359375 42.89044189453125 73.46962738037109 47.66601943969727 71.56847381591797 52.16086196899414 C 69.73184967041016 56.50313186645508 67.10224914550781 60.4031867980957 63.75271987915039 63.75271987915039 C 60.4031867980957 67.10224914550781 56.50313186645508 69.73184967041016 52.16086196899414 71.56847381591797 C 47.66601943969727 73.46962738037109 42.89044189453125 74.43359375 37.966796875 74.43359375 Z" stroke="none"/>
                                          <path d="M 37.966796875 3 C 33.2449836730957 3 28.66600799560547 3.924095153808594 24.35705947875977 5.746635437011719 C 20.19359588623047 7.507637023925781 16.45379638671875 10.02928161621094 13.24153518676758 13.24153518676758 C 10.02927398681641 16.45379638671875 7.507621765136719 20.19359588623047 5.746635437011719 24.35705947875977 C 3.924095153808594 28.66600799560547 3 33.2449836730957 3 37.966796875 C 3 42.6886100769043 3.924095153808594 47.26758575439453 5.746635437011719 51.57653427124023 C 7.507621765136719 55.73999786376953 10.02927398681641 59.47979736328125 13.24153518676758 62.69205856323242 C 16.45379638671875 65.90431976318359 20.19359588623047 68.42597198486328 24.35705947875977 70.18695831298828 C 28.66600799560547 72.00949859619141 33.2449836730957 72.93359375 37.966796875 72.93359375 C 42.6886100769043 72.93359375 47.26758575439453 72.00949859619141 51.57653427124023 70.18695831298828 C 55.73999786376953 68.42597198486328 59.47979736328125 65.90431976318359 62.69205856323242 62.69205856323242 C 65.90431976318359 59.47979736328125 68.42597198486328 55.73999786376953 70.18695831298828 51.57653427124023 C 72.00949859619141 47.26758575439453 72.93359375 42.6886100769043 72.93359375 37.966796875 C 72.93359375 33.2449836730957 72.00949859619141 28.66600799560547 70.18695831298828 24.35705947875977 C 68.42597198486328 20.19359588623047 65.90431976318359 16.45379638671875 62.69205856323242 13.24153518676758 C 59.47979736328125 10.02928161621094 55.73999786376953 7.507637023925781 51.57653427124023 5.746635437011719 C 47.26758575439453 3.924095153808594 42.6886100769043 3 37.966796875 3 M 37.966796875 0 C 58.93528366088867 0 75.93359375 16.99832153320312 75.93359375 37.966796875 C 75.93359375 58.93528366088867 58.93528366088867 75.93359375 37.966796875 75.93359375 C 16.99831008911133 75.93359375 0 58.93528366088867 0 37.966796875 C 0 16.99832153320312 16.99831008911133 0 37.966796875 0 Z" stroke="none" fill="#62797e"/>
                                        </g>
                                      </g>
                                    </g>
                                  </g>
                                </g>
                              </g>
                            </g>
                          </g>
                        </g>
                      </g>
                    </g>
                  </g>
                </g>
              </g>
            </g>
          </g>
        </g>
      </g>
      <g id="informe-medico_1_" data-name="informe-medico (1)" transform="translate(203.033 7704.967)">
        <g id="Group_1222813" data-name="Group 1222813">
          <g id="Group_1222805" data-name="Group 1222805">
            <path id="Path_1174306" data-name="Path 1174306" d="M38,8v2H34V8a2,2,0,0,0-4,0v2H26V8A6,6,0,0,1,38,8Z" fill="#b4dd7f"/>
          </g>
          <g id="Group_1222806" data-name="Group 1222806">
            <path id="Path_1174307" data-name="Path 1174307" d="M53,62H11a1,1,0,0,1-1-1V11a1,1,0,0,1,1-1H54V61A1,1,0,0,1,53,62Z" fill="#e6e9ed"/>
          </g>
          <g id="Group_1222807" data-name="Group 1222807">
            <path id="Path_1174308" data-name="Path 1174308" d="M14,14H50V58H14Z" fill="#f0d0b4"/>
          </g>
          <g id="Group_1222808" data-name="Group 1222808">
            <path id="Path_1174309" data-name="Path 1174309" d="M46,43.5V52H36V42H46Z" fill="#fcd770"/>
          </g>
          <g id="Group_1222809" data-name="Group 1222809">
            <circle id="Ellipse_14544" data-name="Ellipse 14544" cx="2" cy="2" r="2" transform="translate(40 30)" fill="#e6e9ed"/>
          </g>
          <g id="Group_1222810" data-name="Group 1222810">
            <path id="Path_1174310" data-name="Path 1174310" d="M29.17,32a8.932,8.932,0,0,1-1.85,2.68L16,46l-2-2-4-4L4.68,34.68A9.134,9.134,0,0,1,2,28.21v-.03a9.018,9.018,0,0,1,1.99-5.66A6.675,6.675,0,0,1,9.22,20a6.808,6.808,0,0,1,.78.05,6.647,6.647,0,0,1,3.96,1.91L14,22l2,2,2.04-2.04a6.692,6.692,0,0,1,9.97.56A9.018,9.018,0,0,1,30,28.18v.03A8.952,8.952,0,0,1,29.17,32Z" fill="#ff826e"/>
          </g>
          <g id="Group_1222811" data-name="Group 1222811">
            <path id="Path_1174311" data-name="Path 1174311" d="M62,5v7.56a14.017,14.017,0,0,1-8,12.67A15.035,15.035,0,0,1,52,26a15.035,15.035,0,0,1-2-.77,13.986,13.986,0,0,1-7.92-11.24A11.319,11.319,0,0,1,42,12.56V5a17.742,17.742,0,0,0,4.82-.66,18.148,18.148,0,0,0,4.47-1.91L52,2l.71.43A18.107,18.107,0,0,0,62,5Z" fill="#aab2bd"/>
          </g>
          <g id="Group_1222812" data-name="Group 1222812">
            <path id="Path_1174312" data-name="Path 1174312" d="M58,13v2a1,1,0,0,1-1,1H54v3a1,1,0,0,1-1,1H51a1,1,0,0,1-1-1V16H47a1,1,0,0,1-1-1V13a1,1,0,0,1,1-1h3V9a1,1,0,0,1,1-1h2a1,1,0,0,1,1,1v3h3A1,1,0,0,1,58,13Z" fill="#fcd770"/>
          </g>
        </g>
        <g id="Group_1222814" data-name="Group 1222814">
          <path id="Path_1174313" data-name="Path 1174313" d="M49,9v2H47a2,2,0,0,0-2,2v2a2,2,0,0,0,2,2h2v2a2,2,0,0,0,2,2h2a2,2,0,0,0,2-2V17h2a2,2,0,0,0,2-2V13a2,2,0,0,0-2-2H55V9a2,2,0,0,0-2-2H51A2,2,0,0,0,49,9Zm8,4v2H53v4H51V15H47V13h4V9h2v4Z"/>
          <path id="Path_1174314" data-name="Path 1174314" d="M62,4a17.044,17.044,0,0,1-8.772-2.43L52,.834l-1.228.736A17.044,17.044,0,0,1,42,4H41V9H39V8A7,7,0,0,0,25,8V9H11a2,2,0,0,0-2,2v8.012a7.654,7.654,0,0,0-5.794,2.88,10.15,10.15,0,0,0,.767,13.495L9,40.414V61a2,2,0,0,0,2,2H53a2,2,0,0,0,2-2V25.84a14.916,14.916,0,0,0,8-13.281V4ZM49,38.62,46.885,41H35V53H47V43.88l2-2.25V57H15V46.414l1,1L28.027,35.387A10.158,10.158,0,0,0,29.8,33h9.382a3,3,0,1,0,0-2H30.6a10.282,10.282,0,0,0,.4-2.819,10.1,10.1,0,0,0-2.206-6.289,7.7,7.7,0,0,0-11.465-.635L16,22.586l-1-1V15h26.2A14.883,14.883,0,0,0,49,25.84ZM42.043,49.457,45,46.13V51H37V43h8v.12l-3.043,3.423-2.25-2.25-1.414,1.414ZM41,32a1,1,0,1,1,1,1A1,1,0,0,1,41,32ZM27,8A5,5,0,0,1,37,8V9H35V8a3,3,0,0,0-6,0V9H27Zm6,1H31V8a1,1,0,0,1,2,0Zm8,2v1.56c0,.148.013.293.018.44H13v6.993a7.579,7.579,0,0,0-2-.78V11ZM3,28.181a8.1,8.1,0,0,1,1.769-5.04,5.7,5.7,0,0,1,8.488-.47L16,25.414l2.743-2.743a5.7,5.7,0,0,1,8.488.47A8.119,8.119,0,0,1,28.5,31h-9.12l-2.2,4.394-3.1-9.3L11.323,33H9v2h3.677l1.238-3.094,2.9,8.7L20.618,33h6.816a8.292,8.292,0,0,1-.821.973L16,44.586,5.387,33.973A8.115,8.115,0,0,1,3,28.181ZM53,61H11V42.414l2,2V59H51V26.713c.237.084.47.173.713.245l.287.086.287-.086c.243-.073.476-.162.713-.245Zm8-48.44a12.949,12.949,0,0,1-9,12.393A12.949,12.949,0,0,1,43,12.56V5.974a19.057,19.057,0,0,0,8.8-2.688l.2-.12.2.119A19.043,19.043,0,0,0,61,5.974Z"/>
          <path id="Path_1174315" data-name="Path 1174315" d="M31,51h2v2H31Z"/>
          <path id="Path_1174316" data-name="Path 1174316" d="M27,51h2v2H27Z"/>
          <path id="Path_1174317" data-name="Path 1174317" d="M23,51h2v2H23Z"/>
          <path id="Path_1174318" data-name="Path 1174318" d="M33,25h6v2H33Z"/>
          <path id="Path_1174319" data-name="Path 1174319" d="M33,21h6v2H33Z"/>
          <path id="Path_1174320" data-name="Path 1174320" d="M33,17h6v2H33Z"/>
        </g>
      </g>
    </g>
  </g>
</svg>
