<svg xmlns="http://www.w3.org/2000/svg" width="33.965" height="33.965" viewBox="0 0 33.965 33.965">
  <g id="Group_1210692" data-name="Group 1210692" transform="translate(-251.86 -4021.807)">
    <g id="inyeccion" transform="translate(251.86 4021.807)">
      <path id="Path_1079259" data-name="Path 1079259" d="M33.82,25.534,32.4,24.114A16.986,16.986,0,0,0,16.983,0,16.863,16.863,0,0,0,5.332,4.628L.849.146a.5.5,0,0,0-.7.7L4.628,5.332A16.982,16.982,0,0,0,16.983,33.965,17.039,17.039,0,0,0,24.114,32.4l1.421,1.421a.5.5,0,0,0,.7,0l7.582-7.582a.5.5,0,0,0,0-.7ZM1,16.983A15.929,15.929,0,0,1,5.337,6.041L6.529,7.233A14.275,14.275,0,0,0,5.94,26.062a.5.5,0,0,0,.36.181h.024a.5.5,0,0,0,.352-.146L14,18.769l.014-.012.012-.014,4.713-4.713.014-.012L18.769,14,21.9,10.877a.5.5,0,1,0-.7-.7L18.4,12.962l-5.1-5.1a1.838,1.838,0,0,0-2.6,0l-.18.18L8.569,6.681A13.28,13.28,0,0,1,25,6.368L22.836,8.531a.5.5,0,0,0,.7.7L26.1,6.676a.5.5,0,0,0-.035-.736,14.275,14.275,0,0,0-18.829.589L6.041,5.337a15.985,15.985,0,0,1,25.03,19.209l-1.015,1.015-.969-.969A14.276,14.276,0,0,0,28.025,7.9a.5.5,0,0,0-.736-.035L7.868,27.289a.5.5,0,0,0,.035.736,14.4,14.4,0,0,0,2.248,1.52.5.5,0,0,0,.477-.873A13.379,13.379,0,0,1,8.967,27.6L15.561,21l3.319,3.319-1.07,1.07a.5.5,0,0,0,0,.7l1.516,1.516a.5.5,0,0,0,.7,0l1.544-1.544,2.3,2.3a13.3,13.3,0,0,1-11.2,1.209.5.5,0,0,0-.323.941,14.293,14.293,0,0,0,12.243-1.428l.969.969-1.015,1.015A15.992,15.992,0,0,1,1,16.983Zm11.793-6.334a.5.5,0,0,0,.7,0l.6-.6.813.813-.6.6a.5.5,0,0,0,.7.7l.6-.6.813.813-.6.6a.5.5,0,0,0,.7.7l.6-.6.581.581L13.666,17.7l-2.575-2.575a.5.5,0,0,0-.7.7L12.962,18.4,6.368,25a13.28,13.28,0,0,1,.314-16.43l1.358,1.954-.18.18a1.838,1.838,0,0,0,0,2.6l.886.886a.5.5,0,0,0,.7-.7L8.563,12.6a.842.842,0,0,1,0-1.192l2.843-2.843a.842.842,0,0,1,1.192,0l.786.786-.6.6a.5.5,0,0,0,0,.7Zm-4.033-.84L7.389,7.843l.226-.226h0l.226-.226L9.808,8.754ZM26.265,29.352l-3.987-3.987,1.192-1.192,3.987,3.987Zm-6.586-2.8-.813-.813,6.878-6.878.813.813Zm6.39-4.983,1.544-1.544a.5.5,0,0,0,0-.7L26.1,17.811a.5.5,0,0,0-.7,0l-1.07,1.07L21,15.561,27.6,8.967a13.281,13.281,0,0,1,.767,14.9ZM20.3,16.265l3.319,3.319-4.035,4.035L16.265,20.3Zm7.861,11.192L24.173,23.47l1.192-1.192,3.987,3.987Zm-2.274,5.307-.813-.813.125-.125.007-.007,6.613-6.613.006-.006.126-.126.813.813Z" transform="translate(0 0)"/>
    </g>
  </g>
</svg>
