<svg xmlns="http://www.w3.org/2000/svg" width="83.679" height="83.729" viewBox="0 0 83.679 83.729">
  <g id="Group_1210676" data-name="Group 1210676" transform="translate(-202.892 -301)">
    <g id="no-drogas" transform="translate(195.492 293.575)">
      <g id="Group_1209674" data-name="Group 1209674" transform="translate(8.732 8.738)">
        <g id="Group_1209670" data-name="Group 1209670" transform="translate(8.765 19.069)">
          <rect id="Rectangle_418150" data-name="Rectangle 418150" width="12.059" height="5.179" transform="translate(0 8.527) rotate(-45)" fill="#0c74f2"/>
          <rect id="Rectangle_418151" data-name="Rectangle 418151" width="15.314" height="5.179" transform="translate(6.732 17.496) rotate(-45)" fill="#57a4ff"/>
          <rect id="Rectangle_418152" data-name="Rectangle 418152" width="7.176" height="5.179" transform="translate(35.492 40.538) rotate(-45)" fill="#57a4ff"/>
          <rect id="Rectangle_418153" data-name="Rectangle 418153" width="6.288" height="5.919" transform="translate(5.694 10.161) rotate(-45)" fill="#b3d8f4"/>
          <rect id="Rectangle_418154" data-name="Rectangle 418154" width="10.875" height="31.442" transform="translate(11.931 19.575) rotate(-45)" fill="#b3d8f4"/>
        </g>
        <g id="Group_1209673" data-name="Group 1209673" transform="translate(40.542 14.574)">
          <g id="Group_1209671" data-name="Group 1209671">
            <path id="Path_1078989" data-name="Path 1078989" d="M72.878,33.339V37.26H64V33.339a4.439,4.439,0,1,1,8.878,0Z" transform="translate(-64 -28.9)" fill="#ffe477"/>
            <path id="Path_1078990" data-name="Path 1078990" d="M72.878,40.2v3.921a4.439,4.439,0,1,1-8.878,0V40.2Z" transform="translate(-64 -31.84)" fill="#57a4ff"/>
          </g>
          <g id="Group_1209672" data-name="Group 1209672" transform="translate(12.355 12.281)">
            <path id="Path_1078991" data-name="Path 1078991" d="M89.578,49.939V53.86H80.7V49.939a4.439,4.439,0,1,1,8.878,0Z" transform="translate(-80.7 -45.5)" fill="#57a4ff"/>
            <path id="Path_1078992" data-name="Path 1078992" d="M89.578,56.8v3.921a4.439,4.439,0,1,1-8.878,0h0V56.8Z" transform="translate(-80.7 -48.44)" fill="#93dd59"/>
          </g>
        </g>
        <path id="Path_1078993" data-name="Path 1078993" d="M49.742,9.2A40.542,40.542,0,1,0,90.284,49.742h0A40.509,40.509,0,0,0,49.742,9.2ZM16.6,49.742A33.163,33.163,0,0,1,70.457,23.848L23.848,70.457A33.007,33.007,0,0,1,16.6,49.742ZM49.742,82.886a33.007,33.007,0,0,1-20.715-7.25L75.636,29.027A33.141,33.141,0,0,1,49.742,82.886Z" transform="translate(-9.2 -9.2)" fill="#d92323"/>
      </g>
      <path id="Path_1078994" data-name="Path 1078994" d="M70.876,24.274a1.322,1.322,0,0,0-.074-1.924A34.822,34.822,0,0,0,48.534,14.8h0a34.428,34.428,0,0,0-26.19,55.93,1.266,1.266,0,0,0,1.924.074C24.268,70.883,54.674,40.476,70.876,24.274ZM27.893,47.135l-1.85-1.85,9.026-9.026,1.85,1.85Zm-6.732-9.026L19.9,36.851c.3-.74.666-1.48,1.036-2.219L25.969,29.6l1.85,1.85C27.671,31.673,21.678,37.591,21.161,38.109Zm6.51-2.811,2.367,2.367-2.663,2.663-2.367-2.367Zm9.47,6.214L43.5,47.949l-5.845,5.845-6.436-6.436Zm14.352-3.773a3.207,3.207,0,0,1-.962-2.219V32.93H56.82v1.7L52.9,38.553A2.3,2.3,0,0,1,51.493,37.739Zm5.4-7.4H50.605V27.752a3.182,3.182,0,0,1,6.362-.074h0v2.663ZM48.608,17.394h0a32.037,32.037,0,0,1,19.383,6.067c-.888.888,3.181-3.181-8.582,8.508V27.678a5.771,5.771,0,1,0-11.541,0v7.768a5.755,5.755,0,0,0,2.959,5.031l-5.549,5.549-6.436-6.436.666-.666a1.3,1.3,0,0,0,0-1.85h0l-3.7-3.7a1.3,1.3,0,0,0-1.85,0h0l-2.293,2.293L29.3,33.3l1.11-1.11a1.3,1.3,0,0,0,0-1.85h0l-3.625-3.7-.148-.148A33.6,33.6,0,0,1,48.608,17.394ZM23.528,68a31.822,31.822,0,0,1-4.587-28.483l1.332,1.332a1.3,1.3,0,0,0,1.85,0h0l1.11-1.11L25.6,42.1,23.306,44.4a1.3,1.3,0,0,0,0,1.85h0l3.7,3.7a1.3,1.3,0,0,0,1.85,0l.666-.666,6.436,6.436ZM46.314,8.812A1.31,1.31,0,0,1,47.572,7.48a32.037,32.037,0,0,1,3.773,0,1.3,1.3,0,0,1-.074,2.589h-3.7A1.3,1.3,0,0,1,46.314,8.812ZM56.746,9.4A1.3,1.3,0,0,1,58.3,8.442,41.963,41.963,0,0,1,90.852,44.175a1.382,1.382,0,0,1-1.11,1.48,1.262,1.262,0,0,1-1.406-1.11A39.461,39.461,0,0,0,57.782,10.958,1.325,1.325,0,0,1,56.746,9.4ZM49.792,83.756A34.547,34.547,0,0,0,83.749,49.28,34.053,34.053,0,0,0,76.2,27.825a1.264,1.264,0,0,0-1.924-.074L27.671,74.36a1.322,1.322,0,0,0,.074,1.924A35.587,35.587,0,0,0,49.792,83.756ZM75.019,30.563A31.839,31.839,0,0,1,67.1,75.618l-6.14-6.14L62.59,67.85a1.3,1.3,0,0,0,0-1.85h0l-2.737-2.737.37-.37a1.3,1.3,0,0,0,0-1.85h0L52.455,53.2,60.3,45.359v2.515a5.771,5.771,0,0,0,11.541,0V40.032a5.65,5.65,0,0,0-1.7-4.069l-.222-.222S75.389,30.193,75.019,30.563ZM50.605,54.977l6.954,6.954-5.845,5.845-6.954-6.954Zm7.472,10.136,1.85,1.85-3.255,3.255-1.85-1.85Zm9.914-27.521.222.222a3.132,3.132,0,0,1,.888,2.219v2.589H62.886Zm-5.1,7.694h6.288v2.589a3.2,3.2,0,0,1-3.181,3.181,3.158,3.158,0,0,1-3.181-3.181h0V45.285ZM42.911,62.745l7.842,7.842a1.3,1.3,0,0,0,1.85,0l.37-.37,2.737,2.737a1.3,1.3,0,0,0,1.85,0h0l1.628-1.628,5.7,5.7a31.6,31.6,0,0,1-34.328-2ZM91.073,51.13A41.858,41.858,0,1,1,40.618,8.294a1.32,1.32,0,1,1,.518,2.589,39.265,39.265,0,1,0,47.348,40.1,1.31,1.31,0,0,1,1.332-1.258,1.331,1.331,0,0,1,1.258,1.406Z" transform="translate(0 0)"/>
    </g>
  </g>
</svg>
