<svg xmlns="http://www.w3.org/2000/svg" xmlns:xlink="http://www.w3.org/1999/xlink" width="103" height="103" viewBox="0 0 103 103">
  <defs>
    <filter id="Path_978624" x="0" y="0" width="103" height="103" filterUnits="userSpaceOnUse">
      <feOffset dy="3" input="SourceAlpha"/>
      <feGaussianBlur stdDeviation="3" result="blur"/>
      <feFlood flood-opacity="0.161"/>
      <feComposite operator="in" in2="blur"/>
      <feComposite in="SourceGraphic"/>
    </filter>
  </defs>
  <g id="Group_1210724" data-name="Group 1210724" transform="translate(-195 -2277.551)">
    <g id="Group_1210195" data-name="Group 1210195">
      <g id="Group_1208716" data-name="Group 1208716" transform="translate(204 2283.551)">
        <g id="Group_1178144" data-name="Group 1178144">
          <g id="Group_1177896" data-name="Group 1177896">
            <g id="Group_1176881" data-name="Group 1176881">
              <g id="Group_1175148" data-name="Group 1175148">
                <g id="Group_1173798" data-name="Group 1173798">
                  <g id="Group_1171925" data-name="Group 1171925">
                    <g id="Group_1164524" data-name="Group 1164524">
                      <g id="Group_1144123" data-name="Group 1144123">
                        <g transform="matrix(1, 0, 0, 1, -9, -6)" filter="url(#Path_978624)">
                          <g id="Path_978624-2" data-name="Path 978624" transform="translate(9 6)" fill="#fff9f4">
                            <path d="M 42.5 83.5 C 36.96437835693359 83.5 31.59512901306152 82.41617584228516 26.54141235351562 80.27863311767578 C 21.65934181213379 78.21369171142578 17.27447128295898 75.25723266601562 13.50862312316895 71.49137878417969 C 9.742764472961426 67.72553253173828 6.786305904388428 63.34066009521484 4.721364498138428 58.45858764648438 C 2.583823442459106 53.40486907958984 1.5 48.03562164306641 1.5 42.5 C 1.5 36.96437835693359 2.583823442459106 31.59512901306152 4.721364498138428 26.54141235351562 C 6.786305904388428 21.65934181213379 9.742764472961426 17.27447128295898 13.50862312316895 13.50862312316895 C 17.27447128295898 9.742764472961426 21.65934181213379 6.786305904388428 26.54141235351562 4.721364498138428 C 31.59512901306152 2.583823442459106 36.96437835693359 1.5 42.5 1.5 C 48.03562164306641 1.5 53.40486907958984 2.583823442459106 58.45858764648438 4.721364498138428 C 63.34066009521484 6.786305904388428 67.72553253173828 9.742764472961426 71.49137878417969 13.50862312316895 C 75.25723266601562 17.27447128295898 78.21369171142578 21.65934181213379 80.27863311767578 26.54141235351562 C 82.41617584228516 31.59512901306152 83.5 36.96437835693359 83.5 42.5 C 83.5 48.03562164306641 82.41617584228516 53.40486907958984 80.27863311767578 58.45858764648438 C 78.21369171142578 63.34066009521484 75.25723266601562 67.72553253173828 71.49137878417969 71.49137878417969 C 67.72553253173828 75.25723266601562 63.34066009521484 78.21369171142578 58.45858764648438 80.27863311767578 C 53.40486907958984 82.41617584228516 48.03562164306641 83.5 42.5 83.5 Z" stroke="none"/>
                            <path d="M 42.5 3 C 37.16621398925781 3 31.99356079101562 4.043960571289062 27.125732421875 6.102882385253906 C 22.42246627807617 8.092185974121094 18.19785308837891 10.94070434570312 14.56928253173828 14.56928253173828 C 10.94070434570312 18.19785308837891 8.092185974121094 22.42246627807617 6.102882385253906 27.125732421875 C 4.043960571289062 31.99356079101562 3 37.16621398925781 3 42.5 C 3 47.83378601074219 4.043960571289062 53.00643920898438 6.102882385253906 57.87425231933594 C 8.092185974121094 62.57753372192383 10.94070434570312 66.80213165283203 14.56928253173828 70.43071746826172 C 18.19786834716797 74.05929565429688 22.42246627807617 76.90781402587891 27.125732421875 78.89711761474609 C 31.99356079101562 80.95603942871094 37.16621398925781 82 42.5 82 C 47.83378601074219 82 53.00642395019531 80.95603942871094 57.87425231933594 78.89711761474609 C 62.57753372192383 76.90781402587891 66.80213165283203 74.05929565429688 70.43071746826172 70.43071746826172 C 74.05929565429688 66.80213165283203 76.90781402587891 62.57753372192383 78.89711761474609 57.87425231933594 C 80.95603942871094 53.00642395019531 82 47.83378601074219 82 42.5 C 82 37.16621398925781 80.95603942871094 31.99356079101562 78.89711761474609 27.125732421875 C 76.90781402587891 22.42246627807617 74.05929565429688 18.19786834716797 70.43071746826172 14.56928253173828 C 66.80213165283203 10.94070434570312 62.57753372192383 8.092185974121094 57.87425231933594 6.102882385253906 C 53.00643920898438 4.043960571289062 47.83378601074219 3 42.5 3 M 42.5 0 C 65.97209167480469 0 85 19.02789306640625 85 42.5 C 85 65.97209167480469 65.97209167480469 85 42.5 85 C 19.02789306640625 85 0 65.97209167480469 0 42.5 C 0 19.02789306640625 19.02789306640625 0 42.5 0 Z" stroke="none" fill="#8b7157"/>
                          </g>
                        </g>
                      </g>
                    </g>
                  </g>
                </g>
              </g>
            </g>
          </g>
        </g>
      </g>
      <g id="estres" transform="translate(219.498 2294.943)">
        <g id="Group_1210193" data-name="Group 1210193" transform="translate(0.794 5.383)">
          <g id="Group_1210170" data-name="Group 1210170" transform="translate(5.93 0)">
            <g id="Group_1210169" data-name="Group 1210169">
              <path id="Path_1079854" data-name="Path 1079854" d="M104.3,31.228a2.317,2.317,0,0,0-.723-1.684.741.741,0,0,1-.081-.994,2.324,2.324,0,0,0-.5-3.358.75.75,0,0,1-.275-.841,2.325,2.325,0,0,0-2.225-3c-.029,0-.007-.635-.078-.976A2.332,2.332,0,0,0,98.4,18.54a2.4,2.4,0,0,0-.377-.01.9.9,0,0,1-.923-.917V17.6a3,3,0,0,0-3-3c-.018,0-.588-2-2.267-1.747a4.465,4.465,0,0,0-.686.105,1.525,1.525,0,0,1-1.444-.293,2.273,2.273,0,0,0-2.677-.2,1.75,1.75,0,0,1-1.4.219,2.283,2.283,0,0,0-1.37.038,1.7,1.7,0,0,1-1.509-.23,2.273,2.273,0,0,0-2.632.051,1.659,1.659,0,0,1-1.649.21,2.587,2.587,0,0,0-3.218,1.014,1.725,1.725,0,0,1-1.393.838l-.088,0a3.018,3.018,0,0,0-2.8,2.873q0,.076,0,.151a.9.9,0,0,1-.943.9,2.4,2.4,0,0,0-.356.011,2.333,2.333,0,0,0-2.023,1.837c-.071.342-.05.977-.078.977a2.325,2.325,0,0,0-2.225,3,.75.75,0,0,1-.275.841,2.324,2.324,0,0,0-.5,3.358.741.741,0,0,1-.081.994,2.324,2.324,0,0,0,.581,3.772.762.762,0,0,1,.35.978,2.324,2.324,0,0,0,2.705,3.131c0,.037,0,.074,0,.111a2.324,2.324,0,0,0,3.795,1.8,2.325,2.325,0,0,0,2.174,1.5h19.9a2.325,2.325,0,0,0,2.174-1.5,2.324,2.324,0,0,0,3.795-1.8c0-.037,0-.074,0-.111a2.324,2.324,0,0,0,2.705-3.131.763.763,0,0,1,.35-.979,2.322,2.322,0,0,0,1.3-2.088Z" transform="translate(-63.751 -12.092)" fill="#d77f4a"/>
            </g>
          </g>
          <g id="Group_1210172" data-name="Group 1210172" transform="translate(6.402 35.151)">
            <g id="Group_1210171" data-name="Group 1210171">
              <path id="Path_1079855" data-name="Path 1079855" d="M104.422,348.234c-6.814.284-10.046-1.54-10.046-1.54l-6.34-1.254v-.045l-.114.023-.114-.023v.045l-6.34,1.254s-3.231,1.824-10.046,1.54l-3.2,13.46h39.435Z" transform="translate(-68.223 -345.395)" fill="#ffd15b"/>
            </g>
          </g>
          <g id="Group_1210174" data-name="Group 1210174" transform="translate(19.646 29.467)">
            <g id="Group_1210173" data-name="Group 1210173">
              <path id="Path_1079856" data-name="Path 1079856" d="M204.134,291.5h-7.749a10.742,10.742,0,0,1-2.58,6.983l.2.234a6.113,6.113,0,0,0,1.879,1.463,9.835,9.835,0,0,0,8.68.046,6.128,6.128,0,0,0,2.146-1.743A10.742,10.742,0,0,1,204.134,291.5Z" transform="translate(-193.805 -291.5)" fill="#ffcebf"/>
            </g>
          </g>
          <g id="Group_1210176" data-name="Group 1210176" transform="translate(13.71 13.74)">
            <g id="Group_1210175" data-name="Group 1210175">
              <path id="Path_1079857" data-name="Path 1079857" d="M137.515,142.381a18.934,18.934,0,0,0,1.114,4.434H161.4a22.433,22.433,0,0,0,2.034-3.96" transform="translate(-137.515 -142.381)" fill="#d77f4a"/>
            </g>
          </g>
          <g id="Group_1210178" data-name="Group 1210178" transform="translate(14.772 5.252)">
            <g id="Group_1210177" data-name="Group 1210177">
              <ellipse id="Ellipse_11859" data-name="Ellipse 11859" cx="11.435" cy="14.276" rx="11.435" ry="14.276" fill="#ffcebf"/>
            </g>
          </g>
          <g id="Group_1210180" data-name="Group 1210180" transform="translate(18.059 7.405)">
            <g id="Group_1210179" data-name="Group 1210179">
              <path id="Path_1079858" data-name="Path 1079858" d="M192.943,82.3a16.209,16.209,0,0,1,3.286,10.015c0,7.885-5.12,14.276-11.435,14.276a9.781,9.781,0,0,1-6.039-2.152,10.428,10.428,0,0,0,8.148,4.262c6.315,0,11.435-6.392,11.435-14.276A15.327,15.327,0,0,0,192.943,82.3Z" transform="translate(-178.755 -82.305)" fill="#fba"/>
            </g>
          </g>
          <g id="Group_1210182" data-name="Group 1210182" transform="translate(14.824 4.648)">
            <g id="Group_1210181" data-name="Group 1210181">
              <path id="Path_1079859" data-name="Path 1079859" d="M159.463,56.167c-5.949,0-11.383,6.133-11.383,13.526s3.293-6.417,5.662-4.725a10.589,10.589,0,0,0,11.443,0c2.369-1.692,5.662,4.725,5.662,4.725C170.9,62.3,165.413,56.167,159.463,56.167Z" transform="translate(-148.08 -56.167)" fill="#d77f4a"/>
            </g>
          </g>
          <g id="Group_1210184" data-name="Group 1210184" transform="translate(0 22.686)">
            <g id="Group_1210183" data-name="Group 1210183">
              <path id="Path_1079860" data-name="Path 1079860" d="M24.637,229.421l-2.858-1.108L18.921,227.2s-8.6,13.709-10.5,18.591-.765,8.333,2.807,9.718,6.732-.4,8.625-5.286S24.637,229.421,24.637,229.421Z" transform="translate(-7.517 -227.205)" fill="#ffe177"/>
            </g>
          </g>
          <g id="Group_1210186" data-name="Group 1210186" transform="translate(12.173 10.38)">
            <g id="Group_1210185" data-name="Group 1210185">
              <path id="Path_1079861" data-name="Path 1079861" d="M123.129,123.195l-.178-3.552a5.636,5.636,0,0,1,1.9-4.508l4.871-4.3a1.267,1.267,0,0,1,2.106.95v.441a1.787,1.787,0,0,1-.378,1.1l-2.228,3.152a9.785,9.785,0,0,0-1.795,5.648v2.735Z" transform="translate(-122.944 -110.519)" fill="#ffcebf"/>
            </g>
          </g>
          <g id="Group_1210188" data-name="Group 1210188" transform="translate(35.294 22.686)">
            <g id="Group_1210187" data-name="Group 1210187">
              <path id="Path_1079862" data-name="Path 1079862" d="M342.184,229.421l2.858-1.108L347.9,227.2s8.6,13.709,10.5,18.591.765,8.333-2.807,9.718-6.732-.4-8.625-5.286S342.184,229.421,342.184,229.421Z" transform="translate(-342.184 -227.205)" fill="#ffe177"/>
            </g>
          </g>
          <g id="Group_1210190" data-name="Group 1210190" transform="translate(38.462 22.686)">
            <g id="Group_1210189" data-name="Group 1210189">
              <path id="Path_1079863" data-name="Path 1079863" d="M385.261,245.8c-1.893-4.882-10.5-18.591-10.5-18.591l-2.549.988c2,3.23,8.295,13.513,9.881,17.6,1.893,4.882.765,8.333-2.807,9.718q-.328.127-.651.218a5.654,5.654,0,0,0,3.815-.218C386.026,254.129,387.154,250.678,385.261,245.8Z" transform="translate(-372.216 -227.205)" fill="#ffd15b"/>
            </g>
          </g>
          <g id="Group_1210192" data-name="Group 1210192" transform="translate(31.358 10.38)">
            <g id="Group_1210191" data-name="Group 1210191">
              <path id="Path_1079864" data-name="Path 1079864" d="M313.559,123.195l.178-3.552a5.636,5.636,0,0,0-1.9-4.508l-4.871-4.3a1.267,1.267,0,0,0-2.106.95v.441a1.787,1.787,0,0,0,.378,1.1l2.228,3.152a9.785,9.785,0,0,1,1.795,5.648v2.735Z" transform="translate(-304.861 -110.519)" fill="#ffcebf"/>
            </g>
          </g>
        </g>
        <g id="Group_1210194" data-name="Group 1210194" transform="translate(0.002 4.592)">
          <path id="Path_1079865" data-name="Path 1079865" d="M29.3,217.145v-.473a.791.791,0,1,0-1.582,0v.473a.791.791,0,1,0,1.582,0Z" transform="translate(-24.799 -193.598)"/>
          <path id="Path_1079866" data-name="Path 1079866" d="M27.723,250.46a.791.791,0,0,0,1.582,0v-.473a.791.791,0,0,0-1.582,0Z" transform="translate(-24.799 -223.4)"/>
          <path id="Path_1079867" data-name="Path 1079867" d="M41.924,236.365H42.4a.791.791,0,0,0,0-1.582h-.473a.791.791,0,1,0,0,1.582Z" transform="translate(-36.795 -210.507)"/>
          <path id="Path_1079868" data-name="Path 1079868" d="M10.615,236.365h.473a.791.791,0,1,0,0-1.582h-.473a.791.791,0,1,0,0,1.582Z" transform="translate(-8.788 -210.507)"/>
          <path id="Path_1079869" data-name="Path 1079869" d="M25.774,12.948a1.422,1.422,0,0,0,2.351.553l.682-.68.864,2.4a.791.791,0,0,0,1.489-.536l-.949-2.638a1.422,1.422,0,0,0-2.342-.526l-.678.676-.754-2.239a.791.791,0,0,0-1.5.5Z" transform="translate(-22.271 -8.911)"/>
          <path id="Path_1079870" data-name="Path 1079870" d="M467.1,227.936a.791.791,0,0,0,.791-.791v-.473a.791.791,0,1,0-1.582,0v.473A.791.791,0,0,0,467.1,227.936Z" transform="translate(-417.136 -202.544)"/>
          <path id="Path_1079871" data-name="Path 1079871" d="M467.1,261.251a.791.791,0,0,0,.791-.791v-.473a.791.791,0,1,0-1.582,0v.473A.791.791,0,0,0,467.1,261.251Z" transform="translate(-417.136 -232.345)"/>
          <path id="Path_1079872" data-name="Path 1079872" d="M449.679,244.783h-.473a.791.791,0,0,0,0,1.582h.473a.791.791,0,0,0,0-1.582Z" transform="translate(-401.125 -219.452)"/>
          <path id="Path_1079873" data-name="Path 1079873" d="M479.725,245.574a.791.791,0,0,0,.791.791h.473a.791.791,0,0,0,0-1.582h-.473a.791.791,0,0,0-.791.791Z" transform="translate(-429.133 -219.452)"/>
          <path id="Path_1079874" data-name="Path 1079874" d="M431.832,15.7a.79.79,0,0,0,1.012-.476l.864-2.4.682.68a1.422,1.422,0,0,0,2.351-.553l.836-2.484a.791.791,0,1,0-1.5-.5l-.754,2.239-.678-.676a1.422,1.422,0,0,0-2.342.526l-.949,2.638A.791.791,0,0,0,431.832,15.7Z" transform="translate(-385.822 -8.913)"/>
          <path id="Path_1079875" data-name="Path 1079875" d="M53.038,46.374a80.265,80.265,0,0,0-4.871-9.291.791.791,0,0,0-1.368.794,79.194,79.194,0,0,1,4.764,9.069,9,9,0,0,1,.626,5.658,5.163,5.163,0,0,1-7.23,2.8,9,9,0,0,1-3.352-4.6c-1.63-4.2-4.06-17-4.621-20.02l4.495-1.743c.615.989,1.979,3.2,3.513,5.767A.791.791,0,1,0,46.352,34c-.576-.964-1.127-1.878-1.625-2.7A3.113,3.113,0,0,0,46.363,27.3a3.1,3.1,0,0,0,1.706-2.778,3.129,3.129,0,0,0-.941-2.231,3.115,3.115,0,0,0-.672-4.431,3.117,3.117,0,0,0-2.235-3.911,3.426,3.426,0,0,0-.055-.437,3.137,3.137,0,0,0-2.712-2.465,3.184,3.184,0,0,0-.5-.014.062.062,0,0,1-.049-.02.136.136,0,0,1-.041-.1v-.023a3.8,3.8,0,0,0-3.253-3.753,2.767,2.767,0,0,0-2.921-1.777c-.065.01-.13.016-.194.023a2.965,2.965,0,0,0-.615.111.732.732,0,0,1-.691-.14,3.064,3.064,0,0,0-3.61-.273.96.96,0,0,1-.764.13,3.086,3.086,0,0,0-1.847.052.913.913,0,0,1-.8-.136,3.064,3.064,0,0,0-3.55.068.867.867,0,0,1-.865.119,3.378,3.378,0,0,0-4.2,1.323A.938.938,0,0,1,16.8,7.1l-.112.006a3.828,3.828,0,0,0-3.541,3.631q0,.1,0,.191A.093.093,0,0,1,13.11,11a.118.118,0,0,1-.086.034,3.112,3.112,0,0,0-3.187,2.478,3.411,3.411,0,0,0-.055.438,3.119,3.119,0,0,0-2.235,3.912,3.115,3.115,0,0,0-.672,4.431,3.129,3.129,0,0,0-.941,2.231A3.094,3.094,0,0,0,7.642,27.3a3.1,3.1,0,0,0-.211,1.449A3.131,3.131,0,0,0,9.276,31.3c-.5.818-1.049,1.731-1.625,2.7a.791.791,0,1,0,1.358.811c1.534-2.571,2.9-4.779,3.513-5.767l4.495,1.743c-.561,3.019-2.99,15.816-4.621,20.021a9,9,0,0,1-3.352,4.6,4.64,4.64,0,0,1-4.249.233A4.64,4.64,0,0,1,1.815,52.6a9,9,0,0,1,.626-5.658A79.167,79.167,0,0,1,7.2,37.877a.791.791,0,0,0-1.368-.794A80.282,80.282,0,0,0,.965,46.374,10.378,10.378,0,0,0,.3,53.057a6.226,6.226,0,0,0,3.925,4.059,7.074,7.074,0,0,0,2.561.506l29.082,0a.791.791,0,0,0,0-1.582H10.846a11.622,11.622,0,0,0,3.026-4.663,63.883,63.883,0,0,0,2.068-7.466,17.784,17.784,0,0,0,4.3-1.113,6.84,6.84,0,0,0,1.929,1.439,10.682,10.682,0,0,0,9.379.05A6.923,6.923,0,0,0,33.556,42.8a18.053,18.053,0,0,0,4.514,1.141,63.663,63.663,0,0,0,2.061,7.435,11.622,11.622,0,0,0,3.026,4.663h-3.7a.791.791,0,1,0,0,1.582l7.765,0a7.078,7.078,0,0,0,2.561-.506A6.226,6.226,0,0,0,53.7,53.057,10.379,10.379,0,0,0,53.038,46.374ZM27,38.4c-3.48,0-6.722-2.149-8.721-5.762.237-1.248.386-2.069.412-2.209a.79.79,0,0,0-.452-.861V27.371a8.948,8.948,0,0,1,1.65-5.192l1.6-2.259A9.528,9.528,0,0,0,27,21.3a9.528,9.528,0,0,0,5.514-1.383l1.6,2.259a8.948,8.948,0,0,1,1.65,5.192v2.195a.79.79,0,0,0-.452.861c.025.14.175.96.412,2.209-2,3.61-5.249,5.762-8.721,5.762ZM21.06,17.471a1,1,0,0,1-.211.613l-.022.03-.132.187a.782.782,0,0,0-.058.071.8.8,0,0,0-.052.084L18.6,21.266a10.521,10.521,0,0,0-1.94,6.105V28.95l-2.742-1.063-.152-3.039A4.82,4.82,0,0,1,15.4,20.972l4.871-4.3a.476.476,0,0,1,.791.357v.441Zm19.179,7.377-.152,3.039L37.344,28.95V27.371a10.521,10.521,0,0,0-1.94-6.105l-1.986-2.81a.814.814,0,0,0-.051-.084.785.785,0,0,0-.058-.071l-.132-.187-.022-.03a1,1,0,0,1-.211-.613V17.03a.476.476,0,0,1,.791-.357l4.871,4.3a4.821,4.821,0,0,1,1.633,3.876Zm-28.71,2.8c-.01.016-.564.9-1.414,2.283a1.532,1.532,0,0,1-1-2.05A1.557,1.557,0,0,0,8.376,25.9a1.533,1.533,0,0,1-.383-2.489,1.54,1.54,0,0,0,.155-2.059,1.516,1.516,0,0,1-.331-.952,1.535,1.535,0,0,1,.665-1.263,1.537,1.537,0,0,0,.584-1.721,1.534,1.534,0,0,1,1.468-1.976.809.809,0,0,0,.8-.812c0-.051.006-.124.009-.209a4.623,4.623,0,0,1,.042-.587,1.541,1.541,0,0,1,1.331-1.211,1.608,1.608,0,0,1,.238-.007,1.706,1.706,0,0,0,1.255-.477,1.685,1.685,0,0,0,.513-1.222c0-.037,0-.074,0-.112A2.231,2.231,0,0,1,16.79,8.684l.065,0A2.516,2.516,0,0,0,18.891,7.47a1.8,1.8,0,0,1,2.234-.7,2.465,2.465,0,0,0,2.432-.3,1.482,1.482,0,0,1,1.715-.033,2.5,2.5,0,0,0,2.215.324,1.5,1.5,0,0,1,.893-.025,2.543,2.543,0,0,0,2.036-.308,1.482,1.482,0,0,1,1.744.132,2.324,2.324,0,0,0,2.2.446,1.779,1.779,0,0,1,.3-.046c.087-.009.175-.018.263-.031.738-.109,1.164.59,1.391,1.2a.791.791,0,0,0,.76.561,2.212,2.212,0,0,1,2.209,2.209V10.9a1.729,1.729,0,0,0,.531,1.256,1.633,1.633,0,0,0,1.224.455,1.607,1.607,0,0,1,.252.007,1.54,1.54,0,0,1,1.33,1.212,4.61,4.61,0,0,1,.042.586c0,.085.005.157.009.209a.809.809,0,0,0,.8.812,1.534,1.534,0,0,1,1.468,1.976,1.537,1.537,0,0,0,.584,1.721,1.535,1.535,0,0,1,.665,1.263,1.516,1.516,0,0,1-.331.952,1.541,1.541,0,0,0,.155,2.059,1.533,1.533,0,0,1-.383,2.489,1.558,1.558,0,0,0-.735,1.986,1.532,1.532,0,0,1-1,2.049c-.849-1.383-1.4-2.268-1.414-2.283a.79.79,0,0,0-.774-.363l.118-2.359a6.394,6.394,0,0,0-2.166-5.141l-4.871-4.3a2.058,2.058,0,0,0-3.42,1.543v.441a2.588,2.588,0,0,0,.267,1.136A7.958,7.958,0,0,1,27,19.72a7.958,7.958,0,0,1-4.627-1.112,2.588,2.588,0,0,0,.267-1.137V17.03a2.058,2.058,0,0,0-3.42-1.543l-4.871,4.3a6.394,6.394,0,0,0-2.166,5.141l.118,2.359A.791.791,0,0,0,11.529,27.649ZM17.843,34.9a12.854,12.854,0,0,0,3.722,3.515A9.9,9.9,0,0,1,19.934,41.2a14.253,14.253,0,0,1-3.618,1.048c.575-2.591,1.111-5.225,1.527-7.35Zm13.014,7.964a9.089,9.089,0,0,1-7.981-.043,5.252,5.252,0,0,1-1.4-1.017,11.473,11.473,0,0,0,1.5-2.658,10.106,10.106,0,0,0,7.86.073,11.467,11.467,0,0,0,1.477,2.592,5.323,5.323,0,0,1-1.46,1.053Zm3-1.661a9.9,9.9,0,0,1-1.594-2.687,12.811,12.811,0,0,0,3.9-3.617c.419,2.135.957,4.785,1.536,7.388A14.573,14.573,0,0,1,33.856,41.2Z" transform="translate(-0.002 -4.592)"/>
        </g>
      </g>
    </g>
  </g>
</svg>
