<svg xmlns="http://www.w3.org/2000/svg" xmlns:xlink="http://www.w3.org/1999/xlink" width="93.934" height="93.934" viewBox="0 0 93.934 93.934">
  <defs>
    <filter id="Path_978624" x="0" y="0" width="93.934" height="93.934" filterUnits="userSpaceOnUse">
      <feOffset dy="3" input="SourceAlpha"/>
      <feGaussianBlur stdDeviation="3" result="blur"/>
      <feFlood flood-opacity="0.161"/>
      <feComposite operator="in" in2="blur"/>
      <feComposite in="SourceGraphic"/>
    </filter>
  </defs>
  <g id="Group_1210706" data-name="Group 1210706" transform="translate(-189 -6153.875)">
    <g id="Group_1209928" data-name="Group 1209928">
      <g id="Group_1208659" data-name="Group 1208659" transform="translate(-420 3972.155)">
        <g id="Group_1208062" data-name="Group 1208062" transform="translate(412 751.719)">
          <g id="Group_1144123" data-name="Group 1144123" transform="translate(206 1436)">
            <g transform="matrix(1, 0, 0, 1, -9, -6)" filter="url(#Path_978624)">
              <g id="Path_978624-2" data-name="Path 978624" transform="translate(9 6)" fill="#f7fbfc">
                <path d="M 37.966796875 74.43359375 C 33.04315185546875 74.43359375 28.26757431030273 73.46962738037109 23.77274131774902 71.56847381591797 C 19.43047523498535 69.73184967041016 15.53040790557861 67.10224914550781 12.18087482452393 63.75271987915039 C 8.831341743469238 60.4031867980957 6.201741218566895 56.50312042236328 4.365118980407715 52.16086196899414 C 2.463963508605957 47.66601943969727 1.499996900558472 42.89044189453125 1.499996900558472 37.966796875 C 1.499996900558472 33.04315185546875 2.463963508605957 28.26757431030273 4.365118980407715 23.77274131774902 C 6.201741218566895 19.43047523498535 8.831341743469238 15.53040790557861 12.18087482452393 12.18087482452393 C 15.53040790557861 8.831341743469238 19.43047523498535 6.201741218566895 23.77274131774902 4.365118980407715 C 28.26757431030273 2.463963508605957 33.04315185546875 1.499996900558472 37.966796875 1.499996900558472 C 42.89044189453125 1.499996900558472 47.66601943969727 2.463963508605957 52.16086196899414 4.365118980407715 C 56.50312042236328 6.201741218566895 60.4031867980957 8.831341743469238 63.75271987915039 12.18087482452393 C 67.10224914550781 15.53040790557861 69.73184967041016 19.43047523498535 71.56847381591797 23.77274131774902 C 73.46962738037109 28.26757431030273 74.43359375 33.04315185546875 74.43359375 37.966796875 C 74.43359375 42.89044189453125 73.46962738037109 47.66601943969727 71.56847381591797 52.16086196899414 C 69.73184967041016 56.50313186645508 67.10224914550781 60.4031867980957 63.75271987915039 63.75271987915039 C 60.4031867980957 67.10224914550781 56.50313186645508 69.73184967041016 52.16086196899414 71.56847381591797 C 47.66601943969727 73.46962738037109 42.89044189453125 74.43359375 37.966796875 74.43359375 Z" stroke="none"/>
                <path d="M 37.966796875 3 C 33.2449836730957 3 28.66600799560547 3.924095153808594 24.35705947875977 5.746635437011719 C 20.19359588623047 7.507621765136719 16.45379638671875 10.02927398681641 13.24153518676758 13.24153518676758 C 10.02927398681641 16.45379638671875 7.507621765136719 20.19359588623047 5.746635437011719 24.35705947875977 C 3.924095153808594 28.66600799560547 3 33.2449836730957 3 37.966796875 C 3 42.6886100769043 3.924095153808594 47.26758575439453 5.746635437011719 51.57653427124023 C 7.507621765136719 55.73999786376953 10.02927398681641 59.47979736328125 13.24153518676758 62.69205856323242 C 16.45379638671875 65.90431976318359 20.19359588623047 68.42597198486328 24.35705947875977 70.18695831298828 C 28.66600799560547 72.00949859619141 33.2449836730957 72.93359375 37.966796875 72.93359375 C 42.6886100769043 72.93359375 47.26758575439453 72.00949859619141 51.57653427124023 70.18695831298828 C 55.73999786376953 68.42597198486328 59.47979736328125 65.90431976318359 62.69205856323242 62.69205856323242 C 65.90431976318359 59.47979736328125 68.42597198486328 55.73999786376953 70.18695831298828 51.57653427124023 C 72.00949859619141 47.26758575439453 72.93359375 42.6886100769043 72.93359375 37.966796875 C 72.93359375 33.2449836730957 72.00949859619141 28.66600799560547 70.18695831298828 24.35705947875977 C 68.42597198486328 20.19359588623047 65.90431976318359 16.45379638671875 62.69205856323242 13.24153518676758 C 59.47979736328125 10.02927398681641 55.73999786376953 7.507621765136719 51.57653427124023 5.746635437011719 C 47.26758575439453 3.924095153808594 42.6886100769043 3 37.966796875 3 M 37.966796875 0 C 58.93528366088867 0 75.93359375 16.99831008911133 75.93359375 37.966796875 C 75.93359375 58.93528366088867 58.93528366088867 75.93359375 37.966796875 75.93359375 C 16.99831008911133 75.93359375 0 58.93528366088867 0 37.966796875 C 0 16.99831008911133 16.99831008911133 0 37.966796875 0 Z" stroke="none" fill="#62797e"/>
              </g>
            </g>
          </g>
        </g>
      </g>
      <g id="heroina_1_" data-name="heroina (1)" transform="translate(272.907 6233.785) rotate(-180)">
        <path id="Path_1079382" data-name="Path 1079382" d="M6.975,3.487A3.487,3.487,0,0,0,0,3.487C0,5.413,3.049,9.661,3.487,9.661S6.975,5.413,6.975,3.487Z" transform="translate(51.832 38.343)" fill="#ffca28"/>
        <path id="Path_1079383" data-name="Path 1079383" d="M2.615,9.661c-.111,0-.39-.273-.744-.711C2.8,7.566,3.764,5.742,3.764,4.657A3.487,3.487,0,0,0,.277,1.169c-.093,0-.185,0-.277.012A3.487,3.487,0,0,1,6.1,3.487C6.1,5.413,3.054,9.661,2.615,9.661Z" transform="translate(52.705 38.343)" fill="#ffa000"/>
        <path id="Path_1079384" data-name="Path 1079384" d="M31.6,25.081,25.081,31.6a1.936,1.936,0,0,1-2.738,0L0,9.253,9.253,0,31.6,22.343A1.936,1.936,0,0,1,31.6,25.081Z" transform="translate(13.442 13.443)" fill="#90caf9"/>
        <path id="Path_1079385" data-name="Path 1079385" d="M24.682,25.081,18.166,31.6a1.936,1.936,0,0,1-2.738,0l-.969-.969,2.175-2.175a6.7,6.7,0,0,0,0-9.479L0,2.338,2.338,0,24.681,22.343A1.936,1.936,0,0,1,24.682,25.081Z" transform="translate(20.357 13.443)" fill="#42a5f5"/>
        <rect id="Rectangle_418187" data-name="Rectangle 418187" width="7.027" height="12.138" transform="translate(4.517 9.488) rotate(-45)" fill="#42a5f5"/>
        <path id="Path_1079386" data-name="Path 1079386" d="M12,.3.3,12a1.018,1.018,0,0,0,0,1.439l1.045,1.045a1.018,1.018,0,0,0,1.439,0l11.7-11.7a1.018,1.018,0,0,0,0-1.439L13.439.3A1.018,1.018,0,0,0,12,.3Z" transform="translate(9.435 9.436)" fill="#ef5350"/>
        <path id="Path_1079387" data-name="Path 1079387" d="M12,.3.3,12a1.018,1.018,0,0,0,0,1.439l1.045,1.045a1.018,1.018,0,0,0,1.439,0l11.7-11.7a1.018,1.018,0,0,0,0-1.439L13.439.3A1.018,1.018,0,0,0,12,.3Z" transform="translate(9.435 9.436)" fill="#90caf9"/>
        <path id="Path_1079388" data-name="Path 1079388" d="M6.815.466.466,6.815a1.593,1.593,0,0,0,0,2.252L.7,9.3a1.593,1.593,0,0,0,2.252,0L9.3,2.951A1.593,1.593,0,0,0,9.3.7L9.068.466A1.593,1.593,0,0,0,6.815.466Z" transform="translate(0.876 0.877)" fill="#90caf9"/>
        <path id="Path_1079389" data-name="Path 1079389" d="M5.764,3.755,3.755,5.764a.635.635,0,0,1-.9,0L0,2.908,2.908,0,5.764,2.857A.635.635,0,0,1,5.764,3.755Z" transform="translate(40.326 40.328)" fill="#42a5f5"/>
        <path id="Path_1079390" data-name="Path 1079390" d="M1.828,0,0,1.828,12.883,14.711a.347.347,0,0,0,.491,0h0a2.238,2.238,0,0,0,0-3.166Z" transform="translate(44.172 44.174)" fill="#e0e0e0"/>
        <path id="Path_1079391" data-name="Path 1079391" d="M0,9.253,9.253,0l11.37,11.37c-7.757.094-8.378,2.713-15.46,3.046Z" transform="translate(13.442 13.443)" fill="#ffca28"/>
        <path id="Path_1079392" data-name="Path 1079392" d="M0,2.338,2.338,0l11.37,11.37a24.642,24.642,0,0,0-4.288.389Z" transform="translate(20.357 13.443)" fill="#ffa000"/>
        <g id="Group_1209927" data-name="Group 1209927" transform="translate(0 0)">
          <path id="Path_1079393" data-name="Path 1079393" d="M7.015,8.639c-1.741,2.775-2.356,2.775-2.651,2.775s-.91,0-2.651-2.775A9.719,9.719,0,0,1,0,4.364a4.364,4.364,0,1,1,8.729,0A9.718,9.718,0,0,1,7.015,8.639ZM4.364,1.754a2.613,2.613,0,0,0-2.61,2.611c0,1.211,1.724,3.923,2.611,5,.886-1.074,2.611-3.786,2.611-5A2.614,2.614,0,0,0,4.364,1.754Z" transform="translate(50.955 37.466)"/>
          <path id="Path_1079394" data-name="Path 1079394" d="M58.166,55.1a3.119,3.119,0,0,1,0,4.406,1.223,1.223,0,0,1-1.731,0L52.24,55.31a.877.877,0,0,1,1.24-1.24l3.744,3.744a1.364,1.364,0,0,0-.3-1.475L46,45.414,45.412,46l5.175,5.175a.877.877,0,1,1-1.24,1.24L44.031,47.1a1.5,1.5,0,0,1-1.468-.389l-2.236-2.236L39.143,45.66a2.811,2.811,0,0,1-3.978,0L13.442,23.937l-.6.6a1.9,1.9,0,0,1-2.679,0L9.113,23.5a1.894,1.894,0,0,1,0-2.679l2.746-2.746-2.31-2.31a.877.877,0,1,1,1.24-1.24l2.31,2.31,1.245-1.245L7,8.243,5.756,9.488,7.9,11.627a.877.877,0,0,1-1.24,1.24L4.516,10.728l-.07.07a2.473,2.473,0,0,1-3.493,0l-.232-.232a2.473,2.473,0,0,1,0-3.493L7.071.724a2.468,2.468,0,0,1,3.493,0L10.8.956a2.468,2.468,0,0,1,0,3.493l-.07.07,7.343,7.343,2.746-2.746a1.894,1.894,0,0,1,2.68,0l1.045,1.045a1.9,1.9,0,0,1,0,2.679l-.6.6,4.385,4.385a.877.877,0,0,1-1.24,1.24l-4.385-4.385L14.682,22.7l4.267,4.267c5.921-.361,7.1-2.466,13.088-2.937l-2.063-2.063a.877.877,0,1,1,1.24-1.24L45.658,35.166a2.811,2.811,0,0,1,0,3.978l-1.184,1.184,2.236,2.236a1.5,1.5,0,0,1,.389,1.468ZM9.555,2.2l-.232-.232a.715.715,0,0,0-1.012,0L1.962,8.312a.717.717,0,0,0,0,1.012l.232.232a.717.717,0,0,0,1.012,0L9.555,3.208A.715.715,0,0,0,9.555,2.2Zm-.07,3.562L8.241,7l7.343,7.343L16.828,13.1ZM23.3,11.4l-1.045-1.045a.141.141,0,0,0-.2,0h0l-11.7,11.7a.141.141,0,0,0,0,.2L11.4,23.3a.141.141,0,0,0,.2,0L23.3,11.6A.141.141,0,0,0,23.3,11.4ZM44.418,36.407l-2.441-2.441L39.7,36.239A.877.877,0,0,1,38.464,35l2.274-2.274-2.17-2.17L36.294,32.83a.877.877,0,0,1-1.24-1.24l2.274-2.274-2.169-2.17L32.884,29.42a.877.877,0,0,1-1.24-1.24l2.274-2.274-.209-.209c-6.567.152-7.629,2.213-13.145,2.881L36.4,44.42a1.059,1.059,0,0,0,1.5,0L44.418,37.9A1.059,1.059,0,0,0,44.418,36.407Zm-1.183,5.162-1.668,1.668L43.632,45.3,45.3,43.634Z" transform="translate(0 0)"/>
        </g>
      </g>
    </g>
  </g>
</svg>
