<svg xmlns="http://www.w3.org/2000/svg" xmlns:xlink="http://www.w3.org/1999/xlink" width="113" height="113" viewBox="0 0 113 113">
  <defs>
    <filter id="Path_982547" x="0" y="0" width="113" height="113" filterUnits="userSpaceOnUse">
      <feOffset dy="3" input="SourceAlpha"/>
      <feGaussianBlur stdDeviation="3" result="blur"/>
      <feFlood flood-opacity="0.161"/>
      <feComposite operator="in" in2="blur"/>
      <feComposite in="SourceGraphic"/>
    </filter>
  </defs>
  <g id="Group_1223642" data-name="Group 1223642" transform="translate(-325 -4233.477)">
    <g id="Group_1222689" data-name="Group 1222689">
      <g id="Group_1209992" data-name="Group 1209992" transform="translate(0 -3295.331)">
        <g id="Group_1208705" data-name="Group 1208705" transform="translate(-1.454 3213.429)">
          <g id="Group_1148633" data-name="Group 1148633" transform="translate(71.408 600.047)">
            <g id="Group_1148525" data-name="Group 1148525" transform="translate(264.046 3721.333)">
              <g transform="matrix(1, 0, 0, 1, -9, -6)" filter="url(#Path_982547)">
                <g id="Path_982547-2" data-name="Path 982547" transform="translate(9 6)" fill="#ffe6ef">
                  <path d="M 47.5 93.5 C 41.28937149047852 93.5 35.26533508300781 92.28397369384766 29.59518623352051 89.88570404052734 C 24.11771965026855 87.56893157958984 19.19813346862793 84.25196075439453 14.97309303283691 80.02691650390625 C 10.74804019927979 75.80186462402344 7.431066513061523 70.88229370117188 5.114293098449707 65.40481567382812 C 2.716026782989502 59.73468017578125 1.5 53.71062850952148 1.5 47.5 C 1.5 41.28937149047852 2.716026782989502 35.26533508300781 5.114293098449707 29.59518623352051 C 7.431066513061523 24.11771965026855 10.74804019927979 19.19813346862793 14.97309303283691 14.97309303283691 C 19.19813346862793 10.74804019927979 24.11771965026855 7.431066513061523 29.59518623352051 5.114293098449707 C 35.26533508300781 2.716026782989502 41.28937149047852 1.5 47.5 1.5 C 53.71062850952148 1.5 59.73468017578125 2.716026782989502 65.40481567382812 5.114293098449707 C 70.88229370117188 7.431066513061523 75.80186462402344 10.74804019927979 80.02691650390625 14.97309303283691 C 84.25196075439453 19.19813346862793 87.56893157958984 24.11771965026855 89.88570404052734 29.59518623352051 C 92.28397369384766 35.26533508300781 93.5 41.28937149047852 93.5 47.5 C 93.5 53.71062850952148 92.28397369384766 59.73468017578125 89.88570404052734 65.40481567382812 C 87.56893157958984 70.88229370117188 84.25196075439453 75.80186462402344 80.02691650390625 80.02691650390625 C 75.80186462402344 84.25196075439453 70.88229370117188 87.56893157958984 65.40481567382812 89.88570404052734 C 59.73468017578125 92.28397369384766 53.71062850952148 93.5 47.5 93.5 Z" stroke="none"/>
                  <path d="M 47.5 3 C 41.49121475219727 3 35.66376876831055 4.176155090332031 30.17950439453125 6.495796203613281 C 24.88084411621094 8.736953735351562 20.12152099609375 11.94598388671875 16.03375244140625 16.03375244140625 C 11.94598388671875 20.12152099609375 8.736953735351562 24.88084411621094 6.495796203613281 30.17950439453125 C 4.176155090332031 35.66376876831055 3 41.49121475219727 3 47.5 C 3 53.50878524780273 4.176155090332031 59.33623123168945 6.495796203613281 64.82049560546875 C 8.736953735351562 70.11915588378906 11.94598388671875 74.87847900390625 16.03375244140625 78.96624755859375 C 20.12152099609375 83.05401611328125 24.88084411621094 86.26304626464844 30.17950439453125 88.50419616699219 C 35.66376876831055 90.82384490966797 41.49121475219727 92 47.5 92 C 53.50878524780273 92 59.33623123168945 90.82384490966797 64.82049560546875 88.50419616699219 C 70.11915588378906 86.26304626464844 74.87847900390625 83.05401611328125 78.96624755859375 78.96624755859375 C 83.05401611328125 74.87847900390625 86.26304626464844 70.11915588378906 88.50419616699219 64.82049560546875 C 90.82384490966797 59.33623123168945 92 53.50878524780273 92 47.5 C 92 41.49121475219727 90.82384490966797 35.66376876831055 88.50419616699219 30.17950439453125 C 86.26304626464844 24.88084411621094 83.05401611328125 20.12152099609375 78.96624755859375 16.03375244140625 C 74.87847900390625 11.94598388671875 70.11915588378906 8.736953735351562 64.82049560546875 6.495796203613281 C 59.33623123168945 4.176155090332031 53.50878524780273 3 47.5 3 M 47.5 0 C 73.7335205078125 0 95 21.2664794921875 95 47.5 C 95 73.7335205078125 73.7335205078125 95 47.5 95 C 21.2664794921875 95 0 73.7335205078125 0 47.5 C 0 21.2664794921875 21.2664794921875 0 47.5 0 Z" stroke="none" fill="#ffadcc"/>
                </g>
              </g>
            </g>
          </g>
        </g>
      </g>
      <g id="informe-medico" transform="translate(349.988 4248.839)">
        <g id="Group_1222687" data-name="Group 1222687" transform="translate(1.203 6.667)">
          <path id="Path_1174041" data-name="Path 1174041" d="M64.33,63.709A6.967,6.967,0,0,1,71.3,70.676v55.7a6.967,6.967,0,0,1-6.967,6.967H14.466A6.967,6.967,0,0,1,7.5,126.373v-55.7a6.967,6.967,0,0,1,6.967-6.967H64.33Z" transform="translate(-7.499 -55.571)" fill="#a6e7f0"/>
          <path id="Path_1174042" data-name="Path 1174042" d="M104.3,63.71v2.6a6.586,6.586,0,0,0,6.578,6.578h19.593a6.586,6.586,0,0,0,6.578-6.578v-2.6Z" transform="translate(-88.773 -55.572)" fill="#6bd9e7"/>
          <path id="Path_1174043" data-name="Path 1174043" d="M280.391,159.09c-.149.063-.3.128-.445.2l-2.018.942-2.018-.942A13.617,13.617,0,0,0,261.828,182.4l13.182,10.181a4.76,4.76,0,0,0,5.381.306v-33.8Z" transform="translate(-216.594 -134.747)" fill="#6bd9e7"/>
          <path id="Path_1174044" data-name="Path 1174044" d="M89.519,93.71a2.158,2.158,0,0,1,2.155,2.155v55.7a2.158,2.158,0,0,1-2.155,2.155H39.655a2.158,2.158,0,0,1-2.155-2.155v-55.7a2.158,2.158,0,0,1,2.155-2.155Z" transform="translate(-32.689 -80.76)" fill="#f9f7f8"/>
          <path id="Path_1174045" data-name="Path 1174045" d="M275.581,192.959V159.138A13.617,13.617,0,0,0,261.829,182.4l13.182,10.181A4.723,4.723,0,0,0,275.581,192.959Z" transform="translate(-216.594 -134.747)" fill="#efedef"/>
          <path id="Path_1174046" data-name="Path 1174046" d="M106.69,93.71a6.589,6.589,0,0,0,6.194,4.366h19.593a6.589,6.589,0,0,0,6.194-4.366Z" transform="translate(-90.782 -80.76)" fill="#efedef"/>
          <path id="Path_1174047" data-name="Path 1174047" d="M147.261,16.542h-1.924a.4.4,0,0,1-.4-.4V14.952a1.987,1.987,0,0,0-1.987-1.987H131.982A1.987,1.987,0,0,0,130,14.952v1.187a.4.4,0,0,1-.4.4h-1.924a3.371,3.371,0,0,0-3.371,3.371V23.7a3.371,3.371,0,0,0,3.371,3.371h19.593a3.371,3.371,0,0,0,3.371-3.371v-3.79A3.37,3.37,0,0,0,147.261,16.542Z" transform="translate(-105.565 -12.965)" fill="#f9f7f8"/>
          <path id="Path_1174048" data-name="Path 1174048" d="M311.266,182.795a10.41,10.41,0,0,0-13.162-3.81l-2.739,1.278a1.5,1.5,0,0,1-1.271,0l-2.739-1.278a10.409,10.409,0,0,0-14.191,12.975l.981.434.67,1.6-.406.377a10.392,10.392,0,0,0,2.18,2.292l13.182,10.181a1.566,1.566,0,0,0,1.915,0l13.182-10.181a10.382,10.382,0,0,0,2.555-2.868l-.179-.448.554-1.414.683-.544A10.393,10.393,0,0,0,311.266,182.795Z" transform="translate(-233.395 -151.539)" fill="#f37c7c"/>
        </g>
        <g id="Group_1222688" data-name="Group 1222688" transform="translate(0 5.464)">
          <path id="Path_1174049" data-name="Path 1174049" d="M65,108.011a1.2,1.2,0,0,0-1.2,1.2v10.862a5.77,5.77,0,0,1-5.764,5.764H8.169a5.77,5.77,0,0,1-5.764-5.764v-55.7a5.77,5.77,0,0,1,5.764-5.764h6.954a1.2,1.2,0,0,0,0-2.406H8.169A8.179,8.179,0,0,0,0,64.379v55.7a8.179,8.179,0,0,0,8.169,8.169H58.033a8.179,8.179,0,0,0,8.169-8.169V109.214A1.2,1.2,0,0,0,65,108.011Z" transform="translate(0 -48.072)"/>
          <path id="Path_1174050" data-name="Path 1174050" d="M312.2,58.616h6.954a5.77,5.77,0,0,1,5.764,5.764V71.89a1.2,1.2,0,1,0,2.406,0V64.379a8.179,8.179,0,0,0-8.169-8.169H312.2a1.2,1.2,0,1,0,0,2.406Z" transform="translate(-261.123 -48.072)"/>
          <path id="Path_1174051" data-name="Path 1174051" d="M31.2,177.61a1.2,1.2,0,0,0-1.2,1.2v43.194a3.362,3.362,0,0,0,3.358,3.358H83.222a3.362,3.362,0,0,0,3.358-3.358V211.192a1.2,1.2,0,0,0-2.406,0v10.815a.953.953,0,0,1-.952.952H33.358a.953.953,0,0,1-.952-.952V178.813A1.2,1.2,0,0,0,31.2,177.61Z" transform="translate(-25.189 -150.002)"/>
          <path id="Path_1174052" data-name="Path 1174052" d="M40.618,86.21h-7.26A3.362,3.362,0,0,0,30,89.568v7.377a1.2,1.2,0,1,0,2.406,0V89.568a.953.953,0,0,1,.952-.952h7.26a1.2,1.2,0,0,0,0-2.406Z" transform="translate(-25.189 -73.26)"/>
          <path id="Path_1174053" data-name="Path 1174053" d="M310.293,88.616h7.26a.953.953,0,0,1,.952.952v7.555a1.2,1.2,0,0,0,2.406,0V89.568a3.362,3.362,0,0,0-3.358-3.358h-7.26a1.2,1.2,0,0,0,0,2.406Z" transform="translate(-259.519 -73.26)"/>
          <path id="Path_1174054" data-name="Path 1174054" d="M121.37,21.978h5.592a1.2,1.2,0,1,0,0-2.406H121.37A2.17,2.17,0,0,1,119.2,17.4v-3.79a2.17,2.17,0,0,1,2.168-2.168h1.924A1.608,1.608,0,0,0,124.9,9.841V8.654a.785.785,0,0,1,.784-.784h10.964a.785.785,0,0,1,.784.784V9.841a1.608,1.608,0,0,0,1.606,1.606h1.924a2.17,2.17,0,0,1,2.168,2.168V17.4a2.17,2.17,0,0,1-2.168,2.168h-8.875a1.2,1.2,0,0,0,0,2.406h8.875a4.578,4.578,0,0,0,4.573-4.573v-3.79a4.579,4.579,0,0,0-4.573-4.574h-1.125V8.654a3.194,3.194,0,0,0-3.19-3.19H125.685a3.194,3.194,0,0,0-3.19,3.19v.387H121.37a4.579,4.579,0,0,0-4.573,4.574V17.4A4.579,4.579,0,0,0,121.37,21.978Z" transform="translate(-98.066 -5.464)"/>
          <path id="Path_1174055" data-name="Path 1174055" d="M185.15,54.811a1.2,1.2,0,0,0-1.2-1.2h-7.628a1.2,1.2,0,1,0,0,2.406h7.628A1.2,1.2,0,0,0,185.15,54.811Z" transform="translate(-147.032 -45.887)"/>
          <path id="Path_1174056" data-name="Path 1174056" d="M305.973,175.895a11.652,11.652,0,0,0-14.683-4.25l-2.739,1.278a.3.3,0,0,1-.254,0l-2.739-1.278a11.613,11.613,0,0,0-12.009,19.714l13.182,10.181a2.77,2.77,0,0,0,3.385,0l5.028-3.883a1.2,1.2,0,1,0-1.47-1.9l-5.027,3.883a.363.363,0,0,1-.444,0L275.02,189.455a9.232,9.232,0,0,1-1.4-1.34h5.045a1.2,1.2,0,0,0,1.159-.882l1.354-4.9,3.765,10.442a1.2,1.2,0,0,0,1.126.795h.006a1.2,1.2,0,0,0,1.128-.784l3.574-9.633,1.08,3.533a1.2,1.2,0,0,0,1.15.851h10.671a9.218,9.218,0,0,1-1.85,1.916l-4.064,3.139a1.2,1.2,0,0,0,1.47,1.9l4.064-3.139a11.613,11.613,0,0,0,2.674-15.464ZM293.9,185.133l-1.86-6.084a1.2,1.2,0,0,0-2.278-.067l-3.667,9.886-3.933-10.906a1.2,1.2,0,0,0-2.291.088l-2.118,7.66h-5.6a9.207,9.207,0,0,1,12.392-11.885l2.739,1.278a2.7,2.7,0,0,0,2.288,0l2.739-1.278a9.2,9.2,0,0,1,12.609,11.308H293.9Z" transform="translate(-225.887 -144.085)"/>
          <path id="Path_1174057" data-name="Path 1174057" d="M77.667,154.263h5.652a2.491,2.491,0,0,0,2.489-2.489v-6.232a2.491,2.491,0,0,0-2.489-2.489H77.667a2.491,2.491,0,0,0-2.488,2.489v6.232A2.491,2.491,0,0,0,77.667,154.263Zm-.083-8.721a.083.083,0,0,1,.083-.083h5.652a.083.083,0,0,1,.083.083v6.232a.083.083,0,0,1-.083.083H77.667a.083.083,0,0,1-.083-.083Z" transform="translate(-63.122 -120.988)"/>
          <path id="Path_1174058" data-name="Path 1174058" d="M75.179,250.5a2.491,2.491,0,0,0,2.488,2.489h5.652a2.491,2.491,0,0,0,2.489-2.489v-6.232a2.491,2.491,0,0,0-2.489-2.488H77.667a2.491,2.491,0,0,0-2.488,2.488Zm2.406-6.232a.083.083,0,0,1,.083-.083h5.652a.083.083,0,0,1,.083.083V250.5a.083.083,0,0,1-.083.083H77.667a.083.083,0,0,1-.083-.083Z" transform="translate(-63.122 -203.88)"/>
          <path id="Path_1174059" data-name="Path 1174059" d="M75.179,349.224a2.491,2.491,0,0,0,2.488,2.489h5.652a2.491,2.491,0,0,0,2.489-2.489v-6.232a2.491,2.491,0,0,0-2.489-2.488H77.667a2.491,2.491,0,0,0-2.488,2.488Zm2.406-6.232a.083.083,0,0,1,.083-.083h5.652a.083.083,0,0,1,.083.083v6.232a.083.083,0,0,1-.083.083H77.667a.083.083,0,0,1-.083-.083Z" transform="translate(-63.122 -286.771)"/>
          <path id="Path_1174060" data-name="Path 1174060" d="M157.419,149.165h13.993a1.2,1.2,0,0,0,0-2.406H157.419a1.2,1.2,0,1,0,0,2.406Z" transform="translate(-131.163 -124.099)"/>
          <path id="Path_1174061" data-name="Path 1174061" d="M157.419,197.175h13.993a1.2,1.2,0,0,0,0-2.406H157.419a1.2,1.2,0,1,0,0,2.406Z" transform="translate(-131.163 -164.409)"/>
          <path id="Path_1174062" data-name="Path 1174062" d="M157.419,247.626h13.993a1.2,1.2,0,1,0,0-2.406H157.419a1.2,1.2,0,1,0,0,2.406Z" transform="translate(-131.163 -206.769)"/>
          <path id="Path_1174063" data-name="Path 1174063" d="M173.336,293.23H157.419a1.2,1.2,0,1,0,0,2.406h15.917a1.2,1.2,0,0,0,0-2.406Z" transform="translate(-131.163 -247.079)"/>
          <path id="Path_1174064" data-name="Path 1174064" d="M179.563,343.682H157.419a1.2,1.2,0,1,0,0,2.406h22.144a1.2,1.2,0,1,0,0-2.406Z" transform="translate(-131.163 -289.44)"/>
          <path id="Path_1174065" data-name="Path 1174065" d="M184.634,391.692H157.419a1.2,1.2,0,1,0,0,2.406h27.216a1.2,1.2,0,1,0,0-2.406Z" transform="translate(-131.163 -329.75)"/>
        </g>
      </g>
    </g>
  </g>
</svg>
