<svg xmlns="http://www.w3.org/2000/svg" xmlns:xlink="http://www.w3.org/1999/xlink" width="108" height="108" viewBox="0 0 108 108">
  <defs>
    <filter id="Path_978624" x="0" y="0" width="108" height="108" filterUnits="userSpaceOnUse">
      <feOffset dy="3" input="SourceAlpha"/>
      <feGaussianBlur stdDeviation="3" result="blur"/>
      <feFlood flood-opacity="0.161"/>
      <feComposite operator="in" in2="blur"/>
      <feComposite in="SourceGraphic"/>
    </filter>
    <filter id="Path_1076716" x="0" y="0" width="108" height="108" filterUnits="userSpaceOnUse">
      <feOffset dy="3" input="SourceAlpha"/>
      <feGaussianBlur stdDeviation="3" result="blur-2"/>
      <feFlood flood-opacity="0.161"/>
      <feComposite operator="in" in2="blur-2"/>
      <feComposite in="SourceGraphic"/>
    </filter>
  </defs>
  <g id="Group_1223674" data-name="Group 1223674" transform="translate(-192 -3165)">
    <g id="Group_1223578" data-name="Group 1223578">
      <g id="Group_1222527" data-name="Group 1222527" transform="translate(201 3171)">
        <g id="Group_1210700" data-name="Group 1210700" transform="translate(0)">
          <g id="Group_1208503" data-name="Group 1208503">
            <g id="Group_1200660" data-name="Group 1200660">
              <g id="Group_1181203" data-name="Group 1181203">
                <g id="Group_1172348" data-name="Group 1172348">
                  <g id="Group_1171897" data-name="Group 1171897">
                    <g id="Group_1171052" data-name="Group 1171052">
                      <g id="Group_1164581" data-name="Group 1164581">
                        <g id="Group_1144123" data-name="Group 1144123">
                          <g transform="matrix(1, 0, 0, 1, -9, -6)" filter="url(#Path_978624)">
                            <g id="Path_978624-2" data-name="Path 978624" transform="translate(9 6)" fill="#f7fbfc">
                              <path d="M 45 88.5 C 39.12687683105469 88.5 33.43022537231445 87.35007476806641 28.06830024719238 85.08217620849609 C 22.88852500915527 82.89131164550781 18.23629951477051 79.75458526611328 14.2408504486084 75.75914764404297 C 10.24541282653809 71.76370239257812 7.108687400817871 67.11147308349609 4.917825222015381 61.93170166015625 C 2.649924993515015 56.56977462768555 1.5 50.87312316894531 1.5 45 C 1.5 39.12687683105469 2.649924993515015 33.43022537231445 4.917825222015381 28.06830024719238 C 7.108687400817871 22.88852500915527 10.24541282653809 18.23629951477051 14.2408504486084 14.2408504486084 C 18.23629951477051 10.24541282653809 22.88852500915527 7.108687400817871 28.06830024719238 4.917825222015381 C 33.43022537231445 2.649924993515015 39.12687683105469 1.5 45 1.5 C 50.87312316894531 1.5 56.56977462768555 2.649924993515015 61.93170166015625 4.917825222015381 C 67.11147308349609 7.108687400817871 71.76370239257812 10.24541282653809 75.75914764404297 14.2408504486084 C 79.75458526611328 18.23629951477051 82.89131164550781 22.88852500915527 85.08217620849609 28.06830024719238 C 87.35007476806641 33.43022537231445 88.5 39.12687683105469 88.5 45 C 88.5 50.87312316894531 87.35007476806641 56.56977462768555 85.08217620849609 61.93170166015625 C 82.89131164550781 67.11147308349609 79.75458526611328 71.76370239257812 75.75914764404297 75.75914764404297 C 71.76370239257812 79.75458526611328 67.11147308349609 82.89131164550781 61.93170166015625 85.08217620849609 C 56.56977462768555 87.35007476806641 50.87312316894531 88.5 45 88.5 Z" stroke="none"/>
                              <path d="M 45 3 C 39.32871246337891 3 33.82865524291992 4.110054016113281 28.65262985229492 6.299339294433594 C 23.65165710449219 8.414573669433594 19.15968322753906 11.44334411621094 15.301513671875 15.301513671875 C 11.44334411621094 19.15968322753906 8.414573669433594 23.65165710449219 6.299339294433594 28.65262985229492 C 4.110054016113281 33.82865524291992 3 39.32871246337891 3 45 C 3 50.67128753662109 4.110054016113281 56.17134475708008 6.299339294433594 61.34737396240234 C 8.414573669433594 66.34834289550781 11.44334411621094 70.84031677246094 15.301513671875 74.698486328125 C 19.15968322753906 78.55665588378906 23.65165710449219 81.58542633056641 28.65262985229492 83.70066070556641 C 33.82865524291992 85.88994598388672 39.32871246337891 87 45 87 C 50.67128753662109 87 56.17134475708008 85.88994598388672 61.34737396240234 83.70066070556641 C 66.34834289550781 81.58542633056641 70.84031677246094 78.55665588378906 74.698486328125 74.698486328125 C 78.55665588378906 70.84031677246094 81.58542633056641 66.34834289550781 83.70066070556641 61.34737396240234 C 85.88994598388672 56.17134475708008 87 50.67128753662109 87 45 C 87 39.32871246337891 85.88994598388672 33.82865524291992 83.70066070556641 28.65262985229492 C 81.58542633056641 23.65165710449219 78.55665588378906 19.15968322753906 74.698486328125 15.301513671875 C 70.84031677246094 11.44334411621094 66.34834289550781 8.414573669433594 61.34737396240234 6.299339294433594 C 56.17134475708008 4.110054016113281 50.67128753662109 3 45 3 M 45 0 C 69.85281372070312 0 90 20.14718627929688 90 45 C 90 69.85281372070312 69.85281372070312 90 45 90 C 20.14718627929688 90 0 69.85281372070312 0 45 C 0 20.14718627929688 20.14718627929688 0 45 0 Z" stroke="none" fill="#62797e"/>
                            </g>
                          </g>
                          <g transform="matrix(1, 0, 0, 1, -9, -6)" filter="url(#Path_1076716)">
                            <g id="Path_1076716-2" data-name="Path 1076716" transform="translate(9 6)" fill="#f7fbfc">
                              <path d="M 45 88.5 C 39.12687683105469 88.5 33.43022537231445 87.35007476806641 28.06830024719238 85.08217620849609 C 22.88852500915527 82.89131164550781 18.23629951477051 79.75458526611328 14.2408504486084 75.75914764404297 C 10.24541282653809 71.76370239257812 7.108687400817871 67.11147308349609 4.917825222015381 61.93170166015625 C 2.649924993515015 56.56977462768555 1.5 50.87312316894531 1.5 45 C 1.5 39.12687683105469 2.649924993515015 33.43022537231445 4.917825222015381 28.06830024719238 C 7.108687400817871 22.88852500915527 10.24541282653809 18.23629951477051 14.2408504486084 14.2408504486084 C 18.23629951477051 10.24541282653809 22.88852500915527 7.108687400817871 28.06830024719238 4.917825222015381 C 33.43022537231445 2.649924993515015 39.12687683105469 1.5 45 1.5 C 50.87312316894531 1.5 56.56977462768555 2.649924993515015 61.93170166015625 4.917825222015381 C 67.11147308349609 7.108687400817871 71.76370239257812 10.24541282653809 75.75914764404297 14.2408504486084 C 79.75458526611328 18.23629951477051 82.89131164550781 22.88852500915527 85.08217620849609 28.06830024719238 C 87.35007476806641 33.43022537231445 88.5 39.12687683105469 88.5 45 C 88.5 50.87312316894531 87.35007476806641 56.56977462768555 85.08217620849609 61.93170166015625 C 82.89131164550781 67.11147308349609 79.75458526611328 71.76370239257812 75.75914764404297 75.75914764404297 C 71.76370239257812 79.75458526611328 67.11147308349609 82.89131164550781 61.93170166015625 85.08217620849609 C 56.56977462768555 87.35007476806641 50.87312316894531 88.5 45 88.5 Z" stroke="none"/>
                              <path d="M 45 3 C 39.32871246337891 3 33.82865524291992 4.110054016113281 28.65262985229492 6.299339294433594 C 23.65165710449219 8.414573669433594 19.15968322753906 11.44334411621094 15.301513671875 15.301513671875 C 11.44334411621094 19.15968322753906 8.414573669433594 23.65165710449219 6.299339294433594 28.65262985229492 C 4.110054016113281 33.82865524291992 3 39.32871246337891 3 45 C 3 50.67128753662109 4.110054016113281 56.17134475708008 6.299339294433594 61.34737396240234 C 8.414573669433594 66.34834289550781 11.44334411621094 70.84031677246094 15.301513671875 74.698486328125 C 19.15968322753906 78.55665588378906 23.65165710449219 81.58542633056641 28.65262985229492 83.70066070556641 C 33.82865524291992 85.88994598388672 39.32871246337891 87 45 87 C 50.67128753662109 87 56.17134475708008 85.88994598388672 61.34737396240234 83.70066070556641 C 66.34834289550781 81.58542633056641 70.84031677246094 78.55665588378906 74.698486328125 74.698486328125 C 78.55665588378906 70.84031677246094 81.58542633056641 66.34834289550781 83.70066070556641 61.34737396240234 C 85.88994598388672 56.17134475708008 87 50.67128753662109 87 45 C 87 39.32871246337891 85.88994598388672 33.82865524291992 83.70066070556641 28.65262985229492 C 81.58542633056641 23.65165710449219 78.55665588378906 19.15968322753906 74.698486328125 15.301513671875 C 70.84031677246094 11.44334411621094 66.34834289550781 8.414573669433594 61.34737396240234 6.299339294433594 C 56.17134475708008 4.110054016113281 50.67128753662109 3 45 3 M 45 0 C 69.85281372070312 0 90 20.14718627929688 90 45 C 90 69.85281372070312 69.85281372070312 90 45 90 C 20.14718627929688 90 0 69.85281372070312 0 45 C 0 20.14718627929688 20.14718627929688 0 45 0 Z" stroke="none" fill="#62797e"/>
                            </g>
                          </g>
                        </g>
                      </g>
                    </g>
                  </g>
                </g>
              </g>
            </g>
          </g>
        </g>
      </g>
      <g id="_48_Healthcare" data-name="48 Healthcare" transform="translate(201.001 3171.02)">
        <g id="_48_Healthcare-2" data-name="48 Healthcare" transform="translate(-0.001 -0.02)">
          <g id="Healthcare_flat" data-name="Healthcare flat" transform="translate(1.977 1.941)">
            <path id="Path_1176062" data-name="Path 1176062" d="M25.795,382.523,11.719,377.09a2.266,2.266,0,0,0-.469,1.406v.093a2.354,2.354,0,0,0,1.055,1.96l.895.6a32.194,32.194,0,0,0,11.3,4.746,35.842,35.842,0,0,1,14.807,6.984.659.659,0,0,1,.248.515v5.361a.659.659,0,0,0,.654.645h2.143c-.283-2.359,1.724-11.25,1.724-11.25Z" transform="translate(-11.249 -312.745)" fill="#ffbeaa"/>
            <path id="Path_1176063" data-name="Path 1176063" d="M52.209,391.658v-8A15.162,15.162,0,0,0,37.05,368.5H34.922a2.461,2.461,0,0,0-2.484,2.3,2.419,2.419,0,0,0,2.413,2.538H39.49a.671.671,0,0,1,.664.527.661.661,0,0,1-.645.8h-5.5a30.381,30.381,0,0,1-16.73-5.017l-.211-.139a2.329,2.329,0,0,0-2.419-.121,2.3,2.3,0,0,0-.733.622,1.682,1.682,0,0,0,.64.794l1.186.793a32.193,32.193,0,0,0,11.3,4.746A42.4,42.4,0,0,1,42.1,382.589a3.41,3.41,0,0,1,1.406,2.38c.265,2.225.77,5.048,1.046,7.347h7A.659.659,0,0,0,52.209,391.658Z" transform="translate(-13.451 -305.664)" fill="#ffcdbe"/>
            <path id="Path_1176064" data-name="Path 1176064" d="M332.281,382.523l14.076-5.433a2.266,2.266,0,0,1,.469,1.406v.093a2.354,2.354,0,0,1-1.055,1.96l-.895.6a32.194,32.194,0,0,1-11.3,4.746,35.842,35.842,0,0,0-14.807,6.984.659.659,0,0,0-.248.515v5.361a.659.659,0,0,1-.654.645h-2.143c.283-2.359-1.724-11.25-1.724-11.25Z" transform="translate(-260.784 -312.745)" fill="#ffbeaa"/>
            <path id="Path_1176065" data-name="Path 1176065" d="M280.25,391.658v-8A15.162,15.162,0,0,1,295.409,368.5h2.129a2.461,2.461,0,0,1,2.484,2.3,2.419,2.419,0,0,1-2.413,2.538h-4.639a.672.672,0,0,0-.664.527.661.661,0,0,0,.645.8h5.5a30.381,30.381,0,0,0,16.739-5.017l.211-.139a2.329,2.329,0,0,1,2.419-.121,2.3,2.3,0,0,1,.733.622,1.682,1.682,0,0,1-.64.794l-1.186.793a32.193,32.193,0,0,1-11.3,4.746,42.465,42.465,0,0,0-15.055,6.252,3.41,3.41,0,0,0-1.406,2.38c-.265,2.225-.77,5.048-1.046,7.347h-7A.659.659,0,0,1,280.25,391.658Z" transform="translate(-232.967 -305.664)" fill="#ffcdbe"/>
            <path id="Path_1176066" data-name="Path 1176066" d="M217.735,21.05a17.05,17.05,0,0,0-7.9-4.35L167.63,62.542l14.626,14.315a1.308,1.308,0,0,0,1.807,0l33.671-32.43a16.21,16.21,0,0,0,0-23.376Z" transform="translate(-140.142 -15.702)" fill="#e54c7f"/>
            <path id="Path_1176067" data-name="Path 1176067" d="M163.031,14.4a17.613,17.613,0,0,0-4.141-.49,17.263,17.263,0,0,0-9.62,2.886L136.531,37.873l-25.691,12.6,9.982,9.768,6.936,2.088a12.489,12.489,0,0,0,12.236-2.913L162.75,37.495a16.206,16.206,0,0,0,.281-23.1Z" transform="translate(-93.334 -13.402)" fill="#f36e90"/>
            <path id="Path_1176068" data-name="Path 1176068" d="M85.168,23.836a26.306,26.306,0,0,0-1.735-9.418,17.051,17.051,0,0,0-2.408,1.944L70.54,26.313,60.023,15.858a17.415,17.415,0,0,0-24.081,0,16.21,16.21,0,0,0,0,23.378L45,48.1a28.432,28.432,0,0,0,12.3,2.783C72.7,50.879,85.168,38.77,85.168,23.836Z" transform="translate(-27.498 -11.025)" fill="#f58ba6"/>
          </g>
          <g id="Healthcare_line" data-name="Healthcare line" transform="translate(0)">
            <g id="Healthcare">
              <path id="Path_1176069" data-name="Path 1176069" d="M64.566,65.372a1.31,1.31,0,0,1-.935-.39L28.884,29.969A17.569,17.569,0,0,1,53.735,5.129L64.587,16.234,75.408,5.665a17.57,17.57,0,1,1,24.84,24.855L65.494,64.989A1.306,1.306,0,0,1,64.566,65.372ZM41.318,2.62A14.925,14.925,0,0,0,30.757,28.108L64.566,62.189l33.8-33.538A14.929,14.929,0,1,0,77.258,7.54l-11.774,11.5a1.318,1.318,0,0,1-1.863-.023L51.861,6.983A14.865,14.865,0,0,0,41.318,2.62Z" transform="translate(-19.567 0.02)"/>
              <g id="Cardiogram" transform="translate(21.62 17.845)">
                <path id="Path_1176070" data-name="Path 1176070" d="M137.853,129.975a1.273,1.273,0,0,1-.279-.03,1.318,1.318,0,0,1-1.039-1.288V108.4l-3.654,7.309a1.32,1.32,0,0,1-1.179.729h-7.383a1.318,1.318,0,1,1,0-2.637h6.567l5.788-11.575a1.318,1.318,0,0,1,2.5.589v19.754l3.633-7.994a1.32,1.32,0,0,1,1.2-.773h4.635l5.786-11.575a1.318,1.318,0,0,1,2.5.589v18.356l2.364-6.5a1.318,1.318,0,0,1,1.239-.868h5.8a1.318,1.318,0,1,1,0,2.637h-4.878l-4.605,12.666a1.318,1.318,0,0,1-2.558-.448V108.4l-3.654,7.309a1.32,1.32,0,0,1-1.179.729h-4.6l-5.8,12.761a1.32,1.32,0,0,1-1.2.773Z" transform="translate(-123 -101.5)"/>
              </g>
              <path id="Path_1176071" data-name="Path 1176071" d="M41.394,384.245H29.617a1.318,1.318,0,0,1-1.318-1.318v-2.109a1.318,1.318,0,0,1,2.637,0v.791h9.14v-7.47a14.517,14.517,0,0,0-14.5-14.5h-2.2a1.758,1.758,0,1,0,0,3.515h4.658a1.318,1.318,0,0,1,0,2.637h-5.5a31.044,31.044,0,0,1-17.091-5.113l-.211-.139a1.686,1.686,0,0,0-1.744-.091,1.614,1.614,0,0,0-.858,1.44v.093a1.7,1.7,0,0,0,.756,1.406l.895.6a31.51,31.51,0,0,0,11.074,4.644,35.964,35.964,0,0,1,13.174,5.7,1.318,1.318,0,1,1-1.5,2.166,33.347,33.347,0,0,0-12.213-5.284,34.174,34.174,0,0,1-11.991-5.031l-.895-.592A4.322,4.322,0,0,1,0,361.978v-.093a4.219,4.219,0,0,1,2.241-3.76,4.28,4.28,0,0,1,4.438.209l.211.139a28.4,28.4,0,0,0,12.378,4.493A4.394,4.394,0,0,1,23.377,357h2.2a17.157,17.157,0,0,1,17.138,17.138v8.789A1.318,1.318,0,0,1,41.394,384.245Z" transform="translate(0.001 -294.245)"/>
              <path id="Path_1176072" data-name="Path 1176072" d="M282.1,384.245H270.318A1.318,1.318,0,0,1,269,382.927v-8.789A17.157,17.157,0,0,1,286.138,357h2.2a4.394,4.394,0,0,1,4.1,5.966,28.4,28.4,0,0,0,12.378-4.493l.209-.139a4.284,4.284,0,0,1,4.445-.209,4.219,4.219,0,0,1,2.241,3.76v.093a4.322,4.322,0,0,1-1.934,3.605l-.895.6a34.174,34.174,0,0,1-11.991,5.031,33.346,33.346,0,0,0-12.213,5.284,1.318,1.318,0,1,1-1.5-2.166,35.964,35.964,0,0,1,13.174-5.7,31.511,31.511,0,0,0,11.074-4.644l.895-.6a1.7,1.7,0,0,0,.756-1.406v-.093a1.614,1.614,0,0,0-.856-1.44,1.682,1.682,0,0,0-1.744.093l-.211.137a31.04,31.04,0,0,1-17.092,5.108h-5.5a1.318,1.318,0,1,1,0-2.637h4.658a1.758,1.758,0,1,0,0-3.515h-2.2a14.517,14.517,0,0,0-14.5,14.5v7.47h9.14v-.791a1.318,1.318,0,0,1,2.637,0v2.109A1.318,1.318,0,0,1,282.1,384.245Z" transform="translate(-221.717 -294.245)"/>
              <circle id="Ellipse_14559" data-name="Ellipse 14559" cx="1.318" cy="1.318" r="1.318" transform="translate(68.904 30.015)"/>
            </g>
          </g>
        </g>
      </g>
    </g>
  </g>
</svg>
