<svg xmlns="http://www.w3.org/2000/svg" xmlns:xlink="http://www.w3.org/1999/xlink" width="93.934" height="93.934" viewBox="0 0 93.934 93.934">
  <defs>
    <filter id="Path_982547" x="0" y="0" width="93.934" height="93.934" filterUnits="userSpaceOnUse">
      <feOffset dy="3" input="SourceAlpha"/>
      <feGaussianBlur stdDeviation="3" result="blur"/>
      <feFlood flood-opacity="0.161"/>
      <feComposite operator="in" in2="blur"/>
      <feComposite in="SourceGraphic"/>
    </filter>
  </defs>
  <g id="Group_1223653" data-name="Group 1223653" transform="translate(-192.066 -7528.533)">
    <g id="Group_1222803" data-name="Group 1222803">
      <g id="Group_1222515" data-name="Group 1222515" transform="translate(-1 4354)">
        <g id="Group_1216301" data-name="Group 1216301" transform="translate(-418 1979.836)">
          <g id="Group_1215985" data-name="Group 1215985" transform="translate(-0.229 -2679.151)">
            <g id="Group_1214663" data-name="Group 1214663" transform="translate(0 -1254.151)">
              <g id="Group_1214433" data-name="Group 1214433" transform="translate(-0.771 -2738.674)">
                <g id="Group_1183190" data-name="Group 1183190" transform="translate(1 1016.674)">
                  <g id="Group_1179611" data-name="Group 1179611" transform="translate(428 4723.467)">
                    <g id="Group_1175227" data-name="Group 1175227" transform="translate(-5.967 140.533)">
                      <g id="Group_1167337" data-name="Group 1167337" transform="translate(198.033 1992)">
                        <g id="Group_1166720" data-name="Group 1166720">
                          <g id="Group_1164305" data-name="Group 1164305">
                            <g id="Group_1163948" data-name="Group 1163948">
                              <g id="Group_1158168" data-name="Group 1158168">
                                <g id="Group_1152576" data-name="Group 1152576">
                                  <g id="Group_1148633" data-name="Group 1148633">
                                    <g id="Group_1148525" data-name="Group 1148525">
                                      <g transform="matrix(1, 0, 0, 1, -9, -6)" filter="url(#Path_982547)">
                                        <g id="Path_982547-2" data-name="Path 982547" transform="translate(9 6)" fill="#f7fbfc">
                                          <path d="M 37.966796875 74.43359375 C 33.04315185546875 74.43359375 28.26757431030273 73.46962738037109 23.77274131774902 71.56847381591797 C 19.43047523498535 69.73184967041016 15.53040790557861 67.10224914550781 12.18087482452393 63.75271987915039 C 8.831341743469238 60.4031867980957 6.201741218566895 56.50312042236328 4.365118980407715 52.16086196899414 C 2.463963508605957 47.66601943969727 1.499996900558472 42.89044189453125 1.499996900558472 37.966796875 C 1.499996900558472 33.04315185546875 2.463963508605957 28.26757431030273 4.365118980407715 23.77274131774902 C 6.201741218566895 19.43047523498535 8.831341743469238 15.53040790557861 12.18087482452393 12.18087482452393 C 15.53040790557861 8.831341743469238 19.43047523498535 6.201741218566895 23.77274131774902 4.365118980407715 C 28.26757431030273 2.463963508605957 33.04315185546875 1.499996900558472 37.966796875 1.499996900558472 C 42.89044189453125 1.499996900558472 47.66601943969727 2.463963508605957 52.16086196899414 4.365118980407715 C 56.50312042236328 6.201741218566895 60.4031867980957 8.831341743469238 63.75271987915039 12.18087482452393 C 67.10224914550781 15.53040790557861 69.73184967041016 19.43047523498535 71.56847381591797 23.77274131774902 C 73.46962738037109 28.26757431030273 74.43359375 33.04315185546875 74.43359375 37.966796875 C 74.43359375 42.89044189453125 73.46962738037109 47.66601943969727 71.56847381591797 52.16086196899414 C 69.73184967041016 56.50313186645508 67.10224914550781 60.4031867980957 63.75271987915039 63.75271987915039 C 60.4031867980957 67.10224914550781 56.50313186645508 69.73184967041016 52.16086196899414 71.56847381591797 C 47.66601943969727 73.46962738037109 42.89044189453125 74.43359375 37.966796875 74.43359375 Z" stroke="none"/>
                                          <path d="M 37.966796875 3 C 33.2449836730957 3 28.66600799560547 3.924095153808594 24.35705947875977 5.746635437011719 C 20.19359588623047 7.507637023925781 16.45379638671875 10.02928161621094 13.24153518676758 13.24153518676758 C 10.02927398681641 16.45379638671875 7.507621765136719 20.19359588623047 5.746635437011719 24.35705947875977 C 3.924095153808594 28.66600799560547 3 33.2449836730957 3 37.966796875 C 3 42.6886100769043 3.924095153808594 47.26758575439453 5.746635437011719 51.57653427124023 C 7.507621765136719 55.73999786376953 10.02927398681641 59.47979736328125 13.24153518676758 62.69205856323242 C 16.45379638671875 65.90431976318359 20.19359588623047 68.42597198486328 24.35705947875977 70.18695831298828 C 28.66600799560547 72.00949859619141 33.2449836730957 72.93359375 37.966796875 72.93359375 C 42.6886100769043 72.93359375 47.26758575439453 72.00949859619141 51.57653427124023 70.18695831298828 C 55.73999786376953 68.42597198486328 59.47979736328125 65.90431976318359 62.69205856323242 62.69205856323242 C 65.90431976318359 59.47979736328125 68.42597198486328 55.73999786376953 70.18695831298828 51.57653427124023 C 72.00949859619141 47.26758575439453 72.93359375 42.6886100769043 72.93359375 37.966796875 C 72.93359375 33.2449836730957 72.00949859619141 28.66600799560547 70.18695831298828 24.35705947875977 C 68.42597198486328 20.19359588623047 65.90431976318359 16.45379638671875 62.69205856323242 13.24153518676758 C 59.47979736328125 10.02928161621094 55.73999786376953 7.507637023925781 51.57653427124023 5.746635437011719 C 47.26758575439453 3.924095153808594 42.6886100769043 3 37.966796875 3 M 37.966796875 0 C 58.93528366088867 0 75.93359375 16.99832153320312 75.93359375 37.966796875 C 75.93359375 58.93528366088867 58.93528366088867 75.93359375 37.966796875 75.93359375 C 16.99831008911133 75.93359375 0 58.93528366088867 0 37.966796875 C 0 16.99832153320312 16.99831008911133 0 37.966796875 0 Z" stroke="none" fill="#62797e"/>
                                        </g>
                                      </g>
                                    </g>
                                  </g>
                                </g>
                              </g>
                            </g>
                          </g>
                        </g>
                      </g>
                    </g>
                  </g>
                </g>
              </g>
            </g>
          </g>
        </g>
      </g>
      <g id="psychology_1_" data-name="psychology (1)" transform="translate(202.116 7523.646)">
        <g id="Group_1222802" data-name="Group 1222802" transform="translate(8.929 22.44)">
          <g id="Group_1222799" data-name="Group 1222799">
            <path id="Path_1174265" data-name="Path 1174265" d="M54.843,68.184a2.373,2.373,0,0,1,2.368,2.368v43.58a2.373,2.373,0,0,1-2.368,2.368H18.368A2.373,2.373,0,0,1,16,114.133V70.553a2.373,2.373,0,0,1,2.368-2.368H54.843Z" transform="translate(-16 -63.673)" fill="#837683" fill-rule="evenodd"/>
            <path id="Path_1174266" data-name="Path 1174266" d="M322.861,116.5h3.057a2.373,2.373,0,0,0,2.368-2.368V70.553a2.373,2.373,0,0,0-2.368-2.368h-3.057Z" transform="translate(-287.075 -63.674)" fill="#685e68" fill-rule="evenodd"/>
            <path id="Path_1174267" data-name="Path 1174267" d="M77.81,96.437H45.318A1.067,1.067,0,0,0,44.253,97.5v39.6a1.067,1.067,0,0,0,1.065,1.065H77.81a1.067,1.067,0,0,0,1.065-1.065V97.5A1.067,1.067,0,0,0,77.81,96.437Z" transform="translate(-40.958 -88.632)" fill="#eceff1" fill-rule="evenodd"/>
            <path id="Path_1174268" data-name="Path 1174268" d="M322.861,138.164h1.065c.033,0,.067,0,.1,0a1.067,1.067,0,0,0,.966-1.06V97.5a1.067,1.067,0,0,0-.966-1.06c-.033,0-.066,0-.1,0h-1.065Z" transform="translate(-287.075 -88.632)" fill="#d1d1d6" fill-rule="evenodd"/>
            <path id="Path_1174269" data-name="Path 1174269" d="M93.38,349.111h3.994a1.322,1.322,0,0,1,1.318,1.318v3.994a1.322,1.322,0,0,1-1.318,1.318H93.38a1.322,1.322,0,0,1-1.318-1.318v-3.994A1.322,1.322,0,0,1,93.38,349.111Z" transform="translate(-83.192 -311.839)" fill="#fe646f" fill-rule="evenodd"/>
            <path id="Path_1174270" data-name="Path 1174270" d="M127.611,349.111h1.166a1.322,1.322,0,0,1,1.318,1.318v3.994a1.322,1.322,0,0,1-1.318,1.318h-1.166a1.322,1.322,0,0,0,1.318-1.318v-3.994A1.322,1.322,0,0,0,127.611,349.111Z" transform="translate(-114.595 -311.839)" fill="#fd4755" fill-rule="evenodd"/>
            <path id="Path_1174271" data-name="Path 1174271" d="M93.38,253.052h3.994a1.322,1.322,0,0,1,1.318,1.318v3.994a1.322,1.322,0,0,1-1.318,1.318H93.38a1.322,1.322,0,0,1-1.318-1.318V254.37A1.322,1.322,0,0,1,93.38,253.052Z" transform="translate(-83.192 -226.982)" fill="#ffe177" fill-rule="evenodd"/>
            <path id="Path_1174272" data-name="Path 1174272" d="M127.611,253.052h1.166a1.322,1.322,0,0,1,1.318,1.318v3.994a1.322,1.322,0,0,1-1.318,1.318h-1.166a1.322,1.322,0,0,0,1.318-1.318V254.37A1.322,1.322,0,0,0,127.611,253.052Z" transform="translate(-114.595 -226.982)" fill="#ffd064" fill-rule="evenodd"/>
            <path id="Path_1174273" data-name="Path 1174273" d="M93.38,156.993h3.994a1.322,1.322,0,0,1,1.318,1.318v3.994a1.322,1.322,0,0,1-1.318,1.318H93.38a1.322,1.322,0,0,1-1.318-1.318v-3.994A1.322,1.322,0,0,1,93.38,156.993Z" transform="translate(-83.192 -142.125)" fill="#8ac9fe" fill-rule="evenodd"/>
            <path id="Path_1174274" data-name="Path 1174274" d="M127.611,156.993h1.166a1.322,1.322,0,0,1,1.318,1.318v3.994a1.322,1.322,0,0,1-1.318,1.318h-1.166a1.322,1.322,0,0,0,1.318-1.318v-3.994A1.322,1.322,0,0,0,127.611,156.993Z" transform="translate(-114.595 -142.125)" fill="#60b7ff" fill-rule="evenodd"/>
            <path id="Path_1174275" data-name="Path 1174275" d="M115.565,32.586h3.376a1.046,1.046,0,0,0,.978-.644,4.028,4.028,0,0,1,7.4,0,1.046,1.046,0,0,0,.978.644h3.376a1.067,1.067,0,0,1,1.065,1.065v4.028a1.067,1.067,0,0,1-1.065,1.065H115.565a1.067,1.067,0,0,1-1.065-1.065V33.651A1.067,1.067,0,0,1,115.565,32.586Z" transform="translate(-103.013 -29.507)" fill="#e3a76f" fill-rule="evenodd"/>
            <path id="Path_1174276" data-name="Path 1174276" d="M130.606,61H114.5a1.067,1.067,0,0,0,1.065,1.065h16.107A1.067,1.067,0,0,0,132.736,61V56.973a1.067,1.067,0,0,0-1.065-1.065v4.028A1.067,1.067,0,0,1,130.606,61Z" transform="translate(-103.012 -52.829)" fill="#c48958" fill-rule="evenodd"/>
          </g>
          <g id="Group_1222800" data-name="Group 1222800" transform="translate(26.445 10.803)">
            <path id="Path_1174277" data-name="Path 1174277" d="M244.505,157.874h15.263q.916-5.13,6.188-3.934,3.516.611,3.442-.983c.012-1.649.295-2.249.72-2.567.941-.726-.108-1.659-1.185-2.244.906-.072,2.07-.8,1.82-1.384-.4-1.373-.212-1.925.408-2.246q1.809-.885.738-2.254a12.8,12.8,0,0,1-1.972-2.747,4.551,4.551,0,0,1-.513-2.666,13.359,13.359,0,1,0-26.649-1.348,13.3,13.3,0,0,0,3.164,8.632,4.554,4.554,0,0,1,1.1,2.551c.36,3.284-.52,7.123-2.519,11.191Z" transform="translate(-242.763 -122.143)" fill="#ffddce" fill-rule="evenodd"/>
            <path id="Path_1174278" data-name="Path 1174278" d="M244.5,157.874h1.272c2-4.068,2.879-7.907,2.519-11.19a4.554,4.554,0,0,0-1.1-2.551,13.358,13.358,0,0,1,9.558-21.975q-.316-.015-.636-.015a13.358,13.358,0,0,0-10.194,21.99,4.554,4.554,0,0,1,1.1,2.551C247.383,149.967,246.5,153.807,244.5,157.874Z" transform="translate(-242.761 -122.143)" fill="#f1cbbc" fill-rule="evenodd"/>
          </g>
          <g id="Group_1222801" data-name="Group 1222801" transform="translate(33.261 17.954)">
            <path id="Path_1174279" data-name="Path 1174279" d="M312.275,193.71v-3.458a3.294,3.294,0,0,0,1.706.457c1.534,0,2.777-.969,2.777-2.165s-1.243-2.165-2.777-2.165a3.294,3.294,0,0,0-1.706.457v-2.559a.818.818,0,0,0-.817-.817h-9.434a.818.818,0,0,0-.817.817v9.434a.818.818,0,0,0,.817.817h2.559a3.294,3.294,0,0,1-.457-1.706c0-1.534.969-2.777,2.165-2.777s2.165,1.243,2.165,2.777a3.294,3.294,0,0,1-.457,1.706h3.458A.818.818,0,0,0,312.275,193.71Z" transform="translate(-301.208 -183.46)" fill="#6cf5c2" fill-rule="evenodd"/>
            <path id="Path_1174280" data-name="Path 1174280" d="M316.657,189.129a1.727,1.727,0,0,0,.1-.583c0-1.2-1.243-2.165-2.777-2.165a3.294,3.294,0,0,0-1.706.457V188a3.294,3.294,0,0,1,1.706-.457A2.762,2.762,0,0,1,316.657,189.129Zm-4.382-3.684v-1.166a.818.818,0,0,0-.817-.817h-9.434a.818.818,0,0,0-.817.817v1.166a.818.818,0,0,1,.817-.817h9.434A.818.818,0,0,1,312.275,185.445Z" transform="translate(-301.208 -183.462)" fill="#00e499" fill-rule="evenodd"/>
          </g>
        </g>
        <path id="Path_1174281" data-name="Path 1174281" d="M54.962,46.71a2.387,2.387,0,0,1-1.221-.321.933.933,0,0,0-1.418.8v3.342H50.305a4.561,4.561,0,0,0,.067-.775c0-2.045-1.39-3.71-3.1-3.71s-3.1,1.664-3.1,3.71a4.456,4.456,0,0,0,.066.775h-1.12v-9.2h9.2V43.77a.933.933,0,0,0,1.418.8,2.376,2.376,0,0,1,1.221-.321c1,0,1.845.564,1.845,1.231s-.844,1.233-1.845,1.233Zm0-4.33a4.445,4.445,0,0,0-.773.066V40.394a.932.932,0,0,0-.933-.933H42.188a.933.933,0,0,0-.932.933V51.462a.933.933,0,0,0,.932.933h3.376a.933.933,0,0,0,.8-1.418,2.387,2.387,0,0,1-.321-1.222c0-1,.564-1.844,1.233-1.844s1.232.844,1.232,1.844a2.378,2.378,0,0,1-.322,1.222.933.933,0,0,0,.8,1.418h4.274a.932.932,0,0,0,.933-.933V48.51a4.457,4.457,0,0,0,.773.066c2.046,0,3.711-1.39,3.711-3.1s-1.664-3.1-3.711-3.1Zm9.01,11.938c0-.019-.015-.138-.179-.355a13.738,13.738,0,0,1-2.085-2.918,5.507,5.507,0,0,1-.614-3.189A12.426,12.426,0,1,0,39.248,54.63a5.509,5.509,0,0,1,1.313,3.053,20.753,20.753,0,0,1-1.985,10.359H51.628a5.524,5.524,0,0,1,2.184-3.357,6.243,6.243,0,0,1,4.936-.559c1.731.3,2.234.076,2.327.019a.2.2,0,0,0,0-.044c0-.016,0-.032,0-.05.013-1.716.309-2.669,1.018-3.246a3.489,3.489,0,0,0-1-.737.933.933,0,0,1,.372-1.749,1.971,1.971,0,0,0,.944-.38c-.229-.823-.555-2.38.929-3.149l.02-.01c.547-.267.612-.458.612-.459ZM49.206,72.9v-2.99H47.777v2.064a.933.933,0,0,1-.933.933H12.223a.933.933,0,0,1-.933-.933V30.246a.933.933,0,0,1,.933-.933h7.259V27.884H11.3a1.437,1.437,0,0,0-1.435,1.434V72.9A1.437,1.437,0,0,0,11.3,74.334H47.771A1.436,1.436,0,0,0,49.206,72.9ZM21.348,26.452H25.62a.933.933,0,0,0,.907-.714,3.094,3.094,0,0,1,6.014,0,.933.933,0,0,0,.907.714h4.271v4.292H21.348Zm18.237,5.225a.932.932,0,0,1-.933.933H20.415a.933.933,0,0,1-.933-.933v-.5H13.155v39.86H45.911V69.909h-8.8a.934.934,0,0,1-.838-1.345q.557-1.131.991-2.236H30.14a.933.933,0,0,1,0-1.866h7.784a20.3,20.3,0,0,0,.669-2.87H30.14a.933.933,0,0,1,0-1.866H38.77a12.838,12.838,0,0,0-.064-1.84,3.6,3.6,0,0,0-.882-2.049q-.294-.347-.564-.711H30.14a.933.933,0,0,1,0-1.866h5.946a14.325,14.325,0,0,1-1.134-2.87H30.14a.933.933,0,0,1,0-1.866h4.43a14.305,14.305,0,0,1,.122-4.6H30.14a.933.933,0,0,1,0-1.866H35.18a14.245,14.245,0,0,1,1.337-2.87H30.14a.933.933,0,0,1,0-1.866h7.733a14.305,14.305,0,0,1,8.039-4.731V31.179H39.585v.5Zm8.187-3.793a1.436,1.436,0,0,1,1.434,1.434v3c-.158-.005-.316-.009-.475-.009-.321,0-.638.012-.954.033v-2.1a.933.933,0,0,0-.933-.933h-7.26V27.884Zm17.47,24.9c-.016-.02-.032-.038-.049-.057a11.911,11.911,0,0,1-1.831-2.545,3.6,3.6,0,0,1-.412-2.142c.048-.477.072-.962.072-1.442A14.314,14.314,0,0,0,51.071,32.5V29.319a3.3,3.3,0,0,0-3.3-3.3H39.585v-.5a.933.933,0,0,0-.933-.933H34.124a4.962,4.962,0,0,0-9.182,0H20.415a.933.933,0,0,0-.933.933v.5H11.3a3.3,3.3,0,0,0-3.3,3.3V72.9a3.305,3.305,0,0,0,3.3,3.3H47.771a3.3,3.3,0,0,0,3.3-3.3v-2.99h1.306a.933.933,0,0,0,.919-.77,4.184,4.184,0,0,1,1.545-2.9,4.522,4.522,0,0,1,3.517-.289l.047.009c1.959.339,3.2.2,3.921-.429a1.825,1.825,0,0,0,.614-1.489c.008-1,.131-1.645.345-1.8l.01-.008a1.687,1.687,0,0,0,.724-1.5,2.1,2.1,0,0,0-.59-1.228,2.417,2.417,0,0,0,.672-.7,1.422,1.422,0,0,0,.143-1.248c-.245-.854-.142-1.054-.141-1.054a.254.254,0,0,1,.086-.059,2.678,2.678,0,0,0,1.6-1.713,2.279,2.279,0,0,0-.55-1.949ZM30.6,25.741a1.065,1.065,0,1,0-1.065,1.064A1.065,1.065,0,0,0,30.6,25.741ZM23.5,65.024a.39.39,0,0,1-.385.385H19.116a.39.39,0,0,1-.385-.385V61.03a.39.39,0,0,1,.385-.385H23.11a.39.39,0,0,1,.385.385Zm-.385-6.245a2.254,2.254,0,0,1,2.251,2.251v3.994a2.254,2.254,0,0,1-2.251,2.251H19.116a2.253,2.253,0,0,1-2.251-2.251V61.03a2.253,2.253,0,0,1,2.251-2.251Zm.385-4.957a.39.39,0,0,1-.385.385H19.116a.39.39,0,0,1-.385-.385V49.828a.39.39,0,0,1,.385-.385H23.11a.39.39,0,0,1,.385.385Zm-.385-6.245a2.253,2.253,0,0,1,2.251,2.251v3.994a2.254,2.254,0,0,1-2.251,2.251H19.116a2.253,2.253,0,0,1-2.251-2.251V49.828a2.253,2.253,0,0,1,2.251-2.251Zm.385-8.952v3.994A.39.39,0,0,1,23.11,43H19.116a.39.39,0,0,1-.385-.385V38.625a.39.39,0,0,1,.385-.385H23.11A.39.39,0,0,1,23.5,38.625Zm-6.63,0a2.253,2.253,0,0,1,2.251-2.251h3.994a2.254,2.254,0,0,1,2.251,2.251v3.994a2.254,2.254,0,0,1-2.251,2.251H19.116a2.253,2.253,0,0,1-2.251-2.251Z" transform="translate(0 0)" fill-rule="evenodd"/>
      </g>
    </g>
  </g>
</svg>
