<svg xmlns="http://www.w3.org/2000/svg" xmlns:xlink="http://www.w3.org/1999/xlink" width="103" height="103" viewBox="0 0 103 103">
  <defs>
    <filter id="Path_978624" x="0" y="0" width="103" height="103" filterUnits="userSpaceOnUse">
      <feOffset dy="3" input="SourceAlpha"/>
      <feGaussianBlur stdDeviation="3" result="blur"/>
      <feFlood flood-opacity="0.161"/>
      <feComposite operator="in" in2="blur"/>
      <feComposite in="SourceGraphic"/>
    </filter>
  </defs>
  <g id="Group_1223678" data-name="Group 1223678" transform="translate(-615 -863)">
    <g id="Group_1222529" data-name="Group 1222529" transform="translate(0 -1810)">
      <g id="Group_1220990" data-name="Group 1220990" transform="translate(420 1970)">
        <g id="Group_1208708" data-name="Group 1208708" transform="translate(29.5 -355)">
          <g id="Group_1178144" data-name="Group 1178144" transform="translate(-19.5 -2004)">
            <g id="Group_1177896" data-name="Group 1177896" transform="translate(14 196)">
              <g id="Group_1176881" data-name="Group 1176881">
                <g id="Group_1175148" data-name="Group 1175148" transform="translate(0 1580)">
                  <g id="Group_1173798" data-name="Group 1173798" transform="translate(-3 -3520)">
                    <g id="Group_1171925" data-name="Group 1171925" transform="translate(-22 -2246)">
                      <g id="Group_1164524" data-name="Group 1164524" transform="translate(205 7058)">
                        <g id="Group_1144123" data-name="Group 1144123">
                          <g transform="matrix(1, 0, 0, 1, -9, -6)" filter="url(#Path_978624)">
                            <g id="Path_978624-2" data-name="Path 978624" transform="translate(9 6)" fill="#fff6f9">
                              <path d="M 42.5 83.5 C 36.96437835693359 83.5 31.59512901306152 82.41617584228516 26.54141235351562 80.27863311767578 C 21.65934181213379 78.21369171142578 17.27447128295898 75.25723266601562 13.50862312316895 71.49137878417969 C 9.742764472961426 67.72553253173828 6.786305904388428 63.34066009521484 4.721364498138428 58.45858764648438 C 2.583823442459106 53.40486907958984 1.5 48.03562164306641 1.5 42.5 C 1.5 36.96437835693359 2.583823442459106 31.59512901306152 4.721364498138428 26.54141235351562 C 6.786305904388428 21.65934181213379 9.742764472961426 17.27447128295898 13.50862312316895 13.50862312316895 C 17.27447128295898 9.742764472961426 21.65934181213379 6.786305904388428 26.54141235351562 4.721364498138428 C 31.59512901306152 2.583823442459106 36.96437835693359 1.5 42.5 1.5 C 48.03562164306641 1.5 53.40486907958984 2.583823442459106 58.45858764648438 4.721364498138428 C 63.34066009521484 6.786305904388428 67.72553253173828 9.742764472961426 71.49137878417969 13.50862312316895 C 75.25723266601562 17.27447128295898 78.21369171142578 21.65934181213379 80.27863311767578 26.54141235351562 C 82.41617584228516 31.59512901306152 83.5 36.96437835693359 83.5 42.5 C 83.5 48.03562164306641 82.41617584228516 53.40486907958984 80.27863311767578 58.45858764648438 C 78.21369171142578 63.34066009521484 75.25723266601562 67.72553253173828 71.49137878417969 71.49137878417969 C 67.72553253173828 75.25723266601562 63.34066009521484 78.21369171142578 58.45858764648438 80.27863311767578 C 53.40486907958984 82.41617584228516 48.03562164306641 83.5 42.5 83.5 Z" stroke="none"/>
                              <path d="M 42.5 3 C 37.16621398925781 3 31.99356079101562 4.043960571289062 27.125732421875 6.102882385253906 C 22.42246627807617 8.092185974121094 18.19785308837891 10.94070434570312 14.56928253173828 14.56928253173828 C 10.94070434570312 18.19785308837891 8.092185974121094 22.42246627807617 6.102882385253906 27.125732421875 C 4.043960571289062 31.99356079101562 3 37.16621398925781 3 42.5 C 3 47.83378601074219 4.043960571289062 53.00643920898438 6.102882385253906 57.87425231933594 C 8.092185974121094 62.57753372192383 10.94070434570312 66.80213165283203 14.56928253173828 70.43071746826172 C 18.19786834716797 74.05929565429688 22.42246627807617 76.90781402587891 27.125732421875 78.89711761474609 C 31.99356079101562 80.95603942871094 37.16621398925781 82 42.5 82 C 47.83378601074219 82 53.00642395019531 80.95603942871094 57.87425231933594 78.89711761474609 C 62.57753372192383 76.90781402587891 66.80213165283203 74.05929565429688 70.43071746826172 70.43071746826172 C 74.05929565429688 66.80213165283203 76.90781402587891 62.57753372192383 78.89711761474609 57.87425231933594 C 80.95603942871094 53.00642395019531 82 47.83378601074219 82 42.5 C 82 37.16621398925781 80.95603942871094 31.99356079101562 78.89711761474609 27.125732421875 C 76.90781402587891 22.42246627807617 74.05929565429688 18.19786834716797 70.43071746826172 14.56928253173828 C 66.80213165283203 10.94070434570312 62.57753372192383 8.092185974121094 57.87425231933594 6.102882385253906 C 53.00643920898438 4.043960571289062 47.83378601074219 3 42.5 3 M 42.5 0 C 65.97209167480469 0 85 19.02789306640625 85 42.5 C 85 65.97209167480469 65.97209167480469 85 42.5 85 C 19.02789306640625 85 0 65.97209167480469 0 42.5 C 0 19.02789306640625 19.02789306640625 0 42.5 0 Z" stroke="none" fill="#8b5e6f"/>
                            </g>
                          </g>
                        </g>
                      </g>
                    </g>
                  </g>
                </g>
              </g>
            </g>
          </g>
        </g>
      </g>
    </g>
    <g id="Group_1223579" data-name="Group 1223579" transform="translate(626.139 865.512)">
      <ellipse id="Ellipse_14561" data-name="Ellipse 14561" cx="2" cy="1" rx="2" ry="1" transform="translate(79.861 8.488)" fill="#4c241d"/>
      <ellipse id="Ellipse_14562" data-name="Ellipse 14562" cx="2" cy="1.5" rx="2" ry="1.5" transform="translate(-0.139 53.488)" fill="#4c241d"/>
      <path id="Path_1176073" data-name="Path 1176073" d="M212.827,49.653a4.827,4.827,0,1,1,4.827-4.827A4.832,4.832,0,0,1,212.827,49.653Zm0-6.435a1.609,1.609,0,1,0,1.609,1.609A1.61,1.61,0,0,0,212.827,43.218Z" transform="translate(-143.992 -40)" fill="#4c241d"/>
      <path id="Path_1176074" data-name="Path 1176074" d="M64.639,140.264a1.6,1.6,0,0,1-1.137-.471l-4.827-4.827a1.609,1.609,0,0,1,2.275-2.275l4.827,4.827a1.609,1.609,0,0,1-1.137,2.746Z" transform="translate(-54.447 -95.127)" fill="#4c241d"/>
      <path id="Path_1176075" data-name="Path 1176075" d="M59.812,140.264a1.609,1.609,0,0,1-1.137-2.746l4.827-4.827a1.609,1.609,0,0,1,2.275,2.275l-4.827,4.827A1.6,1.6,0,0,1,59.812,140.264Z" transform="translate(-54.447 -95.127)" fill="#4c241d"/>
    </g>
    <g id="Group_1223580" data-name="Group 1223580" transform="translate(645.098 915.387)">
      <path id="Path_1176077" data-name="Path 1176077" d="M116.95,172.827h.748V168H104.827v4.827h.748A5.574,5.574,0,0,0,100,178.4v21.486a3.509,3.509,0,0,0,3.509,3.509h15.507a3.509,3.509,0,0,0,3.509-3.509V178.4A5.575,5.575,0,0,0,116.95,172.827Z" transform="translate(-98.391 -166.391)" fill="#fff"/>
      <path id="Path_1176078" data-name="Path 1176078" d="M116.625,202.613H101.117A5.123,5.123,0,0,1,96,197.5V176.01a7.2,7.2,0,0,1,4.827-6.787v-3.614A1.608,1.608,0,0,1,102.435,164h12.871a1.608,1.608,0,0,1,1.609,1.609v3.614a7.2,7.2,0,0,1,4.827,6.787V197.5a5.123,5.123,0,0,1-5.117,5.117Zm-13.441-30.569a3.97,3.97,0,0,0-3.965,3.966V197.5a1.9,1.9,0,0,0,1.9,1.9h15.508a1.9,1.9,0,0,0,1.9-1.9V176.01a3.97,3.97,0,0,0-3.965-3.966,1.609,1.609,0,0,1-.861-2.968v-1.859h-9.653v1.859a1.609,1.609,0,0,1-.862,2.968Z" transform="translate(-96 -164)" fill="#4c241d"/>
    </g>
    <g id="Group_1223581" data-name="Group 1223581" transform="translate(674.058 899.298)">
      <path id="Path_1176079" data-name="Path 1176079" d="M176.827,128l-2.964,10.585a2.322,2.322,0,0,0-.078,1.378l1.251,5.006a2.325,2.325,0,0,1-.1,1.425l-2.773,6.932a2.319,2.319,0,0,0-.166.862v1.161h12.871v-1.162a2.322,2.322,0,0,0-.166-.862l-2.773-6.932a2.318,2.318,0,0,1-.1-1.425l1.251-5.006a2.322,2.322,0,0,0-.078-1.378L180.044,128Z" transform="translate(-170.391 -126.391)" fill="#c1dbdc"/>
      <path id="Path_1176080" data-name="Path 1176080" d="M182.48,154.569H169.609A1.608,1.608,0,0,1,168,152.96V151.8a3.876,3.876,0,0,1,.283-1.46l2.772-6.932a.709.709,0,0,0,.028-.439l-1.249-5a3.9,3.9,0,0,1,.134-2.337l2.919-10.45A1.609,1.609,0,0,1,174.436,124h3.218a1.609,1.609,0,0,1,1.549,1.175l2.963,10.585a3.746,3.746,0,0,1,.09,2.2l-1.251,5a.729.729,0,0,0,.03.44l2.773,6.93a3.9,3.9,0,0,1,.281,1.46v1.162a1.61,1.61,0,0,1-1.61,1.609Zm-11.138-3.218h9.405l-2.7-6.75a3.922,3.922,0,0,1-.163-2.411l1.252-5.007a.709.709,0,0,0-.024-.42l-2.677-9.545h-.778l-2.635,9.41a.913.913,0,0,0-.068.554l1.251,5.007a3.908,3.908,0,0,1-.162,2.41Z" transform="translate(-168 -124)" fill="#4c241d"/>
    </g>
    <g id="Group_1223582" data-name="Group 1223582" transform="translate(674.058 926.649)">
      <path id="Path_1176081" data-name="Path 1176081" d="M184.871,196H172v22.367a1.767,1.767,0,0,0,1.767,1.767H183.1a1.767,1.767,0,0,0,1.767-1.767V196Z" transform="translate(-170.391 -194.391)" fill="#9dc1e4"/>
      <path id="Path_1176082" data-name="Path 1176082" d="M180.713,219.351h-9.339A3.38,3.38,0,0,1,168,215.975V193.609A1.608,1.608,0,0,1,169.608,192h12.871a1.608,1.608,0,0,1,1.609,1.609v22.366A3.379,3.379,0,0,1,180.713,219.351Zm-9.5-24.133v20.757a.158.158,0,0,0,.157.158h9.339a.158.158,0,0,0,.157-.158V195.218Z" transform="translate(-167.999 -192)" fill="#4c241d"/>
    </g>
    <g id="Group_1223583" data-name="Group 1223583" transform="translate(646.707 910.56)">
      <path id="Path_1176083" data-name="Path 1176083" d="M104,156h19.306v4.827H104Z" transform="translate(-102.391 -154.391)" fill="#b5a19c"/>
      <path id="Path_1176084" data-name="Path 1176084" d="M120.915,160.044H101.609A1.608,1.608,0,0,1,100,158.436v-4.827A1.608,1.608,0,0,1,101.609,152h19.306a1.608,1.608,0,0,1,1.609,1.609v4.827A1.608,1.608,0,0,1,120.915,160.044Zm-17.7-3.218h16.089v-1.609H103.218Z" transform="translate(-100 -152)" fill="#4c241d"/>
    </g>
    <path id="Path_1176085" data-name="Path 1176085" d="M125.609,197.653A1.608,1.608,0,0,1,124,196.044v-6.436a1.609,1.609,0,0,1,3.218,0v6.436A1.608,1.608,0,0,1,125.609,197.653Z" transform="translate(532.36 737.04)" fill="#4c241d"/>
    <path id="Path_1176086" data-name="Path 1176086" d="M124.044,199.218h-6.436a1.609,1.609,0,0,1,0-3.218h6.436a1.609,1.609,0,1,1,0,3.218Z" transform="translate(537.143 732.258)" fill="#4c241d"/>
    <g id="Group_1223584" data-name="Group 1223584" transform="translate(632.228 942.738)">
      <path id="Path_1176087" data-name="Path 1176087" d="M77.653,244.044H72.022a4.022,4.022,0,1,1,0-8.044h5.631Z" transform="translate(-66.391 -234.391)" fill="#e66353"/>
      <path id="Path_1176088" data-name="Path 1176088" d="M75.262,243.262H69.631a5.631,5.631,0,1,1,0-11.262h5.631a1.608,1.608,0,0,1,1.609,1.609v8.044A1.608,1.608,0,0,1,75.262,243.262Zm-5.631-8.044a2.413,2.413,0,0,0,0,4.827h4.022v-4.827Z" transform="translate(-64 -232)" fill="#4c241d"/>
    </g>
    <g id="Group_1223585" data-name="Group 1223585" transform="translate(641.881 942.738)">
      <path id="Path_1176089" data-name="Path 1176089" d="M92,244.044h5.631a4.022,4.022,0,0,0,0-8.044H92Z" transform="translate(-90.391 -234.391)" fill="#fff"/>
      <path id="Path_1176090" data-name="Path 1176090" d="M95.24,243.262H89.609A1.608,1.608,0,0,1,88,241.653v-8.044A1.608,1.608,0,0,1,89.609,232H95.24a5.631,5.631,0,1,1,0,11.262Zm-4.022-3.218H95.24a2.413,2.413,0,0,0,0-4.827H91.218Z" transform="translate(-88 -232)" fill="#4c241d"/>
    </g>
    <g id="Group_1223586" data-name="Group 1223586" transform="translate(691.756 888.036)">
      <path id="Path_1176091" data-name="Path 1176091" d="M0,0H12.871V38.613H0Z" transform="translate(14.48 40.222) rotate(180)" fill="#fff"/>
      <path id="Path_1176092" data-name="Path 1176092" d="M226.48,137.831H213.609A1.608,1.608,0,0,1,212,136.222V97.609A1.608,1.608,0,0,1,213.609,96H226.48a1.608,1.608,0,0,1,1.609,1.609v38.613A1.608,1.608,0,0,1,226.48,137.831Zm-11.262-3.218h9.653v-35.4h-9.653Z" transform="translate(-212 -96)" fill="#4c241d"/>
    </g>
    <g id="Group_1223587" data-name="Group 1223587" transform="translate(688.538 881.601)">
      <path id="Path_1176093" data-name="Path 1176093" d="M224.915,99.218H205.609a1.609,1.609,0,0,1,0-3.218h19.306a1.609,1.609,0,1,1,0,3.218Z" transform="translate(-204 -89.565)" fill="#4c241d"/>
      <path id="Path_1176094" data-name="Path 1176094" d="M229.609,96.089A1.608,1.608,0,0,1,228,94.48V81.609a1.609,1.609,0,1,1,3.218,0V94.48A1.608,1.608,0,0,1,229.609,96.089Z" transform="translate(-218.347 -80)" fill="#4c241d"/>
      <path id="Path_1176095" data-name="Path 1176095" d="M228.044,83.218h-6.435a1.609,1.609,0,1,1,0-3.218h6.435a1.609,1.609,0,1,1,0,3.218Z" transform="translate(-213.564 -80)" fill="#4c241d"/>
    </g>
    <g id="Group_1223588" data-name="Group 1223588" transform="translate(691.756 894.472)">
      <path id="Path_1176096" data-name="Path 1176096" d="M0,0H12.871V32.177H0Z" transform="translate(14.48 33.786) rotate(180)" fill="#9dc1e4"/>
      <path id="Path_1176097" data-name="Path 1176097" d="M226.48,147.4H213.609A1.608,1.608,0,0,1,212,145.786V113.609A1.608,1.608,0,0,1,213.609,112H226.48a1.608,1.608,0,0,1,1.609,1.609v32.177A1.608,1.608,0,0,1,226.48,147.4Zm-11.262-3.218h9.653v-28.96h-9.653Z" transform="translate(-212 -112)" fill="#4c241d"/>
    </g>
    <g id="Group_1223589" data-name="Group 1223589" transform="translate(694.974 926.649)">
      <path id="Path_1176098" data-name="Path 1176098" d="M0,0H6.436V6.435H0Z" transform="translate(8.044 8.044) rotate(180)" fill="#fff"/>
      <path id="Path_1176099" data-name="Path 1176099" d="M228.044,201.653h-6.435A1.608,1.608,0,0,1,220,200.044v-6.436A1.608,1.608,0,0,1,221.609,192h6.435a1.608,1.608,0,0,1,1.609,1.609v6.436A1.608,1.608,0,0,1,228.044,201.653Zm-4.827-3.218h3.218v-3.218h-3.218Z" transform="translate(-220 -192)" fill="#4c241d"/>
    </g>
    <g id="Group_1223590" data-name="Group 1223590" transform="translate(698.191 900.907)">
      <path id="Path_1176100" data-name="Path 1176100" d="M229.609,227.306A1.608,1.608,0,0,1,228,225.7V209.609a1.609,1.609,0,1,1,3.218,0V225.7A1.608,1.608,0,0,1,229.609,227.306Z" transform="translate(-228 -175.823)" fill="#4c241d"/>
      <path id="Path_1176101" data-name="Path 1176101" d="M238.435,179.218h-4.827a1.609,1.609,0,0,1,0-3.218h4.827a1.609,1.609,0,1,1,0,3.218Z" transform="translate(-230.391 -156.693)" fill="#4c241d"/>
      <path id="Path_1176102" data-name="Path 1176102" d="M238.435,167.218h-4.827a1.609,1.609,0,0,1,0-3.218h4.827a1.609,1.609,0,1,1,0,3.218Z" transform="translate(-230.391 -149.52)" fill="#4c241d"/>
      <path id="Path_1176103" data-name="Path 1176103" d="M238.435,155.218h-4.827a1.609,1.609,0,0,1,0-3.218h4.827a1.609,1.609,0,0,1,0,3.218Z" transform="translate(-230.391 -142.347)" fill="#4c241d"/>
      <path id="Path_1176104" data-name="Path 1176104" d="M238.435,143.218h-4.827a1.609,1.609,0,0,1,0-3.218h4.827a1.609,1.609,0,1,1,0,3.218Z" transform="translate(-230.391 -135.173)" fill="#4c241d"/>
      <path id="Path_1176105" data-name="Path 1176105" d="M238.435,131.218h-4.827a1.609,1.609,0,0,1,0-3.218h4.827a1.609,1.609,0,1,1,0,3.218Z" transform="translate(-230.391 -128)" fill="#4c241d"/>
    </g>
    <g id="Group_1223591" data-name="Group 1223591" transform="translate(659.578 942.738)">
      <path id="Path_1176106" data-name="Path 1176106" d="M145.653,244.044h-5.631a4.022,4.022,0,1,1,0-8.044h5.631Z" transform="translate(-134.391 -234.391)" fill="#e66353"/>
      <path id="Path_1176107" data-name="Path 1176107" d="M143.262,243.262h-5.631a5.631,5.631,0,0,1,0-11.262h5.631a1.608,1.608,0,0,1,1.609,1.609v8.044A1.608,1.608,0,0,1,143.262,243.262Zm-5.631-8.044a2.413,2.413,0,1,0,0,4.827h4.022v-4.827Z" transform="translate(-132 -232)" fill="#4c241d"/>
    </g>
    <g id="Group_1223592" data-name="Group 1223592" transform="translate(669.231 942.738)">
      <path id="Path_1176108" data-name="Path 1176108" d="M160,244.044h5.631a4.022,4.022,0,0,0,0-8.044H160Z" transform="translate(-158.391 -234.391)" fill="#fff"/>
      <path id="Path_1176109" data-name="Path 1176109" d="M163.24,243.262h-5.631A1.608,1.608,0,0,1,156,241.653v-8.044A1.608,1.608,0,0,1,157.609,232h5.631a5.631,5.631,0,1,1,0,11.262Zm-4.022-3.218h4.022a2.413,2.413,0,0,0,0-4.827h-4.022Z" transform="translate(-156 -232)" fill="#4c241d"/>
    </g>
    <g id="Group_1223593" data-name="Group 1223593" transform="translate(640.674 865.512)">
      <path id="Path_1176111" data-name="Path 1176111" d="M106.3,44a17.3,17.3,0,1,0,17.3,17.3A17.315,17.315,0,0,0,106.3,44ZM93.827,61.3a12.451,12.451,0,0,1,19.641-10.183L96.113,68.467A12.385,12.385,0,0,1,93.827,61.3ZM106.3,73.764a12.384,12.384,0,0,1-6.69-1.964L116.8,54.605a12.448,12.448,0,0,1-10.5,19.159Z" transform="translate(-87.391 -42.391)" fill="#e66353"/>
      <path id="Path_1176112" data-name="Path 1176112" d="M103.9,77.809a18.9,18.9,0,1,1,18.9-18.9A18.926,18.926,0,0,1,103.9,77.809Zm0-34.591A15.687,15.687,0,1,0,119.591,58.9,15.7,15.7,0,0,0,103.9,43.218Zm0,29.764a14.014,14.014,0,0,1-7.556-2.217,1.609,1.609,0,0,1-.272-2.494l17.195-17.195a1.609,1.609,0,0,1,2.494.271A14.058,14.058,0,0,1,103.9,72.982Zm-4-3.99a10.744,10.744,0,0,0,4,.772,10.872,10.872,0,0,0,10.86-10.86,10.76,10.76,0,0,0-.771-4Zm-6.185-1.306c-.045,0-.091,0-.137-.006A1.608,1.608,0,0,1,92.408,67a14.06,14.06,0,0,1,19.6-19.6,1.61,1.61,0,0,1,.209,2.452L94.86,67.214A1.611,1.611,0,0,1,93.722,67.686ZM103.9,48.044A10.872,10.872,0,0,0,93.044,58.9a10.731,10.731,0,0,0,1.014,4.561l14.407-14.408A10.73,10.73,0,0,0,103.9,48.044Z" transform="translate(-85 -40)" fill="#4c241d"/>
    </g>
  </g>
</svg>
