<svg xmlns="http://www.w3.org/2000/svg" xmlns:xlink="http://www.w3.org/1999/xlink" width="108.718" height="108" viewBox="0 0 108.718 108">
  <defs>
    <filter id="Path_978624" x="0" y="0" width="108" height="108" filterUnits="userSpaceOnUse">
      <feOffset dy="3" input="SourceAlpha"/>
      <feGaussianBlur stdDeviation="3" result="blur"/>
      <feFlood flood-opacity="0.161"/>
      <feComposite operator="in" in2="blur"/>
      <feComposite in="SourceGraphic"/>
    </filter>
    <filter id="Path_1076716" x="0" y="0" width="108" height="108" filterUnits="userSpaceOnUse">
      <feOffset dy="3" input="SourceAlpha"/>
      <feGaussianBlur stdDeviation="3" result="blur-2"/>
      <feFlood flood-opacity="0.161"/>
      <feComposite operator="in" in2="blur-2"/>
      <feComposite in="SourceGraphic"/>
    </filter>
  </defs>
  <g id="Group_1223681" data-name="Group 1223681" transform="translate(-190 -2358)">
    <g id="Group_1223601" data-name="Group 1223601">
      <g id="Group_1223596" data-name="Group 1223596" transform="translate(3 -807)">
        <g id="Group_1222527" data-name="Group 1222527" transform="translate(196 3171)">
          <g id="Group_1210700" data-name="Group 1210700" transform="translate(0)">
            <g id="Group_1208503" data-name="Group 1208503">
              <g id="Group_1200660" data-name="Group 1200660">
                <g id="Group_1181203" data-name="Group 1181203">
                  <g id="Group_1172348" data-name="Group 1172348">
                    <g id="Group_1171897" data-name="Group 1171897">
                      <g id="Group_1171052" data-name="Group 1171052">
                        <g id="Group_1164581" data-name="Group 1164581">
                          <g id="Group_1144123" data-name="Group 1144123">
                            <g transform="matrix(1, 0, 0, 1, -9, -6)" filter="url(#Path_978624)">
                              <g id="Path_978624-2" data-name="Path 978624" transform="translate(9 6)" fill="#f7fbfc">
                                <path d="M 45 88.5 C 39.12687683105469 88.5 33.43022537231445 87.35007476806641 28.06830024719238 85.08217620849609 C 22.88852500915527 82.89131164550781 18.23629951477051 79.75458526611328 14.2408504486084 75.75914764404297 C 10.24541282653809 71.76370239257812 7.108687400817871 67.11147308349609 4.917825222015381 61.93170166015625 C 2.649924993515015 56.56977462768555 1.5 50.87312316894531 1.5 45 C 1.5 39.12687683105469 2.649924993515015 33.43022537231445 4.917825222015381 28.06830024719238 C 7.108687400817871 22.88852500915527 10.24541282653809 18.23629951477051 14.2408504486084 14.2408504486084 C 18.23629951477051 10.24541282653809 22.88852500915527 7.108687400817871 28.06830024719238 4.917825222015381 C 33.43022537231445 2.649924993515015 39.12687683105469 1.5 45 1.5 C 50.87312316894531 1.5 56.56977462768555 2.649924993515015 61.93170166015625 4.917825222015381 C 67.11147308349609 7.108687400817871 71.76370239257812 10.24541282653809 75.75914764404297 14.2408504486084 C 79.75458526611328 18.23629951477051 82.89131164550781 22.88852500915527 85.08217620849609 28.06830024719238 C 87.35007476806641 33.43022537231445 88.5 39.12687683105469 88.5 45 C 88.5 50.87312316894531 87.35007476806641 56.56977462768555 85.08217620849609 61.93170166015625 C 82.89131164550781 67.11147308349609 79.75458526611328 71.76370239257812 75.75914764404297 75.75914764404297 C 71.76370239257812 79.75458526611328 67.11147308349609 82.89131164550781 61.93170166015625 85.08217620849609 C 56.56977462768555 87.35007476806641 50.87312316894531 88.5 45 88.5 Z" stroke="none"/>
                                <path d="M 45 3 C 39.32871246337891 3 33.82865524291992 4.110054016113281 28.65262985229492 6.299339294433594 C 23.65165710449219 8.414573669433594 19.15968322753906 11.44334411621094 15.301513671875 15.301513671875 C 11.44334411621094 19.15968322753906 8.414573669433594 23.65165710449219 6.299339294433594 28.65262985229492 C 4.110054016113281 33.82865524291992 3 39.32871246337891 3 45 C 3 50.67128753662109 4.110054016113281 56.17134475708008 6.299339294433594 61.34737396240234 C 8.414573669433594 66.34834289550781 11.44334411621094 70.84031677246094 15.301513671875 74.698486328125 C 19.15968322753906 78.55665588378906 23.65165710449219 81.58542633056641 28.65262985229492 83.70066070556641 C 33.82865524291992 85.88994598388672 39.32871246337891 87 45 87 C 50.67128753662109 87 56.17134475708008 85.88994598388672 61.34737396240234 83.70066070556641 C 66.34834289550781 81.58542633056641 70.84031677246094 78.55665588378906 74.698486328125 74.698486328125 C 78.55665588378906 70.84031677246094 81.58542633056641 66.34834289550781 83.70066070556641 61.34737396240234 C 85.88994598388672 56.17134475708008 87 50.67128753662109 87 45 C 87 39.32871246337891 85.88994598388672 33.82865524291992 83.70066070556641 28.65262985229492 C 81.58542633056641 23.65165710449219 78.55665588378906 19.15968322753906 74.698486328125 15.301513671875 C 70.84031677246094 11.44334411621094 66.34834289550781 8.414573669433594 61.34737396240234 6.299339294433594 C 56.17134475708008 4.110054016113281 50.67128753662109 3 45 3 M 45 0 C 69.85281372070312 0 90 20.14718627929688 90 45 C 90 69.85281372070312 69.85281372070312 90 45 90 C 20.14718627929688 90 0 69.85281372070312 0 45 C 0 20.14718627929688 20.14718627929688 0 45 0 Z" stroke="none" fill="#62797e"/>
                              </g>
                            </g>
                            <g transform="matrix(1, 0, 0, 1, -9, -6)" filter="url(#Path_1076716)">
                              <g id="Path_1076716-2" data-name="Path 1076716" transform="translate(9 6)" fill="#f7fbfc">
                                <path d="M 45 88.5 C 39.12687683105469 88.5 33.43022537231445 87.35007476806641 28.06830024719238 85.08217620849609 C 22.88852500915527 82.89131164550781 18.23629951477051 79.75458526611328 14.2408504486084 75.75914764404297 C 10.24541282653809 71.76370239257812 7.108687400817871 67.11147308349609 4.917825222015381 61.93170166015625 C 2.649924993515015 56.56977462768555 1.5 50.87312316894531 1.5 45 C 1.5 39.12687683105469 2.649924993515015 33.43022537231445 4.917825222015381 28.06830024719238 C 7.108687400817871 22.88852500915527 10.24541282653809 18.23629951477051 14.2408504486084 14.2408504486084 C 18.23629951477051 10.24541282653809 22.88852500915527 7.108687400817871 28.06830024719238 4.917825222015381 C 33.43022537231445 2.649924993515015 39.12687683105469 1.5 45 1.5 C 50.87312316894531 1.5 56.56977462768555 2.649924993515015 61.93170166015625 4.917825222015381 C 67.11147308349609 7.108687400817871 71.76370239257812 10.24541282653809 75.75914764404297 14.2408504486084 C 79.75458526611328 18.23629951477051 82.89131164550781 22.88852500915527 85.08217620849609 28.06830024719238 C 87.35007476806641 33.43022537231445 88.5 39.12687683105469 88.5 45 C 88.5 50.87312316894531 87.35007476806641 56.56977462768555 85.08217620849609 61.93170166015625 C 82.89131164550781 67.11147308349609 79.75458526611328 71.76370239257812 75.75914764404297 75.75914764404297 C 71.76370239257812 79.75458526611328 67.11147308349609 82.89131164550781 61.93170166015625 85.08217620849609 C 56.56977462768555 87.35007476806641 50.87312316894531 88.5 45 88.5 Z" stroke="none"/>
                                <path d="M 45 3 C 39.32871246337891 3 33.82865524291992 4.110054016113281 28.65262985229492 6.299339294433594 C 23.65165710449219 8.414573669433594 19.15968322753906 11.44334411621094 15.301513671875 15.301513671875 C 11.44334411621094 19.15968322753906 8.414573669433594 23.65165710449219 6.299339294433594 28.65262985229492 C 4.110054016113281 33.82865524291992 3 39.32871246337891 3 45 C 3 50.67128753662109 4.110054016113281 56.17134475708008 6.299339294433594 61.34737396240234 C 8.414573669433594 66.34834289550781 11.44334411621094 70.84031677246094 15.301513671875 74.698486328125 C 19.15968322753906 78.55665588378906 23.65165710449219 81.58542633056641 28.65262985229492 83.70066070556641 C 33.82865524291992 85.88994598388672 39.32871246337891 87 45 87 C 50.67128753662109 87 56.17134475708008 85.88994598388672 61.34737396240234 83.70066070556641 C 66.34834289550781 81.58542633056641 70.84031677246094 78.55665588378906 74.698486328125 74.698486328125 C 78.55665588378906 70.84031677246094 81.58542633056641 66.34834289550781 83.70066070556641 61.34737396240234 C 85.88994598388672 56.17134475708008 87 50.67128753662109 87 45 C 87 39.32871246337891 85.88994598388672 33.82865524291992 83.70066070556641 28.65262985229492 C 81.58542633056641 23.65165710449219 78.55665588378906 19.15968322753906 74.698486328125 15.301513671875 C 70.84031677246094 11.44334411621094 66.34834289550781 8.414573669433594 61.34737396240234 6.299339294433594 C 56.17134475708008 4.110054016113281 50.67128753662109 3 45 3 M 45 0 C 69.85281372070312 0 90 20.14718627929688 90 45 C 90 69.85281372070312 69.85281372070312 90 45 90 C 20.14718627929688 90 0 69.85281372070312 0 45 C 0 20.14718627929688 20.14718627929688 0 45 0 Z" stroke="none" fill="#62797e"/>
                              </g>
                            </g>
                          </g>
                        </g>
                      </g>
                    </g>
                  </g>
                </g>
              </g>
            </g>
          </g>
        </g>
      </g>
      <g id="consciente-de" transform="translate(207.903 2366.74)">
        <g id="Group_1223600" data-name="Group 1223600" transform="translate(6.656 1.279)">
          <path id="Path_1176126" data-name="Path 1176126" d="M129.542,72.812a3.265,3.265,0,0,1-3.224-2.749l-.371-2.318a2.72,2.72,0,0,0-2.586-2.284c-4.353-.169-13.739-1.786-15.3-12.431,0,0-5.633-4.129-5.981-11.251-.463-9.474,5.1-11.19,5.1-11.19s-2.593-9.414,6.552-11.74c0,0,.765-10.846,12.348-11.336a6.476,6.476,0,0,1,6.73,6.481V69.548A3.265,3.265,0,0,1,129.542,72.812Z" transform="translate(-86.841 -7.507)" fill="#fea3c6"/>
          <path id="Path_1176127" data-name="Path 1176127" d="M228.677,13.988V69.541a3.265,3.265,0,0,1-6.488.516l-.372-2.318a2.7,2.7,0,0,0-.82-1.546V13.988a6.5,6.5,0,0,0-3.378-5.7,15.118,15.118,0,0,1,4.327-.781,6.477,6.477,0,0,1,6.73,6.481Z" transform="translate(-182.711 -7.501)" fill="#fe93bb"/>
          <path id="Path_1176128" data-name="Path 1176128" d="M285.768,72.812a3.265,3.265,0,0,0,3.224-2.749l.371-2.318a2.72,2.72,0,0,1,2.586-2.284c4.353-.169,13.739-1.786,15.3-12.431,0,0,5.633-4.129,5.981-11.251.463-9.474-5.1-11.19-5.1-11.19s2.593-9.414-6.552-11.74c0,0-.765-10.846-12.348-11.336a6.476,6.476,0,0,0-6.73,6.481V69.548A3.265,3.265,0,0,0,285.768,72.812Z" transform="translate(-236.537 -7.507)" fill="#fea3c6"/>
          <path id="Path_1176129" data-name="Path 1176129" d="M308.133,30.586s2.593-9.414-6.552-11.74c0,0-.764-10.846-12.348-11.336a6.39,6.39,0,0,0-3.355.784,12.023,12.023,0,0,1,7.639,8.527,4.127,4.127,0,0,0,2.336,2.693c7.6,3.318,9.972,13.493,9.7,22.262-.431,13.655-16.926,23.513-21.279,23.682a2.726,2.726,0,0,0-1.766.742v3.345a3.265,3.265,0,0,0,6.489.516l.371-2.318a2.72,2.72,0,0,1,2.586-2.284c4.353-.169,13.739-1.786,15.3-12.431,0,0,5.633-4.129,5.981-11.251.463-9.474-5.1-11.19-5.1-11.19Z" transform="translate(-236.537 -7.504)" fill="#fe93bb"/>
          <g id="Group_1223598" data-name="Group 1223598" transform="translate(0 38.606)">
            <path id="Path_1176130" data-name="Path 1176130" d="M93.055,238.372a4.753,4.753,0,0,0-5.431.813l-13.3,12.756-25.918-4.4,4.048-4.776a5.641,5.641,0,0,0-.308-7.484,4.256,4.256,0,0,0-5.654-.326L28,249.616a16.412,16.412,0,0,0-4.371,5.3L13.182,275.052a3.475,3.475,0,0,0,3.084,5.075H38.714a5.107,5.107,0,0,0,4.806-3.381l4.116-11.459,26.937-.2a11.707,11.707,0,0,0,9.381-4.821l10.8-14.855A4.753,4.753,0,0,0,93.055,238.372Z" transform="translate(-12.787 -234.032)" fill="#ffcebf"/>
          </g>
          <g id="Group_1223599" data-name="Group 1223599" transform="translate(20.804 38.605)">
            <path id="Path_1176131" data-name="Path 1176131" d="M146.2,417.435h2.7l-4.116,11.458a5.107,5.107,0,0,1-4.806,3.381h-5.123a5.105,5.105,0,0,0,4.806-3.381l3.3-9.181A3.439,3.439,0,0,1,146.2,417.435Z" transform="translate(-134.859 -386.177)" fill="#ffb09e"/>
            <path id="Path_1176132" data-name="Path 1176132" d="M192.606,235.273a5.643,5.643,0,0,1,.308,7.485l-4.049,4.775-4.932,6.687-1.244-1.455a2.446,2.446,0,0,1-.1-3.056l5.2-6.952a5.643,5.643,0,0,0-.308-7.485,4,4,0,0,0-.448-.389,4.252,4.252,0,0,1,5.571.389Z" transform="translate(-174.05 -234.025)" fill="#ffb09e"/>
            <path id="Path_1176133" data-name="Path 1176133" d="M393.118,264.059l-10.8,14.854a11.7,11.7,0,0,1-9.38,4.821l-.493,0a22.1,22.1,0,0,0,4.751-4.825l10.8-14.854a4.753,4.753,0,0,0-1.282-6.8,4.753,4.753,0,0,1,6.4,6.8Z" transform="translate(-331.95 -252.678)" fill="#ffb09e"/>
          </g>
          <path id="Path_1176134" data-name="Path 1176134" d="M220.137,97.085l-1.762,1.382-1.762-1.382a7.057,7.057,0,0,0-9.809,10.03l8.689,10.585a3.729,3.729,0,0,0,5.764,0l8.689-10.585a7.057,7.057,0,0,0-9.809-10.03Z" transform="translate(-172.409 -80.569)" fill="#f9629f"/>
          <path id="Path_1176135" data-name="Path 1176135" d="M282.823,107.109l-8.69,10.585a3.728,3.728,0,0,1-5.193.561,3.694,3.694,0,0,0,.571-.561l8.69-10.585a7.056,7.056,0,0,0-3.146-11.146,7.058,7.058,0,0,1,7.768,11.146Z" transform="translate(-225.285 -80.565)" fill="#f9438e"/>
        </g>
        <path id="Path_1176136" data-name="Path 1176136" d="M90.645,47.051a6.024,6.024,0,0,0-8.269-4.106,15.807,15.807,0,0,0,2.248-7.332c.383-7.828-3.095-10.9-4.925-11.972a12.01,12.01,0,0,0-1.2-7.7,9.946,9.946,0,0,0-6.486-4.556,1.279,1.279,0,0,0-1.589,1.128,1.306,1.306,0,0,0,1,1.361,7.482,7.482,0,0,1,4.855,3.337c1.7,2.9.8,6.582.741,6.8h0a6.374,6.374,0,0,1-3.188,3.761,1.32,1.32,0,0,0-.772,1.651,1.277,1.277,0,0,0,1.679.74,8.273,8.273,0,0,0,4.148-4.007c1.339.988,3.467,3.492,3.181,9.332A14.183,14.183,0,0,1,78.3,44.166a10.533,10.533,0,0,0-4.832-7.322A1.267,1.267,0,1,0,72.2,39.036l.344.187c.127.065,3.1,1.657,3.538,7.529a15.829,15.829,0,0,1-.493,2.181l-7.814,7.494L53.9,54.07v-5.84A7.462,7.462,0,0,0,59.6,51q.117,0,.235,0a1.31,1.31,0,0,0,1.289-1.175A1.278,1.278,0,0,0,59.8,48.441c-3.747.153-5.561-4.3-5.9-5.216V40.884a4.988,4.988,0,0,0,2.592-1.664l8.6-10.475a8.434,8.434,0,0,0-.291-11.12,8.32,8.32,0,0,0-10.9-1.064V7.868a5.35,5.35,0,0,1,1.576-3.838A5.115,5.115,0,0,1,59.3,2.562c4.267.181,7.419,1.883,9.37,5.058a1.278,1.278,0,0,0,1.886.33,1.307,1.307,0,0,0,.267-1.71C69.146,3.537,65.81.279,59.405.008a7.649,7.649,0,0,0-5.666,2.144,7.874,7.874,0,0,0-1.118,1.341A7.864,7.864,0,0,0,51.5,2.152,7.653,7.653,0,0,0,45.837.008C39.281.286,35.93,3.685,34.274,6.487a15.568,15.568,0,0,0-1.884,5.136,9.649,9.649,0,0,0-5.647,4.316,12.01,12.01,0,0,0-1.2,7.7c-1.83,1.069-5.308,4.145-4.924,11.972a17.126,17.126,0,0,0,6.073,11.879,18.145,18.145,0,0,0,.5,2.125l-6.119,4.851a17.692,17.692,0,0,0-4.712,5.715L13.6,65.51a1.314,1.314,0,0,0,.486,1.752,1.278,1.278,0,0,0,1.758-.527l2.789-5.376a15.038,15.038,0,0,1,4.031-4.889L41.155,41.809a2.978,2.978,0,0,1,3.956.228,4.385,4.385,0,0,1,.237,5.754l-9.034,11.53a1.278,1.278,0,1,0,2.057,1.518l4.465-6.053,25.142,4.27a1.278,1.278,0,0,0,1.1-.338l13.3-12.756a3.475,3.475,0,0,1,5.215,4.552l-10.8,14.855a10.47,10.47,0,0,1-8.357,4.295l-26.938.2a1.278,1.278,0,0,0-1.193.846L36.185,82.169a3.838,3.838,0,0,1-3.6,2.534H10.188a2.248,2.248,0,0,1-1.911-1.026A2.154,2.154,0,0,1,8.186,81.5l4.888-9.422a1.306,1.306,0,0,0-.383-1.675,1.279,1.279,0,0,0-1.866.46L5.962,80.23a4.852,4.852,0,0,0,.054,4.649,4.72,4.72,0,0,0,4.119,2.381H32.583a6.4,6.4,0,0,0,6.009-4.227l3.814-10.619,26.046-.194a13.036,13.036,0,0,0,10.405-5.347l10.8-14.855a6.024,6.024,0,0,0,.985-4.967ZM62.879,19.315a5.773,5.773,0,0,1,.327,7.7L54.516,37.6a2.451,2.451,0,0,1-3.789,0L42.038,27.013A5.778,5.778,0,0,1,50.071,18.8l1.762,1.382a1.291,1.291,0,0,0,1.578,0L55.173,18.8a5.768,5.768,0,0,1,7.706.515ZM39.567,39.805,29.381,47.881c-.084-.369-.157-.746-.217-1.135.437-5.868,3.41-7.459,3.538-7.524l.352-.191a1.267,1.267,0,1,0-1.268-2.192,10.531,10.531,0,0,0-4.841,7.326,14.181,14.181,0,0,1-3.772-8.677c-.286-5.843,1.845-8.346,3.179-9.331A8.273,8.273,0,0,0,30.5,30.164a1.277,1.277,0,0,0,1.679-.74,1.317,1.317,0,0,0-.767-1.649,6.326,6.326,0,0,1-3.181-3.723c0-.009,0-.017-.006-.026-.01-.038-1.006-3.838.736-6.817a7.5,7.5,0,0,1,4.9-3.348,1.278,1.278,0,0,0,.96-1.149,12.573,12.573,0,0,1,1.656-4.924C38.416,4.5,41.6,2.746,45.945,2.562a5.119,5.119,0,0,1,3.83,1.475,5.349,5.349,0,0,1,1.568,3.831V16.56A8.335,8.335,0,0,0,40.062,28.635L48.751,39.22a4.988,4.988,0,0,0,2.591,1.664v2.344a9.939,9.939,0,0,1-2.894,4.224,6.951,6.951,0,0,0-1.53-7.223,5.533,5.533,0,0,0-7.351-.423Zm6.419,11.186a7.516,7.516,0,0,0,5.357-2.759v5.4L44.7,52.508Z" transform="translate(0 0)"/>
      </g>
    </g>
  </g>
</svg>
