<svg xmlns="http://www.w3.org/2000/svg" xmlns:xlink="http://www.w3.org/1999/xlink" width="103" height="103" viewBox="0 0 103 103">
  <defs>
    <filter id="Path_978624" x="0" y="0" width="103" height="103" filterUnits="userSpaceOnUse">
      <feOffset dy="3" input="SourceAlpha"/>
      <feGaussianBlur stdDeviation="3" result="blur"/>
      <feFlood flood-opacity="0.161"/>
      <feComposite operator="in" in2="blur"/>
      <feComposite in="SourceGraphic"/>
    </filter>
  </defs>
  <g id="Group_1223665" data-name="Group 1223665" transform="translate(-164.789 -9687.5)">
    <g id="Group_1222930" data-name="Group 1222930" transform="translate(0 4)">
      <g id="Group_1222523" data-name="Group 1222523" transform="translate(0 4762)">
        <g id="Group_1221007" data-name="Group 1221007" transform="translate(0 2394)">
          <g id="Group_1208651" data-name="Group 1208651" transform="translate(-0.711 1469.5)">
            <g id="Group_1178144" data-name="Group 1178144" transform="translate(-19.5 -2004)">
              <g id="Group_1177896" data-name="Group 1177896" transform="translate(14 196)">
                <g id="Group_1176881" data-name="Group 1176881">
                  <g id="Group_1175148" data-name="Group 1175148" transform="translate(0 1580)">
                    <g id="Group_1173798" data-name="Group 1173798" transform="translate(-3 -3520)">
                      <g id="Group_1171925" data-name="Group 1171925" transform="translate(-22 -2246)">
                        <g id="Group_1164524" data-name="Group 1164524" transform="translate(205 7058)">
                          <g id="Group_1144123" data-name="Group 1144123">
                            <g transform="matrix(1, 0, 0, 1, -9, -6)" filter="url(#Path_978624)">
                              <g id="Path_978624-2" data-name="Path 978624" transform="translate(9 6)" fill="#fff6f9">
                                <path d="M 42.5 83.5 C 36.96437835693359 83.5 31.59512901306152 82.41617584228516 26.54141235351562 80.27863311767578 C 21.65934181213379 78.21369171142578 17.27447128295898 75.25723266601562 13.50862312316895 71.49137878417969 C 9.742764472961426 67.72553253173828 6.786305904388428 63.34066009521484 4.721364498138428 58.45858764648438 C 2.583823442459106 53.40486907958984 1.5 48.03562164306641 1.5 42.5 C 1.5 36.96437835693359 2.583823442459106 31.59512901306152 4.721364498138428 26.54141235351562 C 6.786305904388428 21.65934181213379 9.742764472961426 17.27447128295898 13.50862312316895 13.50862312316895 C 17.27447128295898 9.742764472961426 21.65934181213379 6.786305904388428 26.54141235351562 4.721364498138428 C 31.59512901306152 2.583823442459106 36.96437835693359 1.5 42.5 1.5 C 48.03562164306641 1.5 53.40486907958984 2.583823442459106 58.45858764648438 4.721364498138428 C 63.34066009521484 6.786305904388428 67.72553253173828 9.742764472961426 71.49137878417969 13.50862312316895 C 75.25723266601562 17.27447128295898 78.21369171142578 21.65934181213379 80.27863311767578 26.54141235351562 C 82.41617584228516 31.59512901306152 83.5 36.96437835693359 83.5 42.5 C 83.5 48.03562164306641 82.41617584228516 53.40486907958984 80.27863311767578 58.45858764648438 C 78.21369171142578 63.34066009521484 75.25723266601562 67.72553253173828 71.49137878417969 71.49137878417969 C 67.72553253173828 75.25723266601562 63.34066009521484 78.21369171142578 58.45858764648438 80.27863311767578 C 53.40486907958984 82.41617584228516 48.03562164306641 83.5 42.5 83.5 Z" stroke="none"/>
                                <path d="M 42.5 3 C 37.16621398925781 3 31.99356079101562 4.043960571289062 27.125732421875 6.102882385253906 C 22.42246627807617 8.092185974121094 18.19785308837891 10.94070434570312 14.56928253173828 14.56928253173828 C 10.94070434570312 18.19785308837891 8.092185974121094 22.42246627807617 6.102882385253906 27.125732421875 C 4.043960571289062 31.99356079101562 3 37.16621398925781 3 42.5 C 3 47.83378601074219 4.043960571289062 53.00643920898438 6.102882385253906 57.87425231933594 C 8.092185974121094 62.57753372192383 10.94070434570312 66.80213165283203 14.56928253173828 70.43071746826172 C 18.19786834716797 74.05929565429688 22.42246627807617 76.90781402587891 27.125732421875 78.89711761474609 C 31.99356079101562 80.95603942871094 37.16621398925781 82 42.5 82 C 47.83378601074219 82 53.00642395019531 80.95603942871094 57.87425231933594 78.89711761474609 C 62.57753372192383 76.90781402587891 66.80213165283203 74.05929565429688 70.43071746826172 70.43071746826172 C 74.05929565429688 66.80213165283203 76.90781402587891 62.57753372192383 78.89711761474609 57.87425231933594 C 80.95603942871094 53.00642395019531 82 47.83378601074219 82 42.5 C 82 37.16621398925781 80.95603942871094 31.99356079101562 78.89711761474609 27.125732421875 C 76.90781402587891 22.42246627807617 74.05929565429688 18.19786834716797 70.43071746826172 14.56928253173828 C 66.80213165283203 10.94070434570312 62.57753372192383 8.092185974121094 57.87425231933594 6.102882385253906 C 53.00643920898438 4.043960571289062 47.83378601074219 3 42.5 3 M 42.5 0 C 65.97209167480469 0 85 19.02789306640625 85 42.5 C 85 65.97209167480469 65.97209167480469 85 42.5 85 C 19.02789306640625 85 0 65.97209167480469 0 42.5 C 0 19.02789306640625 19.02789306640625 0 42.5 0 Z" stroke="none" fill="#ffadcc"/>
                              </g>
                            </g>
                          </g>
                        </g>
                      </g>
                    </g>
                  </g>
                </g>
              </g>
            </g>
          </g>
        </g>
      </g>
      <g id="empleado-del-mes_1_" data-name="empleado-del-mes (1)" transform="translate(184.891 9700.537)">
        <g id="Group_1222928" data-name="Group 1222928" transform="translate(1.146 1.093)">
          <g id="Group_1222925" data-name="Group 1222925">
            <circle id="Ellipse_14551" data-name="Ellipse 14551" cx="29.753" cy="29.753" r="29.753" fill="#98db7c"/>
          </g>
          <path id="Path_1174475" data-name="Path 1174475" d="M59.186,236.582A29.751,29.751,0,0,1,8.422,216.773a29.751,29.751,0,1,0,59.451,0A29.645,29.645,0,0,1,59.186,236.582Z" transform="translate(-8.395 -188.25)" fill="#82d361"/>
          <path id="Path_1174476" data-name="Path 1174476" d="M125.093,214.707V210.6a3.477,3.477,0,0,0-.354-.018,3.421,3.421,0,1,0,.7,6.77A10.271,10.271,0,0,1,125.093,214.707Z" transform="translate(-105.89 -182.901)" fill="#f4b184"/>
          <path id="Path_1174477" data-name="Path 1174477" d="M297.31,210.577a3.442,3.442,0,0,0-.354.018v4.112a10.271,10.271,0,0,1-.344,2.64,3.421,3.421,0,1,0,.7-6.77Z" transform="translate(-257.235 -182.901)" fill="#f4b184"/>
          <path id="Path_1174478" data-name="Path 1174478" d="M124.74,228.806a3.421,3.421,0,0,1-3.192-2.191,3.422,3.422,0,0,0,3.89,4.579,10.271,10.271,0,0,1-.34-2.406,3.467,3.467,0,0,1-.358.019Z" transform="translate(-105.89 -196.747)" fill="#eaa678"/>
          <path id="Path_1174479" data-name="Path 1174479" d="M297.311,228.806a3.468,3.468,0,0,1-.358-.019,10.272,10.272,0,0,1-.34,2.406,3.421,3.421,0,0,0,3.89-4.579A3.421,3.421,0,0,1,297.311,228.806Z" transform="translate(-257.236 -196.747)" fill="#eaa678"/>
          <path id="Path_1174480" data-name="Path 1174480" d="M148.946,133.615v14.644a10.259,10.259,0,1,0,20.518,0V133.615Z" transform="translate(-129.742 -116.453)" fill="#ffc89f"/>
          <path id="Path_1174481" data-name="Path 1174481" d="M159.205,233.065a10.259,10.259,0,0,1-10.259-10.259v2.459a10.259,10.259,0,1,0,20.518,0v-2.459A10.259,10.259,0,0,1,159.205,233.065Z" transform="translate(-129.742 -193.459)" fill="#f7bc94"/>
          <path id="Path_1174482" data-name="Path 1174482" d="M124.232,315.9h-7.5A12.64,12.64,0,0,0,104.1,328.228a29.785,29.785,0,0,0,32.777.381v-.071A12.64,12.64,0,0,0,124.232,315.9Z" transform="translate(-91.019 -273.832)" fill="#8bcaff"/>
          <path id="Path_1174483" data-name="Path 1174483" d="M104.358,389.455a12.66,12.66,0,0,0-.263,2.281,29.785,29.785,0,0,0,32.777.381v-.071a12.713,12.713,0,0,0-.2-2.259,29.789,29.789,0,0,1-32.313-.332Z" transform="translate(-91.019 -337.34)" fill="#60b8ff"/>
          <path id="Path_1174484" data-name="Path 1174484" d="M135.11,95.9c-2.033-1.135-3.918-4.435-3.918-4.435a8.455,8.455,0,0,1-6.219,4.034,4.806,4.806,0,0,0-1.065-3.586,12.263,12.263,0,0,1-9.041,4.139,1.977,1.977,0,0,1-.517-.082c-2.685-.8-5.194-4-5.194-4,3.887.117,5.181-2.337,5.181-2.337-3.972.117-4.244-3.873-4.244-3.873,5.99.76,7.188-2.688,12.47-4.208a9.5,9.5,0,0,1,9.022,2.4s5.353-.5,5.813,4.811c.439,5.079-2.289,7.136-2.289,7.136" transform="translate(-95.389 -71.195)" fill="#7b7179"/>
          <g id="Group_1222926" data-name="Group 1222926" transform="translate(13.768 17.391)">
            <path id="Path_1174485" data-name="Path 1174485" d="M124.05,148.416a.683.683,0,0,0-1.136-.58,12.254,12.254,0,0,1-8.046,3.136,1.976,1.976,0,0,1-.517-.082,8.878,8.878,0,0,1-3.018-1.78,7.45,7.45,0,0,1-2.176.236s2.509,3.2,5.194,4a1.976,1.976,0,0,0,.517.082,12.264,12.264,0,0,0,9.041-4.139A8.571,8.571,0,0,0,124.05,148.416Z" transform="translate(-109.157 -145.969)" fill="#726a71"/>
            <path id="Path_1174486" data-name="Path 1174486" d="M230.6,135.29a7.759,7.759,0,0,1-1.852,4.45.678.678,0,0,1-.894.1,13.4,13.4,0,0,1-2.9-3.261.683.683,0,0,0-1.094-.053c-2.254,2.71-6.734,2.092-6.734,2.092a4.806,4.806,0,0,1,1.065,3.586,8.455,8.455,0,0,0,6.219-4.034s1.885,3.3,3.918,4.435c0,0,2.79-2.1,2.273-7.31h0Z" transform="translate(-202.378 -135.29)" fill="#726a71"/>
          </g>
          <path id="Path_1174487" data-name="Path 1174487" d="M205.449,320.344h-4.6l-1-4.447h6.61Z" transform="translate(-173.685 -273.832)" fill="#c61926"/>
          <path id="Path_1174488" data-name="Path 1174488" d="M191.89,361.068a29.923,29.923,0,0,0,8.8.085l-2.1-12.707h-4.6Z" transform="translate(-166.819 -301.934)" fill="#ff4755"/>
          <path id="Path_1174489" data-name="Path 1174489" d="M192.286,423.287l-.4,2.4a29.923,29.923,0,0,0,8.8.085l-.4-2.407A29.919,29.919,0,0,1,192.286,423.287Z" transform="translate(-166.818 -366.55)" fill="#fc2b3a"/>
          <circle id="Ellipse_14552" data-name="Ellipse 14552" cx="12.333" cy="12.333" r="12.333" transform="translate(37.876 55.432) rotate(-45)" fill="#ff4755"/>
          <path id="Path_1174490" data-name="Path 1174490" d="M335.41,415.834a12.334,12.334,0,0,1-12.272-11.1q-.06.607-.061,1.23a12.333,12.333,0,0,0,24.665,0q0-.623-.061-1.23a12.334,12.334,0,0,1-12.272,11.1Z" transform="translate(-280.083 -350.529)" fill="#fc2b3a"/>
          <path id="Path_1174491" data-name="Path 1174491" d="M374.065,364.817l1.067,2.162a1.168,1.168,0,0,0,.879.639l2.386.347a1.168,1.168,0,0,1,.647,1.992l-1.727,1.683a1.168,1.168,0,0,0-.336,1.034l.408,2.376a1.168,1.168,0,0,1-1.695,1.231l-2.134-1.122a1.168,1.168,0,0,0-1.087,0l-2.134,1.122a1.168,1.168,0,0,1-1.695-1.231l.408-2.376a1.168,1.168,0,0,0-.336-1.034l-1.727-1.683a1.168,1.168,0,0,1,.647-1.992l2.386-.347a1.168,1.168,0,0,0,.879-.639l1.067-2.162A1.168,1.168,0,0,1,374.065,364.817Z" transform="translate(-317.691 -315.505)" fill="#fff5f5"/>
          <g id="Group_1222927" data-name="Group 1222927" transform="translate(50.936 57.061)">
            <path id="Path_1174492" data-name="Path 1174492" d="M389.911,427.768l-3.765-1.98a1.168,1.168,0,0,0-1.087,0l-3.765,1.98-.064.37a1.168,1.168,0,0,0,1.695,1.231l2.134-1.122a1.168,1.168,0,0,1,1.087,0l2.134,1.122a1.168,1.168,0,0,0,1.695-1.231Z" transform="translate(-381.212 -425.654)" fill="#efe2dd"/>
          </g>
        </g>
        <g id="Group_1222929" data-name="Group 1222929" transform="translate(0 0)">
          <path id="Path_1174493" data-name="Path 1174493" d="M59.083,43.425A30.851,30.851,0,0,0,30.882,0,30.708,30.708,0,0,0,9.042,9.032a31.246,31.246,0,0,0-2.955,3.411,1.028,1.028,0,0,0,1.649,1.227,28.874,28.874,0,0,1,43.53-3.185,28.761,28.761,0,0,1,5.661,32.705c-.127,0-.254-.006-.382-.006A13.4,13.4,0,0,0,45.9,48.45a13.824,13.824,0,0,0-9.129-6.085,11.363,11.363,0,0,0,4.507-5.726,4.453,4.453,0,0,0,.64-8.857V26.223c.849-.864,2.674-3.269,2.292-7.685a6.034,6.034,0,0,0-2.069-4.3,7.069,7.069,0,0,0-4.392-1.466A10.413,10.413,0,0,0,28.01,10.41a19.654,19.654,0,0,0-5.031,2.36c-2.075,1.257-3.714,2.25-7.07,1.824a1.028,1.028,0,0,0-1.155,1.088,5.231,5.231,0,0,0,3.1,4.484,5.652,5.652,0,0,1-2.983.643,1.027,1.027,0,0,0-.84,1.659,14.925,14.925,0,0,0,5.236,4.192v1.122a4.453,4.453,0,0,0,.64,8.857,11.363,11.363,0,0,0,4.5,5.725,13.68,13.68,0,0,0-6.807,3.343,1.027,1.027,0,1,0,1.383,1.519,11.632,11.632,0,0,1,7.464-3.015l.78,3.45L25.337,59.1A28.816,28.816,0,0,1,15.2,55a11.633,11.633,0,0,1,1.436-4.814,1.028,1.028,0,0,0-1.8-1,13.669,13.669,0,0,0-1.549,4.464,29,29,0,0,1-2.8-2.455A28.507,28.507,0,0,1,2.315,34.725,28.96,28.96,0,0,1,5.59,17.005a1.028,1.028,0,0,0-1.8-.987A31.026,31.026,0,0,0,.277,35,30.869,30.869,0,0,0,26.133,61.31a31.384,31.384,0,0,0,4.794.37,30.7,30.7,0,0,0,12.446-2.634,13.416,13.416,0,0,0,20.11,8.976,1.027,1.027,0,1,0-1.066-1.756,11.337,11.337,0,1,1,2.86-2.46,1.028,1.028,0,0,0,1.582,1.312,13.377,13.377,0,0,0-7.776-21.692ZM43.646,32.185a2.4,2.4,0,0,1-1.85,2.334,11.32,11.32,0,0,0,.118-1.623V29.881A2.4,2.4,0,0,1,43.646,32.185Zm-26.11,0a2.4,2.4,0,0,1,1.731-2.3V32.9a11.323,11.323,0,0,0,.118,1.623,2.4,2.4,0,0,1-1.85-2.334ZM20.6,24.9a.958.958,0,0,1-.25-.04A9.1,9.1,0,0,1,17,22.663a5.962,5.962,0,0,0,3.945-2.692,1.027,1.027,0,0,0-.94-1.5,2.818,2.818,0,0,1-2.886-1.722,11.564,11.564,0,0,0,6.924-2.219,17.688,17.688,0,0,1,4.533-2.142,8.43,8.43,0,0,1,8.026,2.13,1.038,1.038,0,0,0,.836.314,5.758,5.758,0,0,1,2.338.371,3.76,3.76,0,0,1,2.378,3.515,8.627,8.627,0,0,1-.807,4.8,5.771,5.771,0,0,1-.6.924,15.14,15.14,0,0,1-2.906-3.617,1.028,1.028,0,0,0-.893-.518H36.94a1.029,1.029,0,0,0-.893.54A7.031,7.031,0,0,1,31.763,24.1a6.522,6.522,0,0,0-1.331-2.982,1.029,1.029,0,0,0-.774-.367,1.007,1.007,0,0,0-.784.346A11.26,11.26,0,0,1,20.6,24.9Zm.728,7.993V26.932a13.565,13.565,0,0,0,8.128-3.491,2.863,2.863,0,0,1,.254,1.72,1.027,1.027,0,0,0,1.1,1.235A9.829,9.829,0,0,0,36.93,23.19a13.508,13.508,0,0,0,2.928,3.148V32.9a9.267,9.267,0,0,1-18.534,0ZM32.621,44.2l-.543,2.4H29.1l-.543-2.4ZM30.886,59.634a28.862,28.862,0,0,1-3.518-.216l1.785-10.762h2.875l1.8,10.825A28.809,28.809,0,0,1,30.886,59.634Zm12.255-3.067q0,.163,0,.326A28.851,28.851,0,0,1,35.861,59.2L33.947,47.66l.781-3.452a11.728,11.728,0,0,1,9.928,6.184A13.284,13.284,0,0,0,43.142,56.567Z" transform="translate(0 0)"/>
          <path id="Path_1174494" data-name="Path 1174494" d="M373.683,364.428a2.2,2.2,0,0,0-1.219-3.747l-2.395-.347a.144.144,0,0,1-.108-.079l-1.071-2.166a2.2,2.2,0,0,0-3.946,0l-1.071,2.166a.144.144,0,0,1-.108.079l-2.394.347a2.2,2.2,0,0,0-1.219,3.747l1.733,1.686a.143.143,0,0,1,.041.127l-.409,2.381a2.2,2.2,0,0,0,2.167,2.571,2.2,2.2,0,0,0,1.026-.255l2.142-1.124a.143.143,0,0,1,.134,0l2.142,1.124a2.2,2.2,0,0,0,3.193-2.316l-.409-2.381a.143.143,0,0,1,.041-.127Zm-3.168.216a2.194,2.194,0,0,0-.633,1.945l.409,2.381a.144.144,0,0,1-.209.151L367.94,368a2.2,2.2,0,0,0-2.048,0l-2.142,1.124a.144.144,0,0,1-.209-.151l.409-2.381a2.195,2.195,0,0,0-.633-1.945l-1.733-1.686a.144.144,0,0,1,.08-.245l2.394-.347a2.2,2.2,0,0,0,1.657-1.2L366.787,359a.144.144,0,0,1,.258,0l1.071,2.166a2.2,2.2,0,0,0,1.657,1.2l2.395.347a.144.144,0,0,1,.08.245Z" transform="translate(-310.371 -308.109)"/>
          <path id="Path_1174495" data-name="Path 1174495" d="M199.911,250.337a4.217,4.217,0,0,0,3.955-2.133,1.029,1.029,0,1,0-1.837-.921c-.476.988-2.051,1-2.118,1s-1.644-.012-2.118-1a1.029,1.029,0,1,0-1.836.923,4.216,4.216,0,0,0,3.954,2.132Z" transform="translate(-169.069 -212.97)"/>
          <path id="Path_1174496" data-name="Path 1174496" d="M180.9,202.973A1.027,1.027,0,0,0,179.868,204v2.3a1.028,1.028,0,0,0,2.057,0V204A1.027,1.027,0,0,0,180.9,202.973Z" transform="translate(-155.294 -175.242)"/>
          <path id="Path_1174497" data-name="Path 1174497" d="M253.926,207.33a1.027,1.027,0,0,0,1.028-1.027V204a1.028,1.028,0,0,0-2.056,0v2.3A1.027,1.027,0,0,0,253.926,207.33Z" transform="translate(-218.347 -175.242)"/>
        </g>
      </g>
    </g>
  </g>
</svg>
